<?xml version="1.0" encoding="utf-8"?>
<!-- Generator: Adobe Illustrator 25.2.3, SVG Export Plug-In . SVG Version: 6.00 Build 0)  -->
<svg version="1.1" id="레이어_1" xmlns="http://www.w3.org/2000/svg" xmlns:xlink="http://www.w3.org/1999/xlink" x="0px"
	 y="0px" viewBox="0 0 220 160" style="enable-background:new 0 0 220 160;" xml:space="preserve">
<style type="text/css">
	.st0{fill:#276FFF;stroke:#276FFF;stroke-width:2;stroke-miterlimit:10;}
	.st1{fill:#276FFF;stroke:#276FFF;stroke-width:3;stroke-miterlimit:10;}
	.st2{fill:#1371E2;}
</style>
<path class="st0" d="M67.6,51.1l1.1-6.2h15.2l1.1-6.3h7.8l-1.1,6.3h15.2l-1.1,6.2H67.6z M100.1,64.8c-0.3,1.5-0.9,3-1.8,4.3
	c-1,1.4-2.2,2.6-3.7,3.7s-3.3,1.9-5.4,2.5s-4.4,0.9-6.9,0.9c-2.6,0-4.8-0.3-6.6-0.9c-1.9-0.6-3.4-1.4-4.5-2.5
	c-1.1-1-1.9-2.3-2.4-3.7c-0.5-1.4-0.6-2.9-0.3-4.4c0.3-1.6,0.9-3.1,1.9-4.5s2.2-2.6,3.7-3.6s3.3-1.8,5.4-2.4
	c2.1-0.6,4.4-0.9,6.9-0.9s4.7,0.3,6.6,0.9c1.9,0.6,3.4,1.4,4.5,2.5c1.1,1,1.9,2.3,2.4,3.7C100.3,61.9,100.4,63.3,100.1,64.8z
	 M110.9,101.3h-40l3.8-21.4h40L110.9,101.3z M76.3,64.8c-0.3,1.5,0.2,2.7,1.3,3.8c1.1,1.1,3,1.6,5.8,1.6c2.7,0,4.9-0.5,6.3-1.6
	c1.5-1.1,2.4-2.4,2.6-3.9c0.3-1.5-0.2-2.8-1.3-3.8c-1.1-1-3-1.6-5.8-1.6c-2.7,0-4.8,0.5-6.3,1.5C77.5,62,76.6,63.3,76.3,64.8z
	 M105.8,86.5H81.3l-1.5,8.3h24.4L105.8,86.5z M114.1,39.1h7.8L115.2,77h-7.8L114.1,39.1z"/>
<path class="st1" d="M119.4,88l3.7-21.2h2.8l-3.3,18.8h1.8c2.1,0,4-0.2,5.7-0.5c1.7-0.3,3.2-0.6,4.3-0.9l-0.4,2.5
	c-0.6,0.2-1.4,0.4-2.2,0.5c-0.8,0.2-1.7,0.3-2.6,0.4c-0.9,0.1-1.9,0.2-2.8,0.3c-0.9,0.1-1.9,0.1-2.7,0.1C123.7,88,119.4,88,119.4,88
	z M150.3,64.3l-5.9,33.3h-2.8l3.2-18.3h-5.3l-3.1,17.5h-2.7l5.7-32.1h2.7L140,76.8h5.3l2.2-12.5H150.3z"/>
<path class="st1" d="M156.4,79l-1.4,8.2h4c2.6,0,5-0.2,7.2-0.5s4-0.6,5.5-0.9l-0.4,2.4c-0.8,0.2-1.7,0.4-2.7,0.5
	c-1,0.2-2.1,0.3-3.3,0.5c-1.2,0.1-2.3,0.2-3.6,0.3c-1.2,0.1-2.4,0.1-3.5,0.1h-6.4l2.3-13h11.6l1.3-7.2h-11.7l0.4-2.4h14.6l-2.1,12
	H156.4z M184,77.3l-0.4,2.4h-5.8l-3.1,17.8h-2.8l5.9-33.3h2.8l-2.3,13h5.7V77.3z"/>
<path d="M125.4,122.5c4.2-1.2,7.6-2.8,10.4-5s4.7-4.8,5.9-8.1c-1.5,0-2.9,0.1-4.4,0.1s-2.9,0-4.4,0h-3.2l0.4-2.5h10.2
	c0.8,0,1.7,0,2.5,0c0.9,0,1.7,0,2.7-0.1c-0.5,2.1-1.3,4-2.4,5.8c-1.1,1.8-2.4,3.5-4,5s-3.4,2.9-5.5,4c-2.1,1.2-4.4,2.1-6.9,2.9
	L125.4,122.5z M138.5,139.3c-1.8,0-3.3-0.2-4.6-0.5s-2.4-0.8-3.2-1.4c-0.8-0.6-1.4-1.3-1.7-2.1s-0.4-1.7-0.2-2.7s0.6-1.8,1.2-2.7
	c0.6-0.8,1.4-1.5,2.5-2.1c1-0.6,2.2-1,3.7-1.4c1.4-0.3,3-0.5,4.8-0.5s3.3,0.2,4.7,0.5c1.3,0.3,2.4,0.8,3.2,1.4s1.4,1.3,1.7,2.1
	s0.4,1.7,0.2,2.7s-0.6,1.8-1.2,2.6c-0.6,0.8-1.4,1.5-2.5,2.1c-1,0.6-2.3,1.1-3.7,1.4C142,139.1,140.4,139.3,138.5,139.3z M139,136.9
	c1.4,0,2.6-0.1,3.7-0.3c1.1-0.2,2-0.5,2.7-0.9s1.3-0.8,1.8-1.3c0.4-0.5,0.7-1,0.8-1.6s0-1.1-0.2-1.6c-0.3-0.5-0.7-1-1.3-1.3
	c-0.6-0.4-1.4-0.7-2.4-0.9s-2.2-0.3-3.5-0.3s-2.5,0.1-3.6,0.3s-2,0.5-2.7,0.9s-1.3,0.8-1.8,1.3c-0.4,0.5-0.7,1.1-0.8,1.6
	c-0.1,0.6,0,1.1,0.2,1.6c0.3,0.5,0.7,1,1.3,1.3c0.6,0.4,1.4,0.7,2.4,0.9C136.5,136.7,137.6,136.9,139,136.9z M145.8,111h5.7l1-5.4
	h2.9l-3.6,20.2h-2.9l1-5.5h-6.6l0.4-2.5h6.6l0.8-4.3h-5.7L145.8,111z"/>
<path d="M155.7,121.9l2.7-15.3h2.9l-2.3,12.8h4.9c2.5,0,4.8-0.2,7-0.5c2.1-0.3,3.9-0.7,5.4-1l-0.4,2.5c-0.8,0.2-1.7,0.4-2.7,0.6
	s-2.1,0.3-3.2,0.5c-1.1,0.1-2.3,0.2-3.5,0.3c-1.2,0.1-2.3,0.1-3.4,0.1H155.7z M179.6,126.2l-2.2,12.3H157l2.2-12.3H179.6z M175,136
	l1.3-7.4h-14.7l-1.3,7.4H175z M187.2,113.6l-0.4,2.5h-5.4l-1.4,8.1h-2.9l3.3-18.7h2.9l-1.4,8.1H187.2z"/>
<path class="st2" d="M189.2,73.9c-0.4-1.3,6.5-3.4,9-11.6c2-6.4,0.1-12.5,0.9-12.7c0.9-0.3,4.1,6.2,3.3,12.5
	c-0.7,5.9-4.6,8.7-6.1,9.8C193.2,74.2,189.5,74.8,189.2,73.9z"/>
<path class="st2" d="M191.8,79.8c0.1-1.6,9.4,0.5,16.4-6.7c5.4-5.7,5.9-13.6,7-13.2c1.2,0.4,2,9.5-1.9,15.6c-3.7,5.9-9.8,6.4-12,6.7
	C196.7,82.7,191.8,81,191.8,79.8z"/>
<path class="st2" d="M191.5,84.2c0.8-0.9,4.8,6.4,12.3,6.8c5.8,0.3,10.1-3.9,10.6-3c0.4,1-3.7,6.7-9,7.8c-5,1-8.6-2.6-9.9-3.9
	C192.6,89,190.9,85,191.5,84.2z"/>
<polygon points="191.3,103.8 197.1,105.2 192.1,129.3 188.5,128.4 "/>
<g>
	<path class="st2" d="M61.4,68.5c-9.7-4.3-21.5-11.8-30-25.5C20,24.9,20.4,5.4,17.4,5.9c-2.8,0.4-7.3,18-2.1,33.3
		C22.8,61.2,45.6,67,48,67.4C53.5,68.7,58.1,68.8,61.4,68.5z"/>
	<path class="st2" d="M62.7,70.9c-7.5,3.7-17.9,7.1-30.3,5.4C15.9,74.2,4.5,64.2,3.2,66.2c-1.2,1.9,7,13.4,18.7,17.9
		c16.9,6.4,31.8-4.5,33.2-5.7C58.7,75.8,61.1,73,62.7,70.9z"/>
	<path class="st2" d="M63.7,72.8c-3,7.2-8.4,16.1-18.6,23c-13.5,9.1-28.6,9.9-28.2,12c0.4,2,14.2,4.3,25.8-0.3
		c16.8-6.6,20.4-23.3,20.6-25C64.1,78.5,64,75.2,63.7,72.8z"/>
</g>
<polygon points="191.1,139.6 187,139 188,132.2 191.1,132.4 "/>
</svg>
