<?xml version="1.0" encoding="utf-8"?>
<!-- Generator: Adobe Illustrator 25.2.3, SVG Export Plug-In . SVG Version: 6.00 Build 0)  -->
<svg version="1.1" id="레이어_1" xmlns="http://www.w3.org/2000/svg" xmlns:xlink="http://www.w3.org/1999/xlink" x="0px"
	 y="0px" viewBox="0 0 250 250" style="enable-background:new 0 0 250 250;" xml:space="preserve">
<style type="text/css">
	.st0{fill:#D94A13;stroke:#95462A;stroke-miterlimit:10;}
	.st1{fill:#A5592B;stroke:#7B4B22;stroke-miterlimit:10;}
	.st2{fill:none;stroke:#FFF9DA;stroke-miterlimit:10;}
	.st3{fill:#F7F8F8;}
	.st4{font-family:'GulimChe';}
	.st5{font-size:24.6686px;}
</style>
<rect x="55.96" y="83.68" class="st0" width="46.03" height="15.62"/>
<path class="st1" d="M64.89,72.59"/>
<rect x="78.97" y="68.07" class="st0" width="46.03" height="15.62"/>
<rect x="78.97" y="130.53" class="st0" width="46.03" height="15.62"/>
<rect x="125" y="99.3" class="st0" width="46.03" height="15.62"/>
<rect x="78.97" y="99.3" class="st0" width="46.03" height="15.62"/>
<rect x="101.99" y="83.68" class="st0" width="46.03" height="15.62"/>
<rect x="55.96" y="114.92" class="st0" width="46.03" height="15.62"/>
<rect x="148.01" y="83.68" class="st0" width="46.03" height="15.62"/>
<rect x="101.99" y="114.92" class="st0" width="46.03" height="15.62"/>
<rect x="125" y="130.53" class="st0" width="46.03" height="15.62"/>
<rect x="148.01" y="114.92" class="st0" width="46.03" height="15.62"/>
<rect x="125" y="68.07" class="st0" width="46.03" height="15.62"/>
<g>
	<g>
		<path class="st2" d="M47.9,39.03"/>
	</g>
</g>
<text transform="matrix(1.081 0 0 1 81.4209 104.8604)" class="st3 st4 st5">내집</text>
<text transform="matrix(1.081 0 0 1 95.8996 132.0066)" class="st3 st4 st5">꾸미기</text>
</svg>
