<?xml version="1.0" encoding="utf-8"?>
<!-- Generator: Adobe Illustrator 25.2.3, SVG Export Plug-In . SVG Version: 6.00 Build 0)  -->
<svg version="1.1" id="레이어_1" xmlns="http://www.w3.org/2000/svg" xmlns:xlink="http://www.w3.org/1999/xlink" x="0px"
	 y="0px" viewBox="0 0 500 200" style="enable-background:new 0 0 500 200;" xml:space="preserve">
<style type="text/css">
	.st0{fill:none;stroke:#767FBD;stroke-width:7;stroke-miterlimit:10;}
	.st1{fill:#2C4FA1;}
	.st2{fill:none;stroke:#EF816C;stroke-width:8;stroke-miterlimit:10;}
	.st3{stroke:#151706;stroke-miterlimit:10;}
	.st4{font-family:'MalgunGothic-Semilight';}
	.st5{font-size:48px;}
	.st6{fill:#273F97;}
	.st7{fill:none;}
</style>
<g>
	<g>
		<path class="st0" d="M227.47,84.15"/>
	</g>
</g>
<g>
	<g>
		<g>
			<g>
				<g>
					<path class="st1" d="M132.76,81.21c0.31-0.01,0.18-0.02,0.23-0.02C132.9,81.22,132.8,81.21,132.76,81.21c0,0,0.01,0,0.01,0
						S132.74,81.21,132.76,81.21z"/>
					<path class="st1" d="M136.97,75.81l0.02-0.2c-0.01,0.22-0.08,0.64-0.3,1.25c-0.22,0.61-0.57,1.39-1.18,2.45
						C136.58,77.46,136.88,76.39,136.97,75.81z"/>
					<path class="st1" d="M135.5,86.65c2.44-1.51,1.85-2.18,0.88-2.41c-1-0.27-2.26,0.02-1.85-1.02c0.27-0.34,0.54-0.69,0.8-1.04
						c-1.2,0.95-2.36,1.99-3.44,3.07c0.48-0.06,1.54-0.32,2.47-0.13C135.27,85.28,136,85.82,135.5,86.65z"/>
					<path class="st1" d="M124.59,92.82c1.08-0.26,1.57-0.27,1.62-0.27c0.05,0.01-0.34-0.04-1.01-0.21
						c-0.23,0.09-0.36,0.13-0.53,0.19C124.72,92.58,124.73,92.66,124.59,92.82z"/>
					<path class="st1" d="M124.67,92.54C124.46,92.35,122.89,93.13,124.67,92.54L124.67,92.54z"/>
					<path class="st1" d="M126.17,94.28c-0.68-0.22-1.35-0.42-2.03-0.55c-1.29,0.24-1.56,0.79-2.52,0.65
						C122.74,94.93,124.03,94.88,126.17,94.28z"/>
					<path class="st1" d="M130.36,95.04c-0.28-0.18-0.56-0.36-0.85-0.51C128.96,94.64,128.78,94.75,130.36,95.04z"/>
					<path class="st1" d="M127.69,93.64c0.61,0.25,1.22,0.54,1.82,0.89c0.92-0.16,2.77-0.3-0.66-0.45
						C130.55,94.07,128.9,93.93,127.69,93.64z"/>
					<path class="st1" d="M128.51,93.07c0.58-0.27,1.06-0.62,1.63-0.79c0.57-0.16,1.27-0.29,2.3,0.08c-0.51-0.85-1.75-0.84-2.72-0.6
						c-0.49,0.13-0.9,0.3-1.15,0.52c-0.12,0.11-0.2,0.22-0.21,0.33C128.34,92.74,128.38,92.9,128.51,93.07z"/>
					<path class="st1" d="M141.04,84.58c0.38-0.55,0.71-1.1,1.05-1.69c-0.71,0-1.43,0.04-2.12,0.1c0.51-0.04,0.43,0.57,0.35,1.08
						C140.26,84.57,140.24,84.97,141.04,84.58z"/>
					<path class="st1" d="M122.78,100.93c1.19,0.25,3.27-0.05,4.83,0.04c-0.42-0.41-0.84-0.81-1.26-1.19
						C125.47,100.18,124.58,101.09,122.78,100.93z"/>
					<path class="st1" d="M127.61,100.96c0.62,0.62,1.24,1.27,1.84,1.94C129.91,101.41,128.95,101.05,127.61,100.96z"/>
					<path class="st1" d="M136.7,95.21c-1.46-0.8-2.96-1.45-4.46-1.96c1.53,0.61,3.05,1.44,4.52,2.42L136.7,95.21z"/>
					<path class="st1" d="M121.91,105.44c-0.91-0.22-1.81-0.51-2.71-0.74l5.69,1.57c-0.61-0.18-1.21-0.34-1.83-0.5L121.91,105.44z"
						/>
					<path class="st1" d="M135.75,110.66c-0.61-0.36-0.19-0.13,0.21,0.14c0.21,0.14,0.39,0.27,0.43,0.29
						c0.04,0.02,0.04,0.04-0.27-0.18c1.79,1.2,2.09,1.79,2.14,1.83c0.03,0.05-0.05-0.08-0.11-0.14l-0.14-0.16
						c-0.07-0.08-0.14-0.15-0.21-0.22c-0.11-0.1-0.21-0.2-0.32-0.3c-0.13-0.12-0.23-0.19-0.41-0.33
						C136.68,111.26,136.35,111.06,135.75,110.66z"/>
					<path class="st1" d="M137.97,112.01c0.12,0.32,0.21,0.54,0.31,0.74l0.06,0.12l0.03,0.06l0.02,0.03l-0.13-0.23c0,0,0,0,0,0l0,0
						l0,0l0,0l0,0l0.13,0.23l0,0l0,0l0,0l-0.01-0.02l-0.03-0.06l-0.06-0.12C138.19,112.58,138.09,112.35,137.97,112.01z"/>
					<path class="st1" d="M128.41,105.68c-0.37-0.01-1.04-0.06-1.72-0.05c-0.69,0.02-1.39,0.07-1.83,0.2
						c1.14,0.12,2.28,0.24,3.42,0.31C128.32,105.99,128.37,105.84,128.41,105.68z"/>
					<path class="st1" d="M128.39,106.14l-0.11,0c-0.16,0.44-0.29,0.62-0.34,0.7C127.99,106.76,128.11,106.63,128.39,106.14z"/>
					<path class="st1" d="M128.45,105.55c-0.02,0.05-0.03,0.08-0.04,0.13C128.75,105.68,128.87,105.67,128.45,105.55z"/>
					<path class="st1" d="M133.43,99.02c1.83,1.04,3.61,3.5,6.74,1.72c-1.12-0.5-2.13-0.48-3.19-0.58
						C135.92,100.07,134.8,99.85,133.43,99.02z"/>
					<path class="st1" d="M132.79,105.46l1.07-1.82c-0.9-0.09-2.25,0.05-3.12-0.59C131.44,103.82,132.12,104.63,132.79,105.46z"/>
					<path class="st1" d="M133.73,106.48c-0.31-0.33-0.63-0.62-0.94-1.02c-0.13,0.25-0.26,0.43-0.39,0.61L133.73,106.48z"/>
					<path class="st1" d="M137.76,112.18c0.56,0.52,0.59,0.77,0.43,0.37l0.14,0.29l0.03,0.06l0.02,0.03l0.01,0.02l0,0.01l-0.13-0.23
						l0,0c0,0,0.03,0.04-0.07-0.09c-0.03-0.04-0.06-0.07-0.09-0.11c-0.07-0.08-0.14-0.16-0.21-0.23c-0.11-0.1-0.35-0.35-0.58-0.53
						c-0.06-0.05-0.15-0.12-0.19-0.15C137.13,111.65,137.3,111.73,137.76,112.18z"/>
					<path class="st1" d="M130.57,108.17c0.18,0.07,0.4,0.16,0.56,0.23C130.84,108.28,130.75,108.24,130.57,108.17z"/>
					<path class="st1" d="M132.51,101.51c0.02,0.22,0.05,0.41,0.07,0.63c0.03-0.2,0.06-0.37,0.09-0.58L132.51,101.51z"/>
					<path class="st1" d="M137.16,111.66c-0.48-0.41-0.83-0.6-1.33-0.95c-0.23-0.14-0.44-0.27-0.64-0.38
						c-0.24-0.14-0.48-0.27-0.71-0.4c0.67,0.39,1.13,0.61,1.65,0.98c0.26,0.18,0.42,0.27,0.64,0.43c0.18,0.14,0.36,0.28,0.54,0.43
						C137.37,111.83,137.38,111.83,137.16,111.66z"/>
					<path class="st1" d="M136.72,104.88c0.13,1.83,0.34,3.45,0.59,4.68c-0.1-0.51-0.24-1.35-0.37-2.34
						c-0.06-0.53-0.11-1.02-0.15-1.42C136.76,105.38,136.74,105.06,136.72,104.88z"/>
					<path class="st1" d="M131.94,108.74c-0.11-0.04-0.19-0.07-0.33-0.14C132.33,108.9,132.22,108.85,131.94,108.74z"/>
					<path class="st1" d="M131.94,108.74c0.54,0.22,1.01,0.43,1.46,0.66c0.44,0.22,0.73,0.34,1.09,0.54
						c-0.25-0.14-0.51-0.26-0.75-0.38c-0.29-0.14-0.58-0.28-0.85-0.42c-0.59-0.28-1.08-0.45-1.74-0.74
						C131.44,108.53,131.77,108.68,131.94,108.74z"/>
					<path class="st1" d="M126.68,122.88c0.32-1.56,1.19-2.96,2.14-3.55c0.96-0.58,2-0.35,2.88,1.44c2.26-2.2,1.57-12.69,0.88-18.63
						c-0.2,1.37-0.3,2.65-2.25,4.29c0.18,0.9,1.03,2.02,1.65,3.25c0.61,1.22,1,2.56,0.06,3.91c-2.71,1.36-1.96-1.35-2.9-3.16
						c0.23,2.03-0.74,3.34-1.89,4.85c-1.14,1.51-2.47,3.2-2.7,6.11c0.95-0.52,1.86-1.06,2.77-1.62
						C127.23,120.67,126.11,121.96,126.68,122.88z"/>
					<path class="st1" d="M135.62,102.72c0.21-0.12,0.37-0.24,0.52-0.37c-0.44-0.57-1.06-1.88-1.76-4.42
						c-1.16,1.46-1.52,2.59-1.7,3.64c1.04,0.26,2.19,0.49,3.16,0.69L135.62,102.72z"/>
					<path class="st1" d="M137.26,109.3c-0.09-0.44-0.17-0.97-0.29-1.83c-0.05-0.43-0.1-0.87-0.14-1.29l-0.03-0.34l0.02,0.24
						c0.01,0.16,0.03,0.32,0.03,0.47c0.04,1.26-0.05,2.57,0.33,4.42c0.23-0.08,0.29-0.3,0.27-0.61c0-0.13-0.05-0.37-0.07-0.48
						c0.05,0.21,0.09,0.38,0.13,0.54c0.12,0.52,0.24,0.96,0.53,1.76c-0.06-0.14-0.1-0.26-0.14-0.38c-0.06-0.15-0.1-0.29-0.14-0.42
						c-0.08-0.29-0.15-0.54-0.2-0.74c-0.11-0.48-0.17-0.75-0.2-0.88c-0.05-0.26,0.01,0.11,0.13,0.56c0.08,0.38,0.2,0.8,0.21,0.82
						c-0.01-0.05-0.03-0.11-0.09-0.32c-0.03-0.13-0.07-0.29-0.12-0.5c-0.06-0.26-0.14-0.57-0.2-0.95c0.33,1.76,0.67,2.65,0.91,3.18
						c-0.26-0.56-0.59-1.54-0.87-2.99c0.01,0.08,0.02,0.13,0.04,0.19l0.01,0.04l0-0.01c0.08,0.36,0.11,0.48,0.02,0.07
						c-0.01-0.03-0.03-0.13-0.04-0.17C137.31,109.58,137.29,109.45,137.26,109.3c-0.48-3.03-0.09-0.36,0.07,0.39
						c0.01,0.03,0.01,0.07,0.02,0.1l-0.01-0.03c-0.29-1.45-0.57-3.36-0.73-6.49c-0.11-2.54-0.05-1.34-0.13-1.39
						c-0.07,0.16-0.19,0.31-0.35,0.47c0.18,0.24,0.37,0.34,0.43,0.32c0,0,0.01-0.01,0.01-0.01l0.01-0.01
						c0.01,0.18,0.02,0.37,0.03,0.55c0.02,0.37,0.04,0.76,0.07,1.15c0.03,0.36,0.06,0.73,0.09,1.12c0.03,0.34,0.06,0.7,0.1,1.06
						c0.04,0.31,0.07,0.63,0.11,0.96C137.08,108.18,137.14,108.7,137.26,109.3z"/>
					<path class="st1" d="M147.29,103.66c-0.32,0.09-0.56,0.05-0.81,0.03C146.87,104,147.14,104.14,147.29,103.66z"/>
					<path class="st1" d="M145.01,105.02c-0.44-0.36-1.76-0.79-1.29-1.66c1.13-0.67,1.64,0.21,2.77,0.32
						c-0.83-0.7-2.22-2.24-4.09-0.74l0.43,0.33c-1.38,1.41-5.94,2.75-6.37,2.41C139.59,105.71,141.84,105.65,145.01,105.02z"/>
					<path class="st1" d="M136.94,110.87c0.36,0.59,0.72,1.06,1.09,1.51c0.8,0.6,1.75,0.99,2.77,1.23l-1.57-0.88
						c0.5-0.17,0.27-0.56-0.29-0.89C138.39,111.52,137.56,111.18,136.94,110.87z"/>
					<path class="st1" d="M132.4,99.77l0.72-3.58c-0.64,1.65-1.32,3.3-2.04,4.93C131.54,100.68,131.97,100.23,132.4,99.77z"/>
					<path class="st1" d="M129.07,99.75l0.64-3.11l-0.57,0.87l-0.29,0.43c-0.05,0.15-0.09,0.31-0.14,0.46l-0.01,0.32
						c0.01,0.11,0.08,0.23,0.11,0.34L129.07,99.75z"/>
					<path class="st1" d="M165.57,174.87c-0.32,0.52-0.66,1.01-1.01,1.49C165.12,175.82,165.41,175.32,165.57,174.87z"/>
					<path class="st1" d="M174.03,167.89l-0.82-1.46C173.43,167.51,173.68,168.19,174.03,167.89z"/>
					<path class="st1" d="M136.99,75.06c0.01,3.12-1.1,7.64-0.13,4.18c0.29-1.13,0.56-2.27,0.82-3.41
						C137.21,76.32,137.09,75.87,136.99,75.06z"/>
					<path class="st1" d="M186.48,98.49c0.36-0.09,0.73-0.19,1.11-0.29c-1.13-0.52-2.17-0.99-3.16-1.4
						C185.09,97.3,185.76,97.87,186.48,98.49z"/>
					<path class="st1" d="M200.51,101.79c-0.86,0.67-1.75,1.31-2.62,1.93C198.75,103.35,199.63,102.75,200.51,101.79z"/>
					<path class="st1" d="M111.44,174.56l-2.39,2.97C111.16,178.16,110.76,176.17,111.44,174.56z"/>
					<path class="st1" d="M118.37,90.03c1.43-0.56,2.05-0.85,2.26-1.13C118.56,89.27,115.43,90.06,118.37,90.03z"/>
					<path class="st1" d="M148.91,139.03c0.19,0.79,0.5,1.57,0.93,2.32C149.73,140.54,149.44,139.79,148.91,139.03z"/>
					<path class="st1" d="M120.81,87.76c-0.36,0.02-0.54,0.06-0.85,0.1c0.51,0.39,0.95,0.7,0.67,1.04
						C122.18,88.58,123.13,88.49,120.81,87.76z"/>
					<path class="st1" d="M86.93,30.37c0.19,0.06,0.35,0.04,0.55,0.14C87.25,30.1,87.1,30.17,86.93,30.37z"/>
					<path class="st1" d="M136.33,57.99c-0.41,0.16-1.05,0.09-1.65,0.07C134.95,58.33,135.44,58.37,136.33,57.99z"/>
					<path class="st1" d="M124.06,96.73C124.47,96.67,124.37,96.44,124.06,96.73L124.06,96.73z"/>
					<path class="st1" d="M117.46,109.35c-0.36,0.29-0.76,0.69-1.25,1.39C116.76,110.03,117.16,109.59,117.46,109.35z"/>
					<path class="st1" d="M101.72,75.28c0.01-0.03,0.03-0.04,0.04-0.07C101.04,75.23,101.17,75.23,101.72,75.28z"/>
					<path class="st1" d="M123.39,98.24c0.17-0.41,0.3-0.76,0.35-1.03C123.6,97.47,123.47,97.79,123.39,98.24z"/>
					<path class="st1" d="M124.43,96.83c-0.02,0.17,0,0.27,0,0.38C124.84,96.73,125.05,96.42,124.43,96.83z"/>
					<path class="st1" d="M123.58,96.71c0.18,0.03,0.19,0.23,0.15,0.51c0.11-0.22,0.23-0.39,0.33-0.48
						C123.95,96.75,123.8,96.75,123.58,96.71z"/>
					<path class="st1" d="M60.79,114.77c0.08-0.1,0.11-0.2,0.23-0.32C59.31,114.04,59.68,114.37,60.79,114.77z"/>
					<path class="st1" d="M168.68,46.8c-0.08,0.03-0.14,0.11-0.21,0.15c0.06,0.04,0.13,0.1,0.18,0.14L168.68,46.8z"/>
					<path class="st1" d="M174.91,44.83c-2.03,1.98-3.2,2.81-4.09,3.01c-0.88,0.2-1.47-0.23-2.18-0.76
						c-0.39,3.29-0.9,6.59-1.54,9.88C169.38,52.93,171.99,48.87,174.91,44.83z"/>
					<path class="st1" d="M138.85,177.63c1.24,1.18,2.56,2.41,3.95,3.57c-2.43,2.35-4.83,2.89-5.99,3.52
						c-1.16,0.62-1.23,1.27,0.81,3.71c0.73-5.39,4.82-5.13,8.91-5.2c2.05,0.05,4.07-0.11,5.45-0.87c1.39-0.77,2.1-2.18,1.57-4.9
						c0.98,0.71,1.98,1.36,3.01,2.02c-0.73-0.02-0.67,0.63-1.41,0.6c3.02,2.21,3.55,0.32,3.77-2.01c0.13-1.16,0.18-2.49,0.5-3.54
						c0.33-1.05,0.91-1.81,2.15-2.05c0.15-0.03,0.33-0.05,0.52-0.07c1.09,0.04,2.1,0.17,2.77,0.54c0.67,0.37,1.02,1,0.69,1.93
						c0.97-1.55,1.73-3.22,2.34-4.95c1.05-0.67,1.88,1.18,0.76,1.84c1.58-1.74,3.07-3.58,4.37-5.63l0.17,0.3
						c-0.41-2.15-0.88-5.92-1.11-7.55c2.06-0.19,0.33,1.52,1.51,2.19c0.13-1.65,0.18-3.29,0.17-4.87c1.45,0.35,2.31,1.58,2.52,3.04
						c0.2,1.44-0.25,3.12-1.2,4.06c2.42,1.29,3.72,1.56,4.34,1.28c0.63-0.29,0.64-1.11,0.58-2.14c-0.06-1.04-0.15-2.25,0.32-3.39
						c0.49-1.15,1.54-2.18,3.94-3.14c-0.3,1.43-0.64,2.87-1.03,4.33c3.14,0.81,4.8,0.01,6.33-1.24c0.77-0.62,1.52-1.36,2.43-2.11
						c0.46-0.38,0.96-0.77,1.53-1.14c0.14-0.09,0.29-0.19,0.43-0.27l0.38-0.11c0.26-0.07,0.55-0.14,0.85-0.2
						c-0.27-0.04-0.65-0.05-1.11-0.06c-0.23,0-0.48,0-0.75,0c-0.29,0.04-0.63,0.14-0.96,0.2c-1.37,0.32-2.95,0.62-4.43,0.68
						c-2.98,0.12-5.48-0.75-5.52-3.36c1.27-0.56,2.62-2.19,1.34-4.43c3.41,1.83,3.34-0.05,4.03-1.85l4.47,2.5
						c-0.33-2.54-2.73-3.58-4.22-5.72c1.49-1.78,5.25-0.43,8.47,0.6c1.23-1.51-0.49-1.65-2.36-1.95c-1.87-0.32-3.89-0.81-3.32-3.02
						c3.15-1.93,2.31-4.92,1.12-9.71c2.54-1.36,2.69,1.65,4.36,1.51l-2.9-3.53c0.29-0.42,1.37,0.23,1.92,0.55
						c-0.78-2.22-4.62-2.15-4.89-5.14c-2.47-1.4-0.06-1.84,2.38-2.75c2.44-0.88,4.93-2.34,2.43-4.98c1.64-0.37,2.86,1.36,4.82,1.73
						c-1.24-3-1.7-4.2-2.36-5.36c-0.65-1.13-1.53-2.26-3.82-4.77c1.32-0.81,2.67-1.64,3.98-2.57c-2.12,0.89-4.14,0.23-6.03-0.92
						c-1.91-1.18-3.68-2.86-5.38-4.31c-1.94,0.49-3.63,0.83-4.48,1.1c-0.7-1.33-1.43-2.61-2.23-3.83c0.88-0.31,2.59,0.19,4.65,1.05
						c-0.39-0.3-0.78-0.58-1.15-0.8c2.02-1.09,4.89-0.21,7.62,1.17c-1.05,0.38-2.18,0.73-3.31,1.04c2.95,1.36,6.2,2.91,9.19,3.17
						c-0.54-0.38-0.96-1.01-1.16-1.65c0.79,0.4,1.51,0.7,2.04,0.64c0.56-0.07-0.5-0.71-1.69-1.59c1.94-0.09,3.85-0.21,5.78-0.36
						l-2.22-0.51l1.05-1.43c0.18-0.24,0.34-0.49,0.51-0.73c0.17-0.24,0.33-0.49,0.5-0.83c0.7-1.3,1.32-2.51,1.93-3.81
						c-2.82-2.7-6.51-4.67-9.78-6.43c-3.33-1.78-6.21-3.31-7.93-5.61c2.09-0.13,3.72-0.65,5.38-1.45c1.67-0.78,3.36-1.84,5.68-2.76
						c-2.19,2.04-1.36,3.12-0.03,4.5c0.68,0.68,1.47,1.42,2.06,2.29c0.3,0.43,0.54,0.9,0.7,1.39c0.14,0.49,0.18,1.02,0.09,1.56
						c0.36-2.26,2.72-2.32,3.59-1.87c-0.92-1.18-1.9-2.28-2.86-3.32c-1.01-1.03-1.98-2-3-2.88c3.86-1.26,2.53-2.63,3.48-5.28
						c-3.47,2.39-5.09,1.61-6.2,0.2c-0.59-0.7-1.07-1.6-1.6-2.39c-0.57-0.78-1.18-1.45-1.96-1.71c1.09-0.85,2.26-1.54,3.3-1.53
						c1.01,0.01,1.98,0.71,2.32,2.61c0.92-1.62,0.79-2.52,0.13-2.94c-0.65-0.43-1.8-0.41-2.99-0.28c-2.46,0.26-5,1.02-4.64-1.2
						c0.04-0.27,0.12-0.58,0.24-0.95c0.13,0.18,0.21,0.36,0.29,0.51c0.21,0.41,0.39,0.63,1.28,0.21c-0.4-0.03-0.77-0.16-1.09-0.37
						c-0.94-0.58-1.47-1.82-1.66-2.96c-0.15-1.16,0.14-2.31,1.14-2.64l0.53,0.65c-0.64-1.32-1.61-2.86-3.13-4.04
						c-0.76-0.59-1.65-1.02-2.56-1.27c-0.91-0.25-1.83-0.35-2.8-0.38c-1.91-0.06-3.9,0.23-5.61,0.95c-1.73,0.73-3.13,1.88-4.08,3.48
						c0.31-0.86,4.42-7.74,5.47-8.95c-3.6,3.26-6.86,6.78-9.62,10.3c-2.77,3.53-5.02,6.95-6.83,10.5c0.94-2.79,1.71-7.67,2.57-12.22
						c0.89-4.54,2.03-8.69,5.12-9.88c-0.63-0.52-1.37-1.09-2.41-1.35c-0.27-0.07-0.52-0.12-0.85-0.16
						c-0.25-0.04-0.24-0.01-0.35-0.01c-0.09,0.01-0.17,0.03-0.27,0.06c-0.37,0.12-0.81,0.35-1.34,0.76
						c0.32,0.93-0.38,8.56-1.32,8.92c-0.43-3.44-0.57-4.36-0.83-5.2c-0.24-0.84-0.62-1.57-1.11-4.59c0.23,0.71-0.47,3.22-1.42,5.46
						c-0.95,2.25-2.18,4.19-2.86,3.84c0.61-1.25,2.52-8.69,3.25-9.47c-1.9,2.57-3.92,5.06-6.07,7.49c1.4-1.23,2.6-7.17,2.81-9.79
						c-0.14,0.89-0.78,0.61-1.53,0.17c-0.37-0.23-0.76-0.49-1.13-0.66c-0.09-0.04-0.19-0.09-0.28-0.12
						c-0.15-0.06-0.32-0.12-0.47-0.16c-0.31-0.09-0.58-0.13-0.81-0.1c0.27,0.49,0.55,0.98,0.79,1.45l0.27,1.23
						c-0.19-0.17-0.38-0.26-0.6-0.32c-0.28-0.08-0.67-0.16-0.99-0.16c-0.68-0.01-1.34,0.19-1.98,0.54
						c-1.28,0.69-2.45,1.97-3.55,3.32c-1.1,1.35-2.12,2.75-3.12,3.72c-1.01,0.98-1.97,1.51-3.12,1.19c0.39-0.88,1.18-3.63,1.57-6.38
						c0.39-2.74,0.29-5.52-1.32-6.27c-0.99,2.2-3.08,7.6-4.61,13.14c-0.78,2.77-1.43,5.61-1.95,7.95c-0.52,2.35-0.91,4.25-1.36,5.27
						c-0.31-0.83-0.64-1.65-0.99-2.47c-0.28,0.58-0.43,1.13-0.74,1.73c-0.35,0.6-0.71,1.21-1.03,1.81c-0.03-1.78,0.13-4.1,0.24-6.64
						c0.08-2.52,0.41-5.34,1.04-8.15c0.63-2.81,1.56-5.6,2.66-8.02c1.09-2.42,2.35-4.47,3.47-5.9c-1.24-1.03-1.45-1.78-1.79-2.25
						c-0.35-0.46-0.88-0.66-2.87-0.31c-0.8-1.14-0.34-2.16,0.55-2.9c0.88-0.75,2.16-1.18,2.8-1.28c-3.35-0.41-6.79-0.4-10.28-0.14
						c0.37,1.3,0.13,2.39-0.36,3.35c-0.24,0.48-0.55,0.94-0.89,1.37c-0.16,0.22-0.36,0.43-0.48,0.63c-0.11,0.19-0.21,0.38-0.32,0.57
						c-0.87,1.49-1.84,2.91-1.14,5.04l1.35-1.79c0.45-0.59,0.77-1.15,1.56-1.82c1.39-1.3,2.88-2.6,4.48-3.82
						c0.52,2.63-0.48,6.68-1.78,10.11c-0.33,0.86-0.69,1.67-1.07,2.41c-0.4,0.75-0.64,1.37-1.03,1.92
						c-0.74,1.09-1.66,1.79-2.78,1.85c-1.69-1.75-1.73-9.46-2.25-11.17c-0.09,0.98-0.84,2.1-1.97,2.94
						c-1.22,0.88-2.47,1.39-2.97,0.88c0.47-1.19,1.01-2.35,1.6-3.54c-2.06-0.42-2.91,1.76-3.74,3.55c-0.87,1.83-1.7,3.23-4.8,1.89
						c-0.72,0.15-2.57-0.84-4.13-1.42c-1.56-0.61-2.78-0.82-1.98,0.55c2.85,1.81,6.86,6.81,10.27,11.87
						c3.41,5.06,6.49,10.28,7.49,12.36c-0.21-0.12-1.77-0.99-3.78-1.83c-1.01-0.43-2.11-0.84-3.17-1.24
						c-1.04-0.38-2.04-0.75-2.79-1.14c-0.57-0.31-1.11-0.69-1.62-1.13c-0.5-0.42-0.96-0.91-1.4-1.43c-0.88-1.06-1.64-2.29-2.32-3.54
						c-1.39-2.48-2.48-5.12-4.6-6c0.93,1.15,1.28,3.23,1.38,3.98c-0.91,0.03-1.64-0.85-2.33-1.43c-0.67-0.57-1.4-0.87-2.18,0.56
						c1.47,1.59,1.12,2.56,0.61,3.21c-0.72,0.96-1.87,1.14,1.11,0.89c0.25,0,0.54-0.01,0.87-0.03c-0.04,0.24-0.08,0.45-0.12,0.62
						c-0.32,1.17-0.94,1.49-1.69,1.88c-0.75,0.39-1.63,0.85-2.23,2.28c1.76,0.44,3.95,2.7,5.96,4.96c1.99,2.28,3.89,4.53,4.31,5.72
						c-1.25-0.66-3.06-0.93-3.91-1c-0.89,2.03-2.05,3.57-3.11,5.05c-0.53,0.76-1.03,1.48-1.46,2.36c-0.43,0.89-0.79,1.88-0.99,3.01
						c-0.69,0.14-1.53,0.73-2.46,1.2c-0.93,0.45-1.97,0.78-3.07,0.19c0.86,0.81,2.62,1.51,2.59,2.99c-2.53,1.55-2.64,0.74-2.83-0.27
						c-0.2-0.96-0.47-2.14-3.48-0.91c3.14,0.3,3.94,4.26,5.87,6.06c2.47-0.71,2.78-1.84,2.27-3.13c-0.51-1.28-1.82-2.83-2.66-3.97
						c3.4,0.13,6.71,1.17,9.63,2.25c2.91,1.12,5.39,2.26,6.92,3.38c1.65,1.87-4.54,2.16-3.56,2.32c-0.31,1.34,0.35,2.08,1.41,2.36
						c1.05,0.29,2.51,0.16,3.84-0.02c1.34-0.18,2.56-0.42,3.23-0.32c0.68,0.1,0.77,0.53,0.04,1.82c-0.03,0.04-0.06,0.1-0.09,0.16
						c-1.75,1.82-3.7,3.26-5.67,4.4c-1.95,1.15-3.9,2-5.26,3.14c-0.27-0.1-0.48-0.24-0.64-0.39c-0.83-0.8-0.42-2.08,0.14-3.22
						c0.58-1.16,1.29-2.2,1.08-2.89c-0.58,0.95-1.1,1.94-1.57,2.97c-1.7-0.01-3.19-1.41-2-2.89c-0.99,0.82-1.37,1.96-1.34,3.28
						c0.02,1.33,0.45,2.84,1.21,4.31c0.72,1.42,1.74,2.76,2.73,4.01c0.98,1.26,1.91,2.45,2.43,3.77c1.86-0.55,4.13-0.99,4.75-2.77
						c-0.59-0.05-1.18-0.13-1.77-0.21c0.72-1.74,2.25-2.31,3.45-2.85c1.22-0.52,2.13-0.94,2.03-1.94c1.61-0.63,3.38-1.62,4.74-2.21
						c1.38-0.59,2.31-0.77,2.69,0.39c-0.71,1.52-1.4,3.04-2.05,4.57c0.6-1.33,0.16-3.05-1.25-1.93c1.04-0.81,0.87,0.91,1.21,2.21
						c0.31,1.29,1.12,2.14,2.85-0.74c-0.06-1.19-0.04-2.38,0.05-3.54c1.21-0.95,2.64-2.56,3.7-3.76c1.09-1.2,1.8-1.97,2.18-1.12
						c0.3-2.41,0.25-2.27,0.15-2.26c-0.07,0.02-0.24-0.08,0.33-2.86c-0.77,3.45-1.34,3.25-1.92,3.06c-0.28-0.09-0.55-0.17-0.9,0.22
						c-0.34,0.39-0.81,1.23-1.31,3.03c0.97-3.17,1.08-3.88,1.05-4.5c0.01-0.61-0.12-1.14,1.29-3.69c-0.97,1.41-1.63,2.79-1.77,1.85
						c-0.33,0.39-0.8,0.87-1.08,1.15c0.01-0.05,0.02-0.07,0.03-0.12c-0.03,0.06-0.06,0.11-0.09,0.18c-0.19,0.19-0.23,0.23-0.03,0.06
						c-0.3,0.67-0.68,1.46-1.18,2.27c-1.38,1.51-2.53,2.05-3.58,2.32c-1.05,0.27-1.98,0.29-3.04,0.83
						c-0.02-1.02,1.74-1.26,2.78-2.82c-1.01,0.58-2.06,1.12-3.14,1.61c1.46-1.37,2.4-2.75,3.42-3.81c1.01-1.08,2.02-1.81,3.31-2.24
						c-0.19-0.23-0.35-0.48-0.49-0.75c0.68-0.79,1.17-1.4,1.37-1.78c0.24-0.47,0.03-0.6-0.88-0.37c0.33-0.37-0.73-0.09-1.52,0.08
						c-0.79,0.17-1.3,0.31,0.17-0.13c-0.85-0.12-1.67-0.34-2.45-0.67l0.93-0.3c0.21-0.81-1.28-1.26-1.94-2.19
						c-0.67-0.85-0.46-2.21,2.93-2.66c-0.41-0.3-0.85-0.66-1.05-1.02c-0.13-0.68,0.02-1.45,0.74-2.22l3.1,0.41
						c-0.09-0.19-0.13-0.27-0.1-0.34c0.03-0.07,0.1-0.14,0.22-0.19c0.23-0.11,0.58-0.18,0.87-0.24c0.57-0.13,0.86-0.23-0.58-1.05
						c4.78,1.91,4.39,1.64,4.04,0.71c-0.23-0.54-0.44-1.28,0.14-0.98l-2.78-3.12c0.69-0.24,0.43-1.48,0.62-3.37l-1.83-3.14
						c-0.17-1.55,0.99-1.33,2.13-0.69c0.29,0.15,0.58,0.34,0.87,0.52c0.3,0.17,0.52,0.35,0.86,0.47c0.8,0.2,1.64,0.26,2.41-0.04
						c0.11,1.38-0.73,1.24-1.5,0.59c0.72,0.85,1.35,1.37,1.92,1.64c0.6,0.26,1.1,0.28,1.62,0.11c0.24-0.08,0.55-0.22,0.71-0.37
						c0.1-0.13,0.15-0.28,0.22-0.46c0.14-0.36,0.27-0.83,0.43-1.31c0.31-0.97,0.74-2.02,1.25-2.45c0.5-0.43,1.08-0.23,1.43,1.29
						c0.53-1.32,0.88-0.81,1.04,0.16c-0.04,0-0.09,0.06-0.13,0.17c0.04,0.05,0.1,0.07,0.17,0.08c0.1,0.66,0.15,1.42,0.22,2.04
						c0.02-0.91-0.03-1.67-0.12-2.04c0.34-0.01,0.88-0.32,1.62-1.01c-0.25,1.28-0.51,2.56-0.8,3.82c0.04-0.04,0.07-0.02,0.12-0.07
						c-0.07,1.5,0.88-1.61,1.43-4.52c0.45-0.5,0.95-1.12,1.48-1.91c-0.39,1.52-0.47,2.19-0.38,2.44c0.11,0.26,0.26,0.05,0.89,0.05
						c1.08-0.08,2.13-0.11,1.7,3.26c1.01-1.34,2.88-1.31,4.83-1.79c1.95-0.47,3.97-1.45,5.23-4.63c-0.2,0.86,0.06,1.38-0.64,1.23
						c1.18,1.15,2.46,2.28,4.18,0.73l-0.51,4.91c0.79-0.95,1.57-1.89,2.33-2.85l1.13-1.45c0.18-0.24,0.4-0.48,0.48-0.74
						c0.13-0.25,0.28-0.5,0.43-0.75c0.64,3.16,0.24,4.84-1.52,8.35c0.84-1.31,1.5-2.07,1.99-2.57c0.5-0.49,0.83-0.71,1.15-0.94
						c0.68-0.44,1.18-0.9,3.75-3.46l-1.58,2.96c0.41-0.02,1.46-0.98,2.38-1.64c0.91-0.65,1.68-0.99,1.17,0.23
						c-0.24,0.86-0.25,1.49-0.09,1.95c0.16,0.47,0.51,0.79,0.89,1.28c0.37,0.49,0.7,1.1,1,1.73c0.31,0.63,0.65,1.27,0.9,1.98
						c0.68,1.81,0.83,4.14-1.02,6.42c4.41-2.36,3.52-1.42,2.36-0.33c-1.14,1.09-2.63,2.11,0.95,1.11c-2.13,0.94-3.31,1.66-5.28,1.73
						c1.17,0.44,0.35,1.29-0.01,1.8c-0.36,0.57-0.24,0.84,2.8,1.33c-2.22,0.24-3.23-0.21-4.55,0.01c0.48,0.06,1.91,0.38,0.59,0.53
						c-1.32,0.11-1.85-0.19-2.81-0.31c0.09,0.23,0.58,0.47,1.35,0.61c0.52,0.09,0.98,0.17,1.38,0.24c0.52,0.16,1.1,0.34,1.73,0.49
						c2.51,0.62,5.76,1.08,8.92,1.49c-3.16,1.31-2.85,1.96,1.1,3.86c-2.17,0.25-4.46,0.69-4.88-1.28c-0.24,0.51-1.26,1.93-1.69,3.4
						c-0.22,0.73-0.28,1.48,0.03,2.14c0.29,0.66,0.94,1.24,2.17,1.61c-1.33-0.01-0.8,1.43-0.34,1.91c-1.08,2.41-1.6,2.46-2.05,5.09
						l1.04-0.39c5.4,3.17,0.49,2.6,0.34,4.89l-0.56-0.3c-3.03,1.45-2.77,2.13-2.58,2.82c0.2,0.67,0.32,1.34-3.06,2.52l3.58,1.4
						c3.62,1.99,2.03,2.52-0.29,3.01c-2.31,0.5-5.32,0.94-4.61,3l2.45,0.02c1.75,2.78-12.1-1.01-13.76-0.08
						c-0.8-0.02-0.76-1.02-1-1.72c-6.27,1.47,4.2,2.83,3.75,6.16c-2.65-0.79-5.74-3.88-7.14-2.36c-0.29-0.04-0.47,0.14-0.47,0.3
						c0.03,0.12,0.19,0.3,0.41,0.55c0.45,0.5,1.17,1.29,1.74,2.13c1.18,1.62,1.66,3.62-0.58,2.26c1.65,1.32,3.46,2.4,4.13,4.3
						c-0.12,0.88-2.03,0.14-3.28-0.33c-1.28-0.42-1.88-0.49-0.4,3.09c-0.43-0.42-0.77-0.91-1.06-1.41c0.18,1.14-0.03,2.41-0.39,3.54
						c-0.34,1.13-0.69,2.27-0.45,4.11c-2.93-6.89-3.48-5.26-4.82-3.6c-1.23,1.66-3.04,3.34-2.88-2.82l-1.43,0.15l-0.75,0.05
						l-0.19,0.01l-0.3,0l-0.62-0.01l0.33-1.21c-2.92-1.31-4.53,1.35-6.26,3.97c-0.56-0.97,0.21-1.97,0.4-2.59
						c-4.03-3.41-4.35-2.99-9.9,1.78l0.73-3.92c-0.83,0.95-2.03-1.01-3.6-2.89c-1.6-1.86-3.52-3.62-6.46-2.31
						c0.21-0.4,0.58-1.08,1.12-1.47c-3.21,1.24-4.93-2.54-6.52-5c-0.8-1.26-1.65-2.16-2.76-2.04c-1.11,0.13-2.53,1.33-4.67,4.26
						c-1.48,0.53-2.96,1.03-4.47,1.47c1.38,1.54,0.54,2.82-0.79,4.05c-1.3,1.23-3.06,2.36-2.86,3.89c-1.04-0.13-1.48-1.73-1.27-3.16
						c0.2-1.44,0.97-2.71,2.01-2.43l-0.14,0.78c2.4-2.93,1.72-4.16,1.02-5.17c-0.72-1.02-1.51-1.85,0.29-3.68
						c-2.11-1.69-3.18-4.98-4.06-8.88c-0.46-2.07-0.93-4.13-1.38-6.17c-0.48-2.05-1-4.03-1.7-5.92l-5.03,3.13l-0.8-2.82
						c0.98-1.22,3.88-2.62,4.41-0.67c2.68-2.2-3.83-2.12-5.05-1.75c0.39-2.32,2.15-2.52,3.73-2.34c1.59,0.18,3.04,0.74,2.89,0.16
						l-0.98-1.35l-0.51,0.58c-2.69-0.39-5.16,0.3-5.61-1.94c0.69-1.67,3.24-1.74,3.3-2.29c0.4-0.12,0.53-0.33-0.04-0.73
						c-0.03-0.23-0.03-0.45-0.02-0.56l0.02-0.45c0.02-0.3,0.04-0.6,0.07-0.89c-1.48,0.46-2.95,1-4.39,1.61
						c-2.47-0.56-0.16-2.31-5.17-0.36c2.8-1.16,3.79-2.58,4.28-4.05c0.42-1.27,0.5-2.66,0.75-3.81c0.25-1.16,0.61-2,1.48-2.03
						c-1.25-1.44-1.55-2.71-1.43-3.8c0.1-1.12,0.8-2.04,1.54-3.03c-0.57,0.02-2.02-0.5-3.15-1.25c-1.13-0.75-1.87-1.74-0.97-2.6
						c4.39,3.12,5.87,2.84,7.22,2.24c0.69-0.3,1.32-0.73,2.24-0.86c0.95-0.12,2.15,0.04,3.92,0.9c-2.46-0.97-1.9-2.3-1.45-3.73
						c0.37-1.43,0.7-2.99-2.89-4.44c1.9-0.83,3.11,2.54,5.88,3.22c-0.14-2.92,2.05-4.2,4.58-5.08c2.53-0.92,5.36-1.46,7.09-3.6
						c-0.76-1.19-2.8-2.35-3.07-4.76c2.18,1.29,4.35,2.66,6.44,4.05c0.44-1.16-3.69-7.3,0.67-4.34c-0.87-0.84-2.21-2.1-1.82-2.89
						c0.45-0.04,0.69,0.05,1,0.06c0.3,0.03,0.58,0.04,0.85,0.04c0.54,0,1.03-0.04,1.49-0.11c0.92-0.14,1.75-0.42,2.59-0.7
						c1.7-0.55,3.41-0.95,5.36-1.17l0.37-0.04l0.19-0.02l0.28-0.01l1.15-0.02c0.76-0.01,1.53,0.02,2.29,0.08
						c1.52,0.12,3.03,0.38,4.51,0.88c2.97,0.99,5.83,2.92,8.39,6.46c-1.28-2.89-0.2-3.04,1.05-3c-0.72-0.74,0.42-3.45,0.49-5.36
						c1.48,1.95,2.93,3.92,4.34,5.89c1.64-5.13,5.37,0.41,6.66-4.49l-1.73,0.65c1.51-2.78,1.29-6.18,0.81-9.82
						c-0.47-3.64-1.21-7.53-0.51-11.3c-1.75,3.18-3.06,0.46-4.7-1.91c-1.62-2.37-3.6-4.39-6.22,0.22c-0.77-1.65,1.05-2.37,0.74-4.19
						c-1.43,3.16-2.77,3.7-5.04,2.02l0.35-0.79c-3.43,0.1-5.8-0.68-8.28-1.82c-0.62-0.3-1.25-0.6-1.9-0.91
						c-0.33-0.16-0.66-0.32-1-0.49l-0.26-0.12l-0.37-0.13c-0.25-0.09-0.5-0.17-0.75-0.26c-2.02-0.68-4.45-1.41-7.36-1.77
						c0.44,1.24,0.85,2.48,1.25,3.73c-2.31-0.4-2.99-1.47-4.28-2.26c-0.76,3.04,0.86,2.81,2.46,2.84c1.64,0.01,3.23,0.24,2.42,3.42
						c-1.74-3.83-5.92-3.6-9.57-2.38c-3.7,1.16-6.93,2.88-10.03-0.39c-1.67,0.99-0.85,1.78-0.07,2.59c0.79,0.81,1.54,1.62,0.03,2.53
						c-0.67-0.51-1.41-0.98-2.01-1.53l1.08,2.95c-1.74,0.55-4.17-1.41-5.36-3.02c0.5-0.06,0.75-1.17,1.06-1.58
						c-1.78-0.52-3.08,0.68-4.04,1.94c-0.97,1.26-1.6,2.64-2.21,2.51c1.03-0.16,2.05-0.32,3.07-0.45c-2.48,3.15-5.98,5.61-9.17,8.59
						c-3.16,2.96-6.01,6.43-6.68,10.93l1.73,0.75c-0.33,1.59-0.71,2.56-1.21,3.17c-0.5,0.61-1.11,0.86-1.76,1.14
						c-1.27,0.55-2.89,1.01-4.04,4.14l-0.22-0.43c0.74,2.05,0.66,3.96-0.41,5.33c-0.49-1.2-1.77-1.1-3.02-0.97
						c-1.25,0.11-2.53,0.21-2.99-1.35c-0.09,3.84,0.25,4.86,0.99,5.83c0.77,0.94,1.93,1.84,4.16,5c-1.03-0.11-2.06-0.19-3.1-0.26
						c1.96,2.37,3.15,3.02,2.94,6.27c-0.84-1.6-2.06-1.47-3.4-1.3c-1.33,0.14-2.79,0.36-3.89-1.81c-2.67,1.83-3.32,4.08-3.15,5.99
						c0.16,1.94,1.13,3.59,1.57,4.97c0.57,1.75,0.3,3.05-3.23,4.79c3.27,1.28,4.59,0.37,5.13-0.84c0.54-1.24,0.41-2.98,0.51-3.85
						c0.07-0.54,0.2-0.73,0.58-0.26c1.02-0.54,2.09-0.23,3.01,0.41c1.57,1.11,2.8,3.06,2.43,4.38c0.02,1.04-2.48,2.18-4.76,4.06
						c-1.14,0.94-2.22,2.06-2.87,3.37c-0.16,0.33-0.31,0.67-0.41,1.03c-0.1,0.37-0.17,0.74-0.22,1.06
						c-0.09,0.65-0.05,1.34,0.18,2.01c-0.13-0.55-0.73-0.41-0.86-0.98c-0.7,1.36,0.3,2.15,1.15,2.98c0.85,0.82,1.56,1.69,0.36,3.36
						c5.09-0.53,0.77,2.87,6.81,0.94c-0.99-1.2-1.95-2.38-2.92-3.66c2.45,1.92,10.12,1.3,8.32,6.34c-1.3,0.21-3.32-0.27-4.5-0.71
						c-1.28,1.82,2.02,1.67,0.73,3.56c-2.99,1.08-3.84-0.05-4.61-1.54c-0.77-1.49-1.44-3.32-4.19-3.78
						c-2.04,2.24,6.16,3.22-0.73,4.44c4.43-0.67,4.62,0.54,4.67,2.03c0.04,1.48-0.05,3.27,3.68,3.42l-3.55,1.36
						c0.77,0.25,2.85,0.5,3.17,1.42c-1.74,0.16-3.47,0.31-5.22,0.44c4.96,0.75-1.07,6.38,2.28,7.93c-1.38-2.6-0.44-3.32,0.94-3.92
						c1.39-0.58,3.27-0.97,4.02-2.61c3.73,1.86,1.99,3.84-0.01,6.25c-1.95,2.4-4.33,5.19-0.82,8.97c-0.61-0.43-0.81-1.82-0.49-2.94
						c0.33-1.12,1.13-2.01,2.38-1.64c0.21,1.88,0.37,4.74-0.48,6.94c1.21,1.33,2.03,1.79,2.55,1.74c0.52-0.05,0.77-0.6,0.98-1.27
						c0.41-1.35,0.82-3.11,2.58-2.7c-1.13,2.31-0.17,2.73,1.36,2.62c1.56-0.1,3.7-0.69,5.22-0.22l-2.71,2.75
						c1.01,1.87,2.02,2.46,2.9,2.45c0.89-0.02,1.69-0.65,2.46-1.28c1.55-1.27,2.89-2.52,4.41,0.42c-1.71,0.98-3.49,1.89-5.34,2.7
						c1.22,0.37,2.41,0.66,3.57,0.9c-1.02,1.08-2.05,2.14-3.09,3.19c2.51-0.23,3.8-0.13,4.79,0.44c0.98,0.55,1.67,1.57,2.78,2.89
						c0.67-2.75,3.8-5.87,6.08-4.83c0.5,2.82-2.56,2.83,0.94,3.96c-1.8,1.8-4.02,4.1-3.84,0.18c-0.73,1.04-1.89,1.74-2.64,2.75
						c0.59,3.32,4.18,2.8,5.41,3.38c-0.41-0.36-0.88-0.83-0.93-1.47c2.41-0.77,4.8-1.67,7.12-2.56c0.16,1.67-0.9,2.46-1.98,3.22
						c1.16,0.09,2.58-1.26,4.15-0.94c-1.61,2.72-2.77,5.75-5.53,6.17c2.1-0.37,4.16-0.71,6.2-1.16c-0.2,1.39,1.13,4.48,0.08,5.3
						c1.05,1.43,3.33,0.6,5.6-0.1c2.3-0.76,4.6-1.4,6.08,0.3c0.37-0.52,0.92-0.96,1.83-1.16c1.6,0.88,2.94,2.38,4.54,3.36
						c1.61,0.93,3.49,1.3,6.03-0.35c0.38,2,0.79,4.01,1.23,6.02c1.82-0.28,1.32-2.19,1.16-4.14c-0.16-1.97,0-3.91,2.86-4.46
						c4.08-1.07,0.57,4.99,1.67,6.77c0.61-0.62,1.33-1.41,2.11-2.17c0.1-0.09,0.19-0.19,0.3-0.28l0.4-0.26
						c0.27-0.16,0.54-0.33,0.81-0.5c0.54-0.32,1.1-0.61,1.66-0.84c2.26-0.99,4.44-0.96,7.02,1.54
						C141.76,178.44,140.42,177.38,138.85,177.63z M182.33,152.67c0.07,0.68,0.35,1.84,0.31,2.78c-0.04,0.94-0.41,1.63-1.53,1.28
						C178.21,153.02,180.32,153.6,182.33,152.67z M194.42,93.46c0.62,0.36,0.75,0.81,0.54,1.29c-0.22,0.44-0.75,0.87-1.54,1.3
						c-0.11-0.37-0.13-0.76,0.01-1.17C193.58,94.47,193.89,93.96,194.42,93.46z M118.77,96.72c-0.08,0.04-0.13,0.06-0.19,0.09
						c0.06-0.08,0.12-0.15,0.17-0.21c0.86-1.03,0.58-0.72,0.17-0.11C118.87,96.57,118.82,96.64,118.77,96.72z M118.04,98.88
						c0.58-0.27,1.05-0.66,1.49-1.07c-0.93,0.62-1.22,0.43-1.17-0.02C117.47,98.52,116.96,99.16,118.04,98.88z M81.98,97
						c-0.28,0.24-0.56,0.49-0.83,0.74C79.78,97.04,80.84,97.06,81.98,97z"/>
					<path class="st1" d="M198.89,101.36c-0.68,0.13-1.4,0.08-2.12,0.02C197.35,101.79,198.1,101.94,198.89,101.36z"/>
					<path class="st1" d="M111.88,174.01c-0.03-0.04-0.07-0.04-0.11-0.08c-0.13,0.2-0.24,0.41-0.33,0.63L111.88,174.01z"/>
					<path class="st1" d="M97.2,53.46c1.09-0.29,1.99-0.12,2.74,0.18C99.34,52.92,98.46,52.6,97.2,53.46z"/>
					<path class="st1" d="M127.47,96.07c-0.29,0.27-0.61,0.53-0.94,0.78c0.34-0.1,0.05,0.7-0.05,1.31
						C126.83,97.33,127.3,96.09,127.47,96.07z"/>
					<path class="st1" d="M135.2,121.12c0.32-0.46,0.64-0.03,0.94-0.5l-0.05-1.79C134.92,118.91,133.92,120.29,135.2,121.12z"/>
					<path class="st1" d="M123.38,108.33c-1.05,3.1,0.3,2.3,1.42,1.91c-0.06,0-0.13,0.01-0.17-0.04
						C126.08,105.86,124.87,107.15,123.38,108.33z"/>
					<path class="st1" d="M125.06,110.19c0.34-0.09,0.66-0.11,0.92,0.1C126.47,108.53,125.72,109.84,125.06,110.19z"/>
					<path class="st1" d="M121.15,98.36c-0.43,0.8,3.38-3.17,2.45-2.07c1.67-1.59,0.5-0.72-0.92,0.28
						C121.26,97.56,119.67,98.77,121.15,98.36z"/>
					<path class="st1" d="M120.73,118.73c0.26-1.32,0.53-2.63,0.83-3.93c-0.58,0.97-1.19,1.93-1.83,2.89
						C120.06,118.03,120.39,118.38,120.73,118.73z"/>
					<path class="st1" d="M111.95,112.85c0.39,0.59,0.8,1.16,1.25,1.74c0.37-0.6,0.86-0.85,1.33-1.01
						C113.41,113.04,112.7,111.83,111.95,112.85z"/>
					<path class="st1" d="M114.54,113.58c0.57,0.29,1.22,0.41,1.9-0.07C116.09,113.44,115.31,113.32,114.54,113.58z"/>
					<path class="st1" d="M117.22,119.07l-0.31-0.96l-1.42-0.72C116.03,117.95,116.61,118.5,117.22,119.07z"/>
					<path class="st1" d="M102.46,95.02c-0.36-0.65-0.71-1.32-1.04-2.03c-1.39-0.07-2.31,0.71-1.81,1.53
						C100.56,94.93,101.07,95.65,102.46,95.02z"/>
					<path class="st1" d="M92.38,106.3c0.57-1.12,1.39-1.52,2.55-2.45l-4.67,1.81C90.96,105.89,91.68,106.1,92.38,106.3z"/>
					<path class="st1" d="M90.23,97.88c-0.69,0-1.68-0.96-2.45-1.47c-0.76-0.51-1.36-0.5-1.2,1.63c0.69,0.04,1.32,0.82,1.94,1.15
						C89.14,99.53,89.68,99.43,90.23,97.88z"/>
					<path class="st1" d="M110.06,60.49l-0.52,0.43l5.35,6.38C113.24,65.06,111.58,62.72,110.06,60.49z"/>
					<path class="st1" d="M148.46,34.97c-2.16-1.71-2.75-0.5-3.2,0.6c-0.48,1.13-0.81,2.16-2.69,0.54c-0.69,0.85,0.1,1.49,0.83,2.13
						c0.74,0.64,1.43,1.28,0.75,1.96C147.13,38.91,148.33,40.6,148.46,34.97z"/>
					<path class="st1" d="M144.14,40.21c-0.47,0.2-0.98,0.49-1.52,0.91C143.44,40.78,143.86,40.49,144.14,40.21z"/>
					<polygon class="st1" points="142.21,63.21 143.69,65.16 142.98,62.28 					"/>
					<path class="st1" d="M146.52,57.77l-0.42,5.19l1.83-4.46C147.49,58.66,146.64,58.97,146.52,57.77z"/>
					<path class="st1" d="M194.77,151.75l-1.03-0.73c-1.35-0.35-1.65,0.02-2.31,0.79L194.77,151.75z"/>
					<path class="st1" d="M164.17,180.99l0.73-0.14c-1.06-1.29-2.08-2.6-3.07-3.95C162.6,178.27,163.37,179.63,164.17,180.99z"/>
					<path class="st1" d="M127.95,186.2c1.03,0.4,2.46-0.42,3.5-0.06C128.96,186.62,128.72,180.37,127.95,186.2z"/>
				</g>
			</g>
		</g>
	</g>
</g>
<g>
	<g>
		<path class="st2" d="M159.24,97.19"/>
	</g>
</g>
<g>
	<g>
		<path class="st2" d="M159.91,106.89"/>
	</g>
</g>
<text transform="matrix(1 0 0 1 219.9866 122.3086)" class="st3 st4 st5">내집꾸미기</text>
<g>
	<g>
		<g>
			<g>
				<g>
					<path class="st6" d="M475.67,130.81c0.36,0.24,0.44-0.2,0.53-0.23C475.51,130.31,475.63,130.92,475.67,130.81z"/>
					<polygon class="st6" points="468.97,129.4 469.12,129.25 468.1,129.49 					"/>
					<path class="st6" d="M462.96,128.95c0.56,0.69,2.16-0.12,3.23,0.22l0.16,0.17c0.18-0.18,0.35-0.36,0.54-0.53
						C465.55,128.78,463.86,129.11,462.96,128.95z"/>
					<path class="st6" d="M459.69,127.57c0.22,0.26-0.67,0.29,0.75,0.03c-0.08-0.03-0.1-0.04-0.14-0.06
						C460.17,127.55,459.99,127.57,459.69,127.57z"/>
					<path class="st6" d="M460.3,127.54C460.93,127.47,459.86,127.33,460.3,127.54L460.3,127.54z"/>
					<path class="st6" d="M457.42,127.97l0.79-0.33c-0.19-0.15-0.93-0.11-0.67-0.25C456.72,127.61,456.92,127.75,457.42,127.97z"/>
					<path class="st6" d="M456.71,128.57l0.41-0.15C457.04,128.36,456.92,128.35,456.71,128.57z"/>
					<path class="st6" d="M457.99,128.1l-0.87,0.32c0.13,0.1,0.17,0.33,0.4-0.13C457.47,128.51,457.62,128.29,457.99,128.1z"/>
					<path class="st6" d="M458.51,128.16c0.47,0.1,1.08,0.16,0.28,0.47C460.34,128.4,460.07,127.91,458.51,128.16z"/>
					<path class="st6" d="M462.67,129.69l0.61,0.2c0.17-0.09,0.35-0.17,0.52-0.24C463.55,129.75,462.63,129.47,462.67,129.69z"/>
					<path class="st6" d="M452.39,128.23c-0.03,0.16,0.32,0.37,0.4,0.55l0.56-0.25C453.04,128.47,452.46,128.45,452.39,128.23z"/>
					<path class="st6" d="M452.79,128.78l-0.83,0.37C452.74,129.08,452.86,128.94,452.79,128.78z"/>
					<path class="st6" d="M456.66,129.38c0.46-0.24,0.93-0.48,1.4-0.71l-1.68,0.75L456.66,129.38z"/>
					<polygon class="st6" points="449.12,128.62 449.56,128.21 448.76,128.84 					"/>
					<path class="st6" d="M446.96,128.91c0.33-0.32-0.54-0.44-0.18-0.66c-0.58,0.11-1.06,0.4-1.5,0.66
						C445.75,128.75,446.27,128.73,446.96,128.91z"/>
					<path class="st6" d="M444.54,129.3c0.24-0.09,0.48-0.24,0.74-0.39C445.03,129,444.78,129.12,444.54,129.3z"/>
					<path class="st6" d="M450.48,129.27c-0.08-0.08-0.23-0.3-0.72-0.35l0.39,0.38C450.25,129.29,450.37,129.28,450.48,129.27z"/>
					<path class="st6" d="M450.16,129.31l-0.01-0.01c-0.37,0.03-0.62,0.05-0.73,0.06C449.51,129.36,449.73,129.34,450.16,129.31z"/>
					<path class="st6" d="M450.57,129.26c-0.03,0-0.05,0.01-0.09,0.01C450.52,129.3,450.54,129.32,450.57,129.26z"/>
					<path class="st6" d="M454.3,129.29c-0.48,0.31-1.52,0.7-0.43,0.92C454.2,129.87,453.58,129.74,454.3,129.29z"/>
					<path class="st6" d="M451.05,129.74l0.93-0.02c-0.03-0.11-0.22-0.25,0.02-0.4L451.05,129.74z"/>
					<polygon class="st6" points="450.62,129.93 451.05,129.74 450.71,129.74 					"/>
					<path class="st6" d="M446.14,129.57c-0.38,0.22-0.81,0.27-1.3,0.35c0.53,0.04,1.08,0.04,1.6-0.01
						C446.5,129.76,446.7,129.5,446.14,129.57z"/>
					<path class="st6" d="M448.1,129.49c-0.03,0.01-0.06,0.02-0.09,0.03C448.07,129.56,448.12,129.56,448.1,129.49z"/>
					<polygon class="st6" points="440,130.25 440.09,130.32 440.1,130.25 					"/>
					<path class="st6" d="M446.54,129.97c0.4,0.05,0.63-0.08,0.84-0.23c-0.29,0.07-0.6,0.13-0.94,0.16
						C446.41,129.96,446.41,130,446.54,129.97z"/>
					<path class="st6" d="M443.21,129.61c0.21,0.07,0.45,0.13,0.7,0.18C443.7,129.67,443.28,129.49,443.21,129.61z"/>
					<path class="st6" d="M447.87,129.42l0.06-0.02C447.79,129.32,447.81,129.36,447.87,129.42z"/>
					<path class="st6" d="M447.87,129.42c-0.2,0.08-0.34,0.2-0.5,0.31c0.24-0.06,0.45-0.13,0.64-0.21
						C447.96,129.5,447.91,129.46,447.87,129.42z"/>
					<path class="st6" d="M438.68,133.07c0.05-0.4,1.08-0.82,2.02-0.45c0.88-0.35,0.21-1.62-0.61-2.29
						c-0.02,0.17-0.01,0.33-0.91,0.62c0.33,0.2,2.06,0.39,1.31,0.79c-1.21,0.28-1.01-0.08-1.61-0.26c0.53,0.47-1.51,0.8-1.21,1.51
						l1.06-0.31C438.75,132.78,438.37,132.98,438.68,133.07z"/>
					<path class="st6" d="M441.83,130.25l0.37-0.07c-0.43-0.04-0.75-0.18-1.33-0.45c-0.61,0.23-0.73,0.39-0.77,0.52l1.85-0.06
						L441.83,130.25z"/>
					<path class="st6" d="M443.88,130.05c-0.26,0.45-1.15,0.7-0.56,1.13c1.1-0.11,0.75-0.42,1.39-0.66
						c-1.77,0.25,0.49-0.28-0.81-0.42c0.34-0.1,0.65-0.15,0.95-0.19c-0.32-0.03-0.64-0.06-0.93-0.12c0.02,0.01,0.03,0.02,0.04,0.02
						l0.01,0l0,0.01c0.08,0.05,0.11,0.08,0.02,0.05c-0.01,0.01-0.03,0.01-0.04,0.01C443.94,129.94,443.91,130,443.88,130.05
						c-0.52-0.05-0.09-0.11,0.07-0.17c0-0.02,0.02-0.04,0.02-0.07l-0.01,0l-1.76,0.37C442.58,130.21,443.05,130.17,443.88,130.05z"
						/>
					<path class="st6" d="M453.04,131.26c-0.06-0.03-0.06-0.06-0.07-0.09C452.86,131.23,452.82,131.27,453.04,131.26z"/>
					<path class="st6" d="M452.27,131.09c0.12-0.08,0.21-0.26,0.64-0.27c0.38,0.08,0.03,0.2,0.06,0.34
						c0.24-0.15,0.85-0.43,0.02-0.53l-0.12,0.07c-0.74-0.05-1.73-0.46-1.61-0.54C451.52,130.53,451.74,130.78,452.27,131.09z"/>
					<path class="st6" d="M448.02,130.75l-1.46,0.36l0.79,0.3l-0.06-0.22C448.14,131.18,447.93,130.93,448.02,130.75z"/>
					<polygon class="st6" points="439.82,130.04 439.99,129.58 439.17,130.27 					"/>
					<polygon class="st6" points="437.89,130.2 437.95,129.8 437.45,130.07 					"/>
					<path class="st6" d="M327.96,137.42l-0.44,0.11C327.73,137.5,327.87,137.46,327.96,137.42z"/>
					<path class="st6" d="M331.16,137.43l0.08-0.2C331.09,137.34,331.03,137.42,331.16,137.43z"/>
					<path class="st6" d="M390.07,131.71c-0.65-0.36-1.38-0.91-1.29-0.47l0.21,0.43C389.43,131.58,389.78,131.62,390.07,131.71z"/>
					<path class="st6" d="M357.32,134.88c0.06,0.04,0.13,0.09,0.19,0.13c0.15-0.15,0.3-0.29,0.43-0.42
						C357.75,134.67,357.54,134.77,357.32,134.88z"/>
					<path class="st6" d="M356.89,136.68l-0.85-0.27C356.23,136.51,356.5,136.6,356.89,136.68z"/>
					<path class="st6" d="M310.51,137.92l-0.52,0.44C310.8,138.36,310.44,138.14,310.51,137.92z"/>
					<path class="st6" d="M417.98,131.07c-0.56-0.15-1-0.21-1.39-0.22C417.27,131.08,417.82,131.44,417.98,131.07z"/>
					<path class="st6" d="M329.2,132.81c-0.27,0.08-0.38,0.17-0.38,0.27C329.1,133,329.26,132.92,329.2,132.81z"/>
					<path class="st6" d="M414.99,130.91c0.1,0.04,0.2,0.06,0.3,0.09c0.4-0.08,0.81-0.16,1.3-0.14
						C416.09,130.69,415.52,130.59,414.99,130.91z"/>
					<path class="st6" d="M247.2,136.98c-0.05-0.02-0.1-0.03-0.14-0.05C247.05,136.98,247.11,136.99,247.2,136.98z"/>
					<path class="st6" d="M228.87,132.21c0.18-0.02,0.48-0.02,0.76-0.02C229.49,132.16,229.26,132.16,228.87,132.21z"/>
					<path class="st6" d="M430.09,130.34C430.5,130.29,430.15,130.28,430.09,130.34L430.09,130.34z"/>
					<path class="st6" d="M432.15,131.98c-0.09,0.05-0.15,0.12-0.16,0.22C432.03,132.09,432.08,132.02,432.15,131.98z"/>
					<path class="st6" d="M410.95,133.72c-0.01,0-0.02,0-0.04,0C411.04,133.8,411.02,133.79,410.95,133.72z"/>
					<path class="st6" d="M430.71,130.51c-0.16-0.05-0.34-0.09-0.53-0.11C430.27,130.43,430.43,130.47,430.71,130.51z"/>
					<path class="st6" d="M430.62,130.31c0.14,0.01,0.26,0.02,0.36,0.03C431.03,130.26,430.99,130.22,430.62,130.31z"/>
					<path class="st6" d="M429.51,130.38c0.24-0.01,0.46,0,0.67,0.02c-0.08-0.03-0.12-0.05-0.1-0.07
						C429.96,130.34,429.79,130.36,429.51,130.38z"/>
					<path class="st6" d="M281.13,136.27c-0.03-0.01-0.06-0.02-0.09-0.04C280.62,136.4,280.81,136.38,281.13,136.27z"/>
					<path class="st6" d="M379.4,136.43c0.02,0,0.03-0.02,0.05-0.02c-0.02,0-0.04-0.01-0.06-0.01L379.4,136.43z"/>
					<path class="st6" d="M377.92,136.79c0.62-0.55,0.98-0.49,1.47-0.39l-0.52-1.24L377.92,136.79z"/>
					<path class="st6" d="M320.31,137.57l1.05,0.39c-1.26,0.64-2.17,0.43-1.19,0.97c0.14-1.36,4.06-0.15,4.2-1.51l0.69,0.28
						c-0.2-0.01-0.23,0.07-0.42,0.05c1.34,0.65,0.99-0.98,2.72-0.8c0.6,0.1,1.02,0.3,0.61,0.46l1.34-0.34
						c0.39,0.02,0.3,0.26-0.09,0.24l2.04-0.12l-0.01,0.04c0.29-0.22,0.95-0.55,1.27-0.69c0.52,0.19-0.26,0.15-0.13,0.31l1.13-0.34
						c0.46,0.35-0.47,0.7-1.25,0.65c1.07,1.35,0.94-0.35,3.22,0.43l-1.07,0.18c0.69,0.77,1.53,0.48,2.74,0.95
						c-0.29-0.25-2.43-1.2-1.2-1.54c0.35,0.1,0.8,0.15,1.46-0.13c0.01,0.48,0.66,0.36,1.46,0.33l-0.05,0.64
						c0.87-0.19,0.8-0.52,1.31-0.81c0.98,0.05,1.18,0.55,1.42,0.96c1.56,0.09-1.09-0.78,0.76-0.92c1.3,0.23,2.21-0.04,3.76-0.44
						c0.91,0.21-0.15,0.39,0.17,0.57l0.8-0.52c0.2,0.01,0.14,0.17,0.1,0.25c0.68-0.2,0.05-0.64,1.11-0.82
						c0.28-0.71,2.2,1.01,3.51,0.19c0.33,0.18-0.15,0.39-0.05,0.64c1.81-0.55,1.55-0.4,3.03-1.13l1.27,0.4
						c-0.94-0.47,0.25-1.05,1.28-1.53c-0.33-0.23-0.62-0.43-0.81-0.52l1.66-0.37c0.2,0.1,0.04,0.32-0.23,0.59
						c0.11-0.05,0.22-0.11,0.3-0.16c0.6,0.23,0.29,0.6-0.13,0.96c-0.2-0.13-0.4-0.26-0.6-0.39c-0.41,0.39-0.78,0.83-0.69,1.2
						c0.11-0.08,0.31-0.14,0.54-0.18c-0.11,0.11-0.17,0.2-0.12,0.27c0.06,0.07,0.23-0.08,0.5-0.24l0.39,0.71l0.09-0.28l2.18,0.42
						c1.55-0.74,2.89-1.81,5.35-2.15c-0.6,0.53-0.12,0.86-0.14,1.48c-0.68-0.64-1.91,0.31-3.19,0.19c0.67,0.06,0.53,0.36,0.36,0.46
						l2.28-0.63c-0.04,0.51,0.49,0.37,1.09,0.57c-0.47-0.99,1.69-0.7,2.62-1.02c0.06,0.34-0.15,0.68-1.29,0.62
						c1.26,0.73,1.6-1.2,2.84-0.58c-0.28,0.01-0.43-0.04-0.53,0.14c0.64-0.31,2.23-0.1,1.86,0.2l-0.28,0.01
						c1.84,0.09,5.6-0.09,5.85-0.94c0.02,0.11-0.22,1.03-0.33,1.2l3.22-2.93c-0.27,0.74,0.87,2.45-0.65,2.9
						c0.44,0.09,0.98,0.21,1.9-0.07c-0.3-0.1-0.77-1.04-0.36-1.12c1.14,0.79,0.79,0.42,2.18,1.08c-0.45-0.15,0.02-1.3,0.73-1.28
						c-0.11,0.17,0.08,1.13-0.17,1.25l1.74-1.16c-0.43,0.21-0.06,0.95,0.34,1.26c-0.19-0.22,1.52-0.01,1.99-0.13l-0.75-0.25
						c1.99,0.13,1.93-1.62,3.9-1.61c-0.23,0.24-0.56,1.44,0.45,1.56c0.45-0.59,1.97-2.82,3.7-3.31l0.34,0.32l1.33-0.41
						c-0.81,0.89-3.11,2.77-4.37,3.51c0.75,0.24,0.22,0.38,1.33,0.33c0.4,0.3-0.6,0.48-0.92,0.51l2.6,0.14
						c-0.13-0.67,1.97-0.72,1.85-1.28l-2.8,0.77c-0.13-0.67,1.58-1.95,3.42-1.87c0.47,0.26-0.32,1.2-0.28,1.43
						c0.23-0.24,1.73-0.48,1.91-0.32l-0.77,0.38c1.03,0.23,1.65-0.93,2.89-0.32c0.43,0.03,1.29,0.83,1.35,0.43
						c-0.71-0.75-0.91-3.12-0.46-3.71c0.15,0.05,2.24,0.67,2.74,1.04c0.71,0.58-1.01,1.46-0.4,1.96c0.02-0.18,0.4-0.42,0.56-0.5
						c0.45,0.14-0.17,0.57,0.8,0.46c0.14-0.69,1.97,0,0.44-0.59c0.94-0.22,1.01,0.11,2.12,0.05c-0.37-0.43,0.96-1.53,1.9-1.75
						c-0.05,0.17,0.17,0.39,0.27,0.49c1.94,0.01,2.99,0.29,4.8,0.24c0.17,0.16,1.05,0.33,0.69,0.64c0.26-0.13,0.49-0.37,1.05-0.4
						c1.1,0.55-1.24,0.13-0.4,0.81c0.06-0.4,1.43-0.59,2.21-0.86c-0.26-0.6-1.84-0.06-2.63,0.21c-0.03-0.84,1.33-1.77,3.21-2.22
						c1.5-0.26,0.67,0.52,0.93,0.4c2.83,0.06,2.36-1.55,4.72-1.02c0.95,0.51,0.08,1.07,0.3,1.45c-1.22,0.24-1.89-0.28-2.72-0.23
						l1.03,0.22c-0.38,0.19-1.2,0.35-1.65,0.21c0.79,0.46,4.77-0.06,6.96,0.32c0.38-0.19,1.04-0.4,0.72-0.61l-0.69,0.1
						c-0.65-0.41,1.28-0.64,0.4-0.82c0.91-0.34,1.93-0.85,3.24-0.66l0.27,0.6c-0.03-0.18-0.86-0.33-1.22-0.13
						c0.53-0.29,2.02,0.75,2.58-0.07l-0.93-0.39c0.91-0.34,2.03-1.04,3.18-0.9c-0.55-0.58-0.26,0.08-1.11-0.59
						c0.75,0.85-2.93,0.09-1.76,0.96c-0.87-0.79-1.46-0.29-2.58-0.95c0.04,0.2,0.4,0.37-0.57,0.31c-0.04,0.06-0.14,0.14-0.21,0.19
						c-0.03-0.01-0.04-0.01-0.07-0.01l0.05,0.02c-0.04,0.03-0.04,0.04,0.02,0.01c0.23,0.08,0.42,0.18,0.5,0.29
						c-0.46,0.48-2,0.52-2.51,0.78c-0.58-0.08,0.23-0.24-0.09-0.44l-0.77,0.38c-0.09-0.45-1.55-0.7-0.21-1l-1.22,0.02
						c-0.72-0.23-1.71-0.3-2.32-0.09c-0.58-0.08-1.43,0.54-0.95,0.18l-1.9,0.34l-0.02-0.11c-1.88,0-3.85,0.87-6.03,0.12
						c-0.63,0.13-1.28,0.29-2.35,0.19l-0.22-0.38c-0.81,0.16-2.46-0.32-2.79,0.09c-0.91-1.02-3.96-0.12-5.39-0.26l-0.04,0.51
						c-0.99,0-1.93,0.17-3.15,0.4l0.09,0.45c-1.05,0.39-2.72-0.25-4.39-0.17c0.11-0.17,0.53-0.14,0.84-0.04
						c-2.02-0.96-4.19,0.84-6.01,0.15c-0.45,0.17-0.77,0.13-1.09,0.02c0.04,0,0.08-0.01,0.11-0.03c-0.05,0-0.11,0-0.19,0
						c-0.2-0.07-0.41-0.16-0.63-0.22c0.19,0.1,0.37,0.19,0.53,0.23c-0.35,0.02-0.87,0.09-1.39,0.21l-0.23-0.48
						c-0.04,0.01-0.08,0.01-0.12,0.02c-0.51-0.17-0.4,0.24-0.12,0.59c-0.26,0.08-0.49,0.18-0.68,0.3c-0.43-0.77-1.35,0.29-1.93-0.53
						c-0.34,0.41-2.59,0.36-2.85,1.21c-0.02-0.11-0.17-0.16,0.11-0.17c-0.58-0.09-1.16-0.17-1.67,0.08l-0.26-0.61l-1.24,0.85
						c-0.77-0.36-1.09-0.57-0.34-1.05c-1.82,0.76-1.48,0.31-3.03,1.05l0.07-0.4c-0.56,0.02-1.44,0.57-1.78,0.25
						c-1.26-0.73-6.17,0-9.38-0.64c0.64,1.15-1.49-0.5-1.61,0.41c-0.19-0.27-0.64-0.42-0.12-0.67c-1.63,0.29-2.46-0.4-3.57,0.37
						c-0.19-0.27,0.34-0.41,0.18-0.57c-0.13,0.06-0.51,0.25-0.69,0.08c-0.17-0.16,0.24-0.23,0.49-0.36
						c-1.67,0.07-1.82,0.92-1.93,1.72c-0.85-0.37-1.27-0.31-1.87,0.22c-0.3-0.26-0.79-0.52,0.24-0.63
						c-0.58-0.03-3.56-0.33-3.62,0.31c-0.18-0.16-0.82-0.04-0.97,0.04c-1.31-0.02-1.42-0.08-2.71-0.01l0.36,0.1
						c-0.5,0.78-1.07,0.18-2.1,0.29l0.03-0.08c-2.38-0.53-1.02,0.28-3.37-0.34l0.13,0.48c-0.21,1.03-2.08-0.59-3.44-0.18l0.49,0.27
						c-0.74,0.36-2.09-1.38-2.83-1.5c-0.16-0.09,0.26-0.15,0.48-0.22c-1.96-0.59-0.25,0.63-1.7,0.79c-0.27-0.34,0.34-0.86-0.64-0.92
						c-0.49-0.27-2.83,1.12-4.17,0.48c0.3,0.26,0.59,0.52-0.08,0.72c-1.04,0.1-2.8-0.97-3.74-0.14c-0.13-0.07-0.18-0.14-0.19-0.2
						c-0.79,0.22-2.57,0.37-3.05,0.82c-0.74-1.65-4.92,0.82-4.91-0.71l-2.43,0.09l0.06-0.16c-1.56-0.1-2.11,0.27-2.65,0.64
						c-0.36-0.1-0.1-0.25-0.07-0.33c-2.27-0.3-2.5-0.24-4.41,0.52l-0.2-0.5c-0.52,0.29-3.29-0.78-5.52-0.21
						c0.02-0.06,0.07-0.15,0.25-0.22c-2.51,0.58-6-1.38-6.93,0.42l-1.66,0.44c2.14,0.15-0.32,0.78,0.56,1.09
						c-0.84,0.1-2.18-0.56-1.14-0.64l0.16,0.09c0.38-0.94-2.66-0.35-2.6-0.99c-4.22,0.03-8.32-0.52-12.27-0.6l0.45,0.74l-1.38-0.05
						c-0.36-0.17-0.48-0.58,0.5-0.54c-0.51-0.42-1.65,0.33-1.68,0.49c-1.92-0.31,0.76-0.85,0.17-0.87l-0.8,0.05l0.18,0.09
						c-0.65,0.29-0.71,0.61-1.89,0.56c-0.75-0.15-0.38-0.45-0.67-0.49c0-0.05-0.1-0.08-0.45-0.02l-1.73-0.08l0.69,0.58
						c-0.77,0.28-1.63-0.05-0.84,0.62c-1.16-1.02-6.47-0.44-7.19-0.76c-1.08,0.41-2.15,0.39-3.46,0.32
						c0.33,0.12,0.51,0.78-0.62,0.68c0.43-1.33-2.07-0.61-2.98-1.59c0.81,0.65-3.23,0.11-1.96,1.03c-0.95-0.12-0.05-0.5-0.76-0.83
						c-2.26,0.48-4.97-0.42-7.76-0.29c-0.05,0.18,0.42,0.45-0.19,0.7l-1.46-0.91c-0.55,0.08-0.53,1.01-1.52,0.38
						c0.14,0.15,0.35,0.38-0.02,0.43c-5.45-0.96-11.18,0.49-16.69-1.26c0.74,0.36,0.24,0.38-0.33,0.38
						c0.37,0.09-0.02,0.43,0.05,0.67l-2.31-0.72c-0.44,0.65-2.49-0.01-2.75,0.61l0.74-0.1c-1,0.72,1.33,1.69,1.16,2.64
						c1.12-0.82,2.86,1.32,4.69,0.15c0.39,0.2-0.35,0.3-0.14,0.53c0.47-0.4,1.02-0.47,2.03-0.26l-0.12,0.1
						c2.87-0.03,4.09,0.4,7.3,0.73l-0.23-0.48c0.69,0.08,0.83,0.23,1.16,0.35c0.81-0.7-1.94-0.08-1.2-0.86
						c0.9,0.98,4.88,0.11,5.48,1.22c1.06,0.03-0.3-0.55,0.76-0.53l0.28,0.3l0.28-0.38c0.7,0.08,1.04,0.45,1.06,0.71
						c-0.17-0.03-0.48,0.06-0.66,0.08c0.9,0.37,2.55-0.07,2.86,0.05l-1.02-0.2c2.91-0.23,6.45,0.21,9.27-0.34l-0.21-0.23
						c2.15-0.38,1.71,0.27,4.07,0.12l-0.09,0.05c0.47-0.22,1.1-0.32,1.75-0.29c-0.6,0.25,1.11,0.52,0.33,0.8
						c2.33-0.42,1.15-0.33,2.7-1.15l0.35,0.37c0.53-0.33,0.57-0.51,1.75-0.59c-0.97,0.31,0.74,0.57-0.34,0.98
						c2.46,0.84,3.67-0.77,4.79,0.43c1.14-1.01-2.13-0.6-1.49-0.81c-0.53-0.34,0.94-0.76,1.72-0.64c0.79,0.03,1.33,1.33,3.31,1.33
						c-0.2-0.01-0.21,0.07-0.41,0.06c0.74,0.27,1.46-0.34,2.36,0.09c0.52-0.62,1.18,0.05,1.34-0.74l-1.82,0.17
						c1.03-0.2,2.01-1.12,3.7-0.65c-0.13,0.16-0.64,0.36-0.99,0.48c0.49,0.24,0.96-0.15,1.47,0.1c-0.15,0.79-2.21,0.15-3.32,0.75
						c0.53,0.34,2.09-0.56,1.53,0.3c0.81-1.08,1.95,0.15,3.3-0.67l-0.09,0.47c0.21-0.07,0.65-0.29,1.05-0.28l-0.71,0.61
						c1.09-0.52,2.09,0.48,3.14,0.2c-2.18,0-0.49-0.58-1.41-0.93c2.7-0.61,1.54,1.25,4.56,1.04c-0.41,0.06-1.53-0.29-0.89-0.51
						c0.57,0.1,1.33,0.29,1.68,0.54c2-0.09-0.3-0.49,0.55-0.78c0.68,0.58,0.98-0.23,1.86-0.41l0,0.48c2.27,0.32,0.61-1,2.65-0.62
						l-0.87,0.66l1.07-0.17l-0.22,0.55c1.16-0.4,1.53-0.29,2.66-0.13c-0.26-0.34,0.15-0.87,1.16-0.88c0.69,0.29-0.39,0.46,1.04,0.39
						c-0.32,0.3-0.68,0.68-1.3,0.23c-0.06,0.16-0.32,0.3-0.39,0.46c0.74,0.33,1.86,0.08,2.38,0.08c-0.2-0.02-0.44-0.04-0.56-0.11
						l2.07-0.67c0.33,0.18,0.07,0.33-0.19,0.47c0.42-0.05,0.71-0.27,1.33-0.31c-0.16,0.39-0.12,0.8-1,0.98l1.97-0.43
						c0.13,0.17,1.01,0.47,0.76,0.61c1.09,0.23,2.69-0.76,4.14-0.45c0.08-0.08,0.23-0.15,0.54-0.2c1.36,0.09,2.57,0.57,4.19,0.03
						l0.92,0.7c1.27-0.16-1.24-0.88,0.86-1.15c1.49-0.23,0.56,0.6,1.08,0.79c0.74-0.36,2.03-1.08,3.4-0.51
						C321.09,137.62,320.73,137.52,320.31,137.57z M335.92,137.19c-0.3,0.1-0.9,0.42-1.13,0.14
						C335.13,136.77,335.4,137.03,335.92,137.19z M359.63,135.77c-0.22,0.16-0.57,0.09-0.97-0.09
						C358.94,135.64,359.27,135.66,359.63,135.77z M425.57,130.88c-0.01,0.01-0.02,0.01-0.03,0.02
						C424.86,130.73,425.1,130.8,425.57,130.88z M426.97,131.04c0.14-0.07,0.13-0.14,0.06-0.2c-0.09,0.13-0.41,0.14-0.77,0.12
						C426.38,131.08,426.56,131.16,426.97,131.04z M276.74,132.99l0.27,0.13C276.4,133.25,276.57,133.12,276.74,132.99z"/>
					<path class="st6" d="M356.95,136.47c-0.09-0.08-0.11-0.17-0.13-0.26C356.7,136.29,356.69,136.39,356.95,136.47z"/>
					<path class="st6" d="M310.6,137.84l-0.05-0.01c-0.03,0.03-0.04,0.06-0.05,0.09L310.6,137.84z"/>
					<path class="st6" d="M405.42,135.78c-0.29-0.06-0.45-0.14-0.56-0.23C404.85,135.67,404.98,135.76,405.42,135.78z"/>
					<path class="st6" d="M434.34,129.96l-0.89,0.16c0.43-0.04,0.59,0.06,0.81,0.13C434.24,130.13,434.06,129.98,434.34,129.96z"/>
					<path class="st6" d="M442.24,132.53c0.13-0.07,0.28-0.03,0.4-0.09l-0.05-0.22C442.03,132.27,441.65,132.47,442.24,132.53z"/>
					<path class="st6" d="M435.23,131.53c0.09,0.4,0.64,0.24,1.26,0.14c-0.04,0-0.07,0.01-0.11,0.01
						C436.54,131.09,435.89,131.31,435.23,131.53z"/>
					<path class="st6" d="M436.64,131.64c0.19-0.03,0.39-0.05,0.58-0.04C437.28,131.37,436.98,131.57,436.64,131.64z"/>
					<path class="st6" d="M428.74,130.71c0.3,0.09,0.17-0.52,0.34-0.37C429.4,129.82,427.12,131.04,428.74,130.71z"/>
					<polygon class="st6" points="435.8,132.84 435.55,132.35 435.22,132.77 					"/>
					<path class="st6" d="M430.83,132.67l1.01,0.1c-0.02-0.08,0.11-0.14,0.26-0.18C431.48,132.59,430.8,132.52,430.83,132.67z"/>
					<path class="st6" d="M432.1,132.59c0.32,0,0.63-0.02,0.8-0.11C432.73,132.49,432.35,132.52,432.1,132.59z"/>
					<polygon class="st6" points="434.43,133.05 434.13,132.96 433.42,132.95 					"/>
					<path class="st6" d="M420.04,132.92l-1.09,0.18c-0.11,0.18,0.2,0.27,0.6,0.19C419.81,133.16,420.22,133.08,420.04,132.92z"/>
					<path class="st6" d="M423.4,134.18c-0.3-0.09-0.32-0.21-0.5-0.37l-0.01,0.62L423.4,134.18z"/>
					<path class="st6" d="M420.21,134.43c-0.1,0.18-1.57,0.54-0.19,0.46C420.13,134.72,421.22,134.54,420.21,134.43z"/>
					<polygon class="st6" points="403.68,134.13 403.96,134.11 403.89,133.09 					"/>
					<path class="st6" d="M389.19,136.92c1.3,0.22,0.29-0.63,1.47-0.36c0.3-0.25-0.96-0.23-0.66-0.44
						C389.23,136.39,388.82,136.25,389.19,136.92z"/>
					<path class="st6" d="M390.01,136.12c0.12-0.04,0.26-0.09,0.4-0.16C390.18,136.02,390.08,136.08,390.01,136.12z"/>
					<polygon class="st6" points="225.83,131.6 225,131.36 225.53,131.72 					"/>
					<path class="st6" d="M224.21,132.31l-0.18-0.65l-0.52,0.58C223.7,132.21,224.07,132.16,224.21,132.31z"/>
					<path class="st6" d="M338.25,138.48l0.06-0.16c-0.13-0.17-0.33-0.18-0.72-0.2L338.25,138.48z"/>
					<polygon class="st6" points="326.91,138.06 327.11,138.08 326.74,137.49 					"/>
					<path class="st6" d="M317.41,138.84c0.39,0.02,0.84-0.11,1.23-0.08C317.79,138.86,317.3,138.11,317.41,138.84z"/>
				</g>
			</g>
		</g>
	</g>
</g>
<rect x="303.39" y="84.48" class="st7" width="157.19" height="10.03"/>
</svg>
