<?xml version="1.0" encoding="utf-8"?>
<!-- Generator: Adobe Illustrator 25.2.3, SVG Export Plug-In . SVG Version: 6.00 Build 0)  -->
<svg version="1.1" id="레이어_1" xmlns="http://www.w3.org/2000/svg" xmlns:xlink="http://www.w3.org/1999/xlink" x="0px"
	 y="0px" viewBox="0 0 350 100" style="enable-background:new 0 0 350 100;" xml:space="preserve">
<style type="text/css">
	.st0{stroke:#000000;stroke-miterlimit:10;}
	.st1{fill:#FFFFFF;stroke:#000000;stroke-miterlimit:10;}
	.st2{fill:#DCDDDD;stroke:#000000;stroke-width:0.5;stroke-miterlimit:10;}
	.st3{fill:#C59D62;stroke:#C59D62;stroke-miterlimit:10;}
	.st4{fill:#40220F;}
	.st5{fill:none;stroke:#B81C25;stroke-miterlimit:10;}
	.st6{fill:#FFFFFF;}
	.st7{fill:#DCDDDD;}
	.st8{fill:#E83828;}
	.st9{font-family:'BatangChe';}
	.st10{font-size:27px;}
	.st11{font-size:7px;}
</style>
<path class="st0" d="M139.16,75.52c2.36,2.44,16.73,16.81,39.62,16.47c22.51-0.34,36.32-14.67,38.66-17.18"/>
<path class="st1" d="M309.09,76.9H32.72V18.19c55.64,18.34,86.54,11.2,104.74,0c9.5-5.84,20.03-15.55,37.26-16.47
	c19.17-1.02,30.98,9.67,45.35,16.47c17.55,8.31,45.21,13.77,89.02,0C309.09,37.76,309.09,57.33,309.09,76.9z"/>
<path class="st2" d="M188.59,29.68c-1.86,1.87-7.27-3.49-15.04-4.06c-7.03-0.51-14.62,2.99-15.27,6.92
	c-0.48,2.87,2.86,5.32,1.67,7.16c-0.95,1.48-3.36,0.3-5.01,1.91c-1.94,1.89-1.81,6.65,0.48,8.83c3.13,2.98,9.68,0.6,10.02,1.91
	c0.22,0.82-2.4,1.51-3.1,3.82c-0.63,2.07,0.67,4.17,1.19,5.01c3.64,5.87,15.44,9.21,21.24,4.77c3.66-2.8,3.17-7.34,6.21-7.88
	c3.08-0.55,4.53,3.95,8.35,3.82c4.69-0.15,7.64-7.07,7.88-7.64c1.8-4.35,1.9-10.55-0.72-11.93c-2.5-1.32-5.9,2.59-7.4,1.43
	c-2.36-1.83,5.75-11.83,2.39-16.95c-2.42-3.68-10.26-4.04-12.17-1.43C188.2,26.89,189.6,28.66,188.59,29.68z"/>
<circle class="st3" cx="181.35" cy="45.5" r="12.65"/>
<path class="st4" d="M183.34,35.05c-3.2-0.52-5.04,0.17-6.14,0.94c-1.21,0.85-1.18,1.55-3.19,3.19c-1.84,1.5-2.48,1.41-3.07,2.48
	c-0.86,1.56-0.43,3.42-0.24,4.25c0.42,1.8,1.09,1.91,1.3,3.54c0.23,1.86-0.57,2.28-0.12,3.19c0.64,1.28,2.29,0.54,5.43,2.01
	c1.88,0.88,2.61,1.76,3.66,1.42c0.95-0.31,0.84-1.2,1.77-1.53c1.54-0.56,2.65,1.54,4.37,1.18c1.42-0.3,2.38-2.09,2.71-3.19
	c0.51-1.66,0.02-3.09,0.83-3.54c0.46-0.26,0.77,0.12,1.18-0.12c0.62-0.36,0.5-1.57,0-5.31c-0.38-2.87-0.45-3.13-0.59-3.54
	c-0.64-1.81-1.72-3.05-2.48-3.78"/>
<line class="st5" x1="188.42" y1="45.21" x2="185.39" y2="44.67"/>
<line class="st5" x1="176.45" y1="44.94" x2="178.04" y2="42.3"/>
<line class="st5" x1="180.28" y1="52" x2="183.35" y2="51.79"/>
<line class="st5" x1="178.76" y1="37.34" x2="175.73" y2="36.8"/>
<line class="st5" x1="181.81" y1="40.05" x2="183.91" y2="42.3"/>
<line class="st5" x1="175.73" y1="53.36" x2="174.78" y2="50.43"/>
<line class="st5" x1="188.12" y1="40.19" x2="190.45" y2="38.17"/>
<circle class="st6" cx="181.81" cy="45.21" r="4.5"/>
<path class="st7" d="M181.04,9.73v39.95h1.63V9.73c-0.04-1.62-0.34-2.89-0.7-3.09C181.54,6.42,181.1,7.76,181.04,9.73z"/>
<path class="st8" d="M182.67,6.62v17.86c3.57-0.36,5.78-1.46,7.17-2.44c0.8-0.57,1.66-1.34,3.26-1.95c1.4-0.54,2.05-0.45,3.69-0.87
	c2.26-0.58,2.92-1.24,4.34-1.74c1.52-0.54,3.88-0.89,7.38,0.22c-3.32-2.75-6.49-3.97-9.34-4.34c-3.81-0.5-5.73,0.68-8.9-0.22
	C187.19,12.26,184.7,9.93,182.67,6.62z"/>
<text transform="matrix(1 0 0 1 40.8743 58.1518)" class="st9 st10">대전브레</text>
<text transform="matrix(1 0 0 1 218.0107 58.1514)" class="st9 st10">드투어</text>
<text transform="matrix(1 0 0 1 153.578 85.3805)" class="st6 st9 st11">대전브레드투어</text>
</svg>
