<?xml version="1.0" encoding="utf-8"?>
<!-- Generator: Adobe Illustrator 25.2.3, SVG Export Plug-In . SVG Version: 6.00 Build 0)  -->
<svg version="1.1" id="레이어_1" xmlns="http://www.w3.org/2000/svg" xmlns:xlink="http://www.w3.org/1999/xlink" x="0px"
	 y="0px" viewBox="0 0 250 250" style="enable-background:new 0 0 250 250;" xml:space="preserve">
<style type="text/css">
	.st0{fill:#EFEFEF;}
	.st1{fill:none;stroke:#FFFFFF;stroke-width:2;stroke-miterlimit:10;}
	.st2{fill:none;stroke:#E60012;stroke-miterlimit:10;}
	.st3{fill:#DDDDDD;}
	.st4{fill:#727171;}
	.st5{fill:#595757;}
	.st6{fill:#FFFFFF;stroke:#C30D23;stroke-width:1.6;stroke-miterlimit:10;}
	.st7{fill:#C9A063;stroke:#C9A063;stroke-miterlimit:10;}
	.st8{fill:#40220F;}
	.st9{fill:none;stroke:#C30D23;stroke-miterlimit:10;}
	.st10{fill:#FFFFFF;}
	.st11{font-family:'AdobeMyungjoStd-Medium-KSCpc-EUC-H';}
	.st12{font-size:12px;}
</style>
<polyline class="st0" points="90.01,162.77 125.96,45.56 159.99,162.77 "/>
<line class="st1" x1="125.96" y1="49.16" x2="125.96" y2="159.17"/>
<line class="st2" x1="125.96" y1="55.39" x2="125.96" y2="147.91"/>
<ellipse class="st3" cx="125.48" cy="89.42" rx="29.84" ry="6.71"/>
<circle class="st4" cx="115.53" cy="89.42" r="1.68"/>
<circle class="st4" cx="105.59" cy="89.42" r="1.68"/>
<circle class="st4" cx="125.48" cy="89.42" r="1.68"/>
<circle class="st4" cx="135.07" cy="89.42" r="1.68"/>
<circle class="st4" cx="145.13" cy="89.42" r="1.68"/>
<line class="st5" x1="122" y1="58.47" x2="129.71" y2="58.47"/>
<line class="st5" x1="102.77" y1="121.17" x2="146.81" y2="121.17"/>
<line class="st5" x1="120.02" y1="64.92" x2="131.58" y2="64.92"/>
<line class="st5" x1="107.74" y1="104.95" x2="143.46" y2="104.17"/>
<path class="st6" d="M125.96,49.16"/>
<line class="st5" x1="96.83" y1="140.53" x2="153.54" y2="140.53"/>
<circle class="st4" cx="120.02" cy="70.97" r="0.84"/>
<circle class="st4" cx="123.8" cy="70.97" r="0.84"/>
<circle class="st4" cx="128" cy="70.97" r="0.84"/>
<circle class="st4" cx="131.58" cy="70.97" r="0.84"/>
<circle class="st7" cx="125.96" cy="42.05" r="22.02"/>
<path class="st8" d="M129.43,23.85c-5.58-0.9-8.77,0.3-10.69,1.64c-2.1,1.48-2.06,2.7-5.55,5.55c-3.21,2.62-4.32,2.45-5.34,4.32
	c-1.5,2.72-0.74,5.96-0.41,7.4c0.72,3.13,1.9,3.33,2.26,6.16c0.41,3.23-1,3.97-0.21,5.55c1.12,2.23,3.99,0.93,9.45,3.49
	c3.27,1.53,4.54,3.07,6.37,2.47c1.65-0.54,1.46-2.08,3.08-2.67c2.67-0.97,4.61,2.69,7.6,2.05c2.46-0.52,4.14-3.65,4.73-5.55
	c0.89-2.89,0.03-5.38,1.44-6.16c0.8-0.45,1.34,0.21,2.05-0.21c1.07-0.63,0.87-2.73,0-9.25c-0.67-4.99-0.78-5.45-1.03-6.16
	c-1.12-3.15-3-5.31-4.32-6.58"/>
<line class="st9" x1="138.27" y1="41.54" x2="132.99" y2="40.61"/>
<line class="st9" x1="117.44" y1="41.07" x2="120.2" y2="36.48"/>
<line class="st9" x1="123.29" y1="53.44" x2="128.63" y2="53.07"/>
<line class="st9" x1="121.45" y1="27.83" x2="116.18" y2="26.9"/>
<line class="st9" x1="126.77" y1="32.56" x2="130.42" y2="36.48"/>
<line class="st9" x1="117.01" y1="52.45" x2="115.35" y2="47.36"/>
<line class="st9" x1="137.76" y1="32.8" x2="141.8" y2="29.28"/>
<circle class="st10" cx="126.77" cy="41.54" r="7.83"/>
<text transform="matrix(1 0 0 1 83.2626 181.2535)" class="st11 st12">대전브레드투어</text>
</svg>
