<?xml version="1.0" encoding="utf-8"?>
<!-- Generator: Adobe Illustrator 25.2.3, SVG Export Plug-In . SVG Version: 6.00 Build 0)  -->
<svg version="1.1" id="레이어_1" xmlns="http://www.w3.org/2000/svg" xmlns:xlink="http://www.w3.org/1999/xlink" x="0px"
	 y="0px" viewBox="0 0 250 250" style="enable-background:new 0 0 250 250;" xml:space="preserve">
<style type="text/css">
	.st0{fill:#FFFFFF;stroke:#231815;stroke-width:0.5;stroke-miterlimit:10;}
	.st1{fill:#B28247;stroke:#604C3F;stroke-width:0.75;stroke-miterlimit:10;}
	.st2{fill:#B28247;stroke:#C9A063;stroke-width:0.25;stroke-miterlimit:10;}
	.st3{fill:#604C3F;stroke:#231815;stroke-width:0.5;stroke-miterlimit:10;}
	.st4{fill:none;stroke:#231815;stroke-width:0.5;stroke-miterlimit:10;}
	.st5{fill:#1D2088;}
	.st6{fill:#E60012;}
	.st7{fill:#DCDDDD;stroke:#231815;stroke-width:0.25;stroke-miterlimit:10;}
	.st8{fill:none;stroke:#231815;stroke-width:0.75;stroke-miterlimit:10;}
	.st9{font-family:'H2sa1M';}
	.st10{font-size:36px;}
	.st11{fill:#1D2088;stroke:#F7F8F8;stroke-miterlimit:10;}
</style>
<line class="st0" x1="90.66" y1="42.57" x2="66.31" y2="95.01"/>
<line class="st0" x1="136.03" y1="57.25" x2="113.97" y2="110.69"/>
<path class="st0" d="M66.31,95.01c4.34,3.48,11.04,8.03,20.11,11.33c11.33,4.13,21.32,4.49,27.44,4.22"/>
<circle class="st0" cx="102" cy="76.45" r="12.89"/>
<path class="st1" d="M89.89,80.85l24.21-8.67L89.89,80.85z"/>
<path class="st2" d="M89.89,80.85l24.21-8.67L89.89,80.85z"/>
<path class="st1" d="M96.8,88.06l11.03-23.23L96.8,88.06z"/>
<path class="st2" d="M96.8,88.06l11.03-23.23L96.8,88.06z"/>
<path class="st1" d="M113.93,81.96L90.7,70.93L113.93,81.96z"/>
<path class="st2" d="M113.93,81.96L90.7,70.93L113.93,81.96z"/>
<path class="st1" d="M106.37,88.65l-8.1-24.41L106.37,88.65z"/>
<path class="st2" d="M106.37,88.65l-8.1-24.41L106.37,88.65z"/>
<line class="st3" x1="110.83" y1="85.82" x2="111.97" y2="84.62"/>
<path class="st4" d="M114.89,79.11"/>
<circle class="st4" cx="111.4" cy="54.56" r="6.33"/>
<path class="st4" d="M105.58,52.22c0.77,1.92,1.71,2.69,2.58,2.94c2.13,0.62,3.84-1.82,6.1-1.26c1.33,0.33,2.26,1.55,2.9,2.89"/>
<polygon class="st5" points="105.58,52.89 105.35,54.51 105.47,55.67 106.06,57.39 106.88,58.61 108.07,59.61 109.49,60.33 
	111.4,60.62 112.31,60.56 113.65,60.17 114.81,59.57 116.38,58.07 108.21,56.1 107.49,55.67 106.93,55.11 106.61,54.51 106,53.69 
	"/>
<g>
	<g>
		<path class="st5" d="M106.96,56.25c0.05,0.06,0.11,0.12,0.17,0.17c0.1,0.08,0.2,0.16,0.31,0.22c0.11,0.06,0.23,0.11,0.36,0.14
			c0.08,0.02,0.16,0.02,0.24,0.05c-0.05-0.02-0.1-0.04-0.15-0.06c0.02,0.01,0.03,0.02,0.05,0.03c-0.04-0.03-0.08-0.07-0.13-0.1
			c0.08,0.06,0.15,0.14,0.24,0.2c0.15,0.09,0.28,0.11,0.45,0.13c0.15,0.01,0.34-0.08,0.44-0.18c0.11-0.11,0.19-0.29,0.18-0.44
			c-0.01-0.16-0.06-0.33-0.18-0.44c-0.04-0.03-0.08-0.07-0.13-0.1c-0.1-0.06-0.2-0.08-0.32-0.09c-0.01,0-0.01,0-0.02,0
			c0.06,0.01,0.11,0.01,0.17,0.02c-0.03,0-0.06-0.01-0.08-0.02c0.05,0.02,0.1,0.04,0.15,0.06c-0.02-0.01-0.04-0.02-0.06-0.04
			c0.04,0.03,0.08,0.07,0.13,0.1c-0.08-0.06-0.14-0.14-0.23-0.19c-0.09-0.05-0.18-0.09-0.28-0.1c-0.1-0.02-0.2-0.04-0.3-0.08
			c0.05,0.02,0.1,0.04,0.15,0.06c-0.08-0.03-0.15-0.08-0.22-0.13c0.04,0.03,0.08,0.07,0.13,0.1c-0.07-0.05-0.13-0.11-0.18-0.18
			c-0.09-0.12-0.3-0.18-0.44-0.18c-0.15,0-0.34,0.07-0.44,0.18c-0.11,0.12-0.19,0.28-0.18,0.44c0.01,0.06,0.01,0.11,0.02,0.17
			C106.83,56.08,106.88,56.18,106.96,56.25L106.96,56.25z"/>
	</g>
</g>
<g>
	<g>
		<path class="st5" d="M108.15,55.42c-0.02,0-0.04,0-0.06,0c-0.09,0-0.17,0.01-0.24,0.05c-0.08,0.03-0.14,0.07-0.2,0.13
			c-0.06,0.06-0.1,0.12-0.13,0.2c-0.04,0.07-0.06,0.15-0.05,0.24c0.01,0.06,0.01,0.11,0.02,0.17c0.03,0.11,0.08,0.2,0.16,0.28
			c0.04,0.03,0.08,0.07,0.13,0.1c0.1,0.06,0.2,0.08,0.32,0.09c0.02,0,0.04,0,0.06,0c0.09,0,0.17-0.01,0.24-0.05
			c0.08-0.03,0.14-0.07,0.2-0.13c0.06-0.06,0.1-0.12,0.13-0.2c0.04-0.07,0.06-0.15,0.05-0.24c-0.01-0.06-0.01-0.11-0.02-0.17
			c-0.03-0.11-0.08-0.2-0.16-0.28c-0.04-0.03-0.08-0.07-0.13-0.1C108.37,55.45,108.27,55.42,108.15,55.42L108.15,55.42z"/>
	</g>
</g>
<g>
	<g>
		<path class="st5" d="M107.94,55.43c-0.01,0-0.01,0-0.02,0c0.06,0.01,0.11,0.01,0.17,0.02c-0.05-0.01-0.1-0.02-0.14-0.04
			c0.05,0.02,0.1,0.04,0.15,0.06c-0.04-0.02-0.08-0.04-0.11-0.07c0.04,0.03,0.08,0.07,0.13,0.1c-0.09-0.07-0.17-0.14-0.26-0.21
			c-0.05-0.03-0.09-0.05-0.15-0.08c-0.06-0.02-0.11-0.05-0.17-0.06c-0.14-0.03-0.29-0.04-0.42-0.09c0.05,0.02,0.1,0.04,0.15,0.06
			c-0.03-0.01-0.05-0.03-0.08-0.04c0.04,0.03,0.08,0.07,0.13,0.1c-0.01-0.01-0.02-0.02-0.03-0.03c0.03,0.04,0.07,0.08,0.1,0.13
			c-0.01-0.01-0.01-0.02-0.02-0.03c0.02,0.05,0.04,0.1,0.06,0.15c-0.01-0.01-0.01-0.03-0.01-0.04c0.01,0.06,0.01,0.11,0.02,0.17
			c0-0.02,0-0.03,0-0.04c-0.01,0.06-0.01,0.11-0.02,0.17c0-0.01,0-0.02,0.01-0.03c-0.02,0.05-0.04,0.1-0.06,0.15
			c0,0,0-0.01,0.01-0.01c0.08-0.14,0.11-0.32,0.06-0.48c-0.04-0.14-0.15-0.3-0.29-0.37c-0.15-0.08-0.32-0.12-0.48-0.06
			c-0.15,0.05-0.29,0.14-0.37,0.29c-0.13,0.24-0.13,0.52,0,0.76c0.11,0.2,0.3,0.32,0.51,0.4c0.08,0.03,0.16,0.05,0.25,0.06
			c0.09,0.02,0.18,0.02,0.26,0.05c-0.05-0.02-0.1-0.04-0.15-0.06c0.03,0.01,0.06,0.03,0.09,0.05c-0.04-0.03-0.08-0.07-0.13-0.1
			c0.1,0.08,0.19,0.17,0.31,0.24c0.17,0.1,0.33,0.13,0.53,0.15c0.15,0.02,0.34-0.08,0.44-0.18c0.11-0.11,0.19-0.29,0.18-0.44
			c-0.01-0.16-0.06-0.33-0.18-0.44c-0.04-0.03-0.08-0.07-0.13-0.1C108.16,55.46,108.06,55.43,107.94,55.43L107.94,55.43z"/>
	</g>
</g>
<g>
	<g>
		<path class="st5" d="M106.92,56.1c0.8,0,0.81-1.25,0-1.25C106.11,54.85,106.11,56.1,106.92,56.1L106.92,56.1z"/>
	</g>
</g>
<g>
	<g>
		<path class="st5" d="M107.25,56.36c0.8,0,0.81-1.25,0-1.25C106.45,55.11,106.44,56.36,107.25,56.36L107.25,56.36z"/>
	</g>
</g>
<g>
	<g>
		<path class="st5" d="M107.25,56.33c0.8,0,0.81-1.25,0-1.25C106.45,55.08,106.44,56.33,107.25,56.33L107.25,56.33z"/>
	</g>
</g>
<g>
	<g>
		<path class="st5" d="M107.19,55.92c0,0,0,0.01,0,0.01c0,0.09,0.01,0.17,0.05,0.24c0.03,0.08,0.07,0.14,0.13,0.2
			c0.06,0.06,0.12,0.1,0.2,0.13c0.07,0.04,0.15,0.06,0.24,0.05c0.06-0.01,0.11-0.01,0.17-0.02c0.11-0.03,0.2-0.08,0.28-0.16
			c0.03-0.04,0.07-0.08,0.1-0.13c0.06-0.1,0.08-0.2,0.09-0.32c0,0,0-0.01,0-0.01c0-0.09-0.01-0.17-0.05-0.24
			c-0.03-0.08-0.07-0.14-0.13-0.2c-0.06-0.06-0.12-0.1-0.2-0.13c-0.07-0.04-0.15-0.06-0.24-0.05c-0.06,0.01-0.11,0.01-0.17,0.02
			c-0.11,0.03-0.2,0.08-0.28,0.16c-0.03,0.04-0.07,0.08-0.1,0.13C107.22,55.7,107.19,55.8,107.19,55.92L107.19,55.92z"/>
	</g>
</g>
<g>
	<g>
		<path class="st5" d="M108.36,56.71c0.8,0,0.81-1.25,0-1.25C107.56,55.46,107.56,56.71,108.36,56.71L108.36,56.71z"/>
	</g>
</g>
<g>
	<g>
		<path class="st5" d="M109.53,56.74c0.8,0,0.81-1.25,0-1.25C108.72,55.49,108.72,56.74,109.53,56.74L109.53,56.74z"/>
	</g>
</g>
<g>
	<g>
		<path class="st5" d="M109.53,56.65c0.8,0,0.81-1.25,0-1.25C108.72,55.4,108.72,56.65,109.53,56.65L109.53,56.65z"/>
	</g>
</g>
<g>
	<g>
		<path class="st5" d="M109.36,56.69c0.8,0,0.81-1.25,0-1.25C108.56,55.44,108.56,56.69,109.36,56.69L109.36,56.69z"/>
	</g>
</g>
<g>
	<g>
		<path class="st5" d="M110.92,56.36c0.07-0.02,0.13-0.05,0.19-0.08c0.02-0.01,0.03-0.01,0.05-0.02c0.06-0.04,0.11-0.08,0.16-0.12
			c0.01-0.01,0.03-0.02,0.04-0.03c0.06-0.06,0.1-0.12,0.13-0.2c0.04-0.07,0.06-0.15,0.05-0.24c0-0.09-0.01-0.17-0.05-0.24
			c-0.03-0.08-0.07-0.14-0.13-0.2c-0.04-0.03-0.08-0.07-0.13-0.1c-0.1-0.06-0.2-0.08-0.32-0.09c-0.06,0.01-0.11,0.01-0.17,0.02
			c-0.11,0.03-0.2,0.08-0.28,0.16c-0.01,0.01-0.03,0.03-0.04,0.04c0.04-0.03,0.08-0.07,0.13-0.1c-0.03,0.02-0.05,0.04-0.08,0.05
			c0.05-0.02,0.1-0.04,0.15-0.06c-0.01,0.01-0.03,0.01-0.04,0.01c-0.08,0.02-0.15,0.06-0.21,0.11c-0.07,0.04-0.12,0.1-0.16,0.18
			c-0.05,0.07-0.07,0.15-0.07,0.23c-0.02,0.08-0.01,0.17,0.01,0.25c0.02,0.05,0.04,0.1,0.06,0.15c0.06,0.09,0.13,0.17,0.22,0.22
			c0.05,0.02,0.1,0.04,0.15,0.06C110.7,56.38,110.81,56.38,110.92,56.36L110.92,56.36z"/>
	</g>
</g>
<g>
	<g>
		<path class="st5" d="M110.64,56.36c0.8,0,0.81-1.25,0-1.25C109.83,55.11,109.83,56.36,110.64,56.36L110.64,56.36z"/>
	</g>
</g>
<g>
	<g>
		<path class="st5" d="M111,56.26c0.8,0,0.81-1.25,0-1.25C110.2,55.01,110.19,56.26,111,56.26L111,56.26z"/>
	</g>
</g>
<g>
	<g>
		<path class="st5" d="M111.18,56.19c0.15-0.03,0.27-0.11,0.39-0.2c0.03-0.03,0.06-0.06,0.1-0.08c-0.07,0.05,0.07-0.03,0.04-0.02
			c0.19-0.07,0.45-0.17,0.66-0.26c0.45-0.17,0.95-0.38,1.44-0.3c0.37,0.06,0.85,0.3,1.08,0.6c0.29,0.36,0.64,0.8,0.71,1.27
			c0.05,0.33,0.47,0.52,0.77,0.44c0.36-0.1,0.49-0.43,0.44-0.77c-0.09-0.61-0.53-1.15-0.89-1.63c-0.39-0.52-0.98-0.86-1.59-1.06
			c-0.65-0.2-1.35-0.08-1.98,0.13c-0.3,0.1-0.6,0.23-0.9,0.34c-0.14,0.05-0.28,0.1-0.4,0.17c-0.08,0.04-0.15,0.1-0.22,0.16
			c-0.02,0.01-0.03,0.03-0.05,0.04c-0.08,0.07-0.06,0.06,0.07-0.03c-0.33,0.07-0.52,0.46-0.44,0.77
			C110.5,56.09,110.85,56.26,111.18,56.19L111.18,56.19z"/>
	</g>
</g>
<g>
	<g>
		<path class="st5" d="M116.92,56.99c-0.01-0.06-0.01-0.14-0.03-0.2c-0.02-0.06-0.05-0.13-0.08-0.19c-0.04-0.07-0.09-0.13-0.15-0.19
			c-0.04-0.05-0.09-0.08-0.13-0.13c0.03,0.04,0.07,0.08,0.1,0.13c-0.01-0.02-0.03-0.04-0.04-0.06c0.02,0.05,0.04,0.1,0.06,0.15
			c-0.01-0.01-0.01-0.03-0.01-0.04c0.01,0.06,0.01,0.11,0.02,0.17c0-0.01,0-0.02,0-0.04c-0.36,0.15-0.71,0.29-1.07,0.44
			c0.02,0.02,0.04,0.05,0.06,0.07c-0.03-0.04-0.07-0.08-0.1-0.13c0.04,0.05,0.07,0.1,0.1,0.16c0.04,0.07,0.09,0.13,0.16,0.18
			c0.06,0.06,0.13,0.09,0.21,0.11c0.08,0.03,0.17,0.03,0.25,0.01c0.08,0,0.16-0.03,0.23-0.07c0.04-0.03,0.08-0.07,0.13-0.1
			c0.08-0.08,0.13-0.17,0.16-0.28c0.01-0.06,0.01-0.11,0.02-0.17c0-0.11-0.03-0.22-0.09-0.32c-0.02-0.04-0.04-0.08-0.07-0.12
			c-0.04-0.06-0.09-0.12-0.13-0.17c-0.02-0.02-0.03-0.04-0.05-0.06c-0.04-0.03-0.08-0.07-0.13-0.1c-0.05-0.02-0.1-0.04-0.15-0.06
			c-0.06-0.01-0.11-0.01-0.17-0.02c-0.09,0-0.17,0.01-0.24,0.05c-0.05,0.01-0.1,0.04-0.14,0.08c-0.05,0.03-0.08,0.07-0.11,0.11
			c-0.04,0.04-0.07,0.08-0.08,0.14c-0.04,0.07-0.06,0.15-0.05,0.24c-0.01,0.07,0.01,0.15,0.02,0.21c0.01,0.07,0.05,0.13,0.08,0.19
			c0.01,0.02,0.02,0.03,0.03,0.04c0.04,0.05,0.08,0.11,0.12,0.16c0.04,0.05,0.1,0.09,0.14,0.14c-0.03-0.04-0.07-0.08-0.1-0.13
			c0.01,0.02,0.02,0.03,0.03,0.05c-0.02-0.05-0.04-0.1-0.06-0.15c0.01,0.02,0.01,0.03,0.01,0.05c-0.01-0.06-0.01-0.11-0.02-0.17
			c0,0,0,0,0,0.01c0,0.09,0.01,0.17,0.05,0.24c0.03,0.08,0.07,0.14,0.13,0.2c0.06,0.06,0.12,0.1,0.2,0.13
			c0.07,0.04,0.15,0.06,0.24,0.05c0.06-0.01,0.11-0.01,0.17-0.02c0.11-0.03,0.2-0.08,0.28-0.16c0.03-0.04,0.07-0.08,0.1-0.13
			C116.9,57.2,116.92,57.1,116.92,56.99L116.92,56.99z"/>
	</g>
</g>
<g>
	<g>
		<path class="st5" d="M110.57,55.12c-0.03,0.02-0.05,0.05-0.08,0.07c0.04-0.03,0.08-0.07,0.13-0.1c-0.09,0.07-0.19,0.13-0.3,0.17
			c0.05-0.02,0.1-0.04,0.15-0.06c-0.1,0.04-0.21,0.07-0.32,0.09c-0.08,0.02-0.15,0.06-0.21,0.11c-0.07,0.04-0.12,0.1-0.16,0.18
			c-0.05,0.07-0.07,0.15-0.07,0.23c-0.02,0.08-0.01,0.17,0.01,0.25c0.05,0.15,0.14,0.3,0.29,0.37c0.05,0.02,0.1,0.04,0.15,0.06
			c0.11,0.03,0.22,0.03,0.33,0c0.19-0.03,0.36-0.1,0.53-0.18c0.06-0.03,0.12-0.06,0.17-0.1c0.1-0.07,0.19-0.14,0.28-0.22
			c0.06-0.06,0.1-0.12,0.13-0.2c0.04-0.07,0.06-0.15,0.05-0.24c0-0.09-0.01-0.17-0.05-0.24c-0.03-0.08-0.07-0.14-0.13-0.2
			c-0.12-0.11-0.28-0.19-0.44-0.18c-0.06,0.01-0.11,0.01-0.17,0.02C110.74,54.99,110.64,55.04,110.57,55.12L110.57,55.12z"/>
	</g>
</g>
<g>
	<g>
		<path class="st5" d="M109.76,56.01C109.76,56.01,109.76,56.02,109.76,56.01c-0.01-0.05-0.01-0.11-0.02-0.16c0,0.01,0,0.02,0,0.03
			c0.01-0.06,0.01-0.11,0.02-0.17c0,0.01,0,0.02-0.01,0.04c0.02-0.05,0.04-0.1,0.06-0.15c0,0,0,0.01,0,0.01
			c-0.05,0.07-0.07,0.15-0.07,0.23c-0.02,0.08-0.01,0.17,0.01,0.25c0.02,0.08,0.06,0.15,0.11,0.21c0.04,0.07,0.1,0.12,0.18,0.16
			c0.05,0.02,0.1,0.04,0.15,0.06c0.11,0.03,0.22,0.03,0.33,0c0.05-0.02,0.1-0.04,0.15-0.06c0.09-0.06,0.17-0.13,0.22-0.22
			c0.03-0.05,0.05-0.11,0.07-0.17c0-0.01,0-0.02,0.01-0.02c0.01-0.06,0.02-0.12,0.02-0.19c0-0.06-0.02-0.13-0.02-0.19
			c-0.02-0.08-0.06-0.15-0.11-0.21c-0.04-0.07-0.1-0.12-0.18-0.16c-0.07-0.05-0.15-0.07-0.23-0.07c-0.08-0.02-0.17-0.01-0.25,0.01
			c-0.05,0.02-0.1,0.04-0.15,0.06c-0.09,0.06-0.17,0.13-0.22,0.22c-0.02,0.05-0.04,0.1-0.06,0.15
			C109.73,55.79,109.73,55.9,109.76,56.01L109.76,56.01z"/>
	</g>
</g>
<g>
	<g>
		<path class="st5" d="M106.5,54.57c-0.01,0-0.02,0-0.02,0c0.06,0.01,0.11,0.01,0.17,0.02c-0.03,0-0.05-0.01-0.08-0.02
			c0.05,0.02,0.1,0.04,0.15,0.06c-0.02-0.01-0.05-0.02-0.07-0.04c0.04,0.03,0.08,0.07,0.13,0.1c-0.02-0.02-0.04-0.03-0.05-0.05
			c0.03,0.04,0.07,0.08,0.1,0.13c-0.01-0.02-0.03-0.04-0.04-0.06c-0.04-0.07-0.09-0.13-0.16-0.18c-0.06-0.06-0.13-0.09-0.21-0.11
			c-0.08-0.03-0.17-0.03-0.25-0.01c-0.08,0-0.16,0.03-0.23,0.07c-0.04,0.03-0.08,0.07-0.13,0.1c-0.08,0.08-0.13,0.17-0.16,0.28
			c-0.01,0.06-0.01,0.11-0.02,0.17c0,0.11,0.03,0.22,0.09,0.32c0.01,0.01,0.01,0.03,0.02,0.04c0.04,0.06,0.08,0.11,0.12,0.16
			c0.01,0.01,0.02,0.02,0.03,0.03c0.01,0.01,0.01,0.01,0.02,0.01c0.05,0.04,0.09,0.07,0.14,0.11c0.01,0.01,0.02,0.02,0.04,0.02
			c0.06,0.03,0.12,0.06,0.19,0.08c0.01,0,0.03,0.01,0.04,0.01c0.07,0.01,0.14,0.02,0.21,0.03c0.09,0,0.17-0.01,0.24-0.05
			c0.08-0.03,0.14-0.07,0.2-0.13c0.06-0.06,0.1-0.12,0.13-0.2c0.04-0.07,0.06-0.15,0.05-0.24c-0.01-0.06-0.01-0.11-0.02-0.17
			c-0.03-0.11-0.08-0.2-0.16-0.28c-0.04-0.03-0.08-0.07-0.13-0.1C106.72,54.6,106.61,54.57,106.5,54.57L106.5,54.57z"/>
	</g>
</g>
<g>
	<g>
		<path class="st5" d="M106.33,54.4c-0.01,0-0.03,0-0.04,0c-0.09,0-0.17,0.01-0.24,0.05c-0.08,0.03-0.14,0.07-0.2,0.13
			c-0.06,0.06-0.1,0.12-0.13,0.2c-0.04,0.07-0.06,0.15-0.05,0.24c0.01,0.06,0.01,0.11,0.02,0.17c0.03,0.11,0.08,0.2,0.16,0.28
			c0.04,0.03,0.08,0.07,0.13,0.1c0.1,0.06,0.2,0.08,0.32,0.09c0.01,0,0.03,0,0.04,0c0.09,0,0.17-0.01,0.24-0.05
			c0.08-0.03,0.14-0.07,0.2-0.13c0.06-0.06,0.1-0.12,0.13-0.2c0.04-0.07,0.06-0.15,0.05-0.24c-0.01-0.06-0.01-0.11-0.02-0.17
			c-0.03-0.11-0.08-0.2-0.16-0.28c-0.04-0.03-0.08-0.07-0.13-0.1C106.55,54.43,106.45,54.4,106.33,54.4L106.33,54.4z"/>
	</g>
</g>
<g>
	<g>
		<path class="st5" d="M106.39,54.55c-0.03,0.01-0.06,0.02-0.08,0.02c-0.08,0.02-0.15,0.06-0.21,0.11c-0.07,0.04-0.12,0.1-0.16,0.18
			c-0.05,0.07-0.07,0.15-0.07,0.23c-0.02,0.08-0.01,0.17,0.01,0.25c0.02,0.05,0.04,0.1,0.06,0.15c0.06,0.09,0.13,0.17,0.22,0.22
			c0.05,0.02,0.1,0.04,0.15,0.06c0.11,0.03,0.22,0.03,0.33,0c0.03-0.01,0.06-0.02,0.08-0.02c0.08-0.02,0.15-0.06,0.21-0.11
			c0.07-0.04,0.12-0.1,0.16-0.18c0.05-0.07,0.07-0.15,0.07-0.23c0.02-0.08,0.01-0.17-0.01-0.25c-0.02-0.05-0.04-0.1-0.06-0.15
			c-0.06-0.09-0.13-0.17-0.22-0.22c-0.05-0.02-0.1-0.04-0.15-0.06C106.61,54.52,106.5,54.52,106.39,54.55L106.39,54.55z"/>
	</g>
</g>
<g>
	<g>
		<path class="st5" d="M106.38,54.31C106.37,54.31,106.37,54.31,106.38,54.31c0.04,0.02,0.09,0.04,0.14,0.06
			c-0.04-0.02-0.07-0.03-0.1-0.06c0.04,0.03,0.08,0.07,0.13,0.1c-0.03-0.02-0.06-0.05-0.08-0.08c0.03,0.04,0.07,0.08,0.1,0.13
			c-0.01-0.02-0.03-0.04-0.04-0.06c-0.04-0.07-0.09-0.13-0.16-0.18c-0.06-0.06-0.13-0.09-0.21-0.11c-0.08-0.03-0.17-0.03-0.25-0.01
			c-0.08,0-0.16,0.03-0.23,0.07c-0.04,0.03-0.08,0.07-0.13,0.1c-0.08,0.08-0.13,0.17-0.16,0.28c-0.01,0.06-0.01,0.11-0.02,0.17
			c0,0.11,0.03,0.22,0.09,0.32c0.04,0.07,0.09,0.13,0.14,0.19c0.02,0.02,0.04,0.04,0.06,0.06c0.05,0.04,0.1,0.08,0.15,0.12
			c0.01,0.01,0.02,0.02,0.03,0.02s0.02,0.01,0.03,0.02c0.06,0.03,0.12,0.05,0.19,0.08c0.08,0.03,0.17,0.03,0.25,0.01
			c0.08,0,0.16-0.03,0.23-0.07c0.07-0.04,0.13-0.09,0.18-0.16c0.06-0.06,0.09-0.13,0.11-0.21c0.01-0.06,0.01-0.11,0.02-0.17
			c0-0.11-0.03-0.22-0.09-0.32c-0.03-0.04-0.07-0.08-0.1-0.13C106.57,54.39,106.48,54.34,106.38,54.31L106.38,54.31z"/>
	</g>
</g>
<g>
	<g>
		<path class="st5" d="M105.97,55.24c0.8,0,0.81-1.25,0-1.25C105.17,53.99,105.17,55.24,105.97,55.24L105.97,55.24z"/>
	</g>
</g>
<g>
	<g>
		<path class="st5" d="M105.9,55.17c0.8,0,0.81-1.25,0-1.25C105.1,53.92,105.1,55.17,105.9,55.17L105.9,55.17z"/>
	</g>
</g>
<path class="st5" d="M105.58,52.83c-0.04,0.08-0.09,0.2-0.12,0.35c-0.03,0.12-0.03,0.2-0.04,0.35c-0.02,0.26-0.04,0.29-0.07,0.51
	c-0.03,0.26-0.03,0.46-0.03,0.65c0,0.21,0,0.44,0.04,0.74c0.05,0.34,0.12,0.59,0.19,0.85c0.05,0.18,0.11,0.39,0.22,0.65
	c0.21,0.51,0.44,0.86,0.53,1c0.05,0.08,0.17,0.22,0.33,0.44c0.1,0.14,0.1,0.16,0.15,0.22c0.16,0.21,0.31,0.3,0.51,0.46
	c0.41,0.31,0.34,0.32,0.64,0.53c0.09,0.06,0.13,0.08,0.69,0.39c0.09,0.05,0.4,0.22,0.49,0.26"/>
<polyline class="st5" points="105.44,53.29 105.35,53.78 105.35,54.04 "/>
<polygon class="st5" points="105.79,53.29 106.1,53.76 106.26,54.04 105.53,53.39 "/>
<path class="st5" d="M108.93,60.13l0.51,0.18l0.65,0.19l0.4,0.07l0.53,0.06h0.71h0.46l0.65-0.14l0.71-0.19l0.76-0.35l0.58-0.39
	l0.35-0.36h0.15l0.18-0.23l0.39-0.43l0.34-0.4l0.08-0.18l0.27-0.39l0.3-0.55l-0.19,0.4l-0.62,0.9l-0.17,0.22
	c0,0-0.35,0.43-0.39,0.43c-0.04,0-0.56,0.41-0.56,0.41l-6.78-2.34v-1.53h0.5h0.64l1.03-0.31l0.67-0.29l0.9-0.41l0.65-0.24l1.36-0.15
	l1.1,0.44l1,0.93l0.88,1.43"/>
<polygon class="st5" points="114.89,59.56 115.57,58.97 116.12,58.32 116.65,57.56 117.03,56.9 116.68,56.68 114.72,57.03 "/>
<polygon class="st5" points="116.82,57.25 116.5,57.89 116.38,58.07 115.88,58.71 115.64,58.22 116.23,57.18 "/>
<polygon class="st6" points="105.81,52.22 106.15,52.89 106.47,53.46 107.07,54.22 107.82,54.81 108.65,55.01 109.26,55.01 
	109.99,54.81 110.92,54.39 111.53,54.11 112.49,53.75 113.29,53.56 113.83,53.54 114.64,49.42 113.69,48.92 112.85,48.65 
	112.03,48.5 111.4,48.44 110.75,48.53 110.14,48.6 109.36,48.82 108.65,49.14 108.01,49.49 107.38,50.01 106.81,50.51 106.56,50.89 
	106.29,51.28 106.1,51.6 105.9,51.9 "/>
<path class="st0" d="M113.82,48.98"/>
<path class="st6" d="M104.15,45.12"/>
<path class="st6" d="M114.11,49.13l0.62,0.3l0.35,0.24l0.19,0.18l0.29,0.21l0.08,0.15l0.24,0.24l0.17,0.17l0.26,0.29l0.19,0.31
	l0.32,0.52c0,0,0.18,0.42,0.22,0.49s0.36,1.07,0.36,1.07v0.27l0.15,0.78l-0.11,1.12l-0.21,0.93l-0.54-0.93l-1-1.13l-0.72-0.44
	l-0.53-0.21l-0.53-0.1l-0.61-0.01"/>
<path class="st4" d="M90.74,42.7c4.55-0.73,13.52-1.55,24,1.78c10.85,3.45,17.84,9.6,21.11,12.89"/>
<line class="st4" x1="89.14" y1="77.24" x2="70.85" y2="85.22"/>
<line class="st4" x1="96.8" y1="88.06" x2="89.14" y2="107.27"/>
<line class="st4" x1="108.5" y1="87.57" x2="116.04" y2="105.66"/>
<polygon class="st6" points="88.97,77.61 70.83,85.56 66.63,95.01 72.48,99.19 75.9,101.26 80.1,103.41 85,105.63 86.98,106.33 
	88.75,106.96 96.19,88.37 91.69,89.33 89.12,80.85 88.6,78.11 "/>
<path class="st6" d="M88.78,77.61"/>
<polygon class="st6" points="87.81,106.63 88.96,106.96 96.37,88.48 96.04,88.06 94.7,87.7 93.74,86.74 92.41,85.52 91.52,84.56 
	90.44,82.7 89.48,80.59 89.14,79.33 88.78,77.61 87.81,78.78 "/>
<path class="st6" d="M96.44,88.26"/>
<polyline class="st6" points="96.37,88.48 96.19,88.36 95.07,87.59 94.17,87.17 93.74,86.74 94.48,88.48 "/>
<g>
	<g>
		<path class="st6" d="M90.15,84.12c-0.03,0-0.06,0-0.09-0.01c0.22,0.03,0.44,0.06,0.66,0.09c-0.07-0.01-0.13-0.03-0.19-0.05
			c0.2,0.08,0.4,0.17,0.6,0.25c-0.06-0.03-0.12-0.06-0.17-0.1c0.17,0.13,0.34,0.26,0.51,0.39c-0.04-0.03-0.08-0.07-0.12-0.12
			c-0.23-0.24-0.49-0.42-0.8-0.52c-0.3-0.16-0.62-0.23-0.96-0.22c-0.34-0.01-0.67,0.06-0.96,0.22c-0.31,0.1-0.58,0.27-0.8,0.52
			c-0.13,0.17-0.26,0.34-0.39,0.51c-0.23,0.39-0.34,0.81-0.34,1.26c0.03,0.22,0.06,0.44,0.09,0.66c0.12,0.42,0.33,0.79,0.64,1.1
			c0.04,0.04,0.08,0.08,0.12,0.12c0.16,0.13,0.35,0.27,0.52,0.4c0,0,0.01,0.01,0.01,0.01c0.01,0.01,0.02,0.02,0.04,0.02
			c0.02,0.01,0.05,0.03,0.07,0.04c0.11,0.05,0.23,0.1,0.33,0.14c0.1,0.04,0.22,0.1,0.33,0.14c0.03,0.01,0.05,0.02,0.08,0.02
			c0.01,0,0.03,0.01,0.04,0.01c0.01,0,0.01,0,0.02,0c0.21,0.03,0.46,0.07,0.67,0.09c0.03,0,0.06,0.01,0.09,0.01
			c0.34,0.01,0.67-0.06,0.96-0.22c0.31-0.1,0.58-0.27,0.8-0.52c0.24-0.23,0.42-0.49,0.52-0.8c0.16-0.3,0.23-0.62,0.22-0.96
			c-0.03-0.22-0.06-0.44-0.09-0.66c-0.12-0.42-0.33-0.79-0.64-1.1c-0.17-0.13-0.34-0.26-0.51-0.39
			C91.02,84.23,90.6,84.12,90.15,84.12L90.15,84.12z"/>
	</g>
</g>
<g>
	<g>
		<path class="st6" d="M89.59,88.54c3.22,0,3.22-5,0-5C86.38,83.54,86.37,88.54,89.59,88.54L89.59,88.54z"/>
	</g>
</g>
<g>
	<g>
		<path class="st6" d="M89.52,88.35c3.22,0,3.22-5,0-5C86.3,83.35,86.3,88.35,89.52,88.35L89.52,88.35z"/>
	</g>
</g>
<g>
	<g>
		<path class="st6" d="M92.52,91.46c3.22,0,3.22-5,0-5C89.3,86.46,89.3,91.46,92.52,91.46L92.52,91.46z"/>
	</g>
</g>
<g>
	<g>
		<path class="st6" d="M92.81,91.5c3.22,0,3.22-5,0-5C89.6,86.5,89.59,91.5,92.81,91.5L92.81,91.5z"/>
	</g>
</g>
<g>
	<g>
		<path class="st6" d="M92,90.94c3.22,0,3.22-5,0-5C88.78,85.94,88.78,90.94,92,90.94L92,90.94z"/>
	</g>
</g>
<g>
	<g>
		<path class="st6" d="M90.78,89.83c3.22,0,3.22-5,0-5C87.56,84.83,87.56,89.83,90.78,89.83L90.78,89.83z"/>
	</g>
</g>
<g>
	<g>
		<path class="st6" d="M89.96,88.91c3.22,0,3.22-5,0-5C86.75,83.91,86.74,88.91,89.96,88.91L89.96,88.91z"/>
	</g>
</g>
<polygon class="st5" points="96.8,88.65 89.37,106.96 90.66,107.48 91.74,107.81 92.81,108.04 93.74,108.37 95.78,108.74 
	96.8,108.96 98.56,109.33 100.41,109.67 102.32,109.89 104.67,110.11 107.33,110.3 110.83,110.48 113.04,110.48 113.87,110.22 
	115.85,105.66 97.15,88.65 "/>
<polyline class="st5" points="115.64,105.47 108.37,88.06 107.83,88.26 107.11,88.65 106.11,89 104.37,89.33 102.78,89.59 
	101.26,89.63 99.81,89.33 99.3,89.33 98.27,89.11 97.49,88.96 97.15,88.65 "/>
<polyline class="st5" points="96.8,88.65 97.33,88.78 98,88.96 98.27,89.11 98.89,89.67 "/>
<polygon class="st7" points="78.36,102.82 64.96,123.11 58.44,117.78 73.68,99.91 "/>
<polygon class="st7" points="96.8,108.96 90.15,131.19 98.89,132.52 102.96,110.63 "/>
<path class="st8" d="M91.4,107.07c-2.54,0.96-8.55,3.52-9.63,7.48c-0.84,3.08,1.62,5.87,5.66,8.78
	c17.2,12.39,42.95,12.6,45.86,20.14c1.48,3.84-5.84,8.61-7.36,9.64c-21.33,14.56-79.78,20.43-106.61-15.78
	C-6.88,101.97,10.12,44.04,49.11,20c49.35-30.43,107.3,6.8,125.33,32.89c3.1,4.48,11.64,16.83,10.22,32.67
	c-0.83,9.26-5.44,23.98-14.67,25.56c-7.95,1.36-15.58-7.7-18.44-11.11c-5.79-6.88-7.72-14.24-8.44-18.22"/>
<text transform="matrix(1 0 0 1 42.5992 68.7881)" class="st9 st10">무형</text>
<text transform="matrix(1 0 0 1 87.8053 93.1521)" class="st11 st9 st10">문화재</text>
<text transform="matrix(1 0 0 1 37.5226 132.5189)" class="st9 st10">관라원</text>
</svg>
