<?xml version="1.0" encoding="utf-8"?>
<!-- Generator: Adobe Illustrator 25.2.3, SVG Export Plug-In . SVG Version: 6.00 Build 0)  -->
<svg version="1.1" id="레이어_1" xmlns="http://www.w3.org/2000/svg" xmlns:xlink="http://www.w3.org/1999/xlink" x="0px"
	 y="0px" viewBox="0 0 500 200" style="enable-background:new 0 0 500 200;" xml:space="preserve">
<style type="text/css">
	.st0{fill:#330205;}
	.st1{font-family:'GungsuhChe';}
	.st2{font-size:30px;}
</style>
<g>
	<g>
		<path class="st0" d="M137.8,36.51c8.73-0.14,16.84,3.51,24.44,7.43c3.17,1.63,6.93,3.29,8.86,6.46c1.84,3.02,1.65,6.73,0.73,10.02
			c-1.08,3.87-3.32,7.25-5.5,10.59c-2.34,3.6-4.56,7.2-6.04,11.25c-1.56,4.28-2.42,8.8-3.32,13.25c-0.94,4.69-1.83,9.4-2.62,14.12
			c-0.61,3.68-0.4,8.89,4.13,9.89c4.69,1.04,9.47-3.66,11.61-7.32c1.63-2.78-2.69-5.3-4.32-2.52c-0.87,1.48-2,2.81-3.43,3.77
			c-0.67,0.45-1.48,1.01-2.29,1.16c-0.23,0.04-0.41,0.04-0.63-0.01c0.26,0.06-0.07-0.18-0.02-0.06c-0.4-0.85-0.43-2.18-0.29-3.27
			c0.3-2.22,0.79-4.44,1.19-6.64c0.82-4.51,1.68-9.02,2.68-13.5c0.94-4.18,2.1-8.26,4.19-12.02c3.92-7.05,9.37-13.16,10.22-21.5
			c0.38-3.71-0.4-7.68-2.67-10.7c-2.41-3.21-5.88-5.15-9.38-6.97c-8.57-4.45-17.72-8.58-27.57-8.42
			C134.58,31.56,134.57,36.56,137.8,36.51L137.8,36.51z"/>
	</g>
</g>
<g>
	<g>
		<path class="st0" d="M125.79,57.11c3.36-1.35,6.78-2.69,10.3-3.58c3-0.75,6.25-1.16,9.22-0.07c4.28,1.58,6.77,7.11,4.97,11.33
			c-0.53,1.24-0.37,2.68,0.9,3.42c1.05,0.62,2.89,0.35,3.42-0.9c2.71-6.35,0.46-14.4-5.83-17.75c-7.71-4.1-16.92-0.24-24.31,2.72
			c-1.25,0.5-2.13,1.67-1.75,3.08C123.04,56.55,124.53,57.61,125.79,57.11L125.79,57.11z"/>
	</g>
</g>
<g>
	<g>
		<path class="st0" d="M139.09,122.62c1.23,2.98,2.51,6.1,4.93,8.33c2.48,2.29,5.82,3.39,9.1,3.92c6.82,1.1,13.83-0.17,19.75-3.75
			c2.75-1.66,0.24-5.99-2.52-4.32c-4.66,2.81-10.2,4.02-15.61,3.29c-2.38-0.32-5.16-0.95-7.04-2.55c-1.87-1.6-2.87-4.03-3.79-6.25
			c-0.52-1.25-1.66-2.14-3.08-1.75C139.65,119.86,138.57,121.36,139.09,122.62L139.09,122.62z"/>
	</g>
</g>
<g>
	<g>
		<path class="st0" d="M110.03,119.19c-3.41,11.13,4.81,21.11,14.22,25.97c11.16,5.75,24.71,6.79,37,5.25
			c5.5-0.69,10.74-1.98,15.74-4.42c4.46-2.18,8.54-5.17,12.08-8.64c7.19-7.04,12.21-16.02,15.78-25.36
			c3.98-10.42,5.96-21.47,8.73-32.24c2.75-10.69,6.33-21.57,13.34-30.29c7.11-8.84,17.19-14.22,28.1-16.86
			c12.23-2.96,25.57-4.18,38-1.73c9.78,1.93,18.17,7.12,24.51,14.79c6.19,7.48,10.04,16.77,12.32,26.14c0.76,3.13,1.34,6.3,1.8,9.49
			c0.19,1.34,1.89,2.07,3.08,1.75c1.44-0.4,1.94-1.73,1.75-3.08c-2.85-19.98-12.15-41.48-31.49-50.44
			c-11.19-5.18-24.2-5.57-36.28-4.27c-11.84,1.28-23.9,3.9-34,10.51c-9.76,6.39-16.38,15.88-20.78,26.55
			c-4.31,10.45-6.42,21.61-9.13,32.53c-2.5,10.05-5.64,19.91-11.14,28.76c-5.01,8.05-11.94,15.02-20.74,18.8
			c-4.93,2.12-10.27,3.01-15.59,3.41c-6.27,0.47-12.64,0.23-18.81-1.06c-5.44-1.13-10.81-2.94-15.41-6.13
			c-3.89-2.7-7.4-6.56-8.54-11.25c-0.56-2.3-0.38-4.6,0.31-6.85C115.8,117.43,110.97,116.11,110.03,119.19L110.03,119.19z"/>
	</g>
</g>
<text transform="matrix(1 0 0 1 240.0928 71.4663)" class="st1 st2">무형</text>
<text transform="matrix(1 0 0 1 221.1074 104.2438)" class="st1 st2">문화재</text>
<text transform="matrix(1 0 0 1 260.826 137.2527)" class="st1 st2">관리원</text>
</svg>
