<?xml version="1.0" encoding="utf-8"?>
<!-- Generator: Adobe Illustrator 25.2.3, SVG Export Plug-In . SVG Version: 6.00 Build 0)  -->
<svg version="1.1" id="레이어_1" xmlns="http://www.w3.org/2000/svg" xmlns:xlink="http://www.w3.org/1999/xlink" x="0px"
	 y="0px" viewBox="0 0 200 200" style="enable-background:new 0 0 200 200;" xml:space="preserve">
<style type="text/css">
	.st0{fill:#C40000;}
	.st1{fill:#C40000;stroke:#C40000;stroke-width:2;stroke-miterlimit:10;}
	.st2{font-family:'Dotum';}
	.st3{font-size:56px;}
	.st4{fill:#C40000;stroke:#C40000;stroke-miterlimit:10;}
	.st5{font-size:13px;}
</style>
<g>
	<path class="st0" d="M99.8,7.7c41.7,0,78.5,28.2,89.3,68.6c6.4,23.9,3.1,48.8-9.2,70.2c-12.4,21.4-32.3,36.7-56.2,43.1
		c-7.9,2.1-15.9,3.2-24,3.2c-41.8,0-78.5-28.2-89.3-68.6C4,100.3,7.3,75.3,19.6,53.9s32.3-36.7,56.2-43.1
		C83.7,8.7,91.7,7.7,99.8,7.7L99.8,7.7 M99.8,2.7C91.4,2.7,83,3.7,74.5,6C22.5,19.9-8.4,73.4,5.6,125.4
		c11.7,43.6,51.1,72.3,94.1,72.3c8.4,0,16.8-1.1,25.3-3.3c52-13.9,82.9-67.4,68.9-119.4C182.2,31.4,142.8,2.7,99.8,2.7L99.8,2.7z"/>
</g>
<g>
	<path class="st0" d="M99.4,22.8c35.2,0,66.2,23.8,75.3,57.8c11.1,41.5-13.6,84.4-55.2,95.5c-6.6,1.8-13.4,2.7-20.2,2.7
		C64.1,178.8,33.2,155,24,121C12.9,79.4,37.6,36.6,79.2,25.4C85.8,23.7,92.6,22.8,99.4,22.8L99.4,22.8 M99.4,20.8
		c-6.9,0-13.8,0.9-20.8,2.7c-42.7,11.4-68,55.3-56.6,98c9.6,35.7,41.9,59.3,77.2,59.3c6.9,0,13.8-0.9,20.8-2.7
		c42.7-11.4,68-55.3,56.6-98C167.1,44.3,134.8,20.8,99.4,20.8L99.4,20.8z"/>
</g>
<g>
	<polygon class="st0" points="59.3,45.2 63.3,49.8 69.4,49.1 66.3,54.3 68.8,59.8 62.9,58.5 58.4,62.6 57.9,56.6 52.6,53.6 
		58.1,51.2 	"/>
</g>
<g>
	<polygon class="st0" points="107.6,32.1 111.6,36.6 117.6,35.9 114.5,41.1 117.1,46.7 111.1,45.3 106.7,49.4 106.1,43.4 
		100.8,40.4 106.4,38 	"/>
</g>
<g>
	<polygon class="st0" points="83.4,38.5 87.4,43.1 93.5,42.4 90.4,47.6 92.9,53.1 87,51.8 82.5,55.9 82,49.9 76.7,46.9 82.2,44.5 	
		"/>
</g>
<text transform="matrix(0.9659 -0.2588 0.2588 0.9659 49.3205 125.7542)" class="st1 st2 st3">출첵</text>
<g>
	<path class="st0" d="M87.6,150.8l2.7,3l0.3,0.4l0.5-0.1l4-0.5l-2.1,3.5l-0.3,0.5l0.2,0.5l1.7,3.7l-3.9-0.9l-0.5-0.1l-0.4,0.4
		l-3,2.7l-0.4-4l0-0.5l-0.5-0.3l-3.5-2l3.7-1.6l0.5-0.2l0.1-0.5L87.6,150.8 M87,148.6l-1.2,6l-5.6,2.4l5.3,3l0.6,6l4.5-4.1l5.9,1.3
		l-2.5-5.5l3.1-5.2l-6,0.7L87,148.6L87,148.6z"/>
</g>
<g>
	<path class="st0" d="M111.8,144.3l2.7,3l0.3,0.4l0.5-0.1l4-0.5l-2.1,3.5l-0.3,0.5l0.2,0.5l1.7,3.7l-3.9-0.9l-0.5-0.1l-0.4,0.4
		l-3,2.7l-0.4-4l0-0.5l-0.5-0.3l-3.5-2l3.7-1.6l0.5-0.2l0.1-0.5L111.8,144.3 M111.2,142.2l-1.2,6l-5.6,2.4l5.3,3l0.6,6l4.5-4.1
		l5.9,1.3l-2.5-5.5l3.1-5.2l-6,0.7L111.2,142.2L111.2,142.2z"/>
</g>
<g>
	<path class="st0" d="M135.9,137.9l2.7,3l0.3,0.4l0.5-0.1l4-0.5l-2.1,3.5l-0.3,0.5l0.2,0.5l1.7,3.7l-3.9-0.9l-0.5-0.1l-0.4,0.4
		l-3,2.7l-0.4-4l0-0.5l-0.5-0.3l-3.5-2l3.7-1.6l0.5-0.2l0.1-0.5L135.9,137.9 M135.3,135.7l-1.2,6l-5.6,2.4l5.3,3l0.6,6l4.5-4.1
		l5.9,1.3l-2.5-5.5l3.1-5.2l-6,0.7L135.3,135.7L135.3,135.7z"/>
</g>
<text transform="matrix(0.9659 -0.2588 0.2588 0.9659 73.6966 144.282)" class="st4 st2 st5">2022-03-19</text>
</svg>
