<?xml version="1.0" encoding="utf-8"?>
<!-- Generator: Adobe Illustrator 25.2.3, SVG Export Plug-In . SVG Version: 6.00 Build 0)  -->
<svg version="1.1" id="레이어_1" xmlns="http://www.w3.org/2000/svg" xmlns:xlink="http://www.w3.org/1999/xlink" x="0px"
	 y="0px" viewBox="0 0 220 160" style="enable-background:new 0 0 220 160;" xml:space="preserve">
<style type="text/css">
	.st0{fill:#020202;}
	.st1{font-family:'HancomGothicRegular';}
	.st2{font-size:12px;}
	.st3{fill:#276FFF;}
	.st4{font-size:38px;}
	.st5{fill:#1371E2;}
</style>
<text transform="matrix(1 0 0 1 33.6049 34.8886)" class="st0 st1 st2"># 함께 이겨내요</text>
<text transform="matrix(1 0 0 1 31.8242 81.7411)" class="st3 st1 st4">힘내라</text>
<text transform="matrix(1 0 0 1 93.644 121.6816)" class="st1 st4">경남!</text>
<path class="st5" d="M145.9,67.7c-0.4-1,6.2-2.7,8.6-9.2c1.9-5.1,0.1-9.9,0.9-10.1c0.9-0.2,3.9,4.9,3.1,9.9
	c-0.7,4.7-4.4,6.9-5.8,7.8C149.7,67.9,146.2,68.4,145.9,67.7z"/>
<path class="st5" d="M148.4,72.4c0.1-1.3,9,0.4,15.6-5.3c5.1-4.5,5.6-10.8,6.7-10.5c1.1,0.3,1.9,7.5-1.8,12.4
	c-3.5,4.7-9.3,5.1-11.4,5.3C153,74.7,148.4,73.3,148.4,72.4z"/>
<path class="st5" d="M148.1,75.9c0.8-0.7,4.6,5.1,11.7,5.4c5.5,0.2,9.6-3.1,10.1-2.4c0.4,0.8-3.5,5.3-8.6,6.2
	c-4.8,0.8-8.2-2.1-9.4-3.1C149.1,79.7,147.5,76.5,148.1,75.9z"/>
<path class="st5" d="M47.6,101.7c-5.2-3-11.4-7.8-15.4-15.6c-5.3-10.3-3.9-20.5-5.6-20.5c-1.6,0-5.2,8.9-3.2,17.3
	c2.9,12.1,15.4,16.8,16.7,17.2C43.1,101.2,45.7,101.6,47.6,101.7z"/>
<path class="st5" d="M53.5,104.5c-7.5,0.6-17.3,0.2-26.6-4.2C14.6,94.5,9.6,84.7,7.7,85.7c-1.8,1,0.1,11,7.7,17.2
	c10.8,8.8,27.4,5.2,29,4.8C48.3,106.9,51.4,105.5,53.5,104.5z"/>
<path class="st5" d="M51.8,106.7c-4.3,4.2-10.7,8.9-19.7,10.5c-12,2.1-22.4-2.4-22.8-0.7c-0.4,1.6,8.2,7.8,17.6,8.4
	c13.4,0.9,21-10.1,21.8-11.2C50.3,111.1,51.2,108.6,51.8,106.7z"/>
</svg>
