<?xml version="1.0" encoding="utf-8"?>
<!-- Generator: Adobe Illustrator 25.2.3, SVG Export Plug-In . SVG Version: 6.00 Build 0)  -->
<svg version="1.1" id="레이어_1" xmlns="http://www.w3.org/2000/svg" xmlns:xlink="http://www.w3.org/1999/xlink" x="0px"
	 y="0px" viewBox="0 0 220 160" style="enable-background:new 0 0 220 160;" xml:space="preserve">
<style type="text/css">
	.st0{fill:#FFFFFF;}
	.st1{font-family:'HancomGothicRegular';}
	.st2{font-size:12px;}
	.st3{fill:#276FFF;}
	.st4{font-size:38px;}
	.st5{fill:#1371E2;}
</style>
<text transform="matrix(1 0 0 1 33.6049 34.8886)" class="st0 st1 st2"># 함께 이겨내요</text>
<text transform="matrix(1 0 0 1 31.8242 81.7411)" class="st3 st1 st4">힘내라</text>
<text transform="matrix(1 0 0 1 93.644 121.6816)" class="st0 st1 st4">경남!</text>
<path class="st5" d="M145.86,67.73c-0.43-1.01,6.2-2.74,8.64-9.2c1.92-5.07,0.06-9.91,0.89-10.07c0.87-0.17,3.85,4.92,3.07,9.87
	c-0.74,4.66-4.45,6.94-5.83,7.79C149.69,67.92,146.16,68.45,145.86,67.73z"/>
<path class="st5" d="M148.45,72.36c0.05-1.34,9.01,0.41,15.56-5.3c5.15-4.48,5.62-10.77,6.72-10.49c1.15,0.29,1.88,7.47-1.83,12.44
	c-3.5,4.68-9.26,5.13-11.38,5.3C152.97,74.67,148.42,73.32,148.45,72.36z"/>
<path class="st5" d="M148.08,75.94c0.84-0.74,4.65,5.13,11.7,5.41c5.53,0.22,9.62-3.13,10.05-2.38c0.45,0.79-3.53,5.32-8.58,6.15
	c-4.75,0.79-8.17-2.08-9.43-3.14C149.13,79.72,147.48,76.47,148.08,75.94z"/>
<path class="st5" d="M47.64,101.67c-5.17-2.98-11.39-7.78-15.38-15.56c-5.29-10.32-3.85-20.46-5.61-20.49
	C25,65.6,21.49,74.5,23.49,82.97c2.86,12.08,15.42,16.78,16.68,17.23C43.11,101.24,45.74,101.57,47.64,101.67z"/>
<path class="st5" d="M53.48,104.46c-7.5,0.57-17.29,0.19-26.57-4.18C14.58,94.47,9.65,84.68,7.73,85.74
	c-1.8,0.99,0.1,10.98,7.68,17.18c10.82,8.85,27.4,5.23,29.05,4.85C48.31,106.88,51.36,105.54,53.48,104.46z"/>
<path class="st5" d="M51.76,106.73c-4.27,4.21-10.67,8.9-19.74,10.47c-12.04,2.08-22.42-2.44-22.83-0.71
	c-0.39,1.63,8.25,7.83,17.62,8.43c13.37,0.86,21.04-10.14,21.79-11.25C50.33,111.09,51.24,108.58,51.76,106.73z"/>
</svg>
