<?xml version="1.0" encoding="utf-8"?>
<!-- Generator: Adobe Illustrator 25.2.3, SVG Export Plug-In . SVG Version: 6.00 Build 0)  -->
<svg version="1.1" id="레이어_1" xmlns="http://www.w3.org/2000/svg" xmlns:xlink="http://www.w3.org/1999/xlink" x="0px"
	 y="0px" viewBox="0 0 220 160" style="enable-background:new 0 0 220 160;" xml:space="preserve">
<style type="text/css">
	.st0{fill:#276FFF;stroke:#276FFF;stroke-width:2;stroke-miterlimit:10;}
	.st1{fill:#276FFF;stroke:#002C72;stroke-width:0.75;stroke-miterlimit:10;}
	.st2{fill:#276FFF;stroke:#276FFF;stroke-width:3;stroke-miterlimit:10;}
	.st3{fill:#FFFFFF;}
	.st4{fill:#1371E2;}
</style>
<polygon class="st0" points="108.4,37.3 93.2,37.3 94.3,31 86.5,31 85.4,37.3 70.2,37.3 69.1,43.5 107.3,43.5 "/>
<polygon class="st0" points="114.1,39.1 107.4,77 115.2,77 121.9,39.1 "/>
<path class="st0" d="M70.9,101.3h40l3.8-21.4h-40L70.9,101.3z M81.3,86.5h24.5l-1.6,8.3H79.8L81.3,86.5z"/>
<path class="st1" d="M95.8,75.7c0.3,0.2,0.7,0.3,0.9,0.5c0.4,0.3,0.9,0.5,1.3,0.8c2-0.6,4.4-2.3,6.4-4.7c1.6-1.9,2.6-4,2.9-5.7
	c-0.9-0.7-1.7-1.3-2.6-2c-0.9-0.6-1.8-1.1-2.7-1.7c-1.7,0.8-3.6,2.3-5.2,4.3c-1.9,2.4-3,4.9-3.1,6.9C94.5,74.6,95.1,75.1,95.8,75.7z
	"/>
<path class="st1" d="M69.9,55.9c0,0.9-0.1,1.8-0.1,2.7c0,4.6,0.5,8.8,1.3,11.9c1,0.5,1.8,1.4,2.3,2.4c0.4,0.1,0.7,0.1,1.1,0.2
	c0.4-0.1,0.7-0.2,1.1-0.2c0.5-0.1,1-0.1,1.5-0.1c1.2-3.1,2.1-8.3,2.1-14.2c0-3.9-0.4-7.4-1-10.3C75,50,72,52.2,69.9,55.9z"/>
<path class="st1" d="M91.3,73.1c0.5-0.1,1-0.2,1.4-0.2c0.7-0.1,1.4-0.1,2-0.1c1.6-3.1,2.7-8.3,2.7-14.2c0-4.7-0.7-9-1.8-12.1
	c-1.5-0.1-3-0.2-4.4-0.3c-1.4,0.1-2.9,0.1-4.3,0.2c-1.1,3.1-1.8,7.4-1.8,12.2c0,5.8,1,10.9,2.6,14C88.9,72.8,90.1,73,91.3,73.1z"/>
<path class="st1" d="M84.4,46.2c-2.1,0.7-4.1,1.5-6,2.6c-0.5,2.7-0.9,6.1-0.9,9.6c0,5.8,0.8,10.9,2.1,14c1,0.2,1.9,0.3,2.9,0.5
	c0.4-0.1,0.8-0.2,1.1-0.2c0.6-0.1,1.1-0.1,1.6-0.1c1.3-3.1,2.2-8.3,2.2-14.2c0-4.7-0.6-9-1.4-12.1C85.5,46.3,85,46.3,84.4,46.2z"/>
<path class="st1" d="M97.2,46.4c-0.1,0-0.2,0-0.3,0c-0.8,3.1-1.3,7.4-1.3,12.2c0,5.8,0.7,10.9,1.8,14c0.8,0.1,1.5,0.3,2.3,0.5
	c0.7-0.7,1.7-1.1,2.9-1.2c1-3.1,1.6-7.9,1.6-13.2c0-1.2,0-2.3-0.1-3.4C102.2,51.9,100.1,48.7,97.2,46.4z"/>
<path class="st2" d="M119.4,88l3.7-21.2h2.8l-3.3,18.8h1.8c2.1,0,4-0.2,5.7-0.5c1.7-0.3,3.2-0.6,4.3-0.9l-0.4,2.5
	c-0.6,0.2-1.4,0.4-2.2,0.5c-0.8,0.2-1.7,0.3-2.6,0.4c-0.9,0.1-1.9,0.2-2.8,0.3c-0.9,0.1-1.9,0.1-2.7,0.1C123.7,88,119.4,88,119.4,88
	z M150.3,64.3l-5.9,33.3h-2.8l3.2-18.3h-5.3l-3.1,17.5h-2.7l5.7-32.1h2.7L140,76.8h5.3l2.2-12.5H150.3z"/>
<path class="st2" d="M156.4,79l-1.4,8.2h4c2.6,0,5-0.2,7.2-0.5s4-0.6,5.5-0.9l-0.4,2.4c-0.8,0.2-1.7,0.4-2.7,0.5
	c-1,0.2-2.1,0.3-3.3,0.5c-1.2,0.1-2.3,0.2-3.6,0.3c-1.2,0.1-2.4,0.1-3.5,0.1h-6.4l2.3-13h11.6l1.3-7.2h-11.7l0.4-2.4h14.6l-2.1,12
	H156.4z M184,77.3l-0.4,2.4h-5.8l-3.1,17.8h-2.8l5.9-33.3h2.8l-2.3,13h5.7V77.3z"/>
<path class="st3" d="M125.4,122.5c4.2-1.2,7.6-2.8,10.4-5s4.7-4.8,5.9-8.1c-1.5,0-2.9,0.1-4.4,0.1s-2.9,0-4.4,0h-3.2l0.4-2.5h10.2
	c0.8,0,1.7,0,2.5,0c0.9,0,1.7,0,2.7-0.1c-0.5,2.1-1.3,4-2.4,5.8c-1.1,1.8-2.4,3.5-4,5s-3.4,2.9-5.5,4c-2.1,1.2-4.4,2.1-6.9,2.9
	L125.4,122.5z M138.5,139.3c-1.8,0-3.3-0.2-4.6-0.5s-2.4-0.8-3.2-1.4c-0.8-0.6-1.4-1.3-1.7-2.1s-0.4-1.7-0.2-2.7s0.6-1.8,1.2-2.7
	c0.6-0.8,1.4-1.5,2.5-2.1c1-0.6,2.2-1,3.7-1.4c1.4-0.3,3-0.5,4.8-0.5s3.3,0.2,4.7,0.5c1.3,0.3,2.4,0.8,3.2,1.4s1.4,1.3,1.7,2.1
	s0.4,1.7,0.2,2.7s-0.6,1.8-1.2,2.6c-0.6,0.8-1.4,1.5-2.5,2.1c-1,0.6-2.3,1.1-3.7,1.4C142,139.1,140.4,139.3,138.5,139.3z M139,136.9
	c1.4,0,2.6-0.1,3.7-0.3c1.1-0.2,2-0.5,2.7-0.9s1.3-0.8,1.8-1.3c0.4-0.5,0.7-1,0.8-1.6s0-1.1-0.2-1.6c-0.3-0.5-0.7-1-1.3-1.3
	c-0.6-0.4-1.4-0.7-2.4-0.9s-2.2-0.3-3.5-0.3s-2.5,0.1-3.6,0.3s-2,0.5-2.7,0.9s-1.3,0.8-1.8,1.3c-0.4,0.5-0.7,1.1-0.8,1.6
	c-0.1,0.6,0,1.1,0.2,1.6c0.3,0.5,0.7,1,1.3,1.3c0.6,0.4,1.4,0.7,2.4,0.9C136.5,136.7,137.6,136.9,139,136.9z M145.8,111h5.7l1-5.4
	h2.9l-3.6,20.2h-2.9l1-5.5h-6.6l0.4-2.5h6.6l0.8-4.3h-5.7L145.8,111z"/>
<path class="st3" d="M155.7,121.9l2.7-15.3h2.9l-2.3,12.8h4.9c2.5,0,4.8-0.2,7-0.5c2.1-0.3,3.9-0.7,5.4-1l-0.4,2.5
	c-0.8,0.2-1.7,0.4-2.7,0.6s-2.1,0.3-3.2,0.5c-1.1,0.1-2.3,0.2-3.5,0.3c-1.2,0.1-2.3,0.1-3.4,0.1H155.7z M179.6,126.2l-2.2,12.3H157
	l2.2-12.3H179.6z M175,136l1.3-7.4h-14.7l-1.3,7.4H175z M187.2,113.6l-0.4,2.5h-5.4l-1.4,8.1h-2.9l3.3-18.7h2.9l-1.4,8.1H187.2z"/>
<path class="st4" d="M189.2,73.9c-0.4-1.3,6.5-3.4,9-11.6c2-6.4,0.1-12.5,0.9-12.7c0.9-0.3,4.1,6.2,3.3,12.5
	c-0.7,5.9-4.6,8.7-6.1,9.8C193.2,74.2,189.5,74.8,189.2,73.9z"/>
<path class="st4" d="M191.8,79.8c0.1-1.6,9.4,0.5,16.4-6.7c5.4-5.7,5.9-13.6,7-13.2c1.2,0.4,2,9.5-1.9,15.6c-3.7,5.9-9.8,6.4-12,6.7
	C196.7,82.7,191.8,81,191.8,79.8z"/>
<path class="st4" d="M191.5,84.2c0.8-0.9,4.8,6.4,12.3,6.8c5.8,0.3,10.1-3.9,10.6-3c0.4,1-3.7,6.7-9,7.8c-5,1-8.6-2.6-9.9-3.9
	C192.6,89,190.9,85,191.5,84.2z"/>
<polygon class="st3" points="191.3,103.8 197.1,105.2 192.1,129.3 188.5,128.4 "/>
<g>
	<path class="st4" d="M61.4,68.5c-9.7-4.3-21.5-11.8-30-25.5C20,24.9,20.4,5.4,17.4,5.9c-2.8,0.4-7.3,18-2.1,33.3
		C22.8,61.2,45.6,67,48,67.4C53.5,68.7,58.1,68.8,61.4,68.5z"/>
	<path class="st4" d="M62.7,70.9c-7.5,3.7-17.9,7.1-30.3,5.4C15.9,74.2,4.5,64.2,3.2,66.2c-1.2,1.9,7,13.4,18.7,17.9
		c16.9,6.4,31.8-4.5,33.2-5.7C58.7,75.8,61.1,73,62.7,70.9z"/>
	<path class="st4" d="M63.7,72.8c-3,7.2-8.4,16.1-18.6,23c-13.5,9.1-28.6,9.9-28.2,12c0.4,2,14.2,4.3,25.8-0.3
		c16.8-6.6,20.4-23.3,20.6-25C64.1,78.5,64,75.2,63.7,72.8z"/>
</g>
<polygon class="st3" points="191.1,139.6 187,139 188,132.2 191.1,132.4 "/>
</svg>
