<?xml version="1.0" encoding="utf-8"?>
<!-- Generator: Adobe Illustrator 25.2.3, SVG Export Plug-In . SVG Version: 6.00 Build 0)  -->
<svg version="1.1" id="Layer_1" xmlns="http://www.w3.org/2000/svg" xmlns:xlink="http://www.w3.org/1999/xlink" x="0px" y="0px"
	 viewBox="0 0 1000 1000" style="enable-background:new 0 0 1000 1000;" xml:space="preserve">
<g>
	<path d="M984.03,401.47l-6.88-6.94l-1.66-8.31l-2.08-6.29l-8.87,0l-14.45,0.85l-9.98-4.99l-6.64-5.81l-6-12l-5.4-9.89l-9.02-5.41
		l-11.46-5.3l-7.73-3.43l-6.72-3.74l1.12-2.24l2.85-3.81l-1.1-9.87l-8.44,2.11l-8.64,3.44h-10.9l-6.39-1.6l-0.32-0.38l-3.91-4.7
		l-6.2-3.54l-4.66-3.88v-2.96l5.41-3.09l8.08-4.49l8.16-10.88l2.8-10.26l-4.73-11.36l-8.74-3.88l-7.34,1.84l-5.57,0.8l-10.07-5.88
		l-7.84-4.35l-10.83-4.52h-10.71l-7.98,1.74h-8.94l-7.56,4.72l-8.05,13.42l-6.2,12.41l-5.36-4.59l-9.72,2.92l-3.33,3.33h-5.22
		l-4.74,4.74l-5.93,8.44l-8.92,1.62h-11.79l-7.7-3.41l-10.76-3.59l-6.12,1.02l-0.32,0.48c0,0-0.39,0.52-0.88,0.57
		c-0.49,0.05-1.05-0.39-1.43-0.77c-2.54-2.54-6.84-7.7-6.88-7.75l-0.14-0.17l-9.35-5.61l-16.19,3.6l-11.45,5.25l-11.91,2.55h-2.48
		h-7.28c-1.29-1.27-5.46-5.32-8.46-7.57c-2.89-2.17-8.32-6.86-9.92-8.25v-4.99l-2.94-4.91l-5.89-4.21l-0.74-3.71l-0.01-7.84
		l-0.91-9.08l-5.45-7.26l-5.5-5.52l-6.15-3.08l-4.67,3.5v6.76l0.88,7.13l2.39,6.47l-2.75,2.75l-5.63,3.22h-5.38l-4.45-2.67
		l-5.66,0.94l-13.06,1.74l-5.57,1.84l-6.9,2.96v0.61c-0.18,0.27-0.83,1.09-2.95,2.68c-1.71,1.28-3.14,1.6-4.65,1.94
		c-1.29,0.29-2.63,0.59-3.99,1.5c-2.51,1.68-7.64,4.25-7.69,4.27l-0.55,0.27l-1.54,6.17l-3.67-1.23l-5.69-4.06l-2.04-3.66l0,0
		l-0.18-0.33l-1.41-2.53l0,0l-0.65-1.17l-8.09-11.68l-8.31-2.77l-5.97-1.71l-8.88-4.44h-4.67l-4.48,0.87h-6.22l-4.59,1.84
		l-4.93,3.25l-4.14-1.38l-2.67-4.46l-6.57-1.09l-6.03,7.04v3.34l-5.49-0.69l-7.6-0.84l-6.47-3.24l-2.56-3.41l-8.36-5.57h-5.8
		l0.47-2.82l6.4-1.6l0.23-0.18c0.04-0.03,4.34-3.47,6.87-5.16c2.82-1.88,5.39-6.91,5.68-7.48l0.14-0.28V201.9l-1.75-14.09
		l-2.77-8.39l-7.19-7.19l-11.16-8.6l-5.26-13.15l-6.5-3.71l-10.86-2.57l-1.51-6.79l0.93-7.47l-9.38-7.5l-8.96-5.98l-1.52-1.01
		l-7.37-4.6l-14.4,1.8l-17.57,4.38l-4.4,2.57h-6.87l-6.47-7.28l-5.48-10.04l-7.94-0.99l-4.65,1.55l-4.17-5.01h-9.01l-3.59,3.59
		l-2.56,0.51l-0.69-5.49l-0.91-10.93l-7.64-7.64l-9.31-0.92h-6.15l-2.98-5.95v-6.87l-5.6-1.12l-11.3,0.94l-4.7,7.53l-1.9,7.35
		l-0.9,10.55l-0.59,2.37h-2.28l-7.45-1.86l-5.19,4.15l-2.51,8.36l-6.93,1.54h-5.53l-8.23,6.4l-4.85,4.05h-4.93l-4.65-6.51
		l-7.41,4.23l-7.32,10.98l-0.92,8.3l0.81,7.28l-21.85,18.49l-2.19,0.5v0l-2.22,0.51l-0.4,0.09l0,0l-6.46,1.49l-10.34,7.52v7.03
		l3.39,8.47l-2.52,6.71v5.75l3.48,7.84v4.99l-4.68,2.34l-6.64,6.64v8.7l2.42,4.84l-3.96,6.33l-3.52,7.88l-4.48,6.28l-0.93,10.18
		l1.76,6.15v7.65l-5.84,2.5l-3.74,11.22v4.13c-0.71,0.96-2.69,3.65-4.13,5.8c-1.73,2.6-5.94,9.33-6.14,9.66l-3.85,6.74l5.71,10.46
		l8.81,7.05l4.66,5.6h8.36l5.56,0.79l2.78,2.78v7.05l4.94,3.95l4.63,3.09v5.85l-4.93,7.39l-4.65,4.65v7l3.66,6.4l3.78,4.75
		l5.29,2.65l3.01,3.01l1.65,12.34l-3.3,11.56l-10.33,9.47l-4.41,7.94l-5.01,6.68l-8.54,5.12l-5.95,3.97l2.03,11.18l6.93,2.6
		l0.74,5.21c-0.01,0.25-0.05,1.05-0.29,1.88l0,0.01c-0.21,0.77-0.63,1.74-1.41,2c-2.52,0.84-7.1,3.81-8,4.41l-7.56,2.52l-6.35,0.91
		l-6.27,5.23l3,7l7.15,10.75l6.97,8.7l10.56,7.97l7.48,9.14l0.83,9.17l3.48,12.25v9.83l5.44,7.25l4.44,7.99l7.87,6.12l5.97,9.39
		l7.24,7.27l4.92,4.1l3.25,10.57l-1.71,5.98l0.96,7.69l5.29,5.29l2.52,10.09l2,5.04l12.35,5.29l6.03,8.62l7.19,4.49l4.24,1.72
		l6.46,8.07v5.42l4.01,3.01l6.43,3.24v7.63l-1.62,4.06l-4.25,9.36l-4.75,4.74l2.96,9.85l5.2,4.33l1.74,6.95l6.86,5.88l7.65-0.96
		l17.41-3.48l7.63-2.53l13.93,3.48l11.11-3.7l7.19-7.19l5.42-8.96l2.72-7.18l1.74-11.15l1.28-1.28v0l1.44-1.44l5.3,0.66l0.74,5.94
		l5.03,11.22l6.75-3.38l4.29-6.01c0.98-0.27,3.99-0.8,7.05,1.65c4.49,3.59,9.77,5.37,9.99,5.45l0.2,0.07h6.91l7.62-8.57l1.87-11.25
		l-3.68-7.35l-7.58-10.15l1.34-5.35h5.03l1.89,4.73l8.81-3.3l3.6-12.59l5.66-7.27l4.87-1.22v1.07l-4.93,3.28l-3.78,7.56v9.02
		c0,2.5,2.59,9.29,3.38,11.32c-0.48,1.22-1.73,4.42-2.44,6.55l-0.87,2.61l-0.97,8.5l5.18,10.36l-1.55,6.2l-4.5,5.4l0.94,12.22
		l6.35,9.07c0.38,0.48,3.81,4.69,6.71,5.65c2.51,0.84,11.8,3.17,13.04,3.48l11.02,5.09l10.3,9.44l0.21,0.16c0,0,0.35,0.21,0.92,0.54
		l0,0l0.63,0.36c0.01,0.01,0.03,0.01,0.04,0.02l2.07,1.18l0-0.04c4.09,2.21,6.9,3.34,8.34,3.34c2.63,0,7.32-3.67,9.07-5.12
		c2.03,0.41,8.43,1.74,10.54,2.45c2.78,0.93,11.9-0.52,13.7-0.82l0.36-0.06l5.98-4.98v-19.23l5.32-5.32h21.69l4.23,2.82l-0.86,9.41
		l7.65,7.65l6.82,1.95l11.45-3.82l3.78-10.4v-6.49l5.09-3.39l0.96-4.81l0.88-2.64l4.53,6.47l2.34,3.91l-0.28,0.16l4.17,3.13
		l3.96,6.34l-0.72,5.07l-2.69,2.02h-12.1l-6.75,3.86l-4.94,9.87l7.86,8.84l9.33,1.87l10.31-0.86l5.79,2.48l8.71,1.96l5.06-4.22
		l2.46,1.23l4.4,5.13l-4.8,7.21l-1.9,8.54l3.11,6.23l9.62,1.92l15.95-3.54l7.63-2.85l5.51-11.03l4.25-11.06l7.03-7.02l1.97-7.89
		l-4.2-6.3h-10.05l-7.07,8.84l-4.57,1.01c0.58-1.48,1-3.4,0.51-5.37c-0.79-3.15-2.34-13.83-2.56-15.36l1.69-12.68l6.1-13.07
		l0.91-8.21l-0.8-6.38l-0.18-1.47l0,0l-0.04-0.33l-0.29,0.17L529,706.57l-3.94-1.97l1.49-2.48h12.04c1.24,0.51,6.61,2.61,10.71,2.61
		c5.36,0,12.43-4.54,13.8-5.45c2.73-1.82,9.19-10.64,9.91-11.65l0.29-0.4l-0.95-10.46l-6.34-8.14l-8.99-6.6l2.07-4.83l5.79-4.82
		l-2.53-5.05l-0.56-1.12l-6.28-7.25l-7.19-6.41l0.86-1.72l12.56,1.67l7.79-4.33l3.88,0.78l0.26,0.03c0.05,0,5.1,0.01,8.38,0.83
		c3.4,0.86,8.99-2.18,10.89-3.29l2.91,1.16v6.26l8.88,1.97l4.64,0.03l2.04,4.77l-2.82,6.58l6.14,4.1l4.41,1.52l-1.6,7.18l3.44,5.74
		l15.92-5.62l8.06-3.59l5.79-5.78v-4.99l-5.99-2l-2.63-1.58l4.37-3.64l-1.06-6.4l-8.07-8.06l-5.22-6.09l-5.49-3.72l-2.89-1.46v-5.93
		l1.74-5.22v-7.47l-4.43-9.74l-4.28-11.97v-8.71l7.96-6.37l1.8-0.36l-0.99,2.98c-0.2,0.49-1.89,4.89-0.9,7.88
		c0.84,2.52,2.56,10.24,2.58,10.31l4.39,12.32c0.34,1.02,2.22,6.13,5.61,6.13c0.93,0,1.97-0.18,3.07-0.37
		c2.07-0.35,4.41-0.76,5.77,0.15c2.09,1.39,4.78,3.37,5.7,4.06c0.44,1.16,1.89,4.05,5.86,5.64c4.11,1.65,8.33,5,8.37,5.03l0.25,0.2
		l5.37,1.07l4.37-4.38v-5.42l2.64-4.61c0.77,0.53,1.69,1.29,2.24,2.17c-0.01,0.45,0.19,0.92,0.33,1.25l0.96,2.24
		c2.06,4.8,1.8,7.84,1.7,8.56l-4.22,6.75l-2.07,7.99l4.45,5.56l9.38-2.81h2.94l7.76,4.31l6.84,0.86l5.17,4.31l8.36,1.86l9.5-0.95
		l5.52-7.35l1.15-1.15v3.37l5.06,6.07h10.98c0.99,0.14,6.5,0.84,9.22-0.07c3.35-1.12,3.52-7.77,3.52-9.09l-1.6-8.91l4.13-2.48
		l1.03-9.29l-8.42-5.62l-10.24-9.39l-3.83-6.12l0.83-1.39l1.04-1.73l5.19-0.74l5.82,1.66l8.69,0.98l7.82-7.82l4.75,0.68l2.67,5.34
		h7.74l3.12-6.24v-13.64l-4.31-10.34l0.71-4.28l7.02-4.68h4.82l10.5-2.58l5.77,0.96l4.56-6.39l5.35-1.53l14.82,2.61l14.75-4.61
		l6.35-11.8l2.72-13.33l1.53-5.36l3.03-0.76l2.92-0.73l5.14,0.86l7.82-0.98l3.85-6.74l2.47-4.94l2.88-2.16h5.54l5.79,0.97l8.06-8.06
		l3.13-0.78l4.6-2.7c1.32-0.5,3.37-1.98,3.37-4.69v-2.36l3.2-8l3.76-1.88v-5.73l4.35-8.71v-5.28l1.31-3.28h2.03l3.09,3.09l6.82,3.95
		l13.19-2.83l6.4-9.13l2.78-8.18l0.88-6.82l4.96-5.79l4.9-7.82L984.03,401.47z M621.07,292.03l0.62-1.73h0.75l12.47-2.64l11.47-5.26
		l15.02-3.34l8.06,4.84c0.79,0.94,4.52,5.37,6.9,7.75c1.14,1.14,2.34,1.66,3.57,1.53c1.15-0.11,1.97-0.77,2.42-1.24l4.42-0.74
		l10.02,3.33l8.09,3.6h12.47l10.35-1.86l6.34-9.06l3.88-3.88h5.22l3.64-3.63l7.69-2.31l6.84,5.86l7.68-15.36l7.67-12.79l6.37-3.98
		h8.32l7.98-1.74h10.04l10.13,4.22l7.75,4.3l10.85,6.33l6.56-0.94l6.65-1.66l6.94,3.08l3.98,9.54l-2.43,8.89l-7.51,10.02l-7.6,4.22
		l-6.76,3.86v5.75l5.7,4.75l6.08,3.5l3.28,3.94l-1.2,4.3l-4.84,4.23c-0.25,0.15-0.9,0.56-1.71,1.11c-1.13,0.78-2.57,1.84-3.67,2.94
		c-1.46,1.46-6.66,4.46-8.71,5.58l-5.39,1.54v8.08l5.22,5.22l0,9.14l-0.6,7.84l-5.27,3.51l-6.23,3.12l-7.24,0.66l-7.16,4.3
		l-3.68,8.83l4.1,7.51l0.53,4.75l-3.61,2.06c-0.85,0.14-3.86,0.6-5.43,0.6c-2.27,0-6.48,2.93-7.3,3.51l-0.46,0.33l-0.08,0.56
		c-0.18,1.24-0.75,4.78-1.25,6.3c-0.04,0.11-0.09,0.25-0.14,0.4c-0.02,0.05-0.04,0.1-0.06,0.15c-0.04,0.12-0.09,0.24-0.14,0.37
		c-0.03,0.07-0.06,0.15-0.09,0.23c-0.05,0.13-0.1,0.27-0.16,0.41c-0.03,0.08-0.07,0.16-0.1,0.25c-0.07,0.17-0.14,0.35-0.21,0.53
		c-0.03,0.07-0.05,0.14-0.08,0.21c-0.1,0.26-0.21,0.52-0.32,0.79c-0.02,0.06-0.05,0.12-0.07,0.18c-0.09,0.23-0.19,0.46-0.28,0.69
		c-0.03,0.08-0.07,0.16-0.1,0.24c-0.09,0.22-0.19,0.45-0.28,0.67c-0.03,0.07-0.06,0.13-0.08,0.2c-0.12,0.28-0.23,0.55-0.35,0.83
		c0,0.01-0.01,0.02-0.01,0.02c-0.68,1.63-1.33,3.15-1.71,4.03l-4.26-5.11l-6.52-1.45l-8.52,0.71l-4.61,4.61
		c-1.04,0.16-3.77,0.57-5.24,0.57c-2.21,0-4.87,1.3-5.17,1.45l-5.5,4.76l-0.12,0.12c-0.22,0.24-5.3,5.97-6.64,7.98
		c-1.21,1.82-2.32,6.64-2.69,8.39l-5.82,3.49l-10.67,1.88c-5.26-0.63-11.24-1.68-12.29-2.38c-0.36-0.24-0.83-0.5-1.36-0.76
		c-2.29-1.12-5.74-2.31-6.63-2.61c-2.61-1.68-9.25-6.07-10.74-7.57c-2.05-2.05-8.47-5.91-8.74-6.08l-8.35-2.82l-9.69,0.69l-4.2,2.29
		c-0.08-0.35-0.15-0.67-0.22-0.96c-0.02-0.08-0.04-0.16-0.06-0.24c-0.06-0.25-0.12-0.47-0.17-0.68c-0.02-0.07-0.04-0.15-0.06-0.21
		c-0.07-0.24-0.13-0.46-0.19-0.63c-0.52-1.57-1.08-4.17-1.21-6.02c-0.02-0.26-0.03-0.51-0.03-0.74c0-1.74,0-7.02,0.61-9.47
		c0.08-0.33,0.15-0.67,0.2-1.03c0.1-0.71,0.13-1.45,0.13-2.15c0-1.77-0.22-3.36-0.29-3.78c-0.02-0.71-0.19-4.51-2.07-8.9
		c-1.47-3.42-1.89-4.05-2.64-5.05c-0.2-0.27-0.43-0.58-0.74-1.04c-0.79-1.19-1.02-2.08-1.32-3.21c-0.14-0.53-0.28-1.08-0.49-1.7
		c-0.72-2.15-4.2-5.7-4.89-6.4l-0.32-0.32l-5.83-0.73l-0.16,0.02c-0.01,0-0.1,0.01-0.27,0.03c-1.17,0.13-5.79,0.62-7.42,0.62
		c-1.78,0-4.25-0.63-7.34-1.86c-2.53-1.01-5.18-3.9-5.84-4.66c-0.37-1.15-1.92-6.09-2.48-9.97c-0.55-3.86-1.1-6.33-1.27-7.08
		c0.2-1.76,0.74-5.9,1.22-7.33c0.19-0.57,0.5-1.31,0.83-2.12c0.87-2.11,1.85-4.5,1.85-6.13v-4.38l-0.29-0.36
		c-0.03-0.03-2.59-3.24-3.85-5.13c-0.73-1.1-0.67-3.6-0.47-4.82l1.24-4.96l3.59-4.79l4.73-2.71l1.66-4.15l-2.09-6.27l-1.85-6.8
		L621.07,292.03z M481.59,267.34l1.4,2.52l6.34,4.53l6.93,2.37l1.94-7.77c1.42-0.73,5.26-2.71,7.43-4.16
		c0.95-0.63,1.95-0.86,3.1-1.11c1.64-0.37,3.5-0.78,5.67-2.41c2.25-1.69,3.26-2.79,3.69-3.53l5.51-2.36l5.1-1.7l12.98-1.73
		l4.74-0.79l4.25,2.55h6.82l6.4-3.66l4.37-4.3l-2.86-7.62l-0.84-6.73v-5.35l2.29-1.72l4.3,2.15l5,5.01l4.95,6.59l0.83,8.21v7.84
		l1,5.13l6.3,4.5l2.28,3.8v5.46l0.45,0.4c0.29,0.25,7.04,6.16,10.52,8.77c3.37,2.53,8.52,7.66,8.57,7.71l0.39,0.39h7.43l-2.39,7.12
		l2.09,7.64l1.8,5.42l-0.95,2.38l-4.41,2.52l-4.24,5.66l-1.39,5.59c-0.08,0.45-0.69,4.5,0.86,6.83c1.08,1.61,2.97,4.03,3.69,4.95
		v3.45c0,1.1-0.95,3.43-1.65,5.12c-0.36,0.88-0.69,1.68-0.89,2.29c-0.68,2.03-1.3,7.49-1.37,8.11l-0.03,0.24l0.06,0.23
		c0.01,0.03,0.65,2.61,1.28,7.05c0.66,4.64,2.59,10.43,2.67,10.68l0.08,0.24l0.16,0.19c0.14,0.17,3.52,4.19,7.06,5.61
		c3.46,1.38,6.18,2.05,8.33,2.05c1.85,0,6.85-0.54,7.83-0.64l4.61,0.58c1.52,1.56,3.58,3.97,3.93,5.04
		c0.18,0.55,0.31,1.05,0.44,1.53c0.31,1.21,0.64,2.45,1.68,4.02c0.34,0.52,0.6,0.86,0.83,1.16c0.59,0.79,0.92,1.22,2.32,4.5
		c1.82,4.24,1.85,7.93,1.85,7.97l0.02,0.22c0.02,0.09,0.03,0.22,0.05,0.34c0.03,0.21,0.07,0.52,0.1,0.88
		c0.02,0.19,0.04,0.38,0.05,0.58c0,0.02,0,0.04,0,0.06c0.08,1.03,0.1,2.27-0.04,3.33c0,0.02-0.01,0.04-0.01,0.07
		c-0.04,0.25-0.08,0.5-0.14,0.73c-0.69,2.77-0.69,8.11-0.69,10.12c0,2.18,0.7,5.58,1.37,7.6c0.02,0.05,0.04,0.12,0.06,0.19
		c0.01,0.02,0.01,0.04,0.02,0.06c0.02,0.06,0.03,0.12,0.05,0.19c0.01,0.03,0.02,0.07,0.03,0.11c0.02,0.07,0.04,0.14,0.06,0.22
		c0.01,0.04,0.02,0.09,0.03,0.13c0.02,0.08,0.04,0.17,0.07,0.27c0.01,0.06,0.03,0.12,0.04,0.18c0.02,0.09,0.05,0.19,0.07,0.29
		c0.02,0.08,0.04,0.16,0.06,0.25c0.02,0.09,0.04,0.2,0.07,0.29c0.07,0.31,0.14,0.64,0.22,1.02l-0.56,0.31l-7.79,0.6
		c-0.94-0.56-3.6-2.16-5.26-3.57c-0.24-0.2-0.45-0.4-0.64-0.59c-2.04-2.04-7.2-5.27-7.42-5.41l-10.79-2.94l-6.38,4.96l-4.91,3.69
		l-1.27,0.1l-0.06,0l0,0l-6.51,0.5l-11.33-3.78l-7.78-5.18l-6.18-3.43h-11.34l-4.86,4.86l-6.73,4.29h-11.13l-6.91-2.51l-5.79-2.41
		l0,0l-1.37-0.57l-1.25-7.5l-6.79-7.47l-9.41-6.1l-7.74-3.88l-6.89-7.52l-2.96-5.92l1.05-4.21l2.71-1.63l7.87-3.28l9.1-4.9
		l1.45-12.32l-8.99-11.76l-0.26-0.14c-1.4-0.74-2.85-1.54-4.23-2.36c-4.16-2.44-7.8-4.96-8.16-5.93c-0.06-0.23-0.14-0.45-0.25-0.67
		c-0.05-0.11-0.12-0.22-0.19-0.32c-0.06-0.09-0.11-0.18-0.17-0.27c-0.09-0.13-0.19-0.25-0.29-0.37l0.03-0.08l-0.74-0.62l-0.22-0.18
		c-0.02-0.02-0.04-0.04-0.07-0.06l-1.12-0.93l-0.06,0.15c-0.64-0.38-1.32-0.74-2-1.08c-1.05-0.54-2.23-1.14-2.75-1.66
		c-0.08-0.07-0.14-0.14-0.18-0.21c-0.69-1.04-1.51-1.62-2.31-2.19c-0.93-0.66-1.9-1.35-2.88-2.98c-0.54-0.91-1.12-1.7-1.68-2.47
		c-1.51-2.07-2.7-3.7-2.7-6.64c0-2.66,0.23-4.17,0.41-5.38c0.13-0.85,0.24-1.58,0.24-2.46c0-0.76,0.87-2.08,1.56-3.14
		c0.65-0.98,1.31-2,1.64-2.97c0.68-2.04,1.3-8.09,1.37-8.78l0.03-0.26l-2.03-6.78l-2.51-5.68l1.23-8.03l1.91-7L481.59,267.34z
		 M602.83,449.84v5.82l0.73,0.37c0,0,0.03,0.02,0.04,0.02c0.03,0.01,0.05,0.03,0.11,0.06c0.05,0.03,0.12,0.08,0.19,0.12
		c0.06,0.04,0.11,0.07,0.18,0.12c0.1,0.07,0.22,0.17,0.34,0.27c0.06,0.05,0.11,0.08,0.17,0.13c0.14,0.12,0.29,0.28,0.44,0.43
		c0.05,0.05,0.09,0.08,0.14,0.14c0.16,0.17,0.31,0.38,0.46,0.59c0.04,0.05,0.08,0.1,0.12,0.15c0.15,0.22,0.28,0.47,0.4,0.73
		c0.03,0.07,0.07,0.12,0.1,0.19c0.12,0.27,0.2,0.57,0.28,0.88c0.02,0.08,0.05,0.14,0.07,0.22c0.09,0.4,0.14,0.83,0.14,1.29
		c0,4.65,0.66,6.21,0.79,6.47l0.08,0.14c0.96,1.45,2.39,4.08,2.39,5.14c0,2.44,1.52,4.03,1.69,4.21l2.71,2.71l-1.07,3.76l-1.4,4.2
		l0.72,6.49l0.18,0.27c2.46,3.7,4.52,7.76,4.41,8.64c-0.38,1.13-1.39,2.41-1.99,3.08l-4.45,0.55c-1.71-0.57-7.23-2.34-9.52-2.56
		c-0.15-0.01-0.29-0.02-0.41-0.02c-2.05,0-5.93,0.64-6.09,0.67l-7.3,2.63l-7.34,1.23l-7.86-3.27l-7.87,1.57l-0.7,5.59
		c-1.18,0.86-4.1,3.15-5.77,5.94c-2,3.33-3.94,8.49-4.04,8.75c-0.06,0.17-1.37,4.16-1.37,6.95c0,2.84,2.47,7.87,2.75,8.43l5.27,5.99
		l2.43,6.08c-0.01,2.48-0.17,6.58-0.58,7.82c-0.2,0.6-2.22,1.44-4.2,1.73l-7.31,1.34l-4.83,1.38l-0.21,0.17
		c-0.14,0.11-3.42,2.75-5.46,5.46c-1.55,2.06-2.33,3.76-2.65,4.52l-3.9,2.78h-7.41c-0.96,0-1.28-2.41-1.28-3.24v-0.77l-5.04-2.88
		l-3.45-4.02v-9.3l-0.82-5.04l-7.99-1.6l-4.99,3.56l-7.55,4.41l-5.52,0.75l0-0.01l-0.09-0.25l-4.84-4.15l-5.61-2.85l-16.69-6.42
		l-8.15-8.78l-4.58-9.16l-7.57-7.57l-3.65-1.1l0.95-6.99l4.06-5.22l8.15-1.89l5.08-1.7l-1.68-6.73l-5.23-5.89l-1.72-6.32l2.81-4.49
		l7.89-5.26l3.56-7.13v-5.13l-3.22-8.36l1.13-5.64l3.86-2.75l5.8-0.58l2.13,1.07l3.76,3.13l6.36,5.73l4.01,7.35l7.14,3.57
		l10.37,0.74l3.15-7.86l-2.06-6.86l-0.54-4.89l3.44-1.96l5.58,0.62l7.99-0.73l4.45-7.42v-7.39l1.17-4.68l1.84-1.7l6.97,2.9l7.4,2.69
		h12.37l7.51-4.78l4.41-4.36h9.56l5.48,3.04l7.84,5.22l12.32,4.16l6.74-0.52l-0.06,1.53l-3.13,8.77L602.83,449.84z M480.89,604.54
		L480.89,604.54l-1.09,1.71l-0.54,0.85l-11.86,2.5l-5.5,2.41l-4.74-2.95c-0.16-0.08-4.03-2.01-6.05-2.69
		c-2.06-0.69-8.87-0.72-10.21-0.72l-12.04,2.64l-12.55,5.91l-5.94,1.32l-3.65,2.19l-0.15,0.19c-0.03,0.03-2.55,3.15-6.23,5.6
		c-1.06,0.71-2.03,1.27-2.89,1.77c-2.37,1.37-4.24,2.46-4.84,4.89c-0.7,2.8,0.49,10.16,0.63,10.99l0.06,0.35l5.96,7.29l1.57,4.18
		l-6.56,5.97l-4.62,4.62c-0.01,0-0.02-0.01-0.02-0.01c-0.33-0.12-0.67-0.26-1.02-0.4c-0.02-0.01-0.04-0.02-0.06-0.03
		c-0.36-0.15-0.73-0.3-1.1-0.46c0,0-0.01,0-0.01-0.01c-0.38-0.16-0.76-0.33-1.13-0.5c-0.01,0-0.02-0.01-0.03-0.01
		c-0.36-0.16-0.71-0.32-1.05-0.49c-0.04-0.02-0.09-0.04-0.13-0.06c-0.33-0.16-0.64-0.32-0.94-0.47c-0.05-0.03-0.1-0.05-0.15-0.08
		c-0.29-0.16-0.57-0.31-0.82-0.46c-0.04-0.02-0.08-0.05-0.12-0.07c-0.25-0.15-0.49-0.3-0.69-0.45c-0.02-0.02-0.04-0.03-0.06-0.05
		c-0.21-0.15-0.39-0.29-0.52-0.43c-1.74-1.74-6.12-4.31-7.62-5.16l-0.52-2.06c-0.4-1.6,0.13-4.07,0.49-5.33l3.05-1.83l2.38-3.17
		v-12.18l-0.5-0.4c-0.14-0.11-3.37-2.69-6.68-4.67c-3.32-1.99-6.58-3.31-6.72-3.36l-9.17-2.13l-8.84,4.76l-5.69,2.53l-4.67,0.52
		l-0.83-2.09v-1.7c0-2.15-1.26-5.36-1.4-5.71l-0.1-0.25l-4.45-4.45l-0.47-0.05c-0.11-0.01-0.23-0.02-0.37-0.04
		c-2.01-0.21-6.43-0.74-7.83-1.21c-2.04-0.68-8.09-1.3-8.78-1.37l-0.38-0.04l-5.51,2.76l-5.86,2.6l-4.57,1.96l-5.03,3.73
		c-1.2-0.23-4.15-0.83-7.08-1.81c-0.96-0.32-1.47-0.61-1.72-0.79l0.13-0.13l-1.42-7.1v-13.24l-2.97-5.95l-8.61-3.59l-12.09,1.34
		l-0.15,0.03c-0.01,0-0.04,0.01-0.11,0.02c-0.99,0.23-8.46,1.9-11.35,1.9c-0.41,0-0.78-0.01-1.11-0.02c-0.1,0-0.19-0.01-0.29-0.01
		c-0.23-0.01-0.44-0.02-0.63-0.04c-0.08-0.01-0.16-0.01-0.24-0.02c-0.2-0.02-0.38-0.04-0.54-0.06c-0.03,0-0.07-0.01-0.1-0.01
		c-0.19-0.03-0.36-0.05-0.49-0.07l-3.27-7.34l-5.47-10.04l-8.03-2.68l-7.39-7.39l-1.59-4.76l-0.78-14.09h7.35l2.92-7.8l3.15-7.87
		h20.87l9.53-1.88l4.66-7.45l3.54-9.64l4.95-6.61l11.1-6.83l8.69-9.48l9.71-1.76l4.7-7.52l3.98-7.15h11.41l19.98-2.71l3.57,0.6
		l10.13-6.08l7.21-3.01l6.37,2.9l8.05,9.91c0.17,1.26,0.73,5.29,1.31,7.06c0.15,0.43,0.42,1.18,0.75,2.11
		c0.93,2.57,3.1,8.58,3.1,9.87c0,1.44,1.19,3.89,3.01,7.45c0.73,1.43,1.42,2.78,1.63,3.42c0.69,2.07,6.39,8.38,8.12,10.27l5.69,3.62
		l5.91,1.31l5.67,3.15c0.15,0.09,3.61,2.15,6.56,2.15h14.82l3.41,1.02v0l2.61,0.78l6.79,6.8l4.48,8.95l8.91,9.68l17.15,6.59
		l5.08,2.54l4.18,3.58l0.3,0.86c0.23,0.65,0.44,1.28,0.64,1.86c0,0.01,0,0.01,0.01,0.02c0.19,0.55,0.35,1.06,0.51,1.55
		c0.08,0.23,0.15,0.47,0.22,0.7c0.08,0.26,0.16,0.52,0.24,0.76c0.08,0.25,0.15,0.49,0.22,0.72c0.1,0.33,0.19,0.65,0.28,0.93
		c0.01,0.03,0.02,0.06,0.03,0.1c0.33,1.18,0.52,1.98,0.6,2.46c0,0,0,0,0,0.01c0.02,0.16,0.04,0.28,0.04,0.37
		c0,1.23-2.26,10.08-3.86,15.95l-3.21,10.92L480.89,604.54z M182.55,543.03c-1.94,0.65-5.91,4.44-7.34,5.84
		c-2.42,0.12-12.76,0.63-14.45,0.63c-1.67,0-9.39-0.5-11.26-0.62l-5.4-4.2l-9.18-13.11l-7.41-4.71l-7.93-2.68
		c-0.66-0.49-3.16-2.34-7.03-5.11c-4.44-3.17-4.88-4.28-6.07-7.25c-1.19-2.97-3.76-5.38-4.66-6.16l-3.11-9.33l-1.11-7.8l5.22-1.16
		l5.46-8.88l3.71-4.33l6.57-3.94l4.34-5.78v-12.3l6.48-6.48l0.05-0.47c0.18-1.78,0.75-6.71,1.24-8.2c0.16-0.49,0.29-0.99,0.42-1.51
		c0.38-1.5,0.82-3.21,2.69-6.01c2.39-3.59,2.34-6.27,2.21-7.23l1.83-7.94l4.67-6.01v-7.45l1.26-4.39l0.05-2.37l4.57-3.92v-5.35
		l2.71-3.25l8.11-2.5l6.43-3.96l-1.74-5.21l-3.21-3.21l-1.05-4.71l2.93-2.44h6.03l3.19-3.99l1.5-5.98l-3.34-6.69v-6.45l18.94-26.77
		v-2.04l1.9,0.35l4.55-0.57l2.02,3.54l0.63,8.84l2.63,8.67l0.78,6.27h8.57l7.52-2.51l7.02,3.51l4.79,7.53l12.57-0.7l8.67-0.74
		l0.57,3.96l3.57,11.64l4.31,10.36c0.28,1.13,2.65,10.54,3.49,13.06c0.49,1.47,1.81,3.45,3.2,5.54c1.24,1.85,2.51,3.77,2.89,4.91
		c0.95,2.85,7.79,8.28,9.15,9.33l12.35,7.07l14.03,5.28c3.69,2.07,7.05,4.8,7.07,5.76c0,2.93,5.63,8.79,7.35,10.52l6.58,4.15v11.46
		l6.31,2.7l2.44,8.96l6.05,9.93l-17.05,2.32h-12.88h0l-4.7,8.46l-4.04,6.47l-9.44,1.72l-8.88,9.77l-11.37,7l-5.38,7.17l-3.62,9.79
		l-3.98,6.36l-8.02,1.6H228l-3.83,9.57l-2.29,6.1h-5.59l0-14.13l-6.61-5.14l-6.13-1.53l-7.32,5.86l-3.25,8.45
		c-0.44,0.31-0.91,0.65-1.4,0.99C188.12,539.67,183.64,542.67,182.55,543.03z M394.64,367.88l1.06-3.69
		c1.06-0.81,3.22-2.36,4.49-2.78c0.93-0.31,1.71-0.95,2.63-1.68c1.43-1.16,3.05-2.47,5.63-2.83c4.65-0.66,11.72-3.22,12.02-3.33
		l0.22-0.08l7.95-6.62l6.84-4.35l13.75-1.25l6.81,2.48c0.88,0.49,5.41,2.98,7.57,3.82c0.14,0.06,0.28,0.1,0.4,0.15
		c2.02,0.67,7.27,1.99,10.61,2.65c3.36,0.67,3.43,0.68,7.44,0.68c4.45,0,8.46-5.17,8.9-5.76l1.98-4.83
		c0.03,0.05,0.08,0.11,0.12,0.16c0.06,0.08,0.12,0.17,0.19,0.25c0.09,0.11,0.19,0.23,0.3,0.35c0.08,0.09,0.16,0.17,0.24,0.26
		c0.12,0.12,0.25,0.25,0.39,0.38c0.09,0.08,0.18,0.17,0.27,0.25c0.15,0.14,0.32,0.28,0.48,0.41c0.09,0.08,0.18,0.15,0.28,0.23
		c0.2,0.17,0.42,0.33,0.64,0.5c0.07,0.05,0.13,0.11,0.21,0.16c0.3,0.22,0.6,0.44,0.92,0.67c0.07,0.05,0.14,0.1,0.21,0.14
		c0.25,0.17,0.51,0.35,0.77,0.52c0.12,0.08,0.24,0.16,0.36,0.24c0.21,0.14,0.43,0.28,0.65,0.42c0.14,0.09,0.28,0.18,0.43,0.27
		c0.2,0.13,0.4,0.25,0.6,0.38c0.15,0.09,0.3,0.18,0.45,0.27c0.2,0.12,0.4,0.24,0.59,0.36c0.15,0.09,0.29,0.17,0.44,0.26
		c0.2,0.12,0.39,0.23,0.58,0.34c0.14,0.08,0.29,0.17,0.43,0.25c0.19,0.11,0.38,0.22,0.57,0.32c0.14,0.08,0.27,0.15,0.4,0.23
		c0.19,0.11,0.38,0.21,0.56,0.31c0.12,0.07,0.24,0.13,0.36,0.2c0.19,0.1,0.36,0.2,0.54,0.29c0.11,0.06,0.22,0.12,0.32,0.17
		c0.27,0.14,0.52,0.28,0.75,0.4l7.99,10.44l-1.16,9.88l-7.76,4.19l-7.84,3.27l-3.91,2.33l-1.56,6.23l3.48,6.97l7.56,8.32l7.99,4
		l8.93,5.74l6.15,6.76l1.15,6.91l-2.4,2.23l-1.4,5.61l-0.04,7.14l-3.38,5.64l-6.38,0.58l-6.17-0.69l-5.7,3.26l0.75,6.74l1.87,6.32
		l-2.08,5.2l-7.91-0.57l-5.92-2.96l-3.83-7.02l-6.74-6.06l-3.92-3.27l-3.21-1.65l-7.26,0.73l-5.29,3.78l-1.48,7.42l3.31,8.62v4.01
		l-2.97,5.94l-7.78,5.18l-3.73,5.96l2.19,8.04l5.22,5.87l0.93,3.72l-2.63,0.88l-8.95,2.06l-5.08,6.53l-1,7.28l-0.62-0.19l-15.4-0.06
		c-1.83,0-4.37-1.28-5.23-1.79l-5.88-3.26l-6.01-1.39l-4.88-3.05c-0.81-0.88-1.63-1.81-2.43-2.73c-0.09-0.1-0.17-0.2-0.26-0.3
		c-1.86-2.15-3.52-4.19-4.29-5.36c-0.14-0.21-0.26-0.4-0.34-0.55c-0.05-0.09-0.08-0.17-0.1-0.23c-0.27-0.82-0.97-2.2-1.79-3.79
		c-0.95-1.86-2.72-5.33-2.72-6.24c0-1.63-1.54-6.03-3.26-10.78c-0.33-0.9-0.59-1.63-0.73-2.05c-0.5-1.5-1.07-5.51-1.25-6.93
		l-0.05-0.38l-8.92-10.99l-7.99-3.63l-8.37,3.49l-9.55,5.71l-3.23-0.54l-6.37-10.36l-2.4-8.8l2.8-4.11l5.35-4.16h3.9l6.77,2.26
		l2.24-4.49l11.49-4.47l0.17-0.15c1.99-1.7,4.8-3.6,5.67-3.6c2.07,0,8.87-2.23,10.21-2.68l0.43-0.14l4.39-6.59v-14.43l3.74-6.85
		l4.7-8.06l1.34-9.4l0.01-6.35L394.64,367.88z M339.8,131.08l-0.81,6.46l1.97,8.88l11.94,2.76l5.52,3.16l5.19,12.97l11.54,8.88
		l6.68,6.68l2.47,7.41l1.72,13.72v15.27c-0.81,1.54-2.85,4.99-4.63,6.18c-2.32,1.54-5.89,4.36-6.83,5.11l-7.53,1.88l-1.27,7.63h8.13
		l7.31,4.87l2.66,3.55l7.46,3.73l8.05,0.89l8.46,1.06v-5.37l4.42-5.15l3.88,0.65l2.55,4.25l6.3,2.1l5.65-3.77l3.99-1.6h5.84
		l4.48-0.87h3.91l8.43,4.21l6.27,1.81l7.42,2.47l7.51,10.84l1.51,2.72l-1.12,2.38l-2.04,7.4l-1.4,9.02l2.74,6.16l1.86,6.2
		c-0.2,1.96-0.74,6.52-1.22,7.94c-0.22,0.64-0.79,1.51-1.34,2.36c-0.98,1.5-2,3.05-2,4.6c0,0.67-0.09,1.29-0.21,2.06
		c-0.2,1.3-0.44,2.91-0.44,5.77c0,3.81,1.63,6.04,3.21,8.21c0.53,0.72,1.07,1.47,1.55,2.27c1.27,2.11,2.57,3.04,3.62,3.78
		c0.68,0.48,1.22,0.86,1.64,1.5c0.75,1.13,2.3,1.92,3.93,2.76c0.77,0.4,1.56,0.8,2.22,1.22l-1.01,2.52l-1.28,3.2
		c-0.02,0.02-0.04,0.05-0.06,0.07c-1.13,1.42-4.08,4.49-6.61,4.49c-3.79,0-3.79,0-6.92-0.63c-3.19-0.64-8.39-1.94-10.29-2.57
		c-1.51-0.5-6.01-2.93-7.61-3.82l-7.65-2.8l-14.98,1.36l-7.45,4.74l-7.79,6.48c-1.22,0.43-7.32,2.56-11.27,3.12
		c-3.3,0.47-5.4,2.16-6.92,3.4c-0.71,0.58-1.33,1.07-1.8,1.23c-2.12,0.71-5.28,3.21-5.63,3.49l-0.33,0.26l-1.56,5.44l2.69,6.06v5.5
		l-1.25,8.79l-4.46,7.64l-4.08,7.48v14.3l-3.44,5.16c-3,0.98-7.73,2.4-8.94,2.4c-2.17,0-5.88,2.96-7.22,4.09l-12.02,4.68l-1.67,3.35
		l-4.99-1.66h-5.24l-6.24,4.85l-2.93,4.19l-4.28-1.84V431.9l-7.46-4.66c-3.14-3.16-6.47-7.31-6.47-8.53c0-3.06-5.96-6.7-8.52-8.13
		l-14.01-5.27l-12.01-6.86c-2.73-2.13-6.56-5.51-7.82-7.34c-0.18-0.26-0.31-0.49-0.37-0.68c-0.49-1.47-1.81-3.45-3.2-5.54
		c-1.24-1.85-2.51-3.77-2.89-4.91c-0.85-2.53-3.43-12.86-3.46-12.96l-4.37-10.52l-3.45-11.22l-0.53-3.71h0l-0.24-1.7l-0.13-0.93h0
		l-0.79-5.52l2.5-13.31l11.21-11.21l5.32-12.42l2.74-9.09l-0.89-9.83l-2.54-8.55l3.17-8.72l8.26-4.95
		c1.01-0.55,9.92-5.46,11.79-8.27c1.35-2.02,3.12-6.33,3.98-8.52c0.25-0.63,0.42-1.09,0.49-1.26l1.57-3.14l2.53-1.9l5.85,3.34
		l8.6-2.87l7.9-5.93l-2.92-8.74l-4.28-8.6v-7.52l-0.04-0.32c-0.01-0.04-0.87-3.51-1.73-7.78c-0.36-1.81-1.17-3.03-2.41-3.64
		c-0.8-0.39-1.62-0.43-2.29-0.35l-0.64-2.57l-7.04-6.16l-1.53-3.82v-14.04l-2.56-4.26l1.56-10.94l6.52-2.45l10.61-11.49l6.43-5.51
		l0.98-8.32l6.51,4.34L339.8,131.08z M84.32,160.35l3.27-0.75l23.42-19.82l-0.93-8.39l0.82-7.37l6.61-9.92l4.78-2.73l4.05,5.67h7.26
		l5.56-4.63l7.48-5.82h4.77l8.88-1.94l2.72-9.06l3.52-2.81l6.33,1.58l4.84,0.04l1.12-4.49l0.9-10.55l1.66-6.66l3.89-6.22l9.6-0.8
		l3.1,0.62v5.32l3.99,7.98l7.65-0.01l8.23,0.82l6.29,6.29l0.83,10.02l1.05,8.38l6.15-1.23l3.38-3.38h6.66l4.54,5.44l5.8-1.93
		l5.99,0.75l4.9,8.98l7.54,8.53h8.8l4.5-2.7l17.14-4.29l13.38-1.67l6.53,4.08l1.36,0.91l-1.01,8.64l-5.7,4.89l-10.35,11.19
		l-7.41,2.78l-1.92,13.43l2.67,4.44v13.82l1.96,4.89l6.89,6.03l1.17,4.68l1.48-0.74c0.01,0,0.88-0.39,1.49-0.09
		c0.56,0.28,0.84,1.12,0.97,1.77c0.76,3.81,1.53,7,1.72,7.74v7.99v0l4.45,8.9l2.28,6.84l-6.03,4.52l-7.07,2.36l-6.34-3.62
		l-4.43,3.32l-1.88,3.76l-0.06,0.13c-0.03,0.07-2.58,6.85-4.21,9.31c-1.14,1.7-7.26,5.45-10.9,7.43l-9.11,5.47l-3.79,10.43l2.7,9
		l0.83,9.19l-2.52,8.39l-5.09,11.88l-11.43,11.43l-2.73,14.55l0.83,5.81l-8.48,0.73l-10.98,0.61l-4.35-6.84l-8.66-4.33l-8.15,2.72
		h-5.8l-0.51-4.06l-2.62-8.57l-0.66-9.29l-3.2-5.6l-5.9,0.74l-1.97-0.36v-2.32l-0.64-0.39c-0.03-0.02-3.26-1.96-5.17-3.23
		c-1.44-0.96-3.5-1.9-4.63-2.39v-2.95l4.79-2.99l5.22-6.53l10.88-6.8l0-6.06l-0.64-8.29l1.26-5.68l0.03-19.54l-1.81-3.63h-4.49
		l-4.15,2.77c-3.24,1.76-7.55,3.47-8.84,3.14c-2.27-0.57-5.88-1.12-6.99-1.28l-6.81-4.95l-6.39-7.03l-5.83-7.11l-3.26-4.57
		l-4.05-3.43l-5.19-6.48l-5.88-6.53l-8.16-5.25l-5.77,3.6l-6.55,1.79l-3.77-1.62l-5.53-8.6l-2-9.35l-8.43-7.03l-5.81-1.29
		l-2.82-2.82l-3.06-6.74L84.32,160.35z M45.49,463.87l-1.45-7.98l4.44-2.97l8.93-5.36l5.38-7.17l4.35-7.8l10.57-9.69l3.66-12.82
		l-1.84-13.78l-3.95-3.95l-5.16-2.58l-3.24-4.05l-3.26-5.7v-5.19l3.96-3.96l5.61-8.37v-8.08l-5.72-3.81l-3.86-3.08v-6.88l-4.18-4.18
		l-6.53-0.93l-7.4-0.01l-3.96-4.75l-8.69-6.99l-4.74-8.69l3.09-5.41c0.04-0.07,4.36-6.98,6.08-9.54c1.7-2.55,4.28-6,4.31-6.04
		l0.27-0.35v-4.58l3.23-9.68l6.35-2.72v-9.58l-1.72-6.22l0.82-8.97l4.14-5.8l3.58-7.98l4.7-7.52l-2.8-5.61v-6.97l5.55-5.55
		l5.76-2.88v-7.2l-3.48-7.84v-4.7l2.71-7.22l-3.58-8.95v-5.16l8.81-6.41l5.47-1.26l0.05,1l3.47,7.63l3.71,3.71l5.94,1.32l7.24,6.03
		l1.91,8.93l6.23,9.69l5.37,2.3l7.63-2.08l4.87-2.98l6.32,4.02l5.71,6.34l5.22,6.53l3.97,3.35l3.22,4.5l5.92,7.24l6.53,7.18
		l7.65,5.6l0.33,0.05c0,0,0.02,0,0.06,0.01c0.54,0.08,4.63,0.68,6.99,1.27c2.96,0.74,9.48-2.69,10.85-3.45l3.58-2.39h2.04l0.8,1.6
		v18.48l-1.32,5.93l0.66,8.58v4.49l-10.02,6.26l-5.22,6.53l-5.66,3.54v6.2l0.83,0.33c0.03,0.01,3.16,1.27,4.98,2.48
		c1.45,0.97,3.58,2.27,4.63,2.91v0.33v2.7v1.68l-18.94,26.77v7.92l3.19,6.37l-1.12,4.47l-2.03,2.54h-5.72l-4.91,4.09l1.56,7.04
		l3.32,3.32l0.88,2.63l-4.19,2.62l-8.7,2.68l-3.83,4.59v5.09l-4.57,3.92v3.04l-1.26,4.39l-0.05,7.09l-4.47,5.75l-2.03,8.77
		l-0.06,0.31l0.06,0.29c0.02,0.09,0.43,2.2-1.77,5.5c-2.12,3.18-2.64,5.2-3.05,6.83c-0.12,0.46-0.23,0.89-0.37,1.32
		c-0.6,1.79-1.15,6.67-1.32,8.3l-6.59,6.59v12.51l-3.5,4.66l-6.49,3.9l-4.06,4.73l-5.05,8.18l-4.62,1.03l-4.11-4.11l-6.2-5.52
		l-14.92-1.35l-11.05,0c-0.03,0-1.81-0.08-4.21-0.22c-0.03,0-0.05,0-0.08,0c-0.38-0.02-0.78-0.05-1.19-0.08
		c-0.03,0-0.06,0-0.09-0.01c-0.42-0.03-0.85-0.06-1.28-0.09c0.08-0.63,0.08-1.07,0.08-1.1l-1-7.06L45.49,463.87z M233.74,701.9
		l-1.79,11.61l-2.52,6.72l-5.08,8.46l-6.63,6.63l-9.78,3.26l-13.93-3.48l-8.12,2.71l-17.24,3.45l-6.38,0.8l-5.33-4.57l-1.75-6.98
		l-5.25-4.37l-2.27-7.57l3.96-3.96l4.48-9.85l1.84-4.59v-9.78l-7.59-3.8l-2.86-2.14v-5.02l-7.47-9.34l-4.57-1.83l-6.64-4.14
		l-6.16-8.8l-12.03-5.15l-1.5-3.76l-2.68-10.72l-5.16-5.16l-0.78-6.24l1.77-6.21L98.58,606l-5.44-4.52l-6.86-6.86l-6.14-9.65
		l-7.8-6.07l-4.22-7.6l-5.06-6.77v-9.13l-3.5-12.43l-0.9-9.86l-8.09-9.89l-10.54-7.96l-6.79-8.48l-6.9-10.35l-2.17-5.07l4.17-3.48
		l5.72-0.82l8.07-2.67l0.32-0.15c1.41-0.94,5.52-3.53,7.52-4.2c0.89-0.29,2.02-1.02,2.77-2.77c3.87,0.29,7.38,0.44,7.47,0.44
		l10.98-0.01l13.93,1.26l5.49,4.88l4.26,4.26l1.24,8.7l3.44,10.4l0.31,0.25c0.03,0.02,3.01,2.43,4.17,5.33
		c1.45,3.63,2.31,5.08,6.99,8.42c4.5,3.22,7.13,5.19,7.16,5.21l0.17,0.13l7.89,2.63l6.82,4.34l8.99,12.84l6.47,5.11l0.41,0.03
		c0.4,0.03,9.86,0.66,11.84,0.66c1.97,0,14.55-0.63,15.09-0.65l0.51-0.03l0.36-0.36c2.08-2.08,5.52-5.18,6.66-5.56
		c2.05-0.68,9.9-6.25,11.45-7.36l0.32-0.23l3.28-8.53l5.74-4.59l4.31,1.08l5.14,4l0,12.83h-0.08l0.08,1.37v1.28h0.07l0.8,14.42
		l1.91,5.87l8.28,8.28l7.64,2.55l4.93,9.02l3.21,7.22l-2.77,4.84h-5.77l-6.09-4.35h-6.76l-7.84,2.94l-1.64,6.55l6.44,7.88l6.75,4.05
		l3.9,2.23v3.03l-4.29,2.45l-2.42,5.64l2.7,4.05l-1.17,5.26l-1.45,4.34l2.82,6.35l5.4,7.47l5.18,6.47l3.1,4.34l1.22,6.12
		c-0.01,0.83-0.1,2.74-0.43,4.12c-0.05,0.2-0.1,0.38-0.16,0.56c-0.62,1.84-1.87,4.37-1.89,4.4l-0.16,0.33l0.69,8.95
		c0,0,0.6,4,1.13,7.9L233.74,701.9z M343.85,759.02l-11.66-5.45l-0.23-0.08c-0.1-0.03-10.43-2.61-12.96-3.45
		c-1.63-0.54-4.22-3.23-5.43-4.73l-5.89-8.41l-0.8-10.42l4.2-5.04l1.93-7.74l-5.27-10.54l0.81-7.31l0.82-2.48
		c0.85-2.54,2.57-6.85,2.59-6.89l0.2-0.49l-0.2-0.49c-1.31-3.27-3.39-9.11-3.39-10.83v-8.39l3.18-6.37l5.52-3.68v-5.89l-9.06,2.26
		l-6.53,8.4l-3.37,11.8l-5.12,1.92l-1.59-3.98h-8.9l-2.15,8.58l8.14,10.86l3.24,6.47l-1.61,9.64l-6.32,7.1h-5.27
		c-0.96-0.35-5.33-2.01-8.97-4.93c-4.9-3.92-9.82-2.02-10.03-1.94l-0.36,0.15l-4.39,6.14l-3.7,1.85l-3.7-8.14l-0.97-7.79l-7.07-0.88
		c-0.1-0.69-0.19-1.38-0.29-2.05c-0.01-0.06-0.02-0.13-0.03-0.19c-0.02-0.16-0.04-0.31-0.07-0.46c-0.37-2.61-0.68-4.69-0.69-4.69
		l-0.63-8.13c0.38-0.78,1.32-2.78,1.87-4.41c0.71-2.14,0.72-5.5,0.72-5.64l-1.39-7.07l-3.47-4.86l-5.19-6.48l-5.14-7.07l-2.35-5.28
		l1.14-3.43l1.47-6.56l-2.53-3.79l1.5-3.5l4.85-2.77v-6.11l-5.21-2.98l-6.33-3.8l-5.31-6.49l0.98-3.9l6.09-2.28h5.43l6.09,4.35h8.16
		l3.38-5.91c0.01,0,0.03,0,0.04,0.01c0.12,0.02,0.25,0.04,0.39,0.05c0.09,0.01,0.17,0.02,0.27,0.04c0.14,0.02,0.31,0.03,0.48,0.05
		c0.11,0.01,0.22,0.02,0.34,0.03c0.2,0.01,0.43,0.02,0.65,0.04c0.12,0.01,0.22,0.01,0.34,0.02c0.36,0.01,0.76,0.02,1.18,0.02
		c0.41,0,0.88-0.03,1.41-0.08c3.68-0.34,9.77-1.72,10.57-1.9l11.34-1.26l7.06,2.94l2.25,4.5v12.74l1.24,6.32
		c-0.13,0.36-0.19,0.79-0.08,1.25c0.28,1.19,1.45,2.09,3.67,2.83c3.97,1.33,7.87,1.98,8.04,2.01l0.56,0.09l5.55-4.16l4.44-1.9
		l5.93-2.64l4.88-2.44c2.02,0.21,6.43,0.74,7.82,1.21c1.79,0.6,6.68,1.15,8.3,1.32l3.39,3.39c0.38,1.01,1.11,3.2,1.11,4.48v2.22
		l1.78,4.44l6.88-0.76l6.36-2.76l8.05-4.33l7.9,1.82c0.54,0.22,3.42,1.44,6.25,3.14c2.41,1.45,4.86,3.29,5.88,4.08v10.01l-1.54,2.05
		l-3.46,2.08l-0.15,0.47c-0.15,0.44-1.41,4.37-0.68,7.27l0.79,3.17l0.5,0.28c1.09,0.6,3.5,2.02,5.41,3.33
		c0.88,0.61,1.66,1.2,2.14,1.67c0.18,0.18,0.41,0.37,0.66,0.56c0.06,0.04,0.11,0.08,0.17,0.13c0.25,0.18,0.52,0.37,0.82,0.55
		c0.03,0.02,0.06,0.04,0.1,0.06c0.28,0.17,0.58,0.34,0.89,0.51c0.07,0.04,0.14,0.08,0.21,0.11c0.34,0.18,0.68,0.36,1.03,0.53
		c0.05,0.03,0.1,0.05,0.15,0.07c0.33,0.16,0.66,0.32,0.99,0.47c0.05,0.02,0.1,0.05,0.16,0.07c0.36,0.16,0.72,0.32,1.06,0.47
		c0.05,0.02,0.1,0.04,0.15,0.06c0.33,0.14,0.64,0.27,0.94,0.39c0.02,0.01,0.04,0.02,0.06,0.03c0.32,0.13,0.6,0.24,0.87,0.35
		c0.01,0.01,0.03,0.01,0.05,0.02l-1.31,3.06l-5.04,5.04l-5.61,7.69v8.54l2.01,4.68l1.32,7.27l2.04,3.4l1.33,3.1l-2.76,0.79
		l-4.21-1.2l-4.93-0.05c-2.16,0-7.57,3.14-9.17,4.11l-0.44,0.27l-3.41,11.6l-0.05,11.12l-5.22,9.14l0,9.57l0.73,13.85L343.85,759.02
		z M538.43,727.42l-6,12.86l-1.88,13.63l0.03,0.18c0.07,0.5,1.76,12.3,2.64,15.81c0.7,2.81-1.5,5.82-1.52,5.85l-2.15,2.87l11.8-2.62
		l6.86-8.57h7.36l2.76,4.14l-1.51,6.04l-6.91,6.91l-4.4,11.47l-4.99,9.98l-6.39,2.4l-15.31,3.4l-7.8-1.56l-2.11-4.22l1.58-7.13
		l5.64-8.47l-6.05-7.06l-4.5-2.25l-5.39,4.49l-7.08-1.57l-6.29-2.69l-10.59,0.88l-8.09-1.62l-6.07-6.83l3.77-7.54l5.44-3.11h12.28
		l4.28-3.21l1.02-7.12l-4.74-7.59l-1.34-1.01c0.01-0.01,0.03-0.02,0.04-0.02c0.32-0.18,0.64-0.36,0.95-0.53
		c0.02-0.01,0.04-0.02,0.06-0.03c1.98-1.1,3.57-1.94,4-2.16c0.06-0.03,0.11-0.06,0.12-0.06l6.22-3.73h9.14l7.13-4.28l4.03-6.72
		l3.45-4.02h5.27c2.28,0,4.18-1.03,6.19-2.11c1.26-0.68,2.55-1.38,4.03-1.87c0.37-0.12,0.77-0.28,1.17-0.44
		c0.11-0.04,0.21-0.09,0.32-0.13c0.36-0.15,0.72-0.31,1.08-0.48c0.05-0.02,0.09-0.04,0.13-0.06c0.41-0.19,0.81-0.4,1.21-0.6
		c0.11-0.06,0.22-0.12,0.34-0.18c0.33-0.17,0.66-0.35,0.97-0.52c0.05-0.03,0.11-0.06,0.16-0.08l0.48,3.87L538.43,727.42z
		 M556.91,655.57l-3.15,7.36l10.28,7.48l5.74,7.38l0.79,8.69c-2.78,3.79-7.24,9.45-8.95,10.59c-2.78,1.86-8.51,5-12.32,5
		c-4.02,0-9.87-2.48-9.92-2.5l-0.25-0.11h-14.09l-3.74,6.23l6.54,3.27l9.98,4.6c-0.04,0.02-0.07,0.04-0.11,0.06
		c-0.11,0.06-0.23,0.12-0.34,0.19c-0.39,0.21-0.79,0.43-1.19,0.64c-0.17,0.09-0.35,0.18-0.52,0.26c-0.38,0.19-0.75,0.37-1.12,0.54
		c-0.16,0.08-0.33,0.15-0.49,0.22c-0.52,0.23-1.03,0.43-1.5,0.59c-1.69,0.56-3.16,1.36-4.45,2.06c-1.78,0.96-3.31,1.79-4.92,1.79
		h-6.49l-4.32,5.04l-3.88,6.43l-5.93,3.56h-9.14l-6.78,4.07c-0.03,0.02-2.91,1.52-6.11,3.35l-2.42-4.02l-7.61-10.87l-2.57,7.73
		l-0.81,3.97l-5.36,3.57v7.44l-3.18,8.76l-9.45,3.15l-5.37-1.54l-6.28-6.28l0.89-9.75l-6.22-4.14h-23.59l-6.87,6.87v19.08
		l-4.47,3.72c-4.21,0.68-10.52,1.37-12.07,0.86c-2.66-0.89-11.12-2.59-11.48-2.66l-0.63-0.13l-0.49,0.42
		c-2.75,2.36-6.53,4.9-7.84,4.9c-0.81,0-3.51-1.01-8.51-3.81l-0.83-15.76v-8.79l5.22-9.14v-11.26l3.06-10.42
		c2.93-1.72,6.46-3.47,7.36-3.47h4.38l4.76,1.36l6.39-1.83l-2.55-5.95l-1.92-3.22l-1.26-6.94l-1.94-4.61v-7.13l4.91-6.75l5.33-5.33
		l1.96-4.57l5-5l7.85-7.13l-2.35-6.27l-5.79-7.08c-0.36-2.23-0.76-5.57-0.76-7.79c0-0.74,0.04-1.36,0.14-1.77
		c0.32-1.28,1.34-1.92,3.6-3.24c0.89-0.52,1.9-1.1,3.03-1.86c3.54-2.36,6.03-5.2,6.67-5.96l2.88-1.73l5.67-1.26l12.55-5.91
		l11.47-2.55c2.97,0.01,7.97,0.17,9.23,0.58c1.83,0.61,5.58,2.48,5.59,2.48l5.82,3.64l6.39-2.84l11.72-2.47l0.97,2.92l5.53,8.37
		l6.43,4.29h7.43c0.5,0.13,2.66,0.78,3.54,2.53c1.19,2.39,1.83,6.73,1.83,6.78l0.08,0.59l6.65,4.43l7.4,0.74l0.42-0.34
		c0.03-0.02,2.85-2.21,5.44-1.69c2.26,0.45,4.61,2.01,5.54,2.69l0.5,4.01c-0.43,0.51-0.91,1.32-0.75,2.3
		c0.19,1.19,1.21,2.1,3.04,2.71c4.08,1.36,10.59,1.38,10.87,1.38l0.06-0.01c0.02,0,0.06,0,0.07,0l13.16-1.32l2.52-0.45l1.03,2.06
		L556.91,655.57z M750.17,597.89l10.68,9.85l7.32,4.9l-0.71,6.38l-4.58,2.75l1.88,10.36c-0.02,2.81-0.74,6.14-1.7,6.46
		c-1.9,0.63-6.49,0.17-8.1-0.06l-10.01-0.01l-3.65-4.38v-8.82l-5.75,5.75l-5,6.64l-7.91,0.79l-7.31-1.62l-5.28-4.4l-7.1-0.89
		l-7.91-4.4h-3.82l-8.23,2.41l-2.51-3.14l1.53-6.12l4.24-6.79l0.16-0.38c0.04-0.16,0.95-3.99-1.81-10.42
		c-0.24-0.57-0.44-1.02-0.6-1.39c0-0.42-0.14-0.84-0.24-1.12c-1.02-3.04-4.61-4.92-5.02-5.12l-1.12-0.56l-4.28,7.49v5.03l-2.59,2.59
		l-3.35-0.67c-1.02-0.79-4.86-3.65-8.78-5.22c-3.62-1.45-4.4-4.21-4.43-4.31l-0.11-0.46l-0.38-0.28c-0.14-0.11-3.54-2.65-6.15-4.39
		c-2.24-1.49-5.26-0.97-7.69-0.55c-0.99,0.17-1.92,0.33-2.62,0.33c-1.06,0-2.5-2.55-3.1-4.34l-4.32-12.11
		c-0.2-0.89-1.79-7.97-2.63-10.5c-0.59-1.76,0.41-4.97,0.87-6.13l2.47-7.39l-6.92,1.38l-9.46,7.57v10.44l4.47,12.51l4.23,9.32v6.46
		l-1.74,5.22v8l4.14,2.07l5,3.34l5.17,6.03l7.54,7.54l0.67,4.05l-6.08,5.06l5.96,3.57l4.58,1.56v1.98l-4.66,4.66l-7.51,3.34
		l-13.78,4.86l-1.78-2.97l1.89-8.49l-6.19-2.06l-4.16-2.77l2.4-5.6l-3.18-7.42h-5.95l-6.65-1.48v-5.93l-5.81-2.33l-0.57,0.36
		c-2.51,1.57-7.3,3.84-9.42,3.32c-3.32-0.83-8.02-0.9-8.9-0.91l-4.7-0.94l-7.88,4.37l-13.56-1.81l-2.62,5.24l8.53,7.59l5.59,6.39
		l-1.52,0.27l-12.99,1.3c-0.12,0-0.47,0-1-0.02c-0.02,0-0.04,0-0.06,0c-0.14,0-0.29-0.01-0.45-0.02c-0.04,0-0.08,0-0.13-0.01
		c-0.15-0.01-0.31-0.01-0.48-0.02c-0.05,0-0.1-0.01-0.15-0.01c-0.17-0.01-0.34-0.02-0.51-0.03c-0.06,0-0.12-0.01-0.18-0.01
		c-0.17-0.01-0.35-0.02-0.53-0.04c-0.07-0.01-0.14-0.01-0.21-0.02c-0.18-0.01-0.37-0.03-0.55-0.05c-0.08-0.01-0.15-0.01-0.23-0.02
		c-0.19-0.02-0.37-0.04-0.56-0.06c-0.08-0.01-0.16-0.02-0.24-0.03c-0.19-0.02-0.38-0.04-0.56-0.07c-0.09-0.01-0.17-0.02-0.26-0.03
		c-0.19-0.02-0.37-0.05-0.56-0.08c-0.09-0.01-0.17-0.03-0.26-0.04c-0.19-0.03-0.37-0.06-0.55-0.09c-0.09-0.02-0.17-0.03-0.26-0.05
		c-0.19-0.04-0.37-0.07-0.55-0.11c-0.08-0.02-0.15-0.03-0.23-0.05c-0.2-0.04-0.39-0.09-0.57-0.14c-0.06-0.02-0.12-0.03-0.18-0.04
		c-0.24-0.07-0.48-0.14-0.7-0.21c-0.8-0.27-1.11-0.51-1.22-0.61c0.06-0.1,0.19-0.25,0.29-0.33l0.62-0.46l-0.82-6.53l-0.42-0.34
		c-0.14-0.11-3.56-2.82-7.1-3.53c-3.08-0.62-6.05,1.12-7.16,1.89l-5.7-0.57l-5.12-3.41c-0.23-1.37-0.88-4.77-1.99-6.99
		c-0.1-0.2-0.21-0.39-0.32-0.56c-1.71-2.69-5.03-3.38-5.18-3.41l-7.04-0.03l-5.32-3.55l-4.98-7.47l-1.27-3.82l3.8-5.98l3.43-11.46
		c0.66-2.43,3.96-14.64,3.96-16.67c0-0.14-0.01-0.3-0.04-0.48c-0.01-0.1-0.03-0.23-0.05-0.34c-0.01-0.09-0.03-0.17-0.04-0.26
		c-0.03-0.16-0.07-0.34-0.11-0.52c-0.01-0.06-0.02-0.11-0.04-0.17c-0.05-0.21-0.1-0.44-0.16-0.68c0-0.01,0-0.01,0-0.02
		c-0.17-0.67-0.39-1.46-0.67-2.36c-0.06-0.21-0.13-0.41-0.19-0.62c-0.04-0.14-0.09-0.28-0.13-0.43c-0.35-1.12-0.72-2.23-1.05-3.19
		l5.51-0.75l8.06-4.7l0.05-0.03l0.05-0.03l4.1-2.93l5.07,1.01l0.48,2.91v10.18l4.39,5.12l4.13,2.36c0.18,2.19,1.15,5.11,3.91,5.11
		h8.26l5.27-3.77l0.14-0.4c0.01-0.02,0.63-1.82,2.41-4.2c0.2-0.26,0.41-0.52,0.63-0.78c1.54-1.81,3.53-3.52,4.17-4.04l4.18-1.2
		l7.13-1.3c0.9-0.13,5.43-0.9,6.29-3.51c0.7-2.1,0.72-8.22,0.72-8.91v-0.26l-2.79-6.99l-5.26-5.92c-0.11-0.22-0.22-0.46-0.34-0.71
		c-0.06-0.14-0.13-0.3-0.2-0.45c-0.06-0.14-0.12-0.27-0.18-0.41c-0.06-0.13-0.11-0.27-0.17-0.4c-0.09-0.21-0.17-0.41-0.26-0.63
		c-0.02-0.06-0.05-0.12-0.07-0.19c-0.37-0.95-0.71-1.93-0.93-2.77c0-0.01,0-0.01,0-0.02c-0.07-0.28-0.13-0.55-0.17-0.79
		c-0.04-0.26-0.07-0.5-0.07-0.71c0-2.36,1.22-6.07,1.22-6.07c0.02-0.05,1.94-5.15,3.81-8.27c0.44-0.74,1.01-1.45,1.6-2.1
		c1.78-1.95,3.85-3.34,3.88-3.36l0.5-0.34l0.61-4.88l5.2-1.04l7.82,3.26l8.21-1.37l7.3-2.63c0.66-0.11,3.9-0.62,5.54-0.62
		c1.27,0,6.42,1.56,9.37,2.54l0.29,0.1l5.98-0.74l0.32-0.32c0.09-0.09,2.19-2.21,2.93-4.44c0.73-2.18-2.45-7.51-4.55-10.68
		l-0.58-5.27l1.23-3.7l1.52-5.32l-3.81-3.81c-0.01-0.01-0.93-0.98-0.93-2.34c0-2.14-2.15-5.56-2.76-6.49
		c-0.1-0.3-0.51-1.73-0.51-5.26c0-4.07-2.6-6.37-3.92-7.27v-3.4l3.02-4.23l3.43-9.47l0.16-2.62l5.28-3.96l5.36-4.17l8.96,2.39
		c0.29,0.18,0.94,0.6,1.74,1.13c1.19,0.79,2.72,1.85,3.89,2.79c0.15,0.12,0.3,0.24,0.43,0.36c0.27,0.23,0.52,0.45,0.73,0.66
		c1.93,1.93,6.06,4.35,6.72,4.74c0.04,0.03,0.07,0.04,0.09,0.05l0.35,0.2l9.18-0.71l0.35-0.19v0l2.05-1.12l0.39-0.21v0l4.39-2.4
		l8.59-0.61l7.45,2.48c0.15,0.09,0.33,0.2,0.52,0.31c2.11,1.3,6.24,3.93,7.59,5.29c2,2,10.37,7.4,11.32,8.01l0.3,0.14
		c1.59,0.53,6.04,2.12,7.52,3.11c0.13,0.09,0.29,0.17,0.47,0.25c0.06,0.03,0.13,0.05,0.19,0.08c0.13,0.06,0.27,0.11,0.42,0.17
		c0.08,0.03,0.18,0.06,0.27,0.09c0.15,0.05,0.3,0.1,0.46,0.15c0.1,0.03,0.22,0.06,0.32,0.09c0.17,0.05,0.34,0.1,0.52,0.14
		c0.12,0.03,0.24,0.06,0.36,0.09c0.18,0.05,0.37,0.09,0.56,0.14c0.13,0.03,0.26,0.06,0.39,0.09c0.2,0.04,0.4,0.09,0.6,0.13
		c0.14,0.03,0.27,0.06,0.41,0.08c0.21,0.04,0.41,0.08,0.62,0.12c0.14,0.03,0.28,0.05,0.42,0.08c0.22,0.04,0.43,0.08,0.65,0.12
		c0.13,0.02,0.27,0.05,0.4,0.07c0.23,0.04,0.45,0.08,0.67,0.11c0.13,0.02,0.25,0.04,0.38,0.06c0.24,0.04,0.47,0.07,0.7,0.11
		c0.11,0.02,0.21,0.03,0.32,0.05c0.25,0.04,0.49,0.07,0.73,0.11c0.08,0.01,0.16,0.02,0.24,0.04c0.28,0.04,0.55,0.08,0.81,0.11
		c0.03,0,0.07,0.01,0.1,0.01c0.29,0.04,0.58,0.08,0.84,0.11c0,0,0,0,0,0c0.5,0.07,0.93,0.12,1.28,0.16l-0.59,2.21l-3.6,7.8
		c-1.38,0.4-4.3,1.61-4.93,4.79c-0.06,0.31-0.15,0.63-0.26,0.96c-0.01,0.03-0.02,0.06-0.03,0.09c-0.78,2.3-2.53,4.99-3.16,5.93
		l-3.33,1.11l-11.01,0.69l-5.15,9.56l1.33,6.65l-1.17,3.49l-2.87,5.73l3.56,7.13l0.37,0.73h0.8c0.05,0,1.01,0.05,1.84,0.93
		c0.12,0.13,0.23,0.27,0.34,0.43c0.67,1.01,1.9,1.91,3.09,2.78c0.88,0.65,2.52,1.85,2.57,2.36c0,1.99,1.98,6.67,2.61,8.12v8.21
		l2.07,8.46l7.53,8.9l8.02,4.68l2.62,1.57v6.43c0,0.76-0.28,1.62-0.58,2.52c-0.36,1.06-0.72,2.16-0.72,3.36
		c0,2.23,2.89,6.96,3.47,7.89l0.15,0.24l0.24,0.16c2.46,1.64,8.4,5.45,10.53,5.45c1,0,1.52-0.27,2.02-0.58
		c0.07-0.01,0.48-0.04,2.13,0.51c3.82,1.27,8.34,3.21,8.37,3.22l1.65,0.74l-0.93,1.55L750.17,597.89z M868.64,503.79l-1.98,6.93
		l-2.57,12.87l-5.74,10.67l-13.1,4.1l-14.79-2.61l-6.83,1.95l-4.14,5.8l-4.68-0.78l-10.56,2.64h-5.46l-8.65,5.77l-1.03,6.17
		l4.4,10.56v12.48l-2.11,4.21h-4.45l-2.56-5.11l-7.44-1.06l-7.85,7.85l-7.09-0.79l-6.26-1.79l-7,1l-1.05,1.75l-1.96-0.88
		c-0.19-0.08-4.67-2-8.59-3.31c-0.33-0.11-0.64-0.21-0.92-0.29c-0.19-0.05-0.34-0.09-0.51-0.13c-0.08-0.02-0.18-0.05-0.26-0.07
		c-0.17-0.04-0.32-0.06-0.46-0.09c-0.06-0.01-0.12-0.02-0.18-0.03c-0.14-0.02-0.27-0.03-0.39-0.03c-0.05,0-0.1-0.01-0.15-0.01
		c-0.02,0-0.04,0-0.05,0c-0.03,0-0.04,0.01-0.07,0.01c-0.27,0.01-0.51,0.04-0.73,0.11c-0.02,0.01-0.04,0.02-0.06,0.02
		c-0.22,0.08-0.44,0.18-0.65,0.31c-0.16,0.1-0.22,0.13-0.55,0.13c-0.98-0.05-5.3-2.51-8.82-4.84c-1.43-2.33-2.91-5.3-2.91-6.24
		c0-0.76,0.28-1.62,0.58-2.52c0.36-1.06,0.72-2.16,0.72-3.36v-7.93l-11.56-6.81l-6.84-8.08l-1.84-7.38v-8.61l-0.11-0.26
		c-1.04-2.33-2.5-6.14-2.5-7.3c0-1.82-1.77-3.12-3.65-4.5c-1-0.73-2.03-1.49-2.45-2.12c-1.02-1.53-2.44-2.21-3.5-2.44l-2.66-5.31
		l2.32-4.63l1.49-4.43l-1.28-6.41l4-7.42l9.71-0.61l4.67-1.51l0.25-0.35c0.14-0.2,3.44-4.84,4.14-8.35
		c0.46-2.31,3.46-2.86,3.49-2.87l0.69-0.12l4.21-9.13l0.96-3.51l9.41-1.66l7.24-4.35l0.12-0.58c0.48-2.43,1.57-6.75,2.42-8.01
		c1.17-1.76,5.8-7,6.36-7.63l5.03-4.4c0.76-0.36,2.57-1.09,3.83-1.09c2.05,0,5.93-0.64,6.09-0.67l0.42-0.07l4.53-4.53l7.15-0.6
		l5.24,1.16l6.05,7.26l0.34,0.41l0,0l1.73,2.07l-0.04-1.15c1.92,1.04,5.13,2.73,6.59,3.21c1.98,0.66,6.98,0.72,8.09,0.72l5,1.25
		l7.21,2.62c1.84,0.53,4.08,1.67,4.33,2.41c0.48,1.45,1.7,2.75,2.87,4.01c0.71,0.76,1.39,1.49,1.85,2.18
		c1.13,1.69,4.47,4.01,6.08,5.07c0.23,0.91,1.57,2.01,6.14,4.5l6.65,3.63l1.82,8.46l1.37,9.58l7.49,7.49l8.52,6.57l9.21,10.33
		L868.64,503.79z M980.08,412.69l-5.42,6.32l-0.9,7.23l-2.51,7.53l-5.69,8.12l-11.18,2.4l-5.5-3.14l-3.75-3.75h-4.93l-2.17,5.43
		v5.17l-4.35,8.71v4.72l-3.2,1.6l-3.77,9.41v2.87c0,1.57-1.54,2.16-1.7,2.22l-4.45,2.63l-3.65,0.91l-7.61,7.61l-4.55-0.76L898,487.9
		l-4.09,3.06l-2.72,5.44l-3.15,5.52l-6.11,0.76l-5.31-0.88l-3.32,0.83l-10.22-11.46l-8.6-6.65l-6.81-6.81l-1.26-8.79l-2.09-9.74
		l-7.72-4.21c-1.03-0.56-1.86-1.04-2.5-1.42h1.27l-3.93-2.45c-1.93-1.2-5.29-3.58-6.13-4.83c-0.58-0.87-1.36-1.71-2.12-2.52
		c-0.98-1.05-2-2.14-2.3-3.04c-0.83-2.5-5.24-3.87-6.03-4.09l-7.18-2.61l-5.36-1.35l-0.32-0.04c-2.19,0-6.14-0.16-7.42-0.58
		c-1.12-0.37-3.89-1.81-5.9-2.89c-0.58-0.31-1.1-0.6-1.5-0.81l-0.14-0.17l-0.04-1.15c0.67-1.56,3.89-9.11,4.49-10.93
		c0.55-1.64,1.07-4.87,1.28-6.19c1.97-1.35,4.42-2.7,5.3-2.7c2.05,0,5.93-0.64,6.09-0.67l0.23-0.04l5.53-3.16l-0.78-7l-3.74-6.85
		l2.85-6.84l5.89-3.54l7.13-0.65l6.75-3.38l6.56-4.36l0.71-9.23v-10.34l-5.22-5.22v-4.98l3.61-1.03l0.27-0.11
		c0.75-0.41,7.41-4.07,9.45-6.1c1.82-1.82,4.94-3.7,4.97-3.72l5.71-4.97l1.13-4.07l6.3,1.57l11.9,0.04l8.86-3.54l5.41-1.35l0.64,5.8
		l-2.3,3.06l-2.44,4.82l9.05,5.02l7.82,3.47l11.25,5.19l8.33,5l5.03,9.22l6.21,12.42l7.16,6.27l11.04,5.57l15.08-0.89h6.88
		l1.41,4.24l1.81,9.02l7.13,7.13l2.11,3.52L980.08,412.69z"/>
	<path d="M315.42,854.4l4.52-7.75l2.26-9.53l-6.56-7.29l-14.68-5.34l-12.72-1.38l-9.5-0.01l-4.42,1.47l-0.22,0.22
		c-0.06,0.06-1.39,1.4-4.02,4.68c-0.58,0.73-1.05,1.32-1.22,1.86c-0.3,0.3-0.73,0.73-1.29,1.3c-3.06,3.06-7.05,4.89-8.29,5.42
		l-6.04-1.65l-1.82-6.05l-4.36-5.82l-0.5-0.1c-0.03-0.01-3.04-0.62-4.75-1.76c-1.86-1.24-7.63-6.36-7.74-6.46l-6.12-4.9
		c-0.4-2.83-1.22-8.96-1.22-10.39c0-1.39,0.8-5.76,1.2-7.8l7.51-6.89l4.35-7.14v-10.16c0-10.02-1.38-11.86-2.87-12.36
		c-1.9-0.63-8.35-3.21-8.49-3.26l-8.32-2.77l-9.6,4.12l-11.09,6.23l-2.18,9.45l1.92,5.12l-2.09,5.22h-6.6l-8.61,4.3l-2.79,8.36
		l-1.31,9.01l-5.62,6.86l-4.9,5.6v7.03c0,1.71,1.58,3.76,3.8,6.47c0.66,0.81,1.29,1.57,1.65,2.11c1.2,1.8,4.43,5.62,5.17,6.48
		l4.42,11.37l0.67,7.36l5.49,7.55c1.43,1.72,2.96,4.15,2.96,5.03c0,1.55-0.44,5.81-0.6,7.23l-3.27,3.27l-0.04,0.48
		c-0.22,2.4-0.47,8.14,1.89,9.71l5.65,3.76l6,9.33l0.48,0.14c0.04,0.01,4.36,1.26,6.75,3.05c2.28,1.71,7.4,1.78,12.6,1.61
		c0.54-0.02,0.97-0.03,1.26-0.03c2.14,0,8.45-2.82,9.69-3.38l0.6-0.27l2.21-9.59l-0.21-0.43c-0.02-0.04-1.89-3.8-2.5-6.85
		c-0.19-0.96-0.53-1.94-0.85-2.88c-0.93-2.73-1.41-4.47-0.17-5.71c2.17-2.16,5.97-3.39,6.54-3.56l12.22-1.93h3.3l0.46,3.66
		c-1.11,2.24-3.88,8.04-3.88,10.03c0,2.2,2.32,6.37,2.79,7.19l0.38,0.67h0.6c0.24,0.15,1.29,0.99,2.14,4.84l1.27,5.73
		c0,1.08,0.06,6.12,0.72,8.11c0.75,2.26,4.89,5.3,5.71,5.89l0.46,0.33l7.79-1.42c1.07-0.24,6.47-1.54,8-3.82
		c0.3-0.44,0.54-0.93,0.8-1.44c0.98-1.94,1.83-3.61,5.11-3.2c3.86,0.48,7.03,0.97,8.38,1.18l2.32,5.22l0.19,0.31
		c0.86,1.03,3.85,4.4,6.24,4.4c2.09,0,6.79-0.67,8.91-1.37c2.5-0.83,3.87-5.24,4.12-6.12l0.14-0.5l-3.08-6.15l-0.49-0.18
		c-2.09-0.79-4.21-2.1-4.36-2.67c0.03-0.67,1.98-2.69,4.02-4.14l6.29-6.95l2.04-6.81l0.06-0.38c0-0.69-0.02-6.81-0.72-8.91
		c-0.66-1.97-3.93-6.43-4.66-7.41c-0.37-0.96-1.15-3.25-1.15-4.57c0-1.64,0.51-5.38,0.62-6.19L315.42,854.4z M312.33,869.33
		l0.17,0.3c1.47,1.95,3.95,5.53,4.37,6.81c0.41,1.24,0.58,5.4,0.58,7.88l-1.82,6.06l-5.58,6.2c-1.6,1.16-5.01,3.89-5.01,6.22
		c0,2.39,3.59,4.16,5.59,4.97l2.14,4.29c-0.57,1.73-1.58,3.62-2.26,3.85c-1.84,0.61-6.24,1.24-8.07,1.24c-0.68,0-2.6-1.56-4.09-3.3
		l-2.83-6.36l-0.71-0.12c-0.04-0.01-4-0.67-9.19-1.31c-5.14-0.65-6.82,2.66-7.81,4.64c-0.22,0.44-0.43,0.85-0.64,1.16
		c-0.62,0.93-3.79,2.13-6.32,2.7l-6.62,1.2c-1.92-1.43-3.99-3.35-4.29-4.24c-0.43-1.28-0.58-5.23-0.58-7.42l-1.34-6.16
		c-1.04-4.68-2.61-6.21-3.66-6.7c-0.98-1.79-2.18-4.4-2.18-5.42c0-1.02,1.96-5.57,3.78-9.2l0.18-0.36l-0.85-6.78h-5.74l-12.61,1.97
		l-0.16,0.03c-0.2,0.06-4.93,1.43-7.76,4.26c-2.5,2.5-1.37,5.8-0.47,8.45c0.31,0.9,0.6,1.76,0.76,2.54
		c0.56,2.78,1.97,5.94,2.52,7.08l-1.7,7.39c-3.27,1.46-7.01,2.88-8,2.88c-0.31,0-0.77,0.02-1.35,0.03
		c-2.48,0.08-9.08,0.3-10.92-1.08c-2.28-1.71-5.83-2.92-7.13-3.33l-5.76-8.97l-6.11-4.07c-0.63-0.44-0.98-3.66-0.76-6.79l3.25-3.25
		l0.05-0.46c0.03-0.24,0.66-5.97,0.66-7.98c0-2.32-2.98-6.01-3.52-6.66l-5.01-6.89l-0.62-6.82l-4.74-12.33l-0.15-0.17
		c-0.04-0.05-3.88-4.53-5.13-6.4c-0.43-0.65-1.1-1.46-1.8-2.32c-1.12-1.36-3.2-3.89-3.2-4.78v-6.03l4.27-4.88l6.11-7.47l1.34-9.39
		l2.4-7.2l7.06-3.53h7.77l3.14-7.84l-2-5.33l1.74-7.53l9.88-5.55l8.61-3.69l7.28,2.43c0.26,0.11,6.38,2.55,8.46,3.26
		c0.19,0.25,1.15,1.88,1.15,9.88v9.43l-3.63,6.05l-8.01,7.34l-0.08,0.43c-0.14,0.68-1.33,6.72-1.33,8.75c0,2,1.18,10.34,1.32,11.29
		l0.08,0.52l6.89,5.51c0.24,0.22,5.97,5.3,7.98,6.64c1.69,1.12,4.14,1.79,5.19,2.04l3.48,4.64l2.1,7.01l8.31,2.26l0.4-0.15
		c0.22-0.08,5.54-2.11,9.62-6.18c1.78-1.78,2.38-2.38,2.34-2.91c0.1-0.13,0.22-0.28,0.37-0.47c1.94-2.43,3.15-3.76,3.61-4.25
		l3.4-1.13h8.86l12.18,1.28l13.9,5.06l5.19,5.77l-1.76,7.62l-4.47,7.66l-1.39,3.44l-0.08,0.3c-0.03,0.19-0.67,4.69-0.67,6.72
		C310.93,865.76,312.19,868.97,312.33,869.33z"/>
	<path d="M279.69,781.13c2.16-1.44,4.7-5.83,4.99-6.32l2.13-5.64v-8.46l-6.53-1.63l-9.92,2.12l-4.87,6.26l-3.36,5.35l-3.92,6.53
		l-0.16,0.32l-0.03,0.3c0,0.01-0.12,1.08-1.7,3.18c-1.92,2.56-4.52,5.81-4.55,5.84l-0.29,0.36v8.3l0.01,0.19
		c0.03,0.2,0.71,4.88,2.79,8.33c1.85,3.09,5.69,5.55,7.99,7.02c0.34,0.22,0.65,0.41,0.91,0.59c2.04,1.36,6.55,3.3,6.74,3.38
		l0.34,0.15l9.51-1.36l5.67-1.87l6.68,2.43l6.74,3.37h9.23l4.83-3.45c0.19-0.11,1.83-1.15,2.07-3.1c0.17-1.41-0.44-2.83-1.81-4.2
		c-2.9-2.9-5.3-5.83-5.72-6.34l-2.38-4.17v-5.84l-4.23-8.45l-5.95-3.72l-5.56,0.79l-3.59,4.31l-1.2,2.32l-6.16,1.54l-1.9-4.27
		C277.2,784.06,278.53,781.9,279.69,781.13z M278.22,778.92c-2.19,1.46-4.15,5.3-4.37,5.73l-0.28,0.56l3.32,7.47l9.51-2.38
		l1.51-3.02l2.84-3.41l3.58-0.51l4.5,2.81l3.61,7.22v5.92l2.79,4.88l0.12,0.17c0.11,0.13,2.7,3.36,5.98,6.64
		c0.52,0.52,1.13,1.3,1.06,1.99c-0.08,0.68-0.81,1.16-0.89,1.22l-4.22,3.02h-7.75l-6.25-3.12l-7.76-2.83l-6.2,2.07l-8.65,1.23
		c-1.08-0.47-4.44-1.97-5.98-3c-0.27-0.18-0.59-0.39-0.95-0.61c-2.1-1.34-5.61-3.59-7.14-6.15c-1.65-2.75-2.32-6.63-2.42-7.25v-7.27
		c0.74-0.93,2.74-3.46,4.3-5.54c1.6-2.14,2.05-3.57,2.18-4.27l3.76-6.27l3.23-5.17l4.23-5.44l8.37-1.79l3.92,0.98v5.9l-1.84,4.9
		C281.36,775.26,279.44,778.11,278.22,778.92z"/>
	<path d="M725.74,758.64l-4.48-2.99l-7.43-0.49l-3.81,3.33l-4.31,2.58l-1.94,1.3l-3.02-1.65l0.76-1.76l3.71-4.55l4.35-4.35
		l-0.05-0.61c-0.2-2.6-0.27-5.81-0.06-6.44c0.51-1.52,0.96-7.47,0.46-9.45c-0.32-1.28-0.68-4.96-0.82-6.53l1.09-4.37l3.19-1.37
		l0.52-7.75l-3.25-5.58l-5.36-6.29l-7.44-6.58l-3.05-3.82c0.23-1.61,0.8-5.86,0.8-7.02c0-0.91,0.67-2.56,1.88-3.17
		c1.69-0.85,8.57-3.86,8.64-3.89l0.54-0.24l3.47-10.39l-6.28-7.73l-5.23-2.85l-7.08-0.94l-4.86,1.62l-6.55,4.31l-2.26,6.02l2.07,7.6
		l1.91,4.49V684c-0.33,0.19-0.88,0.46-1.7,0.73l-1.87,0.62c-0.71,0.14-4.48,0.96-7.14,3.61c-2.73,2.73-4.74,6.71-4.82,6.88
		l-0.11,0.21l-0.65,5.82l-1.54,2.56l-6.35,1.73l-8.43-1.95l-7.45,1.36l-0.23,0.06c-0.94,0.35-5.7,2.22-7.17,4.42
		c-1.42,2.13-2.11,4.87-2.14,4.99l-0.06,0.25l1.34,9.4l3.5,9.2l0.39,0.23c3.24,1.95,6.33,4.36,6.61,5.16l3.27,9.79l1.77,3.16
		l-1.56,0.26l-2.71-1.62l-2.67-2.67l-7.08-3.22l-3.46-4.84h-7.84l-3.26,3.92h-2.66c-0.75-0.89-2.37-2.61-4.13-3.2
		c-0.86-0.29-2.3-1.09-3.69-1.86c-1.57-0.87-3.05-1.69-4.14-2.06c-2-0.67-7.73-1.94-7.97-2l-0.36-0.08l-6.23,2.07l-6.19,4.07
		l-7.41,9.34l-10.02,10.69l-2.7,10.12l-0.05,13.82l6.25,9.02l5,3.57l6.39,1.16v5.05l2.75,6.19l2.89,5.79l7.51,1.67l3.08-6.15
		l1.97-7.75l2-2l9.95-0.62l8.11-2.18l2.23-5.96l1.07-3.76l2.53-0.42c0.96,0.75,3.36,2.91,4.28,6.14c1.26,4.39,1.26,8.24,1.26,10.08
		c0,1.47-0.92,5.45-1.25,6.8l-1.82,6.06l-6.56,4.18l-9.17,1.96l-7.17,5.02l-1.66,7.45l6.11,2.62l5.99-2.66l2.84,0.71l-3.11,4.15
		l1.66,5.81l5.8,2.48l9.14-5.88l2.8,1.2l-1.34,4.02c-1.4,0.39-4.19,1.48-4.83,4.06c-0.69,2.76-0.1,8.33-0.03,8.96l0.07,0.66
		l8.64,5.04l3.84,0.55l0.44,3.06l-3.16,4.43l-0.76,8.37l7.24,4.35l0.26,0.12c0.34,0.11,2.78,0.9,4.93,0.9
		c0.64,0,1.26-0.07,1.79-0.25c0.96-0.32,1.72-0.94,2.46-1.53c1.06-0.86,2.07-1.66,3.65-1.66c3.37,0,9.18-1.28,9.43-1.34l0.87-0.19
		l0.91-5.48l-4.32-4.32l-2.2-3.07l3.43-1.29l8.06-0.67l2.92-2.33l4.67,2.33l6.56,0.82l2.53-8.42l-6.3-5.51l-6.76,0.68l-3.95-1.69
		l-2.36-2.94l-3.08-4.92l-0.55-3.88l1.86-3.71c0.27-0.1,0.75-0.26,1.6-0.43c0.56-0.11,1.26-0.25,1.72-0.63c0.35,0,0.78,0,1.28,0
		c5.82,0,8.15-3.01,8.25-3.14l2.25-5.85l-0.69-6.19l-1.43-5.75l-0.26-0.26c0,0-0.28-0.31-0.41-0.71c-0.11-0.34-0.15-0.77,0.41-1.34
		c1.11-1.11,3.22-1.8,4.47-2.1c0.83,0.96,1.75,2.32,1.75,3.12v8.66l5.29,2.64l5.77-3.3l0.76-6.08l-0.04-0.2
		c-0.16-0.89-0.22-1.93-0.17-2.57c0.14,0.11,0.32,0.27,0.53,0.49c3.27,3.27,1.66,8.39,1.64,8.43l-0.21,0.64l4.05,5.68h10.79
		l4.69-2.35l2.35-7.06l-6.19-8.25l-2.49-6.23l-1.34-8.03l-3.18-3.98l-7.72-0.7l-4.44-0.49l0.26-1.28l2.22-1.37l4.44-1.62h5.48
		l4.98,3.17l7.08-2.18l0.56-5.05l-1.49-4.97l-3.44-3.06l0.62-1.23l2.99-1.12l0.27-0.14c0.7-0.47,3.03-2.12,3.57-3.73
		c0.5-1.5,0.94-5.12,0.94-6.52c0-1.49-1.64-4.6-2.34-5.87L725.74,758.64z M724.79,770.46c-0.16,0.49-1.37,1.57-2.4,2.28l-3.82,1.44
		l-2,3.99l4.4,3.91l1.12,3.73l-0.31,2.78l-4.24,1.31l-4.6-2.93h-6.72l-5.01,1.82l-3.57,2.16l-1.05,5.25l7.34,0.82l6.62,0.6
		l2.04,2.56l1.25,7.49l2.69,6.8l5.63,7.58l-1.56,4.69l-3.15,1.57h-8.8l-2.5-3.5c0.43-1.81,1.19-6.81-2.47-10.47
		c-0.53-0.53-2.16-2.15-3.74-1.33c-1.66,0.87-1.46,3.77-1.15,5.57l-0.55,4.37l-3.38,1.93l-2.55-1.28v-7.02c0-2.39-2.5-5.01-3-5.51
		l-0.48-0.48l-0.67,0.11c-0.18,0.03-4.36,0.75-6.6,2.98c-1.16,1.16-1.54,2.6-1.06,4.05c0.21,0.63,0.54,1.13,0.78,1.43l1.21,4.83
		l0.61,5.47l-1.76,4.7c-0.43,0.45-2.19,1.97-6.02,1.97c-2.77,0-3.43,0-3.68,0.71c-2.24,0.46-3.23,1.02-3.51,1.97
		c-0.04,0.13-0.06,0.26-0.07,0.39l-1.95,3.9l0.75,5.26l3.41,5.46l2.91,3.65l5.19,2.23l6.3-0.63l4.15,3.63l-1.39,4.63l-3.89-0.48
		l-5.78-2.89l-3.61,2.89l-7.43,0.62l-7.2,2.65l4.27,5.98l3.58,3.6l-0.39,2.35c-1.73,0.35-5.63,1.09-7.98,1.09
		c-2.52,0-4.07,1.25-5.31,2.25c-0.61,0.49-1.13,0.91-1.64,1.08c-1.02,0.34-3.43-0.14-4.9-0.61l-5.69-3.41l0.55-5.99l3.36-4.71
		l-0.87-6.08l-5.3-0.76l-7.03-4.1c-0.18-1.92-0.4-5.64,0.03-7.36c0.36-1.43,2.71-2.14,3.5-2.28l0.79-0.13l2.6-7.8l-6.34-2.72
		l-9.14,5.88l-3.34-1.43l-0.95-3.33l4.72-6.3l-7.61-1.9l-5.76,2.56l-3.03-1.3l0.95-4.3l5.89-4.12l9.11-1.95l7.8-4.97l2.12-7.06
		c0.14-0.55,1.35-5.44,1.35-7.51c0-1.97,0-6.06-1.36-10.81c-1.42-4.98-5.59-7.8-5.76-7.92l-0.44-0.29l-5.26,0.88l-1.5,5.27
		l-1.72,4.59l-6.4,1.75l-10.81,0.67l-3.23,3.23l-2.01,8.05l-2.08,4.16l-4.25-0.94l-2.3-4.61l-2.5-5.62v-6.71l-7.98-1.45l-4.14-2.96
		l-5.51-7.96v-12.47l2.48-9.31l9.64-10.29l7.05-8.98l5.55-3.7l5.36-1.79c1.29,0.29,5.75,1.31,7.35,1.84
		c0.86,0.29,2.3,1.09,3.69,1.86c1.57,0.87,3.05,1.69,4.14,2.06c1.13,0.38,2.61,1.92,3.28,2.8l0.4,0.53h5.2l3.26-3.92h5.22l3.07,4.31
		l7.29,3.31l2.44,2.44l3.94,2.41l6.28-1.05l-3.49-6.11l-3.22-9.67c-0.7-2.09-5.4-5.15-7.37-6.36l-3.05-7.92l-1.24-8.72
		c0.19-0.65,0.77-2.5,1.71-3.92c0.72-1.08,3.77-2.6,5.78-3.37l6.79-1.24l8.55,1.97l8.02-2.19l2.38-3.97l0.66-5.92
		c0.43-0.81,2.12-3.89,4.22-5.98c2.27-2.27,5.78-2.89,5.81-2.89l2.16-0.7c2.15-0.71,2.99-1.48,3.13-1.63l0.39-0.39v-6.7l-2.03-4.74
		l-1.82-6.68l1.66-4.42l5.37-3.58l4.11-1.37l5.98,0.8l4.34,2.37l5.03,6.2l-2.63,7.89c-1.68,0.74-6.74,2.97-8.22,3.71
		c-2.17,1.08-3.35,3.66-3.35,5.54c0,0.88-0.53,4.89-0.86,7.21l-0.08,0.57l3.84,4.8l7.49,6.63l5.08,5.93l2.78,4.77l-0.35,5.31
		l-2.9,1.24l-1.52,6.08l0.02,0.22c0.02,0.22,0.45,5.35,0.9,7.18c0.37,1.47-0.04,6.86-0.41,7.97c-0.43,1.28-0.23,5.05-0.11,6.88
		l-3.58,3.59l-3.92,4.79l-1.97,4.47l6.55,3.58l3.23-2.15l4.35-2.61l3.26-2.82l5.63,0.37l3.35,2.24c0.99,1.82,1.84,3.79,1.86,4.3
		C725.59,766.05,725.15,769.37,724.79,770.46z"/>
	<path d="M536.08,818.95l-6.99-2.82h-8.77l-2.49,3.48l-4.11,3.7l-4.41,2.21l-3.63-2.18l-6.44-5.59l-0.28-0.18
		c-1.66-0.83-5.66-2.75-7.12-2.75c-1.03,0-10.14,0.41-11.74,0.94c-1.49,0.5-6.75,4.63-7.37,6.5c-0.5,1.49,0.6,5.51,1.3,7.78
		l0.27,0.87l7.53,0.5h6.29l8.64,3.29l1.59,1.59v2.53l-1.74,2.61v5.43l5.34,3.88l0.19,0.11c0.95,0.48,2.51,1.47,2.97,2.16
		c0.31,0.47,0.76,1.02,1.29,1.65c0.88,1.07,2.22,2.69,2.45,3.59c0.49,1.95,3.23,5.15,3.77,5.78l4.24,3.78l0.26,0.09
		c0.03,0.01,2.67,0.89,5.71,1.76c1.43,0.41,2.85,0.55,4.13,0.55c1.83,0,3.4-0.3,4.39-0.54c2.11-0.53,6-3.86,6.6-5.66
		c0.44-1.32,1.29-4.28,1.33-4.41l0.08-0.3l-0.06-0.3c-0.33-1.81-0.85-4.99-0.85-5.86c0-1.06-1.21-2.98-3.59-5.74l2.17-1.2h5.74
		l0.35-0.79c0.44-0.98,1.86-4.29,1.86-5.76v-7.2l-3.72-10.22L536.08,818.95z M542.31,839.66c0,0.52-0.62,2.29-1.29,3.9h-4.69
		l-5.68,3.16l1.13,1.24c1.8,1.98,3.84,4.59,4.01,5.2c0,1.23,0.63,4.87,0.84,6.02c-0.23,0.79-0.86,2.98-1.2,4
		c-0.29,0.81-3.34,3.58-4.72,3.92c-1.15,0.29-4.16,0.87-7.15,0.01c-2.44-0.7-4.62-1.4-5.35-1.64l-3.65-3.24
		c-1.18-1.35-2.9-3.64-3.14-4.61c-0.37-1.49-1.75-3.16-2.97-4.64c-0.46-0.56-0.89-1.08-1.13-1.43c-0.96-1.44-3.31-2.71-3.89-3.01
		l-4.16-3.02v-3.27l1.74-2.61v-4.43l-2.77-2.76l-9.64-3.67l-6.68,0l-5.61-0.37c-0.64-2.24-1.17-4.69-1.07-5.26
		c0.44-0.98,4.72-4.51,5.7-4.84c1.03-0.33,9.19-0.8,10.89-0.8c0.66,0.04,3.5,1.26,5.8,2.4l6.4,5.55l5.17,3.12l5.88-2.94l4.65-4.12
		l1.97-2.71h6.9l6.18,2.47l4.3,2.74l3.25,8.93V839.66z"/>
	<path d="M451.84,834.31l-5.33-3.11l-3.56-3.56l-3.42-1.28l-1.88-2.26l-3.2-5.49l-6.91-3.22l-5.83-1.81l-5.31-0.89
		c-0.59-0.17-3.29-0.85-6.72,0.01c-0.71,0.18-1.41,0.34-2.07,0.49c-2.84,0.65-5.08,1.17-6.38,2.47c-0.3,0.3-0.62,0.57-0.94,0.84
		c-1.12,0.95-2.52,2.14-3.3,4.47c-1.2,3.58-1.29,6.17-0.28,7.68c1,1.5,4.16,2.69,5.32,3.09c0.82,0.52,1.76,1.35,1.92,1.82
		c0.11,0.32,0.18,0.67,0.26,1.03c0.26,1.17,0.58,2.63,1.8,3.85c1.51,1.51,4.58,2.42,4.93,2.51l0.36,0.1l5.15-1.4l0.24-0.09
		c0.79-0.39,3.35-1.82,3.35-3.8c0-0.17-0.01-0.35-0.01-0.55c-0.05-1.42,0.02-2.34,1.45-3.05l2.33-1.17h1.31
		c-0.13,0.93-0.37,1.74-0.62,1.92c-0.19,0.13-0.37,0.24-0.52,0.34c-1.09,0.68-1.73,1.16-2.2,3.06c-0.07,0.29-0.16,0.61-0.25,0.95
		c-0.51,1.87-1.08,3.99-0.59,5.45l0.44,1.31l0.12,0.26c0.28,0.47,2.85,4.68,5.24,6.12c1.36,0.82,1.79,1.01,2.45,1.29
		c0.42,0.18,0.96,0.42,2,0.93c2.3,1.15,4.73,4.37,4.76,4.4l0.28,0.38l6.08,1.52l4.25-1.59l0.23-0.33c0.73-1.02,2.43-3.56,2.43-5.13
		v-0.29l4.04-1.1l3.9-2.79l-1.03-7.2L451.84,834.31z M452.08,848.02l-5.54,1.51v2.32c-0.02,0.45-0.8,1.94-1.7,3.26l-2.71,1.02
		l-4.38-1.1c-0.79-0.99-3.05-3.62-5.39-4.8c-1.1-0.55-1.68-0.8-2.12-1c-0.6-0.26-0.92-0.4-2.14-1.13c-1.5-0.9-3.51-3.86-4.26-5.08
		l-0.39-1.17c-0.23-0.7,0.31-2.71,0.64-3.92c0.09-0.35,0.19-0.69,0.26-1c0.24-0.95,0.27-0.97,1.04-1.45
		c0.17-0.11,0.37-0.23,0.58-0.38c1.76-1.17,1.9-4.47,1.9-5.46v-1.33h-4.69l-2.89,1.45c-3.07,1.53-2.97,4.13-2.92,5.53
		c0.01,0.16,0.01,0.31,0.02,0.38c-0.1,0.31-0.96,1-1.78,1.43l-4.28,1.17c-1.09-0.35-2.74-1.04-3.44-1.73
		c-0.67-0.67-0.87-1.58-1.09-2.54c-0.1-0.45-0.2-0.89-0.33-1.29c-0.56-1.69-2.75-3.07-3.19-3.33l-0.26-0.12
		c-1.65-0.55-3.74-1.54-4.1-2.09c-0.39-0.58-0.44-2.3,0.59-5.37c0.54-1.62,1.45-2.39,2.5-3.28c0.38-0.32,0.76-0.64,1.1-0.99
		c0.77-0.76,2.87-1.25,5.1-1.76c0.68-0.16,1.39-0.32,2.12-0.5c3.03-0.75,5.34-0.03,5.35-0.03l5.34,0.9l5.49,1.69l6.07,2.83
		l2.84,4.87l2.53,3.06l3.54,1.33l3.28,3.28l5.24,3.11l3.57,5.16l0.71,4.98L452.08,848.02z"/>
</g>
</svg>
