<?xml version="1.0" encoding="utf-8"?>
<!-- Generator: Adobe Illustrator 25.2.3, SVG Export Plug-In . SVG Version: 6.00 Build 0)  -->
<svg version="1.1" id="Layer_1" xmlns="http://www.w3.org/2000/svg" xmlns:xlink="http://www.w3.org/1999/xlink" x="0px" y="0px"
	 viewBox="0 0 1000 1000" style="enable-background:new 0 0 1000 1000;" xml:space="preserve">
<style type="text/css">
	.st0{fill:#FFFFFF;}
</style>
<g>
	<path d="M861.6,511.4l-5.2-5.2l-1.3-6.3l-1.6-4.7l-6.7,0l-10.9,0.6l-7.5-3.8l-5-4.4l-4.5-9l-4.1-7.5l-6.8-4.1l-8.6-4l-5.8-2.6
		l-5.1-2.8l0.8-1.7l2.2-2.9l-0.8-7.4l-6.4,1.6l-6.5,2.6h-8.2l-4.8-1.2l-0.2-0.3l-2.9-3.5l-4.7-2.7l-3.5-2.9V437l4.1-2.3l6.1-3.4
		l6.1-8.2l2.1-7.7l-3.6-8.6l-6.6-2.9l-5.5,1.4l-4.2,0.6l-7.6-4.4l-5.9-3.3l-8.2-3.4h-8.1l-6,1.3h-6.7l-5.7,3.6l-6.1,10.1l-4.7,9.3
		l-4-3.5l-7.3,2.2l-2.5,2.5h-3.9l-3.6,3.6l-4.5,6.4l-6.7,1.2h-8.9l-5.8-2.6l-8.1-2.7l-4.6,0.8l-0.2,0.4c0,0-0.3,0.4-0.7,0.4
		c-0.4,0-0.8-0.3-1.1-0.6c-1.9-1.9-5.2-5.8-5.2-5.8l-0.1-0.1l-7-4.2l-12.2,2.7l-8.6,4l-9,1.9h-1.9h-5.5c-1-1-4.1-4-6.4-5.7
		c-2.2-1.6-6.3-5.2-7.5-6.2V410l-2.2-3.7l-4.4-3.2l-0.6-2.8l0-5.9l-0.7-6.8l-4.1-5.5l-4.1-4.2l-4.6-2.3l-3.5,2.6v5.1l0.7,5.4
		l1.8,4.9l-2.1,2.1l-4.2,2.4h-4l-3.4-2l-4.3,0.7l-9.8,1.3l-4.2,1.4l-5.2,2.2v0.5c-0.1,0.2-0.6,0.8-2.2,2c-1.3,1-2.4,1.2-3.5,1.5
		c-1,0.2-2,0.4-3,1.1c-1.9,1.3-5.8,3.2-5.8,3.2l-0.4,0.2l-1.2,4.6l-2.8-0.9l-4.3-3.1l-1.5-2.8l0,0l-0.1-0.2L483,406l0,0l-0.5-0.9
		l-6.1-8.8l-6.3-2.1l-4.5-1.3l-6.7-3.3h-3.5l-3.4,0.7h-4.7l-3.5,1.4l-3.7,2.4l-3.1-1l-2-3.4l-4.9-0.8l-4.5,5.3v2.5l-4.1-0.5
		l-5.7-0.6l-4.9-2.4l-1.9-2.6l-6.3-4.2h-4.4l0.4-2.1l4.8-1.2l0.2-0.1c0,0,3.3-2.6,5.2-3.9c2.1-1.4,4.1-5.2,4.3-5.6l0.1-0.2v-12
		l-1.3-10.6l-2.1-6.3l-5.4-5.4l-8.4-6.5l-4-9.9l-4.9-2.8l-8.2-1.9l-1.1-5.1l0.7-5.6l-7.1-5.6l-6.8-4.5l-1.1-0.8l-5.5-3.5l-10.8,1.4
		l-13.2,3.3l-3.3,1.9h-5.2l-4.9-5.5l-4.1-7.6l-6-0.7l-3.5,1.2l-3.1-3.8H297l-2.7,2.7l-1.9,0.4l-0.5-4.1l-0.7-8.2l-5.8-5.8l-7-0.7
		h-4.6l-2.2-4.5v-5.2l-4.2-0.8l-8.5,0.7l-3.5,5.7l-1.4,5.5l-0.7,7.9l-0.4,1.8h-1.7l-5.6-1.4l-3.9,3.1l-1.9,6.3l-5.2,1.2h-4.2
		l-6.2,4.8l-3.7,3h-3.7l-3.5-4.9l-5.6,3.2l-5.5,8.3l-0.7,6.3l0.6,5.5l-16.5,13.9l-1.6,0.4v0l-1.7,0.4l-0.3,0.1l0,0l-4.9,1.1
		l-7.8,5.7v5.3l2.6,6.4l-1.9,5.1v4.3l2.6,5.9v3.8l-3.5,1.8l-5,5v6.6l1.8,3.6l-3,4.8l-2.6,5.9l-3.4,4.7l-0.7,7.7l1.3,4.6v5.8
		l-4.4,1.9l-2.8,8.5v3.1c-0.5,0.7-2,2.7-3.1,4.4c-1.3,2-4.5,7-4.6,7.3l-2.9,5.1l4.3,7.9l6.6,5.3l3.5,4.2h6.3l4.2,0.6l2.1,2.1v5.3
		l3.7,3l3.5,2.3v4.4L170,487l-3.5,3.5v5.3l2.8,4.8l2.8,3.6l4,2l2.3,2.3l1.2,9.3l-2.5,8.7l-7.8,7.1l-3.3,6l-3.8,5l-6.4,3.9l-4.5,3
		l1.5,8.4l5.2,2l0.6,3.9c0,0.2,0,0.8-0.2,1.4l0,0c-0.2,0.6-0.5,1.3-1.1,1.5c-1.9,0.6-5.3,2.9-6,3.3l-5.7,1.9l-4.8,0.7l-4.7,3.9
		l2.3,5.3l5.4,8.1l5.2,6.6l8,6l5.6,6.9l0.6,6.9l2.6,9.2v7.4l4.1,5.5l3.3,6l5.9,4.6l4.5,7.1l5.5,5.5l3.7,3.1l2.4,8L194,679l0.7,5.8
		l4,4l1.9,7.6l1.5,3.8l9.3,4l4.5,6.5l5.4,3.4l3.2,1.3l4.9,6.1v4.1l3,2.3l4.8,2.4v5.7l-1.2,3.1l-3.2,7l-3.6,3.6l2.2,7.4l3.9,3.3
		l1.3,5.2l5.2,4.4l5.8-0.7l13.1-2.6l5.7-1.9l10.5,2.6l8.4-2.8l5.4-5.4l4.1-6.7l2-5.4l1.3-8.4l1-1v0l1.1-1.1l4,0.5l0.6,4.5l3.8,8.4
		l5.1-2.5l3.2-4.5c0.7-0.2,3-0.6,5.3,1.2c3.4,2.7,7.4,4,7.5,4.1l0.2,0.1h5.2l5.7-6.5l1.4-8.5l-2.8-5.5l-5.7-7.6l1-4h3.8l1.4,3.6
		l6.6-2.5l2.7-9.5l4.3-5.5l3.7-0.9v0.8l-3.7,2.5l-2.8,5.7v6.8c0,1.9,1.9,7,2.5,8.5c-0.4,0.9-1.3,3.3-1.8,4.9l-0.7,2l-0.7,6.4
		l3.9,7.8l-1.2,4.7l-3.4,4.1l0.7,9.2l4.8,6.8c0.3,0.4,2.9,3.5,5.1,4.3c1.9,0.6,8.9,2.4,9.8,2.6l8.3,3.8l7.8,7.1l0.2,0.1
		c0,0,0.3,0.2,0.7,0.4l0,0l0.5,0.3c0,0,0,0,0,0l1.6,0.9l0,0c3.1,1.7,5.2,2.5,6.3,2.5c2,0,5.5-2.8,6.8-3.9c1.5,0.3,6.3,1.3,7.9,1.8
		c2.1,0.7,9-0.4,10.3-0.6l0.3,0l4.5-3.8v-14.5l4-4h16.3l3.2,2.1l-0.6,7.1l5.8,5.8l5.1,1.5l8.6-2.9l2.8-7.8v-4.9l3.8-2.6l0.7-3.6
		l0.7-2l3.4,4.9l1.8,2.9l-0.2,0.1l3.1,2.4l3,4.8l-0.5,3.8l-2,1.5h-9.1l-5.1,2.9l-3.7,7.4l5.9,6.7l7,1.4l7.8-0.6l4.4,1.9l6.6,1.5
		l3.8-3.2l1.9,0.9l3.3,3.9l-3.6,5.4l-1.4,6.4l2.3,4.7l7.2,1.4l12-2.7l5.7-2.1l4.2-8.3l3.2-8.3l5.3-5.3l1.5-5.9l-3.2-4.7h-7.6
		l-5.3,6.7l-3.4,0.8c0.4-1.1,0.8-2.6,0.4-4c-0.6-2.4-1.8-10.4-1.9-11.6l1.3-9.5l4.6-9.8l0.7-6.2l-0.6-4.8l-0.1-1.1l0,0l0-0.2
		l-0.2,0.1l-8.8-4l-3-1.5l1.1-1.9h9.1c0.9,0.4,5,2,8.1,2c4,0,9.4-3.4,10.4-4.1c2.1-1.4,6.9-8,7.5-8.8l0.2-0.3l-0.7-7.9l-4.8-6.1
		l-6.8-5l1.6-3.6l4.4-3.6l-1.9-3.8l-0.4-0.8l-4.7-5.5l-5.4-4.8l0.6-1.3l9.5,1.3l5.9-3.3l2.9,0.6l0.2,0c0,0,3.8,0,6.3,0.6
		c2.6,0.6,6.8-1.6,8.2-2.5l2.2,0.9v4.7l6.7,1.5l3.5,0l1.5,3.6l-2.1,5l4.6,3.1l3.3,1.1l-1.2,5.4l2.6,4.3l12-4.2l6.1-2.7l4.4-4.4v-3.8
		l-4.5-1.5l-2-1.2l3.3-2.7l-0.8-4.8l-6.1-6.1l-3.9-4.6l-4.1-2.8l-2.2-1.1v-4.5l1.3-3.9v-5.6l-3.3-7.3l-3.2-9v-6.6l6-4.8l1.4-0.3
		l-0.7,2.2c-0.1,0.4-1.4,3.7-0.7,5.9c0.6,1.9,1.9,7.7,1.9,7.8l3.3,9.3c0.3,0.8,1.7,4.6,4.2,4.6c0.7,0,1.5-0.1,2.3-0.3
		c1.6-0.3,3.3-0.6,4.3,0.1c1.6,1,3.6,2.5,4.3,3.1c0.3,0.9,1.4,3.1,4.4,4.2c3.1,1.2,6.3,3.8,6.3,3.8l0.2,0.2l4,0.8l3.3-3.3V663l2-3.5
		c0.6,0.4,1.3,1,1.7,1.6c0,0.3,0.1,0.7,0.2,0.9l0.7,1.7c1.5,3.6,1.4,5.9,1.3,6.5l-3.2,5.1l-1.6,6l3.4,4.2l7.1-2.1h2.2l5.8,3.2
		l5.1,0.6l3.9,3.2l6.3,1.4l7.2-0.7l4.2-5.5l0.9-0.9v2.5l3.8,4.6h8.3c0.7,0.1,4.9,0.6,6.9-0.1c2.5-0.8,2.7-5.9,2.7-6.9l-1.2-6.7
		l3.1-1.9l0.8-7l-6.3-4.2l-7.7-7.1l-2.9-4.6l0.6-1l0.8-1.3l3.9-0.6l4.4,1.3l6.5,0.7l5.9-5.9l3.6,0.5l2,4h5.8l2.3-4.7v-10.3l-3.2-7.8
		l0.5-3.2l5.3-3.5h3.6l7.9-1.9l4.3,0.7l3.4-4.8l4-1.2l11.2,2l11.1-3.5l4.8-8.9l2-10l1.2-4l2.3-0.6l2.2-0.5l3.9,0.6l5.9-0.7l2.9-5.1
		l1.9-3.7l2.2-1.6h4.2l4.4,0.7l6.1-6.1l2.4-0.6l3.5-2c1-0.4,2.5-1.5,2.5-3.5v-1.8l2.4-6l2.8-1.4v-4.3l3.3-6.6v-4l1-2.5h1.5l2.3,2.3
		l5.1,3l9.9-2.1l4.8-6.9l2.1-6.2l0.7-5.1l3.7-4.4l3.7-5.9L861.6,511.4z M588.2,428.9l0.5-1.3h0.6l9.4-2l8.6-4l11.3-2.5l6.1,3.6
		c0.6,0.7,3.4,4,5.2,5.8c0.9,0.9,1.8,1.2,2.7,1.2c0.9-0.1,1.5-0.6,1.8-0.9l3.3-0.6l7.5,2.5l6.1,2.7h9.4l7.8-1.4l4.8-6.8l2.9-2.9h3.9
		l2.7-2.7l5.8-1.7l5.1,4.4l5.8-11.6l5.8-9.6l4.8-3h6.3l6-1.3h7.6l7.6,3.2l5.8,3.2l8.2,4.8l4.9-0.7l5-1.2l5.2,2.3l3,7.2l-1.8,6.7
		l-5.7,7.5l-5.7,3.2l-5.1,2.9v4.3l4.3,3.6l4.6,2.6l2.5,3l-0.9,3.2l-3.6,3.2c-0.2,0.1-0.7,0.4-1.3,0.8c-0.9,0.6-1.9,1.4-2.8,2.2
		c-1.1,1.1-5,3.4-6.6,4.2l-4.1,1.2v6.1l3.9,3.9l0,6.9l-0.5,5.9l-4,2.6l-4.7,2.3l-5.5,0.5l-5.4,3.2l-2.8,6.6l3.1,5.7l0.4,3.6
		l-2.7,1.6c-0.6,0.1-2.9,0.4-4.1,0.4c-1.7,0-4.9,2.2-5.5,2.6l-0.3,0.2l-0.1,0.4c-0.1,0.9-0.6,3.6-0.9,4.7c0,0.1-0.1,0.2-0.1,0.3
		c0,0,0,0.1,0,0.1c0,0.1-0.1,0.2-0.1,0.3c0,0.1,0,0.1-0.1,0.2c0,0.1-0.1,0.2-0.1,0.3c0,0.1,0,0.1-0.1,0.2c-0.1,0.1-0.1,0.3-0.2,0.4
		c0,0.1,0,0.1-0.1,0.2c-0.1,0.2-0.2,0.4-0.2,0.6c0,0,0,0.1-0.1,0.1c-0.1,0.2-0.1,0.3-0.2,0.5c0,0.1-0.1,0.1-0.1,0.2
		c-0.1,0.2-0.1,0.3-0.2,0.5c0,0.1,0,0.1-0.1,0.2c-0.1,0.2-0.2,0.4-0.3,0.6c0,0,0,0,0,0c-0.5,1.2-1,2.4-1.3,3l-3.2-3.9l-4.9-1.1
		L697,525l-3.5,3.5c-0.8,0.1-2.8,0.4-3.9,0.4c-1.7,0-3.7,1-3.9,1.1l-4.1,3.6l-0.1,0.1c-0.2,0.2-4,4.5-5,6c-0.9,1.4-1.7,5-2,6.3
		l-4.4,2.6l-8,1.4c-4-0.5-8.5-1.3-9.3-1.8c-0.3-0.2-0.6-0.4-1-0.6c-1.7-0.8-4.3-1.7-5-2c-2-1.3-7-4.6-8.1-5.7
		c-1.5-1.5-6.4-4.5-6.6-4.6l-6.3-2.1l-7.3,0.5l-3.2,1.7c-0.1-0.3-0.1-0.5-0.2-0.7c0-0.1,0-0.1,0-0.2c0-0.2-0.1-0.4-0.1-0.5
		c0-0.1,0-0.1,0-0.2c0-0.2-0.1-0.3-0.1-0.5c-0.4-1.2-0.8-3.1-0.9-4.5c0-0.2,0-0.4,0-0.6c0-1.3,0-5.3,0.5-7.1
		c0.1-0.2,0.1-0.5,0.1-0.8c0.1-0.5,0.1-1.1,0.1-1.6c0-1.3-0.2-2.5-0.2-2.9c0-0.5-0.1-3.4-1.6-6.7c-1.1-2.6-1.4-3.1-2-3.8
		c-0.2-0.2-0.3-0.4-0.6-0.8c-0.6-0.9-0.8-1.6-1-2.4c-0.1-0.4-0.2-0.8-0.4-1.3c-0.5-1.6-3.2-4.3-3.7-4.8l-0.2-0.2l-4.4-0.5l-0.1,0
		c0,0-0.1,0-0.2,0c-0.9,0.1-4.4,0.5-5.6,0.5c-1.3,0-3.2-0.5-5.5-1.4c-1.9-0.8-3.9-2.9-4.4-3.5c-0.3-0.9-1.4-4.6-1.9-7.5
		c-0.4-2.9-0.8-4.8-1-5.3c0.2-1.3,0.6-4.4,0.9-5.5c0.1-0.4,0.4-1,0.6-1.6c0.7-1.6,1.4-3.4,1.4-4.6v-3.3l-0.2-0.3c0,0-2-2.4-2.9-3.9
		c-0.6-0.8-0.5-2.7-0.4-3.6l0.9-3.7l2.7-3.6l3.6-2l1.2-3.1l-1.6-4.7l-1.4-5.1L588.2,428.9z M483.1,410.3l1.1,1.9l4.8,3.4l5.2,1.8
		l1.5-5.9c1.1-0.5,4-2,5.6-3.1c0.7-0.5,1.5-0.6,2.3-0.8c1.2-0.3,2.6-0.6,4.3-1.8c1.7-1.3,2.5-2.1,2.8-2.7l4.1-1.8l3.8-1.3l9.8-1.3
		l3.6-0.6l3.2,1.9h5.1l4.8-2.8l3.3-3.2l-2.2-5.7l-0.6-5.1v-4l1.7-1.3l3.2,1.6l3.8,3.8l3.7,5l0.6,6.2v5.9l0.8,3.9l4.7,3.4l1.7,2.9
		v4.1l0.3,0.3c0.2,0.2,5.3,4.6,7.9,6.6c2.5,1.9,6.4,5.8,6.5,5.8l0.3,0.3h5.6l-1.8,5.4l1.6,5.8l1.4,4.1l-0.7,1.8l-3.3,1.9l-3.2,4.3
		l-1,4.2c-0.1,0.3-0.5,3.4,0.6,5.1c0.8,1.2,2.2,3,2.8,3.7v2.6c0,0.8-0.7,2.6-1.2,3.9c-0.3,0.7-0.5,1.3-0.7,1.7c-0.5,1.5-1,5.6-1,6.1
		l0,0.2l0,0.2c0,0,0.5,2,1,5.3c0.5,3.5,1.9,7.9,2,8l0.1,0.2l0.1,0.1c0.1,0.1,2.7,3.2,5.3,4.2c2.6,1,4.7,1.5,6.3,1.5
		c1.4,0,5.2-0.4,5.9-0.5l3.5,0.4c1.1,1.2,2.7,3,3,3.8c0.1,0.4,0.2,0.8,0.3,1.1c0.2,0.9,0.5,1.8,1.3,3c0.3,0.4,0.5,0.6,0.6,0.9
		c0.4,0.6,0.7,0.9,1.7,3.4c1.4,3.2,1.4,6,1.4,6l0,0.2c0,0.1,0,0.2,0,0.3c0,0.2,0.1,0.4,0.1,0.7c0,0.1,0,0.3,0,0.4c0,0,0,0,0,0
		c0.1,0.8,0.1,1.7,0,2.5c0,0,0,0,0,0.1c0,0.2-0.1,0.4-0.1,0.5c-0.5,2.1-0.5,6.1-0.5,7.6c0,1.6,0.5,4.2,1,5.7c0,0,0,0.1,0,0.1
		c0,0,0,0,0,0c0,0,0,0.1,0,0.1c0,0,0,0.1,0,0.1c0,0.1,0,0.1,0,0.2c0,0,0,0.1,0,0.1c0,0.1,0,0.1,0.1,0.2c0,0,0,0.1,0,0.1
		c0,0.1,0,0.1,0.1,0.2c0,0.1,0,0.1,0,0.2c0,0.1,0,0.1,0.1,0.2c0.1,0.2,0.1,0.5,0.2,0.8l-0.4,0.2l-5.9,0.5c-0.7-0.4-2.7-1.6-4-2.7
		c-0.2-0.2-0.3-0.3-0.5-0.4c-1.5-1.5-5.4-4-5.6-4.1l-8.1-2.2l-4.8,3.7l-3.7,2.8l-1,0.1l0,0l0,0l-4.9,0.4L566,532l-5.9-3.9l-4.7-2.6
		H547l-3.7,3.7l-5.1,3.2h-8.4l-5.2-1.9l-4.4-1.8l0,0l-1-0.4l-0.9-5.6l-5.1-5.6l-7.1-4.6l-5.8-2.9l-5.2-5.7l-2.2-4.5l0.8-3.2l2-1.2
		l5.9-2.5l6.9-3.7l1.1-9.3l-6.8-8.9l-0.2-0.1c-1.1-0.6-2.1-1.2-3.2-1.8c-3.1-1.8-5.9-3.7-6.1-4.5c0-0.2-0.1-0.3-0.2-0.5
		c0-0.1-0.1-0.2-0.1-0.2c0-0.1-0.1-0.1-0.1-0.2c-0.1-0.1-0.1-0.2-0.2-0.3l0-0.1l-0.6-0.5l-0.2-0.1c0,0,0,0-0.1,0l-0.8-0.7l0,0.1
		c-0.5-0.3-1-0.6-1.5-0.8c-0.8-0.4-1.7-0.9-2.1-1.2c-0.1-0.1-0.1-0.1-0.1-0.2c-0.5-0.8-1.1-1.2-1.7-1.6c-0.7-0.5-1.4-1-2.2-2.2
		c-0.4-0.7-0.8-1.3-1.3-1.9c-1.1-1.6-2-2.8-2-5c0-2,0.2-3.1,0.3-4c0.1-0.6,0.2-1.2,0.2-1.9c0-0.6,0.7-1.6,1.2-2.4
		c0.5-0.7,1-1.5,1.2-2.2c0.5-1.5,1-6.1,1-6.6l0-0.2l-1.5-5.1l-1.9-4.3l0.9-6l1.4-5.3L483.1,410.3z M574.4,547.8v4.4l0.6,0.3
		c0,0,0,0,0,0c0,0,0,0,0.1,0c0,0,0.1,0.1,0.1,0.1c0,0,0.1,0.1,0.1,0.1c0.1,0.1,0.2,0.1,0.3,0.2c0,0,0.1,0.1,0.1,0.1
		c0.1,0.1,0.2,0.2,0.3,0.3c0,0,0.1,0.1,0.1,0.1c0.1,0.1,0.2,0.3,0.3,0.4c0,0,0.1,0.1,0.1,0.1c0.1,0.2,0.2,0.4,0.3,0.6
		c0,0,0.1,0.1,0.1,0.1c0.1,0.2,0.2,0.4,0.2,0.7c0,0.1,0,0.1,0.1,0.2c0.1,0.3,0.1,0.6,0.1,1c0,3.5,0.5,4.7,0.6,4.9l0.1,0.1
		c0.7,1.1,1.8,3.1,1.8,3.9c0,1.8,1.1,3,1.3,3.2l2,2l-0.8,2.8l-1.1,3.2l0.5,4.9l0.1,0.2c1.9,2.8,3.4,5.8,3.3,6.5
		c-0.3,0.9-1,1.8-1.5,2.3l-3.4,0.4c-1.3-0.4-5.4-1.8-7.2-1.9c-0.1,0-0.2,0-0.3,0c-1.5,0-4.5,0.5-4.6,0.5l-5.5,2l-5.5,0.9l-5.9-2.5
		l-5.9,1.2l-0.5,4.2c-0.9,0.6-3.1,2.4-4.3,4.5c-1.5,2.5-3,6.4-3,6.6c0,0.1-1,3.1-1,5.2c0,2.1,1.9,5.9,2.1,6.3l4,4.5l1.8,4.6
		c0,1.9-0.1,5-0.4,5.9c-0.2,0.5-1.7,1.1-3.2,1.3l-5.5,1l-3.6,1l-0.2,0.1c-0.1,0.1-2.6,2.1-4.1,4.1c-1.2,1.6-1.8,2.8-2,3.4l-2.9,2.1
		h-5.6c-0.7,0-1-1.8-1-2.4V643l-3.8-2.2l-2.6-3v-7l-0.6-3.8l-6-1.2l-3.8,2.7l-5.7,3.3l-4.2,0.6l0,0l-0.1-0.2l-3.6-3.1l-4.2-2.1
		l-12.6-4.8l-6.1-6.6l-3.5-6.9l-5.7-5.7l-2.8-0.8l0.7-5.3l3.1-3.9l6.1-1.4l3.8-1.3l-1.3-5.1l-3.9-4.4l-1.3-4.8l2.1-3.4l5.9-4
		l2.7-5.4v-3.9l-2.4-6.3l0.8-4.2l2.9-2.1l4.4-0.4l1.6,0.8l2.8,2.4l4.8,4.3l3,5.5l5.4,2.7l7.8,0.6l2.4-5.9l-1.6-5.2l-0.4-3.7l2.6-1.5
		l4.2,0.5l6-0.5l3.4-5.6V535l0.9-3.5l1.4-1.3l5.2,2.2l5.6,2h9.3l5.7-3.6l3.3-3.3h7.2l4.1,2.3l5.9,3.9l9.3,3.1l5.1-0.4l0,1.2
		l-2.4,6.6L574.4,547.8z M482.6,664.3L482.6,664.3l-0.8,1.3l-0.4,0.6l-8.9,1.9l-4.1,1.8l-3.6-2.2c-0.1-0.1-3-1.5-4.6-2
		c-1.6-0.5-6.7-0.5-7.7-0.5l-9.1,2l-9.5,4.5l-4.5,1l-2.8,1.7l-0.1,0.1c0,0-1.9,2.4-4.7,4.2c-0.8,0.5-1.5,1-2.2,1.3
		c-1.8,1-3.2,1.9-3.6,3.7c-0.5,2.1,0.4,7.7,0.5,8.3l0,0.3l4.5,5.5l1.2,3.1l-4.9,4.5l-3.5,3.5c0,0,0,0,0,0c-0.2-0.1-0.5-0.2-0.8-0.3
		c0,0,0,0,0,0c-0.3-0.1-0.5-0.2-0.8-0.3c0,0,0,0,0,0c-0.3-0.1-0.6-0.2-0.9-0.4c0,0,0,0,0,0c-0.3-0.1-0.5-0.2-0.8-0.4
		c0,0-0.1,0-0.1,0c-0.2-0.1-0.5-0.2-0.7-0.4c0,0-0.1,0-0.1-0.1c-0.2-0.1-0.4-0.2-0.6-0.3c0,0-0.1,0-0.1-0.1
		c-0.2-0.1-0.4-0.2-0.5-0.3c0,0,0,0,0,0c-0.2-0.1-0.3-0.2-0.4-0.3c-1.3-1.3-4.6-3.2-5.7-3.9l-0.4-1.6c-0.3-1.2,0.1-3.1,0.4-4
		l2.3-1.4l1.8-2.4v-9.2l-0.4-0.3c-0.1-0.1-2.5-2-5-3.5c-2.5-1.5-5-2.5-5.1-2.5l-6.9-1.6l-6.7,3.6l-4.3,1.9l-3.5,0.4l-0.6-1.6v-1.3
		c0-1.6-0.9-4-1.1-4.3l-0.1-0.2l-3.3-3.3l-0.4,0c-0.1,0-0.2,0-0.3,0c-1.5-0.2-4.8-0.6-5.9-0.9c-1.5-0.5-6.1-1-6.6-1l-0.3,0l-4.2,2.1
		l-4.4,2l-3.4,1.5l-3.8,2.8c-0.9-0.2-3.1-0.6-5.3-1.4c-0.7-0.2-1.1-0.5-1.3-0.6l0.1-0.1l-1.1-5.3v-10l-2.2-4.5l-6.5-2.7l-9.1,1
		l-0.1,0c0,0,0,0-0.1,0c-0.7,0.2-6.4,1.4-8.5,1.4c-0.3,0-0.6,0-0.8,0c-0.1,0-0.1,0-0.2,0c-0.2,0-0.3,0-0.5,0c-0.1,0-0.1,0-0.2,0
		c-0.2,0-0.3,0-0.4,0c0,0-0.1,0-0.1,0c-0.1,0-0.3,0-0.4-0.1l-2.5-5.5l-4.1-7.6l-6.1-2l-5.6-5.6l-1.2-3.6l-0.6-10.6h5.5l2.2-5.9
		l2.4-5.9h15.7l7.2-1.4l3.5-5.6l2.7-7.3l3.7-5l8.4-5.1l6.5-7.1l7.3-1.3l3.5-5.7l3-5.4h8.6l15-2l2.7,0.4l7.6-4.6l5.4-2.3l4.8,2.2
		l6.1,7.5c0.1,1,0.5,4,1,5.3c0.1,0.3,0.3,0.9,0.6,1.6c0.7,1.9,2.3,6.5,2.3,7.4c0,1.1,0.9,2.9,2.3,5.6c0.6,1.1,1.1,2.1,1.2,2.6
		c0.5,1.6,4.8,6.3,6.1,7.7l4.3,2.7l4.5,1l4.3,2.4c0.1,0.1,2.7,1.6,4.9,1.6h11.2l2.6,0.8v0l2,0.6l5.1,5.1l3.4,6.7l6.7,7.3l12.9,5
		l3.8,1.9l3.1,2.7l0.2,0.6c0.2,0.5,0.3,1,0.5,1.4c0,0,0,0,0,0c0.1,0.4,0.3,0.8,0.4,1.2c0.1,0.2,0.1,0.4,0.2,0.5
		c0.1,0.2,0.1,0.4,0.2,0.6c0.1,0.2,0.1,0.4,0.2,0.5c0.1,0.2,0.1,0.5,0.2,0.7c0,0,0,0,0,0.1c0.3,0.9,0.4,1.5,0.4,1.9c0,0,0,0,0,0
		c0,0.1,0,0.2,0,0.3c0,0.9-1.7,7.6-2.9,12l-2.4,8.2L482.6,664.3z M257.9,618c-1.5,0.5-4.5,3.3-5.5,4.4c-1.8,0.1-9.6,0.5-10.9,0.5
		c-1.3,0-7.1-0.4-8.5-0.5l-4.1-3.2l-6.9-9.9l-5.6-3.6l-6-2c-0.5-0.4-2.4-1.8-5.3-3.9c-3.3-2.4-3.7-3.2-4.6-5.5
		c-0.9-2.2-2.8-4.1-3.5-4.6l-2.3-7l-0.8-5.9l3.9-0.9l4.1-6.7l2.8-3.3l4.9-3l3.3-4.4v-9.3l4.9-4.9l0-0.4c0.1-1.3,0.6-5.1,0.9-6.2
		c0.1-0.4,0.2-0.7,0.3-1.1c0.3-1.1,0.6-2.4,2-4.5c1.8-2.7,1.8-4.7,1.7-5.4l1.4-6l3.5-4.5v-5.6l0.9-3.3l0-1.8l3.4-3v-4l2-2.4l6.1-1.9
		l4.8-3l-1.3-3.9l-2.4-2.4l-0.8-3.5l2.2-1.8h4.5l2.4-3l1.1-4.5l-2.5-5v-4.9l14.3-20.2v-1.5l1.4,0.3l3.4-0.4l1.5,2.7l0.5,6.7l2,6.5
		l0.6,4.7h6.5l5.7-1.9l5.3,2.6l3.6,5.7l9.5-0.5l6.5-0.6l0.4,3l2.7,8.8l3.2,7.8c0.2,0.8,2,7.9,2.6,9.8c0.4,1.1,1.4,2.6,2.4,4.2
		c0.9,1.4,1.9,2.8,2.2,3.7c0.7,2.1,5.9,6.2,6.9,7l9.3,5.3l10.6,4c2.8,1.6,5.3,3.6,5.3,4.3c0,2.2,4.2,6.6,5.5,7.9l5,3.1v8.6l4.8,2
		l1.8,6.7l4.6,7.5l-12.8,1.8h-9.7h0l-3.5,6.4l-3,4.9l-7.1,1.3l-6.7,7.4l-8.6,5.3l-4,5.4l-2.7,7.4l-3,4.8l-6,1.2h-17l-2.9,7.2
		l-1.7,4.6h-4.2l0-10.6l-5-3.9l-4.6-1.2l-5.5,4.4l-2.4,6.4c-0.3,0.2-0.7,0.5-1.1,0.7C262.1,615.5,258.7,617.7,257.9,618z
		 M417.6,486.1l0.8-2.8c0.8-0.6,2.4-1.8,3.4-2.1c0.7-0.2,1.3-0.7,2-1.3c1.1-0.9,2.3-1.9,4.2-2.1c3.5-0.5,8.8-2.4,9.1-2.5l0.2-0.1
		l6-5l5.2-3.3l10.4-0.9l5.1,1.9c0.7,0.4,4.1,2.2,5.7,2.9c0.1,0,0.2,0.1,0.3,0.1c1.5,0.5,5.5,1.5,8,2c2.5,0.5,2.6,0.5,5.6,0.5
		c3.4,0,6.4-3.9,6.7-4.3l1.5-3.6c0,0,0.1,0.1,0.1,0.1c0,0.1,0.1,0.1,0.1,0.2c0.1,0.1,0.1,0.2,0.2,0.3c0.1,0.1,0.1,0.1,0.2,0.2
		c0.1,0.1,0.2,0.2,0.3,0.3c0.1,0.1,0.1,0.1,0.2,0.2c0.1,0.1,0.2,0.2,0.4,0.3c0.1,0.1,0.1,0.1,0.2,0.2c0.2,0.1,0.3,0.3,0.5,0.4
		c0.1,0,0.1,0.1,0.2,0.1c0.2,0.2,0.5,0.3,0.7,0.5c0.1,0,0.1,0.1,0.2,0.1c0.2,0.1,0.4,0.3,0.6,0.4c0.1,0.1,0.2,0.1,0.3,0.2
		c0.2,0.1,0.3,0.2,0.5,0.3c0.1,0.1,0.2,0.1,0.3,0.2c0.2,0.1,0.3,0.2,0.5,0.3c0.1,0.1,0.2,0.1,0.3,0.2c0.1,0.1,0.3,0.2,0.4,0.3
		c0.1,0.1,0.2,0.1,0.3,0.2c0.1,0.1,0.3,0.2,0.4,0.3c0.1,0.1,0.2,0.1,0.3,0.2c0.1,0.1,0.3,0.2,0.4,0.2c0.1,0.1,0.2,0.1,0.3,0.2
		c0.1,0.1,0.3,0.2,0.4,0.2c0.1,0.1,0.2,0.1,0.3,0.1c0.1,0.1,0.3,0.1,0.4,0.2c0.1,0,0.2,0.1,0.2,0.1c0.2,0.1,0.4,0.2,0.6,0.3l6,7.9
		l-0.9,7.4l-5.8,3.2l-5.9,2.5l-2.9,1.8l-1.2,4.7l2.6,5.2l5.7,6.3l6,3l6.7,4.3l4.6,5.1l0.9,5.2l-1.8,1.7l-1.1,4.2l0,5.4l-2.5,4.2
		l-4.8,0.4l-4.6-0.5l-4.3,2.5l0.6,5.1l1.4,4.8l-1.6,3.9l-6-0.4l-4.5-2.2l-2.9-5.3l-5.1-4.6l-3-2.5l-2.4-1.2l-5.5,0.5l-4,2.8
		l-1.1,5.6l2.5,6.5v3l-2.2,4.5l-5.9,3.9l-2.8,4.5l1.7,6.1l3.9,4.4l0.7,2.8l-2,0.7l-6.7,1.6l-3.8,4.9l-0.8,5.5l-0.5-0.1l-11.6,0
		c-1.4,0-3.3-1-3.9-1.4l-4.4-2.5l-4.5-1l-3.7-2.3c-0.6-0.7-1.2-1.4-1.8-2.1c-0.1-0.1-0.1-0.2-0.2-0.2c-1.4-1.6-2.7-3.2-3.2-4
		c-0.1-0.2-0.2-0.3-0.3-0.4c0-0.1-0.1-0.1-0.1-0.2c-0.2-0.6-0.7-1.7-1.3-2.9c-0.7-1.4-2-4-2-4.7c0-1.2-1.2-4.5-2.5-8.1
		c-0.2-0.7-0.4-1.2-0.5-1.5c-0.4-1.1-0.8-4.2-0.9-5.2l0-0.3l-6.7-8.3l-6-2.7l-6.3,2.6l-7.2,4.3l-2.4-0.4l-4.8-7.8l-1.8-6.6l2.1-3.1
		l4-3.1h2.9l5.1,1.7l1.7-3.4l8.7-3.4l0.1-0.1c1.5-1.3,3.6-2.7,4.3-2.7c1.6,0,6.7-1.7,7.7-2l0.3-0.1l3.3-5v-10.9l2.8-5.2l3.5-6.1
		l1-7.1l0-4.8L417.6,486.1z M376.3,307.7l-0.6,4.9l1.5,6.7l9,2.1l4.2,2.4l3.9,9.8l8.7,6.7l5,5l1.9,5.6l1.3,10.3v11.5
		c-0.6,1.2-2.1,3.8-3.5,4.7c-1.7,1.2-4.4,3.3-5.1,3.8l-5.7,1.4l-1,5.7h6.1l5.5,3.7l2,2.7l5.6,2.8l6.1,0.7l6.4,0.8v-4l3.3-3.9
		l2.9,0.5l1.9,3.2l4.7,1.6l4.3-2.8l3-1.2h4.4l3.4-0.7h2.9l6.3,3.2l4.7,1.4l5.6,1.9l5.7,8.2l1.1,2.1l-0.8,1.8l-1.5,5.6l-1.1,6.8
		l2.1,4.6l1.4,4.7c-0.2,1.5-0.6,4.9-0.9,6c-0.2,0.5-0.6,1.1-1,1.8c-0.7,1.1-1.5,2.3-1.5,3.5c0,0.5-0.1,1-0.2,1.6
		c-0.1,1-0.3,2.2-0.3,4.3c0,2.9,1.2,4.6,2.4,6.2c0.4,0.5,0.8,1.1,1.2,1.7c1,1.6,1.9,2.3,2.7,2.8c0.5,0.4,0.9,0.7,1.2,1.1
		c0.6,0.8,1.7,1.4,3,2.1c0.6,0.3,1.2,0.6,1.7,0.9l-0.8,1.9l-1,2.4c0,0,0,0,0,0.1c-0.8,1.1-3.1,3.4-5,3.4c-2.9,0-2.9,0-5.2-0.5
		c-2.4-0.5-6.3-1.5-7.8-1.9c-1.1-0.4-4.5-2.2-5.7-2.9L459,464l-11.3,1l-5.6,3.6l-5.9,4.9c-0.9,0.3-5.5,1.9-8.5,2.4
		c-2.5,0.4-4.1,1.6-5.2,2.6c-0.5,0.4-1,0.8-1.4,0.9c-1.6,0.5-4,2.4-4.2,2.6l-0.2,0.2l-1.2,4.1l2,4.6v4.1l-0.9,6.6l-3.4,5.8l-3.1,5.6
		v10.8l-2.6,3.9c-2.3,0.7-5.8,1.8-6.7,1.8c-1.6,0-4.4,2.2-5.4,3.1l-9.1,3.5l-1.3,2.5l-3.8-1.3h-3.9l-4.7,3.7l-2.2,3.2l-3.2-1.4v-8.4
		l-5.6-3.5c-2.4-2.4-4.9-5.5-4.9-6.4c0-2.3-4.5-5-6.4-6.1l-10.6-4l-9-5.2c-2.1-1.6-4.9-4.1-5.9-5.5c-0.1-0.2-0.2-0.4-0.3-0.5
		c-0.4-1.1-1.4-2.6-2.4-4.2c-0.9-1.4-1.9-2.8-2.2-3.7c-0.6-1.9-2.6-9.7-2.6-9.8l-3.3-7.9l-2.6-8.5l-0.4-2.8h0l-0.2-1.3l-0.1-0.7h0
		l-0.6-4.2l1.9-10l8.4-8.4l4-9.4l2.1-6.9l-0.7-7.4l-1.9-6.4l2.4-6.6l6.2-3.7c0.8-0.4,7.5-4.1,8.9-6.2c1-1.5,2.3-4.8,3-6.4
		c0.2-0.5,0.3-0.8,0.4-1l1.2-2.4l1.9-1.4l4.4,2.5l6.5-2.2l6-4.5l-2.2-6.6l-3.2-6.5V361l0-0.2c0,0-0.7-2.6-1.3-5.9
		c-0.3-1.4-0.9-2.3-1.8-2.7c-0.6-0.3-1.2-0.3-1.7-0.3L354,350l-5.3-4.6l-1.2-2.9v-10.6l-1.9-3.2l1.2-8.2l4.9-1.8l8-8.7l4.8-4.2
		l0.7-6.3l4.9,3.3L376.3,307.7z M183.9,329.7l2.5-0.6l17.6-14.9l-0.7-6.3l0.6-5.6l5-7.5l3.6-2.1l3.1,4.3h5.5l4.2-3.5l5.6-4.4h3.6
		l6.7-1.5l2-6.8l2.6-2.1l4.8,1.2l3.6,0l0.8-3.4l0.7-7.9l1.3-5l2.9-4.7l7.2-0.6l2.3,0.5v4l3,6l5.8,0l6.2,0.6l4.7,4.7l0.6,7.5l0.8,6.3
		l4.6-0.9l2.5-2.5h5l3.4,4.1l4.4-1.5l4.5,0.6l3.7,6.8l5.7,6.4h6.6l3.4-2l12.9-3.2l10.1-1.3l4.9,3.1l1,0.7l-0.8,6.5l-4.3,3.7
		l-7.8,8.4L345,319l-1.4,10.1l2,3.3v10.4l1.5,3.7l5.2,4.5l0.9,3.5l1.1-0.6c0,0,0.7-0.3,1.1-0.1c0.4,0.2,0.6,0.8,0.7,1.3
		c0.6,2.9,1.2,5.3,1.3,5.8v6v0l3.4,6.7l1.7,5.2l-4.5,3.4l-5.3,1.8l-4.8-2.7l-3.3,2.5l-1.4,2.8l0,0.1c0,0.1-1.9,5.2-3.2,7
		c-0.9,1.3-5.5,4.1-8.2,5.6l-6.9,4.1l-2.9,7.9l2,6.8l0.6,6.9l-1.9,6.3l-3.8,9l-8.6,8.6l-2.1,11l0.6,4.4l-6.4,0.5l-8.3,0.5l-3.3-5.2
		l-6.5-3.3l-6.1,2h-4.4l-0.4-3.1l-2-6.5l-0.5-7l-2.4-4.2l-4.4,0.6l-1.5-0.3v-1.7l-0.5-0.3c0,0-2.5-1.5-3.9-2.4
		c-1.1-0.7-2.6-1.4-3.5-1.8v-2.2l3.6-2.3l3.9-4.9l8.2-5.1l0-4.6L270,407l1-4.3l0-14.7l-1.4-2.7h-3.4l-3.1,2.1
		c-2.4,1.3-5.7,2.6-6.7,2.4c-1.7-0.4-4.4-0.8-5.3-1l-5.1-3.7l-4.8-5.3l-4.4-5.4l-2.5-3.4l-3-2.6l-3.9-4.9l-4.4-4.9l-6.1-4l-4.3,2.7
		l-4.9,1.3l-2.8-1.2l-4.2-6.5l-1.5-7l-6.4-5.3l-4.4-1l-2.1-2.1l-2.3-5.1L183.9,329.7z M154.6,558.4l-1.1-6l3.3-2.2l6.7-4l4.1-5.4
		l3.3-5.9l8-7.3l2.8-9.7l-1.4-10.4l-3-3l-3.9-1.9l-2.4-3l-2.5-4.3v-3.9l3-3l4.2-6.3v-6.1l-4.3-2.9l-2.9-2.3v-5.2l-3.2-3.2l-4.9-0.7
		l-5.6,0l-3-3.6l-6.5-5.3l-3.6-6.5l2.3-4.1c0-0.1,3.3-5.3,4.6-7.2c1.3-1.9,3.2-4.5,3.2-4.5l0.2-0.3v-3.4l2.4-7.3l4.8-2.1v-7.2
		l-1.3-4.7l0.6-6.8l3.1-4.4l2.7-6l3.5-5.7l-2.1-4.2v-5.3l4.2-4.2l4.3-2.2v-5.4l-2.6-5.9V352l2-5.4l-2.7-6.7V336l6.6-4.8l4.1-1l0,0.8
		l2.6,5.7l2.8,2.8l4.5,1l5.5,4.5l1.4,6.7l4.7,7.3l4,1.7l5.7-1.6l3.7-2.2l4.8,3l4.3,4.8l3.9,4.9l3,2.5l2.4,3.4l4.5,5.5l4.9,5.4
		l5.8,4.2l0.2,0c0,0,0,0,0,0c0.4,0.1,3.5,0.5,5.3,1c2.2,0.6,7.1-2,8.2-2.6l2.7-1.8h1.5l0.6,1.2v13.9l-1,4.5l0.5,6.5v3.4l-7.5,4.7
		l-3.9,4.9l-4.3,2.7v4.7l0.6,0.3c0,0,2.4,1,3.8,1.9c1.1,0.7,2.7,1.7,3.5,2.2v0.2v2v1.3l-14.3,20.2v6l2.4,4.8l-0.8,3.4l-1.5,1.9h-4.3
		l-3.7,3.1l1.2,5.3l2.5,2.5l0.7,2l-3.2,2l-6.6,2l-2.9,3.5v3.8l-3.4,3v2.3l-0.9,3.3l0,5.3l-3.4,4.3l-1.5,6.6l0,0.2l0,0.2
		c0,0.1,0.3,1.7-1.3,4.1c-1.6,2.4-2,3.9-2.3,5.1c-0.1,0.3-0.2,0.7-0.3,1c-0.4,1.3-0.9,5-1,6.3l-5,5v9.4l-2.6,3.5l-4.9,2.9l-3.1,3.6
		l-3.8,6.2l-3.5,0.8L190,572l-4.7-4.2l-11.2-1l-8.3,0c0,0-1.4-0.1-3.2-0.2c0,0,0,0-0.1,0c-0.3,0-0.6,0-0.9-0.1c0,0,0,0-0.1,0
		c-0.3,0-0.6,0-1-0.1c0.1-0.5,0.1-0.8,0.1-0.8l-0.8-5.3L154.6,558.4z M296.4,737.7l-1.3,8.7l-1.9,5.1l-3.8,6.4l-5,5l-7.4,2.5
		l-10.5-2.6l-6.1,2l-13,2.6l-4.8,0.6l-4-3.4l-1.3-5.3l-4-3.3l-1.7-5.7l3-3l3.4-7.4l1.4-3.5V729l-5.7-2.9l-2.2-1.6v-3.8l-5.6-7
		l-3.4-1.4l-5-3.1l-4.6-6.6l-9.1-3.9l-1.1-2.8l-2-8.1l-3.9-3.9l-0.6-4.7l1.3-4.7l-2.8-9.1l-4.1-3.4l-5.2-5.2l-4.6-7.3l-5.9-4.6
		l-3.2-5.7l-3.8-5.1v-6.9l-2.6-9.4l-0.7-7.4l-6.1-7.5l-7.9-6l-5.1-6.4l-5.2-7.8l-1.6-3.8l3.1-2.6l4.3-0.6l6.1-2l0.2-0.1
		c1.1-0.7,4.2-2.7,5.7-3.2c0.7-0.2,1.5-0.8,2.1-2.1c2.9,0.2,5.6,0.3,5.6,0.3l8.3,0l10.5,1l4.1,3.7l3.2,3.2l0.9,6.6l2.6,7.8l0.2,0.2
		c0,0,2.3,1.8,3.1,4c1.1,2.7,1.7,3.8,5.3,6.3c3.4,2.4,5.4,3.9,5.4,3.9l0.1,0.1l5.9,2l5.1,3.3l6.8,9.7l4.9,3.8l0.3,0
		c0.3,0,7.4,0.5,8.9,0.5c1.5,0,11-0.5,11.4-0.5l0.4,0l0.3-0.3c1.6-1.6,4.2-3.9,5-4.2c1.5-0.5,7.5-4.7,8.6-5.5l0.2-0.2l2.5-6.4
		l4.3-3.5l3.2,0.8l3.9,3l0,9.7h-0.1l0.1,1v1h0.1l0.6,10.9l1.4,4.4l6.2,6.2l5.8,1.9l3.7,6.8l2.4,5.4l-2.1,3.6h-4.3l-4.6-3.3h-5.1
		l-5.9,2.2l-1.2,4.9l4.9,5.9l5.1,3.1l2.9,1.7v2.3l-3.2,1.8l-1.8,4.2l2,3l-0.9,4l-1.1,3.3l2.1,4.8l4.1,5.6l3.9,4.9l2.3,3.3l0.9,4.6
		c0,0.6-0.1,2.1-0.3,3.1c0,0.1-0.1,0.3-0.1,0.4c-0.5,1.4-1.4,3.3-1.4,3.3l-0.1,0.2l0.5,6.7c0,0,0.5,3,0.9,6L296.4,737.7z
		 M379.4,780.7l-8.8-4.1l-0.2-0.1c-0.1,0-7.9-2-9.8-2.6c-1.2-0.4-3.2-2.4-4.1-3.6l-4.4-6.3l-0.6-7.8l3.2-3.8l1.5-5.8l-4-7.9l0.6-5.5
		l0.6-1.9c0.6-1.9,1.9-5.2,1.9-5.2l0.1-0.4l-0.1-0.4c-1-2.5-2.6-6.9-2.6-8.2v-6.3l2.4-4.8l4.2-2.8v-4.4l-6.8,1.7l-4.9,6.3l-2.5,8.9
		l-3.9,1.4l-1.2-3h-6.7l-1.6,6.5l6.1,8.2l2.4,4.9l-1.2,7.3l-4.8,5.4h-4c-0.7-0.3-4-1.5-6.8-3.7c-3.7-3-7.4-1.5-7.6-1.5l-0.3,0.1
		l-3.3,4.6l-2.8,1.4l-2.8-6.1l-0.7-5.9l-5.3-0.7c-0.1-0.5-0.1-1-0.2-1.5c0,0,0-0.1,0-0.1c0-0.1,0-0.2,0-0.3c-0.3-2-0.5-3.5-0.5-3.5
		l-0.5-6.1c0.3-0.6,1-2.1,1.4-3.3c0.5-1.6,0.5-4.1,0.5-4.3l-1-5.3l-2.6-3.7l-3.9-4.9l-3.9-5.3l-1.8-4l0.9-2.6l1.1-4.9l-1.9-2.9
		l1.1-2.6l3.7-2.1v-4.6l-3.9-2.2l-4.8-2.9l-4-4.9l0.7-2.9l4.6-1.7h4.1l4.6,3.3h6.1l2.5-4.4c0,0,0,0,0,0c0.1,0,0.2,0,0.3,0
		c0.1,0,0.1,0,0.2,0c0.1,0,0.2,0,0.4,0c0.1,0,0.2,0,0.3,0c0.1,0,0.3,0,0.5,0c0.1,0,0.2,0,0.3,0c0.3,0,0.6,0,0.9,0
		c0.3,0,0.7,0,1.1-0.1c2.8-0.3,7.4-1.3,8-1.4l8.5-0.9l5.3,2.2l1.7,3.4v9.6l0.9,4.8c-0.1,0.3-0.1,0.6-0.1,0.9
		c0.2,0.9,1.1,1.6,2.8,2.1c3,1,5.9,1.5,6.1,1.5l0.4,0.1l4.2-3.1l3.3-1.4l4.5-2l3.7-1.8c1.5,0.2,4.8,0.6,5.9,0.9c1.3,0.5,5,0.9,6.3,1
		l2.6,2.6c0.3,0.8,0.8,2.4,0.8,3.4v1.7l1.3,3.3l5.2-0.6l4.8-2.1l6.1-3.3l5.9,1.4c0.4,0.2,2.6,1.1,4.7,2.4c1.8,1.1,3.7,2.5,4.4,3.1
		v7.5l-1.2,1.5l-2.6,1.6l-0.1,0.4c-0.1,0.3-1.1,3.3-0.5,5.5l0.6,2.4l0.4,0.2c0.8,0.5,2.6,1.5,4.1,2.5c0.7,0.5,1.3,0.9,1.6,1.3
		c0.1,0.1,0.3,0.3,0.5,0.4c0,0,0.1,0.1,0.1,0.1c0.2,0.1,0.4,0.3,0.6,0.4c0,0,0,0,0.1,0c0.2,0.1,0.4,0.3,0.7,0.4
		c0.1,0,0.1,0.1,0.2,0.1c0.3,0.1,0.5,0.3,0.8,0.4c0,0,0.1,0,0.1,0.1c0.2,0.1,0.5,0.2,0.7,0.4c0,0,0.1,0,0.1,0.1
		c0.3,0.1,0.5,0.2,0.8,0.4c0,0,0.1,0,0.1,0c0.2,0.1,0.5,0.2,0.7,0.3c0,0,0,0,0,0c0.2,0.1,0.5,0.2,0.7,0.3c0,0,0,0,0,0l-1,2.3
		l-3.8,3.8l-4.2,5.8v6.4l1.5,3.5l1,5.5l1.5,2.6l1,2.3l-2.1,0.6l-3.2-0.9l-3.7,0c-1.6,0-5.7,2.4-6.9,3.1l-0.3,0.2l-2.6,8.7l0,8.4
		l-3.9,6.9l0,7.2l0.5,10.4L379.4,780.7z M525.9,756.9l-4.5,9.7l-1.4,10.3l0,0.1c0.1,0.4,1.3,9.3,2,11.9c0.5,2.1-1.1,4.4-1.1,4.4
		l-1.6,2.2l8.9-2l5.2-6.5h5.5l2.1,3.1l-1.1,4.5l-5.2,5.2l-3.3,8.6l-3.8,7.5l-4.8,1.8l-11.5,2.6l-5.9-1.2l-1.6-3.2l1.2-5.4l4.3-6.4
		l-4.6-5.3l-3.4-1.7l-4.1,3.4l-5.3-1.2l-4.7-2l-8,0.7l-6.1-1.2l-4.6-5.1l2.8-5.7l4.1-2.3h9.2l3.2-2.4l0.8-5.4l-3.6-5.7l-1-0.8
		c0,0,0,0,0,0c0.2-0.1,0.5-0.3,0.7-0.4c0,0,0,0,0,0c1.5-0.8,2.7-1.5,3-1.6c0,0,0.1,0,0.1,0l4.7-2.8h6.9l5.4-3.2l3-5.1l2.6-3h4
		c1.7,0,3.1-0.8,4.7-1.6c0.9-0.5,1.9-1,3-1.4c0.3-0.1,0.6-0.2,0.9-0.3c0.1,0,0.2-0.1,0.2-0.1c0.3-0.1,0.5-0.2,0.8-0.4
		c0,0,0.1,0,0.1,0c0.3-0.1,0.6-0.3,0.9-0.5c0.1,0,0.2-0.1,0.3-0.1c0.2-0.1,0.5-0.3,0.7-0.4c0,0,0.1,0,0.1-0.1l0.4,2.9L525.9,756.9z
		 M539.9,702.8l-2.4,5.5l7.7,5.6l4.3,5.6l0.6,6.5c-2.1,2.9-5.5,7.1-6.7,8c-2.1,1.4-6.4,3.8-9.3,3.8c-3,0-7.4-1.9-7.5-1.9l-0.2-0.1
		h-10.6l-2.8,4.7l4.9,2.5l7.5,3.5c0,0-0.1,0-0.1,0c-0.1,0-0.2,0.1-0.3,0.1c-0.3,0.2-0.6,0.3-0.9,0.5c-0.1,0.1-0.3,0.1-0.4,0.2
		c-0.3,0.1-0.6,0.3-0.8,0.4c-0.1,0.1-0.2,0.1-0.4,0.2c-0.4,0.2-0.8,0.3-1.1,0.4c-1.3,0.4-2.4,1-3.4,1.5c-1.3,0.7-2.5,1.4-3.7,1.4
		h-4.9l-3.3,3.8l-2.9,4.8l-4.5,2.7H492l-5.1,3.1c0,0-2.2,1.1-4.6,2.5l-1.8-3l-5.7-8.2l-1.9,5.8l-0.6,3l-4,2.7v5.6l-2.4,6.6l-7.1,2.4
		l-4-1.2l-4.7-4.7l0.7-7.3l-4.7-3.1h-17.8l-5.2,5.2v14.4l-3.4,2.8c-3.2,0.5-7.9,1-9.1,0.7c-2-0.7-8.4-1.9-8.6-2l-0.5-0.1l-0.4,0.3
		c-2.1,1.8-4.9,3.7-5.9,3.7c-0.6,0-2.6-0.8-6.4-2.9l-0.6-11.9v-6.6l3.9-6.9v-8.5l2.3-7.8c2.2-1.3,4.9-2.6,5.5-2.6h3.3l3.6,1l4.8-1.4
		l-1.9-4.5l-1.4-2.4l-1-5.2l-1.5-3.5v-5.4l3.7-5.1l4-4l1.5-3.4l3.8-3.8l5.9-5.4l-1.8-4.7l-4.4-5.3c-0.3-1.7-0.6-4.2-0.6-5.9
		c0-0.6,0-1,0.1-1.3c0.2-1,1-1.4,2.7-2.4c0.7-0.4,1.4-0.8,2.3-1.4c2.7-1.8,4.5-3.9,5-4.5l2.2-1.3l4.3-0.9l9.5-4.5l8.6-1.9
		c2.2,0,6,0.1,7,0.4c1.4,0.5,4.2,1.9,4.2,1.9l4.4,2.7l4.8-2.1l8.8-1.9l0.7,2.2l4.2,6.3l4.8,3.2h5.6c0.4,0.1,2,0.6,2.7,1.9
		c0.9,1.8,1.4,5.1,1.4,5.1l0.1,0.4l5,3.3l5.6,0.6l0.3-0.3c0,0,2.1-1.7,4.1-1.3c1.7,0.3,3.5,1.5,4.2,2l0.4,3c-0.3,0.4-0.7,1-0.6,1.7
		c0.1,0.9,0.9,1.6,2.3,2c3.1,1,8,1,8.2,1l0,0c0,0,0,0,0.1,0l9.9-1l1.9-0.3l0.8,1.6L539.9,702.8z M685.4,659.3l8,7.4l5.5,3.7
		l-0.5,4.8l-3.4,2.1l1.4,7.8c0,2.1-0.6,4.6-1.3,4.9c-1.4,0.5-4.9,0.1-6.1,0l-7.5,0l-2.7-3.3V680l-4.3,4.3l-3.8,5l-6,0.6l-5.5-1.2
		l-4-3.3l-5.3-0.7l-6-3.3H641l-6.2,1.8l-1.9-2.4l1.2-4.6l3.2-5.1l0.1-0.3c0-0.1,0.7-3-1.4-7.8c-0.2-0.4-0.3-0.8-0.4-1
		c0-0.3-0.1-0.6-0.2-0.8c-0.8-2.3-3.5-3.7-3.8-3.9l-0.8-0.4l-3.2,5.6v3.8l-2,2l-2.5-0.5c-0.8-0.6-3.7-2.7-6.6-3.9
		c-2.7-1.1-3.3-3.2-3.3-3.2l-0.1-0.3l-0.3-0.2c-0.1-0.1-2.7-2-4.6-3.3c-1.7-1.1-4-0.7-5.8-0.4c-0.7,0.1-1.4,0.2-2,0.2
		c-0.8,0-1.9-1.9-2.3-3.3l-3.3-9.1c-0.1-0.7-1.3-6-2-7.9c-0.4-1.3,0.3-3.7,0.7-4.6l1.9-5.6l-5.2,1l-7.1,5.7v7.9l3.4,9.4l3.2,7v4.9
		l-1.3,3.9v6l3.1,1.6l3.8,2.5l3.9,4.5l5.7,5.7l0.5,3.1l-4.6,3.8l4.5,2.7l3.4,1.2v1.5l-3.5,3.5l-5.7,2.5l-10.4,3.7l-1.3-2.2l1.4-6.4
		l-4.7-1.6l-3.1-2.1l1.8-4.2l-2.4-5.6h-4.5l-5-1.1v-4.5l-4.4-1.8l-0.4,0.3c-1.9,1.2-5.5,2.9-7.1,2.5c-2.5-0.6-6-0.7-6.7-0.7L549,680
		l-5.9,3.3l-10.2-1.4l-2,3.9l6.4,5.7l4.2,4.8l-1.1,0.2l-9.8,1c-0.1,0-0.4,0-0.8,0c0,0,0,0,0,0c-0.1,0-0.2,0-0.3,0c0,0-0.1,0-0.1,0
		c-0.1,0-0.2,0-0.4,0c0,0-0.1,0-0.1,0c-0.1,0-0.3,0-0.4,0c0,0-0.1,0-0.1,0c-0.1,0-0.3,0-0.4,0c-0.1,0-0.1,0-0.2,0
		c-0.1,0-0.3,0-0.4,0c-0.1,0-0.1,0-0.2,0c-0.1,0-0.3,0-0.4,0c-0.1,0-0.1,0-0.2,0c-0.1,0-0.3,0-0.4-0.1c-0.1,0-0.1,0-0.2,0
		c-0.1,0-0.3,0-0.4-0.1c-0.1,0-0.1,0-0.2,0c-0.1,0-0.3,0-0.4-0.1c-0.1,0-0.1,0-0.2,0c-0.1,0-0.3-0.1-0.4-0.1c-0.1,0-0.1,0-0.2,0
		c-0.1,0-0.3-0.1-0.4-0.1c0,0-0.1,0-0.1,0c-0.2,0-0.4-0.1-0.5-0.2c-0.6-0.2-0.8-0.4-0.9-0.5c0-0.1,0.1-0.2,0.2-0.2l0.5-0.3l-0.6-4.9
		l-0.3-0.3c-0.1-0.1-2.7-2.1-5.3-2.7c-2.3-0.5-4.6,0.8-5.4,1.4l-4.3-0.4l-3.9-2.6c-0.2-1-0.7-3.6-1.5-5.3c-0.1-0.1-0.2-0.3-0.2-0.4
		c-1.3-2-3.8-2.5-3.9-2.6l-5.3,0l-4-2.7l-3.8-5.6l-1-2.9l2.9-4.5l2.6-8.6c0.5-1.8,3-11,3-12.6c0-0.1,0-0.2,0-0.4c0-0.1,0-0.2,0-0.3
		c0-0.1,0-0.1,0-0.2c0-0.1-0.1-0.3-0.1-0.4c0,0,0-0.1,0-0.1c0-0.2-0.1-0.3-0.1-0.5c0,0,0,0,0,0c-0.1-0.5-0.3-1.1-0.5-1.8
		c0-0.2-0.1-0.3-0.1-0.5c0-0.1-0.1-0.2-0.1-0.3c-0.3-0.8-0.5-1.7-0.8-2.4l4.2-0.6l6.1-3.5l0,0l0,0l3.1-2.2l3.8,0.8l0.4,2.2v7.7
		l3.3,3.9l3.1,1.8c0.1,1.6,0.9,3.8,2.9,3.8h6.2l4-2.8l0.1-0.3c0,0,0.5-1.4,1.8-3.2c0.1-0.2,0.3-0.4,0.5-0.6c1.2-1.4,2.7-2.6,3.1-3
		l3.1-0.9l5.4-1c0.7-0.1,4.1-0.7,4.7-2.6c0.5-1.6,0.5-6.2,0.5-6.7v-0.2l-2.1-5.3l-4-4.5c-0.1-0.2-0.2-0.3-0.3-0.5
		c0-0.1-0.1-0.2-0.2-0.3c0-0.1-0.1-0.2-0.1-0.3c0-0.1-0.1-0.2-0.1-0.3c-0.1-0.2-0.1-0.3-0.2-0.5c0,0,0-0.1-0.1-0.1
		c-0.3-0.7-0.5-1.5-0.7-2.1c0,0,0,0,0,0c-0.1-0.2-0.1-0.4-0.1-0.6c0-0.2-0.1-0.4-0.1-0.5c0-1.8,0.9-4.6,0.9-4.6c0,0,1.5-3.9,2.9-6.2
		c0.3-0.6,0.8-1.1,1.2-1.6c1.3-1.5,2.9-2.5,2.9-2.5l0.4-0.3l0.5-3.7l3.9-0.8l5.9,2.5l6.2-1l5.5-2c0.5-0.1,2.9-0.5,4.2-0.5
		c1,0,4.8,1.2,7.1,1.9l0.2,0.1l4.5-0.6l0.2-0.2c0.1-0.1,1.6-1.7,2.2-3.3c0.5-1.6-1.8-5.7-3.4-8l-0.4-4l0.9-2.8l1.1-4l-2.9-2.9
		c0,0-0.7-0.7-0.7-1.8c0-1.6-1.6-4.2-2.1-4.9c-0.1-0.2-0.4-1.3-0.4-4c0-3.1-2-4.8-3-5.5v-2.6l2.3-3.2l2.6-7.1l0.1-2l4-3l4-3.1
		l6.8,1.8c0.2,0.1,0.7,0.5,1.3,0.8c0.9,0.6,2,1.4,2.9,2.1c0.1,0.1,0.2,0.2,0.3,0.3c0.2,0.2,0.4,0.3,0.5,0.5c1.5,1.5,4.6,3.3,5.1,3.6
		c0,0,0.1,0,0.1,0l0.3,0.2l6.9-0.5l0.3-0.1v0l1.5-0.8l0.3-0.2v0l3.3-1.8l6.5-0.5l5.6,1.9c0.1,0.1,0.2,0.2,0.4,0.2c1.6,1,4.7,3,5.7,4
		c1.5,1.5,7.8,5.6,8.5,6l0.2,0.1c1.2,0.4,4.5,1.6,5.7,2.3c0.1,0.1,0.2,0.1,0.4,0.2c0,0,0.1,0,0.1,0.1c0.1,0,0.2,0.1,0.3,0.1
		c0.1,0,0.1,0,0.2,0.1c0.1,0,0.2,0.1,0.3,0.1c0.1,0,0.2,0,0.2,0.1c0.1,0,0.3,0.1,0.4,0.1c0.1,0,0.2,0,0.3,0.1c0.1,0,0.3,0.1,0.4,0.1
		c0.1,0,0.2,0,0.3,0.1c0.1,0,0.3,0.1,0.5,0.1c0.1,0,0.2,0,0.3,0.1c0.2,0,0.3,0.1,0.5,0.1c0.1,0,0.2,0,0.3,0.1c0.2,0,0.3,0.1,0.5,0.1
		c0.1,0,0.2,0,0.3,0.1c0.2,0,0.3,0.1,0.5,0.1c0.1,0,0.2,0,0.3,0c0.2,0,0.4,0.1,0.5,0.1c0.1,0,0.2,0,0.2,0c0.2,0,0.4,0.1,0.6,0.1
		c0.1,0,0.1,0,0.2,0c0.2,0,0.4,0.1,0.6,0.1c0,0,0.1,0,0.1,0c0.2,0,0.4,0.1,0.6,0.1c0,0,0,0,0,0c0.4,0,0.7,0.1,1,0.1l-0.4,1.7
		l-2.7,5.9c-1,0.3-3.2,1.2-3.7,3.6c0,0.2-0.1,0.5-0.2,0.7c0,0,0,0,0,0.1c-0.6,1.7-1.9,3.8-2.4,4.5l-2.5,0.8l-8.3,0.5l-3.9,7.2l1,5
		l-0.9,2.6l-2.2,4.3l2.7,5.4l0.3,0.6h0.6c0,0,0.8,0,1.4,0.7c0.1,0.1,0.2,0.2,0.3,0.3c0.5,0.8,1.4,1.4,2.3,2.1
		c0.7,0.5,1.9,1.4,1.9,1.8c0,1.5,1.5,5,2,6.1v6.2l1.6,6.4l5.7,6.7l6,3.5l2,1.2v4.8c0,0.6-0.2,1.2-0.4,1.9c-0.3,0.8-0.5,1.6-0.5,2.5
		c0,1.7,2.2,5.2,2.6,5.9l0.1,0.2l0.2,0.1c1.9,1.2,6.3,4.1,7.9,4.1c0.8,0,1.1-0.2,1.5-0.4c0.1,0,0.4,0,1.6,0.4c2.9,1,6.3,2.4,6.3,2.4
		l1.2,0.6l-0.7,1.2L685.4,659.3z M774.7,588.4l-1.5,5.2l-1.9,9.7l-4.3,8l-9.9,3.1l-11.1-2l-5.1,1.5l-3.1,4.4l-3.5-0.6l-8,2H722
		l-6.5,4.3l-0.8,4.6l3.3,8v9.4l-1.6,3.2h-3.4l-1.9-3.9l-5.6-0.8l-5.9,5.9l-5.3-0.6l-4.7-1.3l-5.3,0.8l-0.8,1.3l-1.5-0.7
		c-0.1-0.1-3.5-1.5-6.5-2.5c-0.3-0.1-0.5-0.2-0.7-0.2c-0.1,0-0.3-0.1-0.4-0.1c-0.1,0-0.1,0-0.2-0.1c-0.1,0-0.2,0-0.3-0.1
		c0,0-0.1,0-0.1,0c-0.1,0-0.2,0-0.3,0c0,0-0.1,0-0.1,0c0,0,0,0,0,0c0,0,0,0-0.1,0c-0.2,0-0.4,0-0.6,0.1c0,0,0,0,0,0
		c-0.2,0.1-0.3,0.1-0.5,0.2c-0.1,0.1-0.2,0.1-0.4,0.1c-0.7,0-4-1.9-6.6-3.6c-1.1-1.8-2.2-4-2.2-4.7c0-0.6,0.2-1.2,0.4-1.9
		c0.3-0.8,0.5-1.6,0.5-2.5v-6l-8.7-5.1l-5.1-6.1l-1.4-5.6v-6.5l-0.1-0.2c-0.8-1.8-1.9-4.6-1.9-5.5c0-1.4-1.3-2.3-2.8-3.4
		c-0.8-0.6-1.5-1.1-1.8-1.6c-0.8-1.2-1.8-1.7-2.6-1.8l-2-4l1.7-3.5l1.1-3.3l-1-4.8l3-5.6l7.3-0.5l3.5-1.1l0.2-0.3
		c0.1-0.1,2.6-3.6,3.1-6.3c0.3-1.7,2.6-2.2,2.6-2.2l0.5-0.1l3.2-6.9l0.7-2.6l7.1-1.3l5.5-3.3l0.1-0.4c0.4-1.8,1.2-5.1,1.8-6
		c0.9-1.3,4.4-5.3,4.8-5.7l3.8-3.3c0.6-0.3,1.9-0.8,2.9-0.8c1.5,0,4.5-0.5,4.6-0.5l0.3-0.1l3.4-3.4l5.4-0.4l3.9,0.9l4.6,5.5l0.3,0.3
		l0,0l1.3,1.6l0-0.9c1.4,0.8,3.9,2.1,5,2.4c1.5,0.5,5.3,0.5,6.1,0.5l3.8,0.9l5.4,2c1.4,0.4,3.1,1.3,3.3,1.8c0.4,1.1,1.3,2.1,2.2,3
		c0.5,0.6,1,1.1,1.4,1.6c0.8,1.3,3.4,3,4.6,3.8c0.2,0.7,1.2,1.5,4.6,3.4l5,2.7l1.4,6.4l1,7.2l5.6,5.6l6.4,4.9l6.9,7.8L774.7,588.4z
		 M858.6,519.8l-4.1,4.8l-0.7,5.4l-1.9,5.7l-4.3,6.1l-8.4,1.8l-4.1-2.4l-2.8-2.8h-3.7l-1.6,4.1v3.9l-3.3,6.6v3.6l-2.4,1.2l-2.8,7.1
		v2.2c0,1.2-1.2,1.6-1.3,1.7l-3.3,2l-2.7,0.7l-5.7,5.7l-3.4-0.6l-5.1,0l-3.1,2.3l-2,4.1l-2.4,4.2l-4.6,0.6l-4-0.7l-2.5,0.6l-7.7-8.6
		l-6.5-5l-5.1-5.1l-0.9-6.6l-1.6-7.3l-5.8-3.2c-0.8-0.4-1.4-0.8-1.9-1.1h1l-3-1.8c-1.5-0.9-4-2.7-4.6-3.6c-0.4-0.7-1-1.3-1.6-1.9
		c-0.7-0.8-1.5-1.6-1.7-2.3c-0.6-1.9-3.9-2.9-4.5-3.1l-5.4-2l-4-1l-0.2,0c-1.6,0-4.6-0.1-5.6-0.4c-0.8-0.3-2.9-1.4-4.4-2.2
		c-0.4-0.2-0.8-0.4-1.1-0.6l-0.1-0.1l0-0.9c0.5-1.2,2.9-6.9,3.4-8.2c0.4-1.2,0.8-3.7,1-4.7c1.5-1,3.3-2,4-2c1.5,0,4.5-0.5,4.6-0.5
		l0.2,0l4.2-2.4l-0.6-5.3l-2.8-5.2l2.1-5.2l4.4-2.7l5.4-0.5l5.1-2.5l4.9-3.3l0.5-7v-7.8l-3.9-3.9v-3.8l2.7-0.8l0.2-0.1
		c0.6-0.3,5.6-3.1,7.1-4.6c1.4-1.4,3.7-2.8,3.7-2.8l4.3-3.7l0.9-3.1l4.7,1.2l9,0l6.7-2.7l4.1-1l0.5,4.4l-1.7,2.3l-1.8,3.6l6.8,3.8
		l5.9,2.6l8.5,3.9l6.3,3.8l3.8,6.9l4.7,9.4l5.4,4.7l8.3,4.2l11.4-0.7h5.2l1.1,3.2l1.4,6.8l5.4,5.4l1.6,2.6L858.6,519.8z"/>
	<path d="M358,852.5l3.4-5.8l1.7-7.2l-4.9-5.5l-11.1-4l-9.6-1l-7.2,0l-3.3,1.1l-0.2,0.2c0,0-1,1.1-3,3.5c-0.4,0.5-0.8,1-0.9,1.4
		c-0.2,0.2-0.5,0.5-1,1c-2.3,2.3-5.3,3.7-6.2,4.1l-4.5-1.2l-1.4-4.6l-3.3-4.4l-0.4-0.1c0,0-2.3-0.5-3.6-1.3
		c-1.4-0.9-5.7-4.8-5.8-4.9l-4.6-3.7c-0.3-2.1-0.9-6.7-0.9-7.8c0-1,0.6-4.3,0.9-5.9l5.7-5.2l3.3-5.4v-7.7c0-7.5-1-8.9-2.2-9.3
		c-1.4-0.5-6.3-2.4-6.4-2.5l-6.3-2.1l-7.2,3.1l-8.4,4.7l-1.6,7.1l1.4,3.9l-1.6,3.9h-5l-6.5,3.2l-2.1,6.3l-1,6.8l-4.2,5.2l-3.7,4.2
		v5.3c0,1.3,1.2,2.8,2.9,4.9c0.5,0.6,1,1.2,1.2,1.6c0.9,1.4,3.3,4.2,3.9,4.9l3.3,8.6l0.5,5.5l4.1,5.7c1.1,1.3,2.2,3.1,2.2,3.8
		c0,1.2-0.3,4.4-0.4,5.4l-2.5,2.5l0,0.4c-0.2,1.8-0.4,6.1,1.4,7.3l4.3,2.8l4.5,7l0.4,0.1c0,0,3.3,0.9,5.1,2.3
		c1.7,1.3,5.6,1.3,9.5,1.2c0.4,0,0.7,0,0.9,0c1.6,0,6.4-2.1,7.3-2.5l0.4-0.2l1.7-7.2l-0.2-0.3c0,0-1.4-2.9-1.9-5.2
		c-0.1-0.7-0.4-1.5-0.6-2.2c-0.7-2.1-1.1-3.4-0.1-4.3c1.6-1.6,4.5-2.6,4.9-2.7l9.2-1.5h2.5l0.3,2.8c-0.8,1.7-2.9,6.1-2.9,7.6
		c0,1.7,1.7,4.8,2.1,5.4l0.3,0.5h0.5c0.2,0.1,1,0.7,1.6,3.6l1,4.3c0,0.8,0,4.6,0.5,6.1c0.6,1.7,3.7,4,4.3,4.4l0.3,0.2l5.9-1.1
		c0.8-0.2,4.9-1.2,6-2.9c0.2-0.3,0.4-0.7,0.6-1.1c0.7-1.5,1.4-2.7,3.9-2.4c2.9,0.4,5.3,0.7,6.3,0.9l1.7,3.9l0.1,0.2
		c0.6,0.8,2.9,3.3,4.7,3.3c1.6,0,5.1-0.5,6.7-1c1.9-0.6,2.9-3.9,3.1-4.6l0.1-0.4l-2.3-4.6l-0.4-0.1c-1.6-0.6-3.2-1.6-3.3-2
		c0-0.5,1.5-2,3-3.1l4.7-5.2l1.5-5.1l0-0.3c0-0.5,0-5.1-0.5-6.7c-0.5-1.5-3-4.8-3.5-5.6c-0.3-0.7-0.9-2.5-0.9-3.4
		c0-1.2,0.4-4,0.5-4.7L358,852.5z M355.6,863.8l0.1,0.2c1.1,1.5,3,4.2,3.3,5.1c0.3,0.9,0.4,4.1,0.4,5.9l-1.4,4.6l-4.2,4.7
		c-1.2,0.9-3.8,2.9-3.8,4.7c0,1.8,2.7,3.1,4.2,3.7l1.6,3.2c-0.4,1.3-1.2,2.7-1.7,2.9c-1.4,0.5-4.7,0.9-6.1,0.9c-0.5,0-2-1.2-3.1-2.5
		l-2.1-4.8l-0.5-0.1c0,0-3-0.5-6.9-1c-3.9-0.5-5.1,2-5.9,3.5c-0.2,0.3-0.3,0.6-0.5,0.9c-0.5,0.7-2.9,1.6-4.8,2l-5,0.9
		c-1.4-1.1-3-2.5-3.2-3.2c-0.3-1-0.4-3.9-0.4-5.6l-1-4.6c-0.8-3.5-2-4.7-2.8-5c-0.7-1.3-1.6-3.3-1.6-4.1c0-0.8,1.5-4.2,2.8-6.9
		l0.1-0.3l-0.6-5.1h-4.3l-9.5,1.5l-0.1,0c-0.2,0-3.7,1.1-5.8,3.2c-1.9,1.9-1,4.4-0.4,6.4c0.2,0.7,0.5,1.3,0.6,1.9
		c0.4,2.1,1.5,4.5,1.9,5.3l-1.3,5.6c-2.5,1.1-5.3,2.2-6,2.2c-0.2,0-0.6,0-1,0c-1.9,0.1-6.8,0.2-8.2-0.8c-1.7-1.3-4.4-2.2-5.4-2.5
		l-4.3-6.8l-4.6-3.1c-0.5-0.3-0.7-2.8-0.6-5.1l2.4-2.4l0-0.3c0-0.2,0.5-4.5,0.5-6c0-1.7-2.2-4.5-2.7-5l-3.8-5.2l-0.5-5.1l-3.6-9.3
		l-0.1-0.1c0,0-2.9-3.4-3.9-4.8c-0.3-0.5-0.8-1.1-1.4-1.7c-0.8-1-2.4-2.9-2.4-3.6v-4.5l3.2-3.7l4.6-5.6l1-7.1l1.8-5.4l5.3-2.7h5.9
		l2.4-5.9l-1.5-4l1.3-5.7l7.4-4.2l6.5-2.8l5.5,1.8c0.2,0.1,4.8,1.9,6.4,2.5c0.1,0.2,0.9,1.4,0.9,7.4v7.1l-2.7,4.6l-6,5.5l-0.1,0.3
		c-0.1,0.5-1,5.1-1,6.6c0,1.5,0.9,7.8,1,8.5l0.1,0.4l5.2,4.1c0.2,0.2,4.5,4,6,5c1.3,0.8,3.1,1.4,3.9,1.5l2.6,3.5l1.6,5.3l6.3,1.7
		l0.3-0.1c0.2-0.1,4.2-1.6,7.2-4.7c1.3-1.3,1.8-1.8,1.8-2.2c0.1-0.1,0.2-0.2,0.3-0.4c1.5-1.8,2.4-2.8,2.7-3.2l2.6-0.9h6.7l9.2,1
		l10.5,3.8l3.9,4.3l-1.3,5.7l-3.4,5.8l-1,2.6l-0.1,0.2c0,0.1-0.5,3.5-0.5,5.1C354.6,861.1,355.5,863.5,355.6,863.8z"/>
	<path d="M331,797.3c1.6-1.1,3.5-4.4,3.8-4.8l1.6-4.2V782l-4.9-1.2l-7.5,1.6l-3.7,4.7l-2.5,4l-3,4.9l-0.1,0.2l0,0.2
		c0,0-0.1,0.8-1.3,2.4c-1.4,1.9-3.4,4.4-3.4,4.4l-0.2,0.3v6.3l0,0.1c0,0.1,0.5,3.7,2.1,6.3c1.4,2.3,4.3,4.2,6,5.3
		c0.3,0.2,0.5,0.3,0.7,0.4c1.5,1,4.9,2.5,5.1,2.5l0.3,0.1l7.2-1l4.3-1.4l5,1.8l5.1,2.5h7l3.6-2.6c0.1-0.1,1.4-0.9,1.6-2.3
		c0.1-1.1-0.3-2.1-1.4-3.2c-2.2-2.2-4-4.4-4.3-4.8l-1.8-3.1v-4.4l-3.2-6.4l-4.5-2.8l-4.2,0.6l-2.7,3.2l-0.9,1.7l-4.6,1.2l-1.4-3.2
		C329.2,799.6,330.2,797.9,331,797.3z M329.9,795.7c-1.6,1.1-3.1,4-3.3,4.3l-0.2,0.4l2.5,5.6l7.2-1.8l1.1-2.3l2.1-2.6l2.7-0.4
		l3.4,2.1l2.7,5.4v4.5l2.1,3.7l0.1,0.1c0.1,0.1,2,2.5,4.5,5c0.4,0.4,0.9,1,0.8,1.5c-0.1,0.5-0.6,0.9-0.7,0.9l-3.2,2.3H346l-4.7-2.4
		l-5.8-2.1l-4.7,1.6l-6.5,0.9c-0.8-0.4-3.3-1.5-4.5-2.3c-0.2-0.1-0.4-0.3-0.7-0.5c-1.6-1-4.2-2.7-5.4-4.6c-1.2-2.1-1.7-5-1.8-5.5
		v-5.5c0.6-0.7,2.1-2.6,3.2-4.2c1.2-1.6,1.5-2.7,1.6-3.2l2.8-4.7l2.4-3.9l3.2-4.1l6.3-1.3l3,0.7v4.4l-1.4,3.7
		C332.3,792.9,330.9,795.1,329.9,795.7z"/>
	<path d="M667,780.4l-3.4-2.3l-5.6-0.4l-2.9,2.5l-3.2,1.9l-1.5,1l-2.3-1.2l0.6-1.3l2.8-3.4l3.3-3.3l0-0.5c-0.2-2-0.2-4.4,0-4.9
		c0.4-1.1,0.7-5.6,0.3-7.1c-0.2-1-0.5-3.7-0.6-4.9l0.8-3.3l2.4-1l0.4-5.8l-2.5-4.2l-4-4.7l-5.6-5l-2.3-2.9c0.2-1.2,0.6-4.4,0.6-5.3
		c0-0.7,0.5-1.9,1.4-2.4c1.3-0.6,6.5-2.9,6.5-2.9l0.4-0.2l2.6-7.8l-4.7-5.8l-3.9-2.2l-5.3-0.7l-3.7,1.2l-4.9,3.2l-1.7,4.5l1.6,5.7
		l1.4,3.4v3.7c-0.2,0.1-0.7,0.3-1.3,0.6l-1.4,0.5c-0.5,0.1-3.4,0.7-5.4,2.7c-2.1,2.1-3.6,5.1-3.6,5.2l-0.1,0.2l-0.5,4.4l-1.2,1.9
		l-4.8,1.3l-6.3-1.5l-5.6,1l-0.2,0c-0.7,0.3-4.3,1.7-5.4,3.3c-1.1,1.6-1.6,3.7-1.6,3.8l0,0.2l1,7.1l2.6,6.9l0.3,0.2
		c2.4,1.5,4.8,3.3,5,3.9l2.5,7.4l1.3,2.4l-1.2,0.2l-2-1.2l-2-2l-5.3-2.4l-2.6-3.6h-5.9l-2.5,3h-2c-0.6-0.7-1.8-2-3.1-2.4
		c-0.6-0.2-1.7-0.8-2.8-1.4c-1.2-0.7-2.3-1.3-3.1-1.5c-1.5-0.5-5.8-1.5-6-1.5l-0.3-0.1l-4.7,1.6l-4.7,3.1l-5.6,7l-7.6,8.1l-2,7.6
		l0,10.4l4.7,6.8l3.8,2.7l4.8,0.9v3.8l2.1,4.7l2.2,4.4l5.7,1.3l2.3-4.6l1.5-5.8l1.5-1.5l7.5-0.5l6.1-1.6l1.7-4.5l0.8-2.8l1.9-0.3
		c0.7,0.6,2.5,2.2,3.2,4.6c0.9,3.3,0.9,6.2,0.9,7.6c0,1.1-0.7,4.1-0.9,5.1l-1.4,4.6l-4.9,3.1l-6.9,1.5l-5.4,3.8l-1.2,5.6l4.6,2
		l4.5-2l2.1,0.5l-2.3,3.1l1.2,4.4l4.4,1.9l6.9-4.4l2.1,0.9l-1,3c-1.1,0.3-3.2,1.1-3.6,3.1c-0.5,2.1-0.1,6.3,0,6.7l0.1,0.5l6.5,3.8
		l2.9,0.4l0.3,2.3l-2.4,3.3l-0.6,6.3l5.5,3.3l0.2,0.1c0.3,0.1,2.1,0.7,3.7,0.7c0.5,0,0.9-0.1,1.3-0.2c0.7-0.2,1.3-0.7,1.9-1.2
		c0.8-0.6,1.6-1.3,2.7-1.3c2.5,0,6.9-1,7.1-1l0.7-0.1l0.7-4.1l-3.3-3.3l-1.7-2.3l2.6-1l6.1-0.5l2.2-1.8l3.5,1.8l4.9,0.6l1.9-6.3
		l-4.7-4.2l-5.1,0.5l-3-1.3l-1.8-2.2l-2.3-3.7l-0.4-2.9l1.4-2.8c0.2-0.1,0.6-0.2,1.2-0.3c0.4-0.1,0.9-0.2,1.3-0.5c0.3,0,0.6,0,1,0
		c4.4,0,6.1-2.3,6.2-2.4l1.7-4.4l-0.5-4.7l-1.1-4.3l-0.2-0.2c0,0-0.2-0.2-0.3-0.5c-0.1-0.3-0.1-0.6,0.3-1c0.8-0.8,2.4-1.4,3.4-1.6
		c0.6,0.7,1.3,1.8,1.3,2.3v6.5l4,2l4.3-2.5l0.6-4.6l0-0.2c-0.1-0.7-0.2-1.5-0.1-1.9c0.1,0.1,0.2,0.2,0.4,0.4
		c2.5,2.5,1.2,6.3,1.2,6.4l-0.2,0.5l3.1,4.3h8.1l3.5-1.8l1.8-5.3l-4.7-6.2l-1.9-4.7l-1-6.1l-2.4-3l-5.8-0.5l-3.3-0.4l0.2-1l1.7-1
		l3.3-1.2h4.1l3.8,2.4l5.3-1.6l0.4-3.8l-1.1-3.7l-2.6-2.3l0.5-0.9l2.3-0.8l0.2-0.1c0.5-0.4,2.3-1.6,2.7-2.8c0.4-1.1,0.7-3.9,0.7-4.9
		c0-1.1-1.2-3.5-1.8-4.4L667,780.4z M666.3,789.3c-0.1,0.4-1,1.2-1.8,1.7l-2.9,1.1l-1.5,3l3.3,2.9l0.8,2.8L664,803l-3.2,1l-3.5-2.2
		h-5.1l-3.8,1.4l-2.7,1.6l-0.8,4l5.5,0.6l5,0.5l1.5,1.9l0.9,5.6l2,5.1l4.2,5.7l-1.2,3.5l-2.4,1.2h-6.6l-1.9-2.6
		c0.3-1.4,0.9-5.1-1.9-7.9c-0.4-0.4-1.6-1.6-2.8-1c-1.2,0.7-1.1,2.8-0.9,4.2l-0.4,3.3l-2.5,1.5l-1.9-1v-5.3c0-1.8-1.9-3.8-2.3-4.2
		l-0.4-0.4l-0.5,0.1c-0.1,0-3.3,0.6-5,2.2c-0.9,0.9-1.2,2-0.8,3.1c0.2,0.5,0.4,0.9,0.6,1.1l0.9,3.6l0.5,4.1l-1.3,3.5
		c-0.3,0.3-1.6,1.5-4.5,1.5c-2.1,0-2.6,0-2.8,0.5c-1.7,0.3-2.4,0.8-2.6,1.5c0,0.1,0,0.2-0.1,0.3l-1.5,2.9l0.6,4l2.6,4.1l2.2,2.7
		l3.9,1.7l4.7-0.5l3.1,2.7l-1,3.5l-2.9-0.4l-4.4-2.2l-2.7,2.2l-5.6,0.5l-5.4,2l3.2,4.5l2.7,2.7l-0.3,1.8c-1.3,0.3-4.2,0.8-6,0.8
		c-1.9,0-3.1,0.9-4,1.7c-0.5,0.4-0.9,0.7-1.2,0.8c-0.8,0.3-2.6-0.1-3.7-0.5l-4.3-2.6l0.4-4.5l2.5-3.5l-0.7-4.6l-4-0.6l-5.3-3.1
		c-0.1-1.4-0.3-4.2,0-5.5c0.3-1.1,2-1.6,2.6-1.7l0.6-0.1l2-5.9l-4.8-2l-6.9,4.4l-2.5-1.1l-0.7-2.5l3.6-4.7l-5.7-1.4l-4.3,1.9l-2.3-1
		l0.7-3.2l4.4-3.1l6.9-1.5l5.9-3.7l1.6-5.3c0.1-0.4,1-4.1,1-5.7c0-1.5,0-4.6-1-8.1c-1.1-3.8-4.2-5.9-4.3-6l-0.3-0.2l-4,0.7l-1.1,4
		l-1.3,3.5l-4.8,1.3l-8.1,0.5l-2.4,2.4l-1.5,6.1l-1.6,3.1l-3.2-0.7l-1.7-3.5l-1.9-4.2V809l-6-1.1l-3.1-2.2l-4.1-6v-9.4l1.9-7
		l7.3-7.8l5.3-6.8l4.2-2.8l4-1.3c1,0.2,4.3,1,5.5,1.4c0.6,0.2,1.7,0.8,2.8,1.4c1.2,0.7,2.3,1.3,3.1,1.5c0.9,0.3,2,1.4,2.5,2.1
		l0.3,0.4h3.9l2.5-3h3.9l2.3,3.2l5.5,2.5l1.8,1.8l3,1.8l4.7-0.8l-2.6-4.6l-2.4-7.3c-0.5-1.6-4.1-3.9-5.5-4.8l-2.3-6l-0.9-6.6
		c0.1-0.5,0.6-1.9,1.3-3c0.5-0.8,2.8-2,4.4-2.5l5.1-0.9l6.4,1.5l6-1.6l1.8-3l0.5-4.5c0.3-0.6,1.6-2.9,3.2-4.5
		c1.7-1.7,4.4-2.2,4.4-2.2l1.6-0.5c1.6-0.5,2.2-1.1,2.4-1.2l0.3-0.3v-5l-1.5-3.6l-1.4-5l1.2-3.3l4-2.7l3.1-1l4.5,0.6l3.3,1.8
		l3.8,4.7l-2,5.9c-1.3,0.6-5.1,2.2-6.2,2.8c-1.6,0.8-2.5,2.8-2.5,4.2c0,0.7-0.4,3.7-0.6,5.4l-0.1,0.4l2.9,3.6l5.6,5l3.8,4.5l2.1,3.6
		l-0.3,4l-2.2,0.9l-1.1,4.6l0,0.2c0,0.2,0.3,4,0.7,5.4c0.3,1.1,0,5.2-0.3,6c-0.3,1-0.2,3.8-0.1,5.2l-2.7,2.7l-3,3.6l-1.5,3.4
		l4.9,2.7l2.4-1.6l3.3-2l2.5-2.1l4.2,0.3l2.5,1.7c0.7,1.4,1.4,2.9,1.4,3.2C666.9,786,666.6,788.5,666.3,789.3z"/>
	<path d="M524.2,825.8l-5.3-2.1h-6.6l-1.9,2.6l-3.1,2.8l-3.3,1.7l-2.7-1.6l-4.9-4.2l-0.2-0.1c-1.2-0.6-4.3-2.1-5.4-2.1
		c-0.8,0-7.6,0.3-8.8,0.7c-1.1,0.4-5.1,3.5-5.6,4.9c-0.4,1.1,0.5,4.2,1,5.9l0.2,0.7l5.7,0.4h4.7l6.5,2.5l1.2,1.2v1.9l-1.3,2v4.1
		l4,2.9l0.1,0.1c0.7,0.4,1.9,1.1,2.2,1.6c0.2,0.4,0.6,0.8,1,1.2c0.7,0.8,1.7,2,1.8,2.7c0.4,1.5,2.4,3.9,2.8,4.4l3.2,2.8l0.2,0.1
		c0,0,2,0.7,4.3,1.3c1.1,0.3,2.1,0.4,3.1,0.4c1.4,0,2.6-0.2,3.3-0.4c1.6-0.4,4.5-2.9,5-4.3c0.3-1,1-3.2,1-3.3l0.1-0.2l0-0.2
		c-0.2-1.4-0.6-3.8-0.6-4.4c0-0.8-0.9-2.2-2.7-4.3l1.6-0.9h4.3l0.3-0.6c0.3-0.7,1.4-3.2,1.4-4.3V836l-2.8-7.7L524.2,825.8z
		 M528.9,841.4c0,0.4-0.5,1.7-1,2.9h-3.5l-4.3,2.4l0.8,0.9c1.4,1.5,2.9,3.5,3,3.9c0,0.9,0.5,3.7,0.6,4.5c-0.2,0.6-0.6,2.2-0.9,3
		c-0.2,0.6-2.5,2.7-3.6,3c-0.9,0.2-3.1,0.7-5.4,0c-1.8-0.5-3.5-1.1-4-1.2l-2.7-2.4c-0.9-1-2.2-2.7-2.4-3.5c-0.3-1.1-1.3-2.4-2.2-3.5
		c-0.3-0.4-0.7-0.8-0.8-1.1c-0.7-1.1-2.5-2-2.9-2.3l-3.1-2.3v-2.5l1.3-2v-3.3l-2.1-2.1l-7.3-2.8l-5,0l-4.2-0.3
		c-0.5-1.7-0.9-3.5-0.8-4c0.3-0.7,3.6-3.4,4.3-3.6c0.8-0.3,6.9-0.6,8.2-0.6c0.5,0,2.6,0.9,4.4,1.8l4.8,4.2l3.9,2.4l4.4-2.2l3.5-3.1
		l1.5-2h5.2l4.7,1.9l3.2,2.1l2.4,6.7V841.4z"/>
	<path d="M460.7,837.4l-4-2.3l-2.7-2.7l-2.6-1l-1.4-1.7l-2.4-4.1l-5.2-2.4l-4.4-1.4l-4-0.7c-0.4-0.1-2.5-0.6-5.1,0
		c-0.5,0.1-1.1,0.3-1.6,0.4c-2.1,0.5-3.8,0.9-4.8,1.9c-0.2,0.2-0.5,0.4-0.7,0.6c-0.8,0.7-1.9,1.6-2.5,3.4c-0.9,2.7-1,4.6-0.2,5.8
		c0.8,1.1,3.1,2,4,2.3c0.6,0.4,1.3,1,1.4,1.4c0.1,0.2,0.1,0.5,0.2,0.8c0.2,0.9,0.4,2,1.4,2.9c1.1,1.1,3.5,1.8,3.7,1.9l0.3,0.1
		l3.9-1.1l0.2-0.1c0.6-0.3,2.5-1.4,2.5-2.9c0-0.1,0-0.3,0-0.4c0-1.1,0-1.8,1.1-2.3l1.8-0.9h1c-0.1,0.7-0.3,1.3-0.5,1.4
		c-0.1,0.1-0.3,0.2-0.4,0.3c-0.8,0.5-1.3,0.9-1.7,2.3c-0.1,0.2-0.1,0.5-0.2,0.7c-0.4,1.4-0.8,3-0.4,4.1l0.3,1l0.1,0.2
		c0.2,0.4,2.1,3.5,3.9,4.6c1,0.6,1.4,0.8,1.8,1c0.3,0.1,0.7,0.3,1.5,0.7c1.7,0.9,3.6,3.3,3.6,3.3l0.2,0.3l4.6,1.1l3.2-1.2l0.2-0.2
		c0.5-0.8,1.8-2.7,1.8-3.9v-0.2l3-0.8l2.9-2.1l-0.8-5.4L460.7,837.4z M460.9,847.7l-4.2,1.1v1.7c0,0.3-0.6,1.5-1.3,2.5l-2,0.8
		l-3.3-0.8c-0.6-0.7-2.3-2.7-4.1-3.6c-0.8-0.4-1.3-0.6-1.6-0.8c-0.4-0.2-0.7-0.3-1.6-0.9c-1.1-0.7-2.6-2.9-3.2-3.8l-0.3-0.9
		c-0.2-0.5,0.2-2,0.5-3c0.1-0.3,0.1-0.5,0.2-0.8c0.2-0.7,0.2-0.7,0.8-1.1c0.1-0.1,0.3-0.2,0.4-0.3c1.3-0.9,1.4-3.4,1.4-4.1v-1h-3.5
		l-2.2,1.1c-2.3,1.2-2.2,3.1-2.2,4.2c0,0.1,0,0.2,0,0.3c-0.1,0.2-0.7,0.8-1.3,1.1l-3.2,0.9c-0.8-0.3-2.1-0.8-2.6-1.3
		c-0.5-0.5-0.7-1.2-0.8-1.9c-0.1-0.3-0.2-0.7-0.3-1c-0.4-1.3-2.1-2.3-2.4-2.5l-0.2-0.1c-1.2-0.4-2.8-1.2-3.1-1.6
		c-0.3-0.4-0.3-1.7,0.4-4c0.4-1.2,1.1-1.8,1.9-2.5c0.3-0.2,0.6-0.5,0.8-0.7c0.6-0.6,2.2-0.9,3.8-1.3c0.5-0.1,1-0.2,1.6-0.4
		c2.3-0.6,4,0,4,0l4,0.7l4.1,1.3l4.6,2.1l2.1,3.7l1.9,2.3l2.7,1l2.5,2.5l3.9,2.3l2.7,3.9l0.5,3.8L460.9,847.7z"/>
</g>
<g>
	<path d="M275.9,133.4c4.4,0.2,8.5,0.1,12.4-0.4c3.8-0.5,7.1-1.4,9.9-2.8c2.8-1.3,4.9-3.1,6.5-5.4c1.6-2.3,2.4-5.1,2.4-8.3v-1.6
		c0-1.8-0.9-2.6-2.8-2.6h-27.1c-1.8,0-3.3-0.3-4.5-0.8c-1.2-0.5-2.3-1.2-3.1-2.1c-0.8-0.9-1.4-1.9-1.7-3c-0.4-1.1-0.5-2.3-0.5-3.5
		s0.2-2.4,0.5-3.5c0.4-1.1,0.9-2.1,1.7-3c0.8-0.9,1.8-1.6,3.1-2.1c1.2-0.5,2.7-0.8,4.5-0.8h36c4.8,0,8.4,0.7,10.9,2.2
		c2.5,1.4,4.2,3.6,5,6.5c0.3-0.1,0.8-0.1,1.4-0.1h17v-0.4c0-3.8,1.2-6.7,3.5-8.7c2.4-2,5.1-2.9,8.2-2.9c1.5,0,3,0.3,4.4,0.8
		c1.4,0.5,2.7,1.3,3.8,2.2c1.1,1,2,2.2,2.7,3.6c0.7,1.4,1,3.1,1,5v52.1h-23.8v-10h-17c-4.5,0-7.2-1.7-8.3-5.2
		c-5,5.8-11.7,9.8-20.1,12c-8.4,2.2-17.7,2.9-27.7,1.9c-2.7-0.2-5-1.3-6.8-3.3c-1.8-2-2.6-4.5-2.4-7.7c0.2-2.8,1.3-4.9,3.3-6.3
		C270.6,133.8,273,133.2,275.9,133.4z M294.3,202.7c-4.2,0-7.8-0.6-10.9-1.7c-3.1-1.1-5.6-2.7-7.7-4.7c-2-2-3.6-4.4-4.6-7.1
		c-1-2.7-1.5-5.7-1.5-9c0-3.2,0.5-6.2,1.5-8.9c1-2.8,2.5-5.2,4.6-7.2c2-2,4.6-3.6,7.7-4.8c3.1-1.2,6.7-1.7,10.9-1.7H348
		c4.1,0,7.7,0.6,10.7,1.7c3.1,1.1,5.6,2.7,7.7,4.7s3.6,4.4,4.6,7.2c1,2.8,1.6,5.8,1.6,9.1c0,3.3-0.5,6.3-1.6,9.1
		c-1,2.8-2.6,5.1-4.6,7.1c-2,2-4.6,3.5-7.7,4.6c-3.1,1.1-6.7,1.6-10.7,1.6H294.3z M341.7,185.9c2.6,0,4.4-0.6,5.3-1.8
		c0.9-1.2,1.3-2.5,1.3-3.8c0-1.4-0.4-2.6-1.3-3.7c-0.9-1.1-2.6-1.7-5.3-1.7h-41c-2.6,0-4.4,0.6-5.3,1.7c-0.9,1.1-1.3,2.4-1.3,3.7
		c0,1.4,0.4,2.6,1.3,3.8c0.9,1.2,2.6,1.8,5.3,1.8H341.7z M330,118.7c-0.2,3.2-0.8,6-1.6,8.5c0.4,0,0.8,0,1.1-0.1
		c0.3,0,0.7-0.1,1.1-0.1h17v-8.4H330z"/>
	<path d="M388.4,133.4c6.2-1.8,10.9-5.1,13.9-9.9c3-4.8,4.6-11.6,4.6-20.3v-0.7c0-1.9,0.3-3.6,1-5c0.7-1.4,1.6-2.6,2.8-3.5
		c1.2-0.9,2.5-1.6,4-2c1.5-0.4,3-0.7,4.6-0.7c3.1,0.1,5.8,1.1,8.1,2.9c2.3,1.9,3.4,4.6,3.4,8.2v0.7c0,1.9-0.1,3.8-0.2,5.5
		c-0.1,1.8-0.3,3.5-0.7,5.2c4.2,0.6,8,1.7,11.4,3.4c3.4,1.7,6.3,4,8.7,7c2.4,3,4.2,6.7,5.4,11c1.2,4.3,1.7,9.4,1.5,15.2h-23.2
		c0.4-5.2-0.2-9.3-1.9-12.4c-1.7-3.1-4.3-5-7.9-5.8c-3.4,6.2-7.7,10.9-12.8,14.3c-5.1,3.4-10.5,5.4-16.2,6.1c-3.1,0.3-5.8-0.3-8-1.7
		c-2.2-1.5-3.6-3.3-4.1-5.3c-0.8-2.7-0.7-5.3,0.4-7.6C384.2,135.5,386,134,388.4,133.4z M389.7,179.6c0-3.2,0.5-6.2,1.6-9.1
		c1-2.9,2.6-5.4,4.6-7.5c2-2.1,4.6-3.8,7.7-5c3.1-1.2,6.8-1.9,10.9-1.9h50.8c4.1,0,7.7,0.6,10.8,1.8s5.7,2.9,7.8,5
		c2.1,2.1,3.6,4.6,4.7,7.5c1,2.9,1.6,6,1.6,9.2c0,3.3-0.5,6.4-1.6,9.2c-1,2.9-2.6,5.4-4.7,7.5c-2.1,2.1-4.7,3.8-7.8,5
		c-3.1,1.2-6.7,1.8-10.8,1.8h-50.8c-4.2,0-7.8-0.6-10.9-1.9c-3.1-1.2-5.7-2.9-7.7-5c-2-2.1-3.6-4.6-4.6-7.4
		C390.2,185.9,389.7,182.8,389.7,179.6z M414,179.6c0,1.5,0.5,3,1.4,4.5c1,1.5,2.8,2.2,5.4,2.2h38c2.6,0,4.4-0.7,5.4-2.2
		c1-1.5,1.4-3,1.4-4.5c0-1.5-0.5-3-1.4-4.5c-1-1.5-2.8-2.2-5.4-2.2h-38c-2.6,0-4.4,0.7-5.4,2.2C414.5,176.5,414,178,414,179.6z
		 M464.4,101.9c0-3.9,1.2-6.9,3.5-8.9c2.4-2,5.1-3,8.3-3c3.1,0,5.9,1,8.3,3.1s3.6,5,3.6,8.8v9.8h3.7c1.8,0,3.4,0.3,4.6,1
		c1.2,0.6,2.2,1.4,2.9,2.4c0.7,1,1.2,2.1,1.6,3.3c0.3,1.2,0.5,2.5,0.5,3.7c0,1.2-0.2,2.4-0.5,3.7c-0.3,1.2-0.8,2.4-1.6,3.4
		c-0.7,1-1.7,1.8-2.9,2.4c-1.2,0.6-2.7,0.9-4.5,0.9h-3.7v20.8h-23.8V101.9z"/>
	<path d="M523,147.5c-5.8,0-10-1.2-12.8-3.5c-2.8-2.4-4.2-6.5-4.2-12.3v-27c0-4.1,1.1-7,3.4-8.9c2.3-1.8,5.1-2.8,8.5-2.8
		c3.4,0,6.2,0.9,8.4,2.8c2.2,1.8,3.4,4.8,3.4,8.9v20.9c0,1.4,0.2,2.2,0.6,2.6c0.4,0.4,1.3,0.5,2.6,0.5h34.4c3.7,0,6.3,0.9,7.7,2.8
		c1.5,1.9,2.2,4.1,2.2,6.7c0,2.6-0.8,4.8-2.3,6.6c-1.5,1.8-4.1,2.8-7.7,2.8H523z M527.6,202.7c-3.6,0-6.5-0.3-8.8-0.9
		c-2.2-0.6-4-1.6-5.2-3c-1.2-1.4-2.1-3.3-2.5-5.6c-0.4-2.3-0.7-5.2-0.7-8.8v-11c0-3.4,0.2-6.3,0.7-8.7c0.4-2.4,1.3-4.2,2.5-5.6
		c1.2-1.4,3-2.4,5.2-3c2.2-0.6,5.2-0.9,8.8-0.9h64.2c3.6,0,6.5,0.3,8.8,0.9c2.2,0.6,4,1.6,5.2,3c1.2,1.4,2.1,3.3,2.5,5.6
		c0.4,2.4,0.7,5.3,0.7,8.7v29.3H527.6z M534,182.6c0,1.4,0.2,2.3,0.5,2.7c0.4,0.4,1.1,0.5,2.3,0.5h48.4v-10.7c0-1.4-0.2-2.2-0.6-2.6
		c-0.4-0.4-1.2-0.5-2.4-0.5h-45.4c-1.2,0-2,0.2-2.3,0.5c-0.4,0.4-0.5,1.2-0.5,2.6V182.6z M584.4,101.9c0-3.9,1.2-6.9,3.5-8.9
		c2.4-2,5.1-3,8.3-3c3.1,0,5.9,1,8.3,3.1s3.6,5,3.6,8.8v8.3h3.7c1.8,0,3.4,0.3,4.6,1c1.2,0.6,2.2,1.4,2.9,2.4c0.7,1,1.2,2.1,1.6,3.3
		c0.3,1.2,0.5,2.5,0.5,3.7s-0.2,2.4-0.5,3.7c-0.3,1.2-0.8,2.4-1.6,3.4c-0.7,1-1.7,1.8-2.9,2.4c-1.2,0.6-2.7,0.9-4.5,0.9h-3.7v20
		h-23.8V101.9z"/>
	<path d="M717.3,93.9c1.7,0,3.1,0.3,4.3,1c1.2,0.6,2.2,1.4,2.9,2.4c0.7,1,1.2,2,1.6,3.2c0.3,1.2,0.5,2.4,0.5,3.5
		c0,1.1-0.2,2.3-0.5,3.5c-0.3,1.2-0.9,2.3-1.6,3.2c-0.8,1-1.7,1.7-2.9,2.3c-1.2,0.6-2.6,0.9-4.3,0.9h-60.7c-1.3,0-2.2,0.2-2.6,0.7
		c-0.5,0.4-0.7,1.3-0.7,2.6v17.4c0,1.3,0.2,2.2,0.7,2.6c0.5,0.5,1.4,0.7,2.6,0.7h62.6c1.7,0,3.1,0.3,4.3,1c1.2,0.6,2.2,1.4,2.9,2.4
		c0.7,1,1.3,2,1.6,3.2c0.4,1.2,0.5,2.3,0.5,3.4c0,1.1-0.2,2.3-0.5,3.5s-0.9,2.3-1.7,3.2c-0.8,1-1.7,1.7-2.9,2.3
		c-1.2,0.6-2.6,0.9-4.3,0.9h-28.4v23h33.8c1.8,0,3.4,0.3,4.7,0.8c1.3,0.6,2.3,1.3,3.1,2.2c0.8,0.9,1.4,2,1.7,3.1
		c0.4,1.2,0.5,2.3,0.5,3.5c0,2.5-0.8,4.7-2.3,6.7c-1.6,2-4.1,3-7.7,3h-92.2c-3.6,0-6.2-1-7.7-3c-1.6-2-2.3-4.2-2.3-6.7
		c0-1.2,0.2-2.4,0.5-3.5c0.4-1.2,0.9-2.2,1.7-3.1c0.8-0.9,1.8-1.7,3.1-2.2c1.3-0.6,2.8-0.8,4.7-0.8h33.8v-23H648
		c-3.6,0-6.6-0.3-9.1-1c-2.5-0.7-4.5-1.8-5.9-3.2c-1.5-1.5-2.6-3.4-3.2-5.8c-0.7-2.4-1-5.4-1-8.9v-26c0-3.4,0.3-6.4,1-8.8
		c0.7-2.4,1.8-4.4,3.2-5.9c1.5-1.5,3.5-2.6,5.9-3.3c2.5-0.7,5.5-1,9.1-1H717.3z"/>
</g>
<path class="st0" d="M265.3,261.6L260,281l-10,7l-11,5l-15.3,6.5l-8.1-2.4l-3.7,2.4l-7.8,14.7l-4,8.8l-9.4,2.6l-4.4,10l2.1,2.1
	l8.9,7.4l5.1,8.8h7.1l7.4,0.8l4.8,5.4l12.8,10.9l14.3,16h9.9l4.5,0.4l6.5-2.1l1.4,6.1l-1,15.7l-1.5,9.7l-11.5,9.6l8.3,5.9l5.7,10.3
	l2.7,10.1l4.5,6.4l6.1-2l6.5,3.3l11.5,4.7l3.1-0.3l4-12.1l8.8-15c0,0,8.4-16.6,7.5-19.6c-0.9-3,0.5-13,0.5-13l9.8-8.2l8.3-8.2
	l3.3-7.1l4.8,2.7l9.9-5.2l-5.1-11.9l-5.1-16.1l-6.7-16l-2-5.9L345,319l9.9-6.8l7.8-7.4l-5.2-10.3l-10.1,1.3l-12.9,3.2l-9.5-3
	l-4.5-2.4l-2.1-3.9l-7.8-2.4l-7.8-2.6l-7.6,2.5l-3.7-9.1l-0.4-4.7l-5.8-5.8l-12.9,1.3L265.3,261.6z"/>
</svg>
