<?xml version="1.0" encoding="utf-8"?>
<!-- Generator: Adobe Illustrator 25.2.3, SVG Export Plug-In . SVG Version: 6.00 Build 0)  -->
<svg version="1.1" id="Layer_1" xmlns="http://www.w3.org/2000/svg" xmlns:xlink="http://www.w3.org/1999/xlink" x="0px" y="0px"
	 viewBox="0 0 1000 1000" style="enable-background:new 0 0 1000 1000;" xml:space="preserve">
<style type="text/css">
	.st0{fill:#88B2E5;stroke:#0060BF;stroke-miterlimit:10;}
	.st1{font-family:'HancomGothicBold';}
	.st2{font-size:35px;}
</style>
<g>
	<path class="st0" d="M984,401.5l-6.9-6.9l-1.7-8.3l-2.1-6.3h-8.9l-14.5,0.9l-10-5l-6.6-5.8l-6-12l-5.4-9.9l-9-5.4l-11.5-5.3
		l-7.7-3.4l-6.7-3.7l1.1-2.2l2.8-3.8l-1.1-9.9l-8.4,2.1l-8.6,3.4H862l-6.4-1.6l-0.3-0.4l-3.9-4.7l-6.2-3.5l-4.7-3.9v-3l5.4-3.1
		l8.1-4.5l8.2-10.9l2.8-10.3l-4.7-11.4l-8.7-3.9l-7.3,1.8l-5.6,0.8l-10.1-5.9l-7.8-4.4l-10.8-4.5h-10.7l-8,1.7h-8.9l-7.6,4.7
		l-8,13.4l-6.2,12.4l-5.4-4.6l-9.7,2.9l-3.3,3.3H737l-4.7,4.7l-5.9,8.4l-8.9,1.6h-11.8l-7.7-3.4l-10.8-3.6l-6.1,1l-0.3,0.5
		c0,0-0.4,0.5-0.9,0.6c-0.5,0-1-0.4-1.4-0.8c-2.5-2.5-6.8-7.7-6.9-7.8l-0.1-0.2l-9.3-5.6l-16.2,3.6l-11.5,5.2l-11.9,2.5h-2.5h-7.3
		c-1.3-1.3-5.5-5.3-8.5-7.6c-2.9-2.2-8.3-6.9-9.9-8.2v-5l-2.9-4.9l-5.9-4.2l-0.7-3.7v-7.8l-0.9-9.1l-5.5-7.3l-5.5-5.5l-6.2-3.1
		l-4.7,3.5v6.8l0.9,7.1l2.4,6.5l-2.8,2.8l-5.6,3.2h-5.4l-4.5-2.7l-5.7,0.9l-13.1,1.7l-5.6,1.8l-6.9,3v0.6c-0.2,0.3-0.8,1.1-3,2.7
		c-1.7,1.3-3.1,1.6-4.6,1.9c-1.3,0.3-2.6,0.6-4,1.5c-2.5,1.7-7.6,4.2-7.7,4.3l-0.5,0.3l-1.5,6.2l-3.7-1.2L485,268l-2-3.7l0,0
		l-0.2-0.3l-1.4-2.5l0,0l-0.6-1.2l-8.1-11.7l-8.3-2.8l-6-1.7l-8.9-4.4h-4.7l-4.5,0.9h-6.2l-4.6,1.8l-4.9,3.2l-4.1-1.4l-2.7-4.5
		l-6.6-1.1l-6,7v3.3l-5.5-0.7l-7.6-0.8l-6.5-3.2l-2.6-3.4l-8.4-5.6h-5.8l0.5-2.8l6.4-1.6l0.2-0.2c0,0,4.3-3.5,6.9-5.2
		c2.8-1.9,5.4-6.9,5.7-7.5l0.1-0.3v-15.9l-1.8-14.1l-2.8-8.4l-7.2-7.2l-11.2-8.6l-5.3-13.1l-6.5-3.7l-10.9-2.6l-1.5-6.8l0.9-7.5
		l-9.4-7.5l-9-6l-1.5-1l-7.4-4.6l-14.4,1.8l-17.6,4.4l-4.4,2.6h-6.9l-6.5-7.3l-5.5-10l-7.9-1l-4.6,1.6l-4.2-5h-9l-3.6,3.6l-2.6,0.5
		l-0.7-5.5l-0.9-10.9l-7.6-7.6l-9.3-0.9h-6.1l-3-5.9v-6.9L195,63l-11.3,0.9l-4.7,7.5l-1.9,7.3l-0.9,10.6l-0.6,2.4h-2.3l-7.4-1.9
		l-5.2,4.2l-2.5,8.4l-6.9,1.5h-5.5l-8.2,6.4l-4.9,4.1h-4.9l-4.7-6.5l-7.4,4.2l-7.3,11l-0.9,8.3l0.8,7.3l-21.8,18.5l-2.2,0.5l0,0
		l-2.2,0.5l-0.4,0.1l0,0l-6.5,1.5l-10.3,7.5v7l3.4,8.5l-2.5,6.7v5.8l3.5,7.8v5l-4.7,2.3L58,217v8.7l2.4,4.8l-4,6.3l-3.5,7.9
		l-4.5,6.3l-0.9,10.2l1.8,6.1v7.6l-5.8,2.5l-3.7,11.2v4.1c-0.7,1-2.7,3.6-4.1,5.8c-1.7,2.6-5.9,9.3-6.1,9.7l-3.9,6.7l5.7,10.5l8.8,7
		l4.7,5.6h8.4l5.6,0.8l2.8,2.8v7l4.9,4l4.6,3.1v5.9l-4.9,7.4l-4.7,4.6v7l3.7,6.4l3.8,4.8l5.3,2.6l3,3l1.7,12.3l-3.3,11.6L65,430.9
		l-4.4,7.9l-5,6.7l-8.5,5.1l-6,4l2,11.2l6.9,2.6l0.7,5.2c0,0.2,0,1-0.3,1.9l0,0c-0.2,0.8-0.6,1.7-1.4,2c-2.5,0.8-7.1,3.8-8,4.4
		l-7.6,2.5l-6.4,0.9l-6.3,5.2l3,7l7.1,10.8l7,8.7l10.6,8l7.5,9.1l0.8,9.2l3.5,12.2v9.8l5.4,7.2l4.4,8l7.9,6.1l6,9.4l7.2,7.3l4.9,4.1
		l3.2,10.6l-1.7,6l1,7.7l5.3,5.3l2.5,10.1l2,5l12.3,5.3l6,8.6l7.2,4.5l4.2,1.7l6.5,8.1v5.4l4,3l6.4,3.2v7.6l-1.6,4.1l-4.2,9.4
		l-4.8,4.7l3,9.8l5.2,4.3l1.7,7l6.9,5.9l7.6-1l17.4-3.5l7.6-2.5l13.9,3.5l11.1-3.7l7.2-7.2l5.4-9l2.7-7.2l1.7-11.2l1.3-1.3l0,0
		l1.4-1.4l5.3,0.7l0.7,5.9l5,11.2l6.8-3.4l4.3-6c1-0.3,4-0.8,7,1.7c4.5,3.6,9.8,5.4,10,5.5l0.2,0.1h6.9l7.6-8.6l1.9-11.2l-3.7-7.3
		l-7.6-10.2l1.3-5.3h5l1.9,4.7l8.8-3.3l3.6-12.6l5.7-7.3l4.9-1.2v1.1l-4.9,3.3l-3.8,7.6v9c0,2.5,2.6,9.3,3.4,11.3
		c-0.5,1.2-1.7,4.4-2.4,6.5l-0.9,2.6l-1,8.5l5.2,10.4l-1.5,6.2l-4.5,5.4l0.9,12.2l6.4,9.1c0.4,0.5,3.8,4.7,6.7,5.7
		c2.5,0.8,11.8,3.2,13,3.5l11,5.1l10.3,9.4l0.2,0.2c0,0,0.4,0.2,0.9,0.5l0,0l0.6,0.4l0,0l2.1,1.2l0,0c4.1,2.2,6.9,3.3,8.3,3.3
		c2.6,0,7.3-3.7,9.1-5.1c2,0.4,8.4,1.7,10.5,2.5c2.8,0.9,11.9-0.5,13.7-0.8l0.4-0.1l6-5v-19.2l5.3-5.3h21.7l4.2,2.8l-0.9,9.4
		l7.6,7.7l6.8,2l11.5-3.8l3.8-10.4v-6.5l5.1-3.4l1-4.8l0.9-2.6l4.5,6.5l2.3,3.9l-0.3,0.2l4.2,3.1l4,6.3l-0.7,5.1l-2.7,2h-12.1
		l-6.8,3.9l-4.9,9.9l7.9,8.8l9.3,1.9l10.3-0.9l5.8,2.5l8.7,2l5.1-4.2l2.5,1.2l4.4,5.1l-4.8,7.2l-1.9,8.5l3.1,6.2l9.6,1.9l16-3.5
		l7.6-2.8l5.5-11l4.2-11.1l7-7l2-7.9l-4.2-6.3h-10l-7.1,8.8l-4.6,1c0.6-1.5,1-3.4,0.5-5.4c-0.8-3.2-2.3-13.8-2.6-15.4l1.7-12.7
		l6.1-13.1l0.9-8.2l-0.8-6.4l-0.2-1.5l0,0v-0.3l-0.3,0.2l-11.7-5.4l-3.9-2l1.5-2.5h12c1.2,0.5,6.6,2.6,10.7,2.6
		c5.4,0,12.4-4.5,13.8-5.5c2.7-1.8,9.2-10.6,9.9-11.7l0.3-0.4l-1-10.5l-6.3-8.1l-9-6.6l2.1-4.8l5.8-4.8l-2.5-5l-0.6-1.1l-6.3-7.2
		l-7.2-6.4l0.9-1.7l12.6,1.7l7.8-4.3l3.9,0.8h0.3c0,0,5.1,0,8.4,0.8c3.4,0.9,9-2.2,10.9-3.3l2.9,1.2v6.3l8.9,2h4.6l2,4.8l-2.8,6.6
		l6.1,4.1l4.4,1.5l-1.6,7.2l3.4,5.7l15.9-5.6l8.1-3.6l5.8-5.8v-5l-6-2l-2.6-1.6l4.4-3.6l-1.1-6.4l-8.1-8.1l-5.2-6.1l-5.5-3.7
		L623,613v-6l1.7-5.2v-7.5l-4.4-9.7l-4.3-12v-8.7l8-6.4l1.8-0.4l-1,3c-0.2,0.5-1.9,4.9-0.9,7.9c0.8,2.5,2.6,10.2,2.6,10.3l4.4,12.3
		c0.3,1,2.2,6.1,5.6,6.1c0.9,0,2-0.2,3.1-0.4c2.1-0.3,4.4-0.8,5.8,0.2c2.1,1.4,4.8,3.4,5.7,4.1c0.4,1.2,1.9,4,5.9,5.6
		c4.1,1.7,8.3,5,8.4,5l0.2,0.2l5.4,1.1l4.4-4.4v-5.4l2.6-4.6c0.8,0.5,1.7,1.3,2.2,2.2c0,0.5,0.2,0.9,0.3,1.2l1,2.2
		c2.1,4.8,1.8,7.8,1.7,8.6l-4.2,6.8l-2.1,8l4.5,5.6l9.4-2.8h2.9l7.8,4.3l6.8,0.9l5.2,4.3l8.4,1.9l9.5-1l5.5-7.3l1.2-1.2v3.4l5.1,6.1
		h11c1,0.1,6.5,0.8,9.2-0.1c3.3-1.1,3.5-7.8,3.5-9.1l-1.6-8.9l4.1-2.5l1-9.3l-8.4-5.6l-10.2-9.4l-3.8-6.1l0.8-1.4l1-1.7l5.2-0.7
		l5.8,1.7l8.7,1l7.8-7.8l4.8,0.7l2.7,5.3h7.7l3.1-6.2v-13.6l-4.3-10.3l0.7-4.3l7-4.7h4.8l10.5-2.6l5.8,1l4.6-6.4l5.3-1.5l14.8,2.6
		l14.8-4.6l6.3-11.8l2.7-13.3l1.5-5.4l3-0.8l2.9-0.7l5.1,0.9l7.8-1l3.8-6.7l2.5-4.9l2.9-2.2h5.5l5.8,1l8.1-8.1l3.1-0.8l4.6-2.7
		c1.3-0.5,3.4-2,3.4-4.7v-2.4l3.2-8l3.8-1.9v-5.7l4.3-8.7v-5.3l1.3-3.3h2l3.1,3.1l6.8,4l13.2-2.8l6.4-9.1l2.8-8.2l0.9-6.8l5-5.8
		l4.9-7.8L984,401.5z M621.1,292l0.6-1.7h0.8l12.5-2.6l11.5-5.3l15-3.3l8.1,4.8c0.8,0.9,4.5,5.4,6.9,7.8c1.1,1.1,2.3,1.7,3.6,1.5
		c1.2-0.1,2-0.8,2.4-1.2l4.4-0.7l10,3.3l8.1,3.6h12.5l10.3-1.9l6.3-9.1l3.9-3.9h5.2l3.6-3.6l7.7-2.3l6.8,5.9l7.7-15.4l7.7-12.8
		l6.4-4h8.3l8-1.7h10l10.1,4.2l7.8,4.3l10.8,6.3l6.6-0.9l6.7-1.7l6.9,3.1l4,9.5l-2.4,8.9l-7.5,10l-7.6,4.2l-6.8,3.9v5.8l5.7,4.8
		l6.1,3.5l3.3,3.9l-1.2,4.3l-4.8,4.2c-0.2,0.1-0.9,0.6-1.7,1.1c-1.1,0.8-2.6,1.8-3.7,2.9c-1.5,1.5-6.7,4.5-8.7,5.6l-5.4,1.5v8.1
		l5.2,5.2v9.1l-0.6,7.8l-5.3,3.5l-6.2,3.1l-7.2,0.7l-7.2,4.3l-3.7,8.8l4.1,7.5l0.5,4.8l-3.6,2.1c-0.8,0.1-3.9,0.6-5.4,0.6
		c-2.3,0-6.5,2.9-7.3,3.5l-0.5,0.3l-0.1,0.6c-0.2,1.2-0.8,4.8-1.2,6.3c0,0.1-0.1,0.2-0.1,0.4c0,0,0,0.1-0.1,0.1
		c0,0.1-0.1,0.2-0.1,0.4c0,0.1-0.1,0.1-0.1,0.2s-0.1,0.3-0.2,0.4c0,0.1-0.1,0.2-0.1,0.2c-0.1,0.2-0.1,0.4-0.2,0.5
		c0,0.1,0,0.1-0.1,0.2c-0.1,0.3-0.2,0.5-0.3,0.8c0,0.1,0,0.1-0.1,0.2c-0.1,0.2-0.2,0.5-0.3,0.7c0,0.1-0.1,0.2-0.1,0.2
		c-0.1,0.2-0.2,0.5-0.3,0.7c0,0.1-0.1,0.1-0.1,0.2c-0.1,0.3-0.2,0.5-0.3,0.8l0,0c-0.7,1.6-1.3,3.1-1.7,4l-4.3-5.1l-6.5-1.5l-8.5,0.7
		l-4.6,4.6c-1,0.2-3.8,0.6-5.2,0.6c-2.2,0-4.9,1.3-5.2,1.5l-5.5,4.8l-0.1,0.1c-0.2,0.2-5.3,6-6.6,8c-1.2,1.8-2.3,6.6-2.7,8.4
		l-5.8,3.5l-10.7,1.9c-5.3-0.6-11.2-1.7-12.3-2.4c-0.4-0.2-0.8-0.5-1.4-0.8c-2.3-1.1-5.7-2.3-6.6-2.6c-2.6-1.7-9.2-6.1-10.7-7.6
		c-2-2-8.5-5.9-8.7-6.1l-8.3-2.8l-9.7,0.7l-4.2,2.3c-0.1-0.4-0.2-0.7-0.2-1c0-0.1,0-0.2-0.1-0.2c-0.1-0.2-0.1-0.5-0.2-0.7
		c0-0.1,0-0.1-0.1-0.2c-0.1-0.2-0.1-0.5-0.2-0.6c-0.5-1.6-1.1-4.2-1.2-6c0-0.3,0-0.5,0-0.7c0-1.7,0-7,0.6-9.5c0.1-0.3,0.2-0.7,0.2-1
		c0.1-0.7,0.1-1.5,0.1-2.1c0-1.8-0.2-3.4-0.3-3.8c0-0.7-0.2-4.5-2.1-8.9c-1.5-3.4-1.9-4-2.6-5c-0.2-0.3-0.4-0.6-0.7-1
		c-0.8-1.2-1-2.1-1.3-3.2c-0.1-0.5-0.3-1.1-0.5-1.7c-0.7-2.1-4.2-5.7-4.9-6.4l-0.3-0.3l-5.8-0.7h-0.2c0,0-0.1,0-0.3,0
		c-1.2,0.1-5.8,0.6-7.4,0.6c-1.8,0-4.2-0.6-7.3-1.9c-2.5-1-5.2-3.9-5.8-4.7c-0.4-1.1-1.9-6.1-2.5-10c-0.5-3.9-1.1-6.3-1.3-7.1
		c0.2-1.8,0.7-5.9,1.2-7.3c0.2-0.6,0.5-1.3,0.8-2.1c0.9-2.1,1.8-4.5,1.8-6.1v-4.4l-0.3-0.4c0,0-2.6-3.2-3.8-5.1
		c-0.7-1.1-0.7-3.6-0.5-4.8l1.2-5l3.6-4.8l4.7-2.7l1.7-4.1l-2.1-6.3l-1.8-6.8L621.1,292z M481.6,267.3l1.4,2.5l6.3,4.5l6.9,2.4
		l1.9-7.8c1.4-0.7,5.3-2.7,7.4-4.2c1-0.6,2-0.9,3.1-1.1c1.6-0.4,3.5-0.8,5.7-2.4c2.2-1.7,3.3-2.8,3.7-3.5l5.5-2.4l5.1-1.7l13-1.7
		l4.7-0.8l4.2,2.6h6.8l6.4-3.7l4.4-4.3l-2.9-7.6l-0.8-6.7V226l2.3-1.7l4.3,2.1l5,5l5,6.6l0.8,8.2v7.8l1,5.1l6.3,4.5l2.3,3.8v5.5
		l0.5,0.4c0.3,0.2,7,6.2,10.5,8.8c3.4,2.5,8.5,7.7,8.6,7.7l0.4,0.4h7.4l-2.4,7.1l2.1,7.6l1.8,5.4l-1,2.4l-4.4,2.5l-4.2,5.7l-1.4,5.6
		c-0.1,0.5-0.7,4.5,0.9,6.8c1.1,1.6,3,4,3.7,5v3.5c0,1.1-1,3.4-1.7,5.1c-0.4,0.9-0.7,1.7-0.9,2.3c-0.7,2-1.3,7.5-1.4,8.1v0.2
		l0.1,0.2c0,0,0.7,2.6,1.3,7c0.7,4.6,2.6,10.4,2.7,10.7l0.1,0.2l0.2,0.2c0.1,0.2,3.5,4.2,7.1,5.6c3.5,1.4,6.2,2,8.3,2
		c1.8,0,6.8-0.5,7.8-0.6l4.6,0.6c1.5,1.6,3.6,4,3.9,5c0.2,0.5,0.3,1,0.4,1.5c0.3,1.2,0.6,2.5,1.7,4c0.3,0.5,0.6,0.9,0.8,1.2
		c0.6,0.8,0.9,1.2,2.3,4.5c1.8,4.2,1.8,7.9,1.8,8v0.2c0,0.1,0,0.2,0,0.3c0,0.2,0.1,0.5,0.1,0.9c0,0.2,0,0.4,0,0.6c0,0,0,0,0,0.1
		c0.1,1,0.1,2.3,0,3.3c0,0,0,0,0,0.1c0,0.2-0.1,0.5-0.1,0.7c-0.7,2.8-0.7,8.1-0.7,10.1c0,2.2,0.7,5.6,1.4,7.6c0,0,0,0.1,0.1,0.2
		c0,0,0,0,0,0.1s0,0.1,0,0.2v0.1c0,0.1,0,0.1,0.1,0.2v0.1c0,0.1,0,0.2,0.1,0.3c0,0.1,0,0.1,0,0.2s0,0.2,0.1,0.3c0,0.1,0,0.2,0.1,0.2
		s0,0.2,0.1,0.3c0.1,0.3,0.1,0.6,0.2,1l-0.6,0.3l-7.8,0.6c-0.9-0.6-3.6-2.2-5.3-3.6c-0.2-0.2-0.5-0.4-0.6-0.6c-2-2-7.2-5.3-7.4-5.4
		l-10.8-2.9l-6.4,5l-4.9,3.7l-1.3,0.1h-0.1l0,0l-6.5,0.5l-11.3-3.8l-7.8-5.2l-6.2-3.4h-11.3l-4.9,4.9l-6.7,4.3h-11.1l-6.9-2.5
		l-5.8-2.4l0,0l-1.4-0.6l-1.2-7.5l-6.8-7.5l-9.4-6.1l-7.7-3.9l-6.9-7.5l-3-5.9l1-4.2l2.7-1.6l7.9-3.3l9.1-4.9l1.5-12.3l-9-11.8
		l-0.3-0.1c-1.4-0.7-2.9-1.5-4.2-2.4c-4.2-2.4-7.8-5-8.2-5.9c-0.1-0.2-0.1-0.5-0.2-0.7c0-0.1-0.1-0.2-0.2-0.3
		c-0.1-0.1-0.1-0.2-0.2-0.3c-0.1-0.1-0.2-0.2-0.3-0.4V337l-0.7-0.6l-0.2-0.2c0,0,0,0-0.1-0.1l-1.1-0.9l-0.1,0.1
		c-0.6-0.4-1.3-0.7-2-1.1c-1-0.5-2.2-1.1-2.8-1.7c-0.1-0.1-0.1-0.1-0.2-0.2c-0.7-1-1.5-1.6-2.3-2.2c-0.9-0.7-1.9-1.4-2.9-3
		c-0.5-0.9-1.1-1.7-1.7-2.5c-1.5-2.1-2.7-3.7-2.7-6.6c0-2.7,0.2-4.2,0.4-5.4c0.1-0.9,0.2-1.6,0.2-2.5c0-0.8,0.9-2.1,1.6-3.1
		c0.6-1,1.3-2,1.6-3c0.7-2,1.3-8.1,1.4-8.8v-0.3l-2-6.8l-2.5-5.7l1.2-8l1.9-7L481.6,267.3z M602.8,449.8v5.8l0.7,0.4l0,0
		c0,0,0,0,0.1,0.1c0,0,0.1,0.1,0.2,0.1c0.1,0,0.1,0.1,0.2,0.1c0.1,0.1,0.2,0.2,0.3,0.3c0.1,0,0.1,0.1,0.2,0.1
		c0.1,0.1,0.3,0.3,0.4,0.4l0.1,0.1c0.2,0.2,0.3,0.4,0.5,0.6l0.1,0.1c0.2,0.2,0.3,0.5,0.4,0.7c0,0.1,0.1,0.1,0.1,0.2
		c0.1,0.3,0.2,0.6,0.3,0.9c0,0.1,0,0.1,0.1,0.2c0.1,0.4,0.1,0.8,0.1,1.3c0,4.6,0.7,6.2,0.8,6.5l0.1,0.1c1,1.5,2.4,4.1,2.4,5.1
		c0,2.4,1.5,4,1.7,4.2l2.7,2.7l-1.1,3.8l-1.4,4.2l0.7,6.5l0.2,0.3c2.5,3.7,4.5,7.8,4.4,8.6c-0.4,1.1-1.4,2.4-2,3.1l-4.5,0.5
		c-1.7-0.6-7.2-2.3-9.5-2.6c-0.2,0-0.3,0-0.4,0c-2,0-5.9,0.6-6.1,0.7l-7.3,2.6l-7.3,1.2l-7.9-3.3l-7.9,1.6l-0.7,5.6
		c-1.2,0.9-4.1,3.2-5.8,5.9c-2,3.3-3.9,8.5-4,8.8c-0.1,0.2-1.4,4.2-1.4,7s2.5,7.9,2.8,8.4l5.3,6l2.4,6.1c0,2.5-0.2,6.6-0.6,7.8
		c-0.2,0.6-2.2,1.4-4.2,1.7l-7.3,1.3l-4.8,1.4l-0.2,0.2c-0.1,0.1-3.4,2.8-5.5,5.5c-1.5,2.1-2.3,3.8-2.7,4.5l-3.9,2.8h-7.4
		c-1,0-1.3-2.4-1.3-3.2V576l-5-2.9l-3.5-4V560l-0.8-5l-8-1.6l-5,3.6l-7.5,4.4l-5.5,0.8l0,0l-0.1-0.2l-4.8-4.2l-5.6-2.8l-16.7-6.4
		l-8.1-8.8l-4.6-9.2l-7.6-7.6l-3.6-1.1l1-7l4.1-5.2l8.1-1.9l5.1-1.7l-1.7-6.7l-5.2-5.9l-1.7-6.3l2.8-4.5l7.9-5.3l3.6-7.1V465
		l-3.2-8.4l1.1-5.6l3.9-2.8l5.8-0.6l2.1,1.1l3.8,3.1l6.4,5.7l4,7.4l7.1,3.6l10.4,0.7l3.1-7.9l-2.1-6.9l-0.5-4.9l3.4-2l5.6,0.6l8-0.7
		l4.5-7.4v-7.4l1.2-4.7l1.8-1.7l7,2.9l7.4,2.7h12.4l7.5-4.8l4.4-4.4h9.6l5.5,3l7.8,5.2l12.3,4.2l6.7-0.5l-0.1,1.5l-3.1,8.8
		L602.8,449.8z M480.9,604.5L480.9,604.5l-1.1,1.7l-0.5,0.8l-11.9,2.5l-5.5,2.4l-4.7-3c-0.2-0.1-4-2-6-2.7
		c-2.1-0.7-8.9-0.7-10.2-0.7l-12,2.6l-12.5,5.9l-5.9,1.3l-3.6,2.2l-0.1,0.2c0,0-2.5,3.2-6.2,5.6c-1.1,0.7-2,1.3-2.9,1.8
		c-2.4,1.4-4.2,2.5-4.8,4.9c-0.7,2.8,0.5,10.2,0.6,11l0.1,0.3l6,7.3l1.6,4.2l-6.6,6l-4.6,4.6l0,0c-0.3-0.1-0.7-0.3-1-0.4
		c0,0,0,0-0.1,0c-0.4-0.2-0.7-0.3-1.1-0.5l0,0c-0.4-0.2-0.8-0.3-1.1-0.5l0,0c-0.4-0.2-0.7-0.3-1-0.5c0,0-0.1,0-0.1-0.1
		c-0.3-0.2-0.6-0.3-0.9-0.5c0,0-0.1,0-0.1-0.1c-0.3-0.2-0.6-0.3-0.8-0.5c0,0-0.1,0-0.1-0.1c-0.2-0.2-0.5-0.3-0.7-0.5c0,0,0,0-0.1,0
		c-0.2-0.2-0.4-0.3-0.5-0.4c-1.7-1.7-6.1-4.3-7.6-5.2l-0.5-2.1c-0.4-1.6,0.1-4.1,0.5-5.3l3-1.8l2.4-3.2v-12.2l-0.5-0.4
		c-0.1-0.1-3.4-2.7-6.7-4.7c-3.3-2-6.6-3.3-6.7-3.4l-9.2-2.1l-8.8,4.8l-5.7,2.5l-4.7,0.5l-0.8-2.1v-1.7c0-2.2-1.3-5.4-1.4-5.7
		l-0.1-0.2l-4.5-4.5h-0.5c-0.1,0-0.2,0-0.4,0c-2-0.2-6.4-0.7-7.8-1.2c-2-0.7-8.1-1.3-8.8-1.4h-0.4l-5.5,2.8l-5.9,2.6l-4.6,2l-5,3.7
		c-1.2-0.2-4.1-0.8-7.1-1.8c-1-0.3-1.5-0.6-1.7-0.8l0.1-0.1l-1.4-7.1V598l-3-6l-8.6-3.6L258,590h-0.1c0,0,0,0-0.1,0
		c-1,0.2-8.5,1.9-11.4,1.9c-0.4,0-0.8,0-1.1,0c-0.1,0-0.2,0-0.3,0c-0.2,0-0.4,0-0.6,0c-0.1,0-0.2,0-0.2,0c-0.2,0-0.4,0-0.5-0.1h-0.1
		c-0.2,0-0.4,0-0.5-0.1l-3.3-7.3l-5.5-10l-8-2.7l-7.4-7.4l-1.6-4.8l-0.8-14.1h7.4l2.9-7.8l3.1-7.9h20.9l9.5-1.9l4.7-7.5l3.5-9.6
		l5-6.6l11.1-6.8l8.7-9.5l9.7-1.8l4.7-7.5l4-7.1H323l20-2.7l3.6,0.6l10.1-6.1l7.2-3l6.4,2.9l8,9.9c0.2,1.3,0.7,5.3,1.3,7.1
		c0.1,0.4,0.4,1.2,0.8,2.1c0.9,2.6,3.1,8.6,3.1,9.9c0,1.4,1.2,3.9,3,7.5c0.7,1.4,1.4,2.8,1.6,3.4c0.7,2.1,6.4,8.4,8.1,10.3l5.7,3.6
		l5.9,1.3l5.7,3.2c0.1,0.1,3.6,2.2,6.6,2.2h14.8l3.4,1l0,0l2.6,0.8l6.8,6.8l4.5,9l8.9,9.7l17.1,6.6l5.1,2.5l4.2,3.6l0.3,0.9
		c0.2,0.7,0.4,1.3,0.6,1.9l0,0c0.2,0.5,0.4,1.1,0.5,1.5c0.1,0.2,0.1,0.5,0.2,0.7c0.1,0.3,0.2,0.5,0.2,0.8c0.1,0.2,0.1,0.5,0.2,0.7
		c0.1,0.3,0.2,0.7,0.3,0.9v0.1c0.3,1.2,0.5,2,0.6,2.5l0,0c0,0.2,0,0.3,0,0.4c0,1.2-2.3,10.1-3.9,16l-3.2,10.9L480.9,604.5z
		 M182.6,543c-1.9,0.7-5.9,4.4-7.3,5.8c-2.4,0.1-12.8,0.6-14.4,0.6c-1.7,0-9.4-0.5-11.3-0.6l-5.4-4.2l-9.2-13.1l-7.4-4.7l-7.9-2.7
		c-0.7-0.5-3.2-2.3-7-5.1c-4.4-3.2-4.9-4.3-6.1-7.2c-1.2-3-3.8-5.4-4.7-6.2l-3.1-9.3l-1.1-7.8l5.2-1.2l5.5-8.9l3.7-4.3l6.6-3.9
		l4.3-5.8v-12.3l6.5-6.5l0.1-0.5c0.2-1.8,0.8-6.7,1.2-8.2c0.2-0.5,0.3-1,0.4-1.5c0.4-1.5,0.8-3.2,2.7-6c2.4-3.6,2.3-6.3,2.2-7.2
		l1.8-7.9l4.7-6v-7.5l1.3-4.4l0.1-2.4l4.6-3.9v-5.4l2.7-3.2l8.1-2.5l6.4-4l-1.7-5.2l-3.2-3.2l-1.1-4.7l2.9-2.4h6l3.2-4l1.5-6
		l-3.3-6.7v-6.5l18.9-26.8v-2l1.9,0.4l4.6-0.6l2,3.5l0.6,8.8l2.6,8.7l0.8,6.3h8.6l7.5-2.5l7,3.5l4.8,7.5l12.6-0.7l8.7-0.7l0.6,4
		l3.6,11.6l4.3,10.4c0.3,1.1,2.6,10.5,3.5,13.1c0.5,1.5,1.8,3.5,3.2,5.5c1.2,1.9,2.5,3.8,2.9,4.9c1,2.9,7.8,8.3,9.1,9.3l12.4,7.1
		l14,5.3c3.7,2.1,7,4.8,7.1,5.8c0,2.9,5.6,8.8,7.4,10.5l6.6,4.1v11.5l6.3,2.7l2.4,9l6,9.9l-17,2.3H310l0,0l-4.7,8.5l-4,6.5l-9.4,1.7
		l-8.9,9.8l-11.4,7l-5.4,7.2l-3.6,9.8l-4,6.4l-8,1.6H228l-3.8,9.6l-2.3,6.1h-5.6v-14.1l-6.6-5.1l-6.1-1.5l-7.3,5.9l-3.2,8.5
		c-0.4,0.3-0.9,0.7-1.4,1C188.1,539.7,183.6,542.7,182.6,543z M394.6,367.9l1.1-3.7c1.1-0.8,3.2-2.4,4.5-2.8c0.9-0.3,1.7-1,2.6-1.7
		c1.4-1.2,3-2.5,5.6-2.8c4.6-0.7,11.7-3.2,12-3.3l0.2-0.1l8-6.6l6.8-4.4l13.8-1.2l6.8,2.5c0.9,0.5,5.4,3,7.6,3.8
		c0.1,0.1,0.3,0.1,0.4,0.1c2,0.7,7.3,2,10.6,2.6c3.4,0.7,3.4,0.7,7.4,0.7c4.5,0,8.5-5.2,8.9-5.8l2-4.8c0,0,0.1,0.1,0.1,0.2
		c0.1,0.1,0.1,0.2,0.2,0.2c0.1,0.1,0.2,0.2,0.3,0.4c0.1,0.1,0.2,0.2,0.2,0.3c0.1,0.1,0.2,0.2,0.4,0.4c0.1,0.1,0.2,0.2,0.3,0.2
		c0.1,0.1,0.3,0.3,0.5,0.4c0.1,0.1,0.2,0.1,0.3,0.2c0.2,0.2,0.4,0.3,0.6,0.5c0.1,0,0.1,0.1,0.2,0.2c0.3,0.2,0.6,0.4,0.9,0.7
		c0.1,0,0.1,0.1,0.2,0.1c0.2,0.2,0.5,0.4,0.8,0.5c0.1,0.1,0.2,0.2,0.4,0.2c0.2,0.1,0.4,0.3,0.6,0.4c0.1,0.1,0.3,0.2,0.4,0.3
		c0.2,0.1,0.4,0.2,0.6,0.4c0.1,0.1,0.3,0.2,0.5,0.3c0.2,0.1,0.4,0.2,0.6,0.4c0.1,0.1,0.3,0.2,0.4,0.3c0.2,0.1,0.4,0.2,0.6,0.3
		c0.1,0.1,0.3,0.2,0.4,0.2c0.2,0.1,0.4,0.2,0.6,0.3c0.1,0.1,0.3,0.1,0.4,0.2c0.2,0.1,0.4,0.2,0.6,0.3c0.1,0.1,0.2,0.1,0.4,0.2
		c0.2,0.1,0.4,0.2,0.5,0.3c0.1,0.1,0.2,0.1,0.3,0.2c0.3,0.1,0.5,0.3,0.8,0.4l8,10.4l-1.2,9.9l-7.8,4.2l-7.8,3.3l-3.9,2.3l-1.6,6.2
		l3.5,7l7.6,8.3l8,4l8.9,5.7l6.2,6.8l1.2,6.9l-2.4,2.2l-1.4,5.6v7.1l-3.4,5.6l-6.4,0.6l-6.2-0.7l-5.7,3.3l0.8,6.7l1.9,6.3l-2.1,5.2
		l-7.9-0.6l-5.9-3l-3.8-7l-6.7-6.1l-3.9-3.3l-3.2-1.6l-7.3,0.7l-5.3,3.8l-1.5,7.4l3.3,8.6v4l-3,5.9l-7.8,5.2l-3.7,6l2.2,8l5.2,5.9
		l0.9,3.7l-2.6,0.9l-9,2.1l-5.1,6.5l-1,7.3l-0.6-0.2l-15.4-0.1c-1.8,0-4.4-1.3-5.2-1.8l-5.9-3.3l-6-1.4l-4.9-3
		c-0.8-0.9-1.6-1.8-2.4-2.7c-0.1-0.1-0.2-0.2-0.3-0.3c-1.9-2.1-3.5-4.2-4.3-5.4c-0.1-0.2-0.3-0.4-0.3-0.5s-0.1-0.2-0.1-0.2
		c-0.3-0.8-1-2.2-1.8-3.8c-1-1.9-2.7-5.3-2.7-6.2c0-1.6-1.5-6-3.3-10.8c-0.3-0.9-0.6-1.6-0.7-2c-0.5-1.5-1.1-5.5-1.2-6.9v-0.4
		l-8.9-11l-8-3.6l-8.4,3.5l-9.5,5.7l-3.2-0.5l-6.4-10.4l-2.4-8.8l2.8-4.1l5.4-4.2h3.9l6.8,2.3l2.2-4.5l11.5-4.5l0.2-0.1
		c2-1.7,4.8-3.6,5.7-3.6c2.1,0,8.9-2.2,10.2-2.7l0.4-0.1l4.4-6.6v-14.4l3.7-6.9l4.7-8.1l1.3-9.4v-6.4L394.6,367.9z M339.8,131.1
		l-0.8,6.5l2,8.9l11.9,2.8l5.5,3.2l5.2,13l11.5,8.9l6.7,6.7l2.5,7.4L386,202v15.3c-0.8,1.5-2.9,5-4.6,6.2c-2.3,1.5-5.9,4.4-6.8,5.1
		l-7.5,1.9l-1.3,7.6h8.1l7.3,4.9l2.7,3.6l7.5,3.7l8,0.9l8.5,1.1v-5.4l4.4-5.1l3.9,0.6l2.5,4.2l6.3,2.1l5.6-3.8l4-1.6h5.8l4.5-0.9
		h3.9l8.4,4.2l6.3,1.8l7.4,2.5l7.5,10.8l1.5,2.7l-1.1,2.4l-2,7.4l-1.4,9l2.7,6.2l1.9,6.2c-0.2,2-0.7,6.5-1.2,7.9
		c-0.2,0.6-0.8,1.5-1.3,2.4c-1,1.5-2,3-2,4.6c0,0.7-0.1,1.3-0.2,2.1c-0.2,1.3-0.4,2.9-0.4,5.8c0,3.8,1.6,6,3.2,8.2
		c0.5,0.7,1.1,1.5,1.5,2.3c1.3,2.1,2.6,3,3.6,3.8c0.7,0.5,1.2,0.9,1.6,1.5c0.8,1.1,2.3,1.9,3.9,2.8c0.8,0.4,1.6,0.8,2.2,1.2l-1,2.5
		l-1.3,3.2c0,0,0,0-0.1,0.1c-1.1,1.4-4.1,4.5-6.6,4.5c-3.8,0-3.8,0-6.9-0.6c-3.2-0.6-8.4-1.9-10.3-2.6c-1.5-0.5-6-2.9-7.6-3.8
		l-7.6-2.8l-15,1.4l-7.5,4.7l-7.8,6.5c-1.2,0.4-7.3,2.6-11.3,3.1c-3.3,0.5-5.4,2.2-6.9,3.4c-0.7,0.6-1.3,1.1-1.8,1.2
		c-2.1,0.7-5.3,3.2-5.6,3.5l-0.3,0.3l-1.6,5.4l2.7,6.1v5.5l-1.2,8.8l-4.5,7.6l-4.1,7.5V418l-3.4,5.2c-3,1-7.7,2.4-8.9,2.4
		c-2.2,0-5.9,3-7.2,4.1l-12,4.7l-1.7,3.4l-5-1.7h-5.2L335,441l-2.9,4.2l-4.3-1.8v-11.2l-7.5-4.7c-3.1-3.2-6.5-7.3-6.5-8.5
		c0-3.1-6-6.7-8.5-8.1l-14-5.3l-12-6.9c-2.7-2.1-6.6-5.5-7.8-7.3c-0.2-0.3-0.3-0.5-0.4-0.7c-0.5-1.5-1.8-3.5-3.2-5.5
		c-1.2-1.9-2.5-3.8-2.9-4.9c-0.9-2.5-3.4-12.9-3.5-13l-4.4-10.5l-3.4-11.2l-0.5-3.7l0,0l-0.2-1.7l-0.1-0.9l0,0l-0.8-5.5l2.5-13.3
		l11.2-11.2l5.3-12.4l2.7-9.1l-0.9-9.8l-2.5-8.5l3.2-8.7l8.3-4.9c1-0.6,9.9-5.5,11.8-8.3c1.4-2,3.1-6.3,4-8.5
		c0.2-0.6,0.4-1.1,0.5-1.3l1.6-3.1l2.5-1.9l5.9,3.3l8.6-2.9l7.9-5.9l-2.9-8.7l-4.3-8.6v-7.5v-0.3c0,0-0.9-3.5-1.7-7.8
		c-0.4-1.8-1.2-3-2.4-3.6c-0.8-0.4-1.6-0.4-2.3-0.4l-0.6-2.6l-7-6.2l-1.5-3.8v-14l-2.6-4.3l1.6-10.9l6.5-2.4l10.6-11.5l6.4-5.5
		l1-8.3l6.5,4.3L339.8,131.1z M84.3,160.4l3.3-0.8l23.4-19.8l-0.9-8.4l0.8-7.4l6.6-9.9l4.8-2.7l4.1,5.7h7.3l5.6-4.6l7.5-5.8h4.8
		l8.9-1.9l2.7-9.1l3.5-2.8l6.3,1.6h4.8l1.1-4.5l0.9-10.6l1.7-6.7l3.9-6.2l9.6-0.8l3.1,0.6v5.3l4,8h7.6l8.2,0.8l6.3,6.3l0.8,10
		l1.1,8.4l6.1-1.2l3.4-3.4h6.7l4.5,5.4l5.8-1.9l6,0.8l4.9,9l7.5,8.5h8.8l4.5-2.7l17.1-4.3l13.4-1.7l6.5,4.1l1.4,0.9l-1,8.6l-5.7,4.9
		l-10.4,11.2l-7.4,2.8l-1.9,13.4l2.7,4.4v13.8l2,4.9l6.9,6l1.2,4.7l1.5-0.7c0,0,0.9-0.4,1.5-0.1c0.6,0.3,0.8,1.1,1,1.8
		c0.8,3.8,1.5,7,1.7,7.7v8l0,0l4.5,8.9l2.3,6.8l-6,4.5l-7.1,2.4l-6.3-3.6l-4.4,3.3l-1.9,3.8l-0.1,0.1c0,0.1-2.6,6.9-4.2,9.3
		c-1.1,1.7-7.3,5.4-10.9,7.4l-9.1,5.5l-3.8,10.4l2.7,9l0.8,9.2l-2.5,8.4l-5.1,11.9L252,318.8l-2.7,14.5l0.8,5.8l-8.5,0.7l-11,0.6
		l-4.4-6.8l-8.7-4.3l-8.1,2.7h-5.8l-0.5-4.1l-2.6-8.6l-0.7-9.3l-3.2-5.6l-5.9,0.7l-2-0.4v-2.3l-0.6-0.4c0,0-3.3-2-5.2-3.2
		c-1.4-1-3.5-1.9-4.6-2.4v-3l4.8-3l5.2-6.5l10.9-6.8V271l-0.6-8.3l1.3-5.7v-19.5l-1.8-3.6h-4.5l-4.1,2.8c-3.2,1.8-7.6,3.5-8.8,3.1
		c-2.3-0.6-5.9-1.1-7-1.3l-6.8-4.9l-6.4-7l-5.8-7.1l-3.3-4.6l-4.1-3.4l-5.2-6.5l-5.9-6.5l-8.2-5.2l-5.8,3.6l-6.6,1.8l-3.8-1.6
		l-5.5-8.6l-2-9.4l-8.4-7l-5.8-1.3l-2.8-2.8l-3.1-6.7L84.3,160.4z M45.5,463.9l-1.5-8l4.4-3l8.9-5.4l5.4-7.2l4.3-7.8l10.6-9.7
		l3.7-12.8l-1.8-13.8l-3.9-4l-5.2-2.6l-3.2-4l-3.3-5.7v-5.2l4-4l5.6-8.4v-8.1l-5.7-3.8l-3.9-3.1v-6.9l-4.2-4.2l-6.5-0.9h-7.4l-4-4.8
		l-8.7-7l-4.7-8.7l3.1-5.4c0-0.1,4.4-7,6.1-9.5s4.3-6,4.3-6l0.3-0.4v-4.6l3.2-9.7l6.3-2.7v-9.6L50,261l0.8-9l4.1-5.8l3.6-8l4.7-7.5
		l-2.8-5.6v-7l5.6-5.6l5.8-2.9v-7.2l-3.5-7.8V190l2.7-7.2l-3.6-8.9v-5.2l8.8-6.4l5.5-1.3l0.1,1l3.5,7.6l3.7,3.7l5.9,1.3l7.2,6
		l1.9,8.9l6.2,9.7l5.4,2.3l7.6-2.1l4.9-3l6.3,4l5.7,6.3l5.2,6.5l4,3.4l3.2,4.5l5.9,7.2l6.5,7.2l7.6,5.6l0.3,0.1c0,0,0,0,0.1,0
		c0.5,0.1,4.6,0.7,7,1.3c3,0.7,9.5-2.7,10.9-3.4l3.6-2.4h2l0.8,1.6v18.5l-1.3,5.9l0.7,8.6v4.5l-10,6.3l-5.2,6.5l-5.7,3.5v6.2
		l0.8,0.3c0,0,3.2,1.3,5,2.5c1.4,1,3.6,2.3,4.6,2.9v0.3v2.7v1.7l-18.9,26.8v7.9l3.2,6.4l-1.1,4.5l-2,2.5h-5.7l-4.9,4.1l1.6,7
		l3.3,3.3l0.9,2.6l-4.2,2.6l-8.7,2.7l-3.8,4.6v5.1l-4.6,3.9v3l-1.3,4.4l-0.1,7.1l-4.5,5.8l-2,8.8l-0.1,0.3l0.1,0.3
		c0,0.1,0.4,2.2-1.8,5.5c-2.1,3.2-2.6,5.2-3.1,6.8c-0.1,0.5-0.2,0.9-0.4,1.3c-0.6,1.8-1.2,6.7-1.3,8.3l-6.6,6.6v12.5l-3.5,4.7
		l-6.5,3.9l-4.1,4.7l-5.1,8.2l-4.6,1l-4.1-4.1l-6.2-5.5l-14.9-1.4h-11c0,0-1.8-0.1-4.2-0.2c0,0,0,0-0.1,0c-0.4,0-0.8,0-1.2-0.1h-0.1
		c-0.4,0-0.8-0.1-1.3-0.1c0.1-0.6,0.1-1.1,0.1-1.1l-1-7.1L45.5,463.9z M233.7,701.9l-1.8,11.6l-2.5,6.7l-5.1,8.5l-6.6,6.6l-9.8,3.3
		l-13.9-3.5l-8.1,2.7l-17.2,3.5l-6.4,0.8l-5.3-4.6l-1.8-7l-5.2-4.4l-2.3-7.6l4-4l4.5-9.8l1.8-4.6v-9.8l-7.6-3.8l-2.9-2.1v-5
		l-7.5-9.3l-4.6-1.8l-6.6-4.1l-6.2-8.8l-12-5.2l-1.5-3.8l-2.7-10.7l-5.2-5.2l-0.8-6.2l1.8-6.2L98.6,606l-5.4-4.5l-6.9-6.9l-6.1-9.7
		l-7.8-6.1l-4.2-7.6l-5.1-6.8v-9.1L59.6,543l-0.9-9.9l-8.1-9.9l-10.5-8l-6.8-8.5l-6.9-10.4l-2.2-5.1l4.2-3.5l5.7-0.8l8.1-2.7
		l0.3-0.1c1.4-0.9,5.5-3.5,7.5-4.2c0.9-0.3,2-1,2.8-2.8c3.9,0.3,7.4,0.4,7.5,0.4h11l13.9,1.3l5.5,4.9L95,488l1.2,8.7l3.4,10.4
		l0.3,0.2c0,0,3,2.4,4.2,5.3c1.4,3.6,2.3,5.1,7,8.4c4.5,3.2,7.1,5.2,7.2,5.2l0.2,0.1l7.9,2.6l6.8,4.3l9,12.8l6.5,5.1h0.4
		c0.4,0,9.9,0.7,11.8,0.7c2,0,14.6-0.6,15.1-0.7h0.5l0.4-0.4c2.1-2.1,5.5-5.2,6.7-5.6c2.1-0.7,9.9-6.2,11.4-7.4l0.3-0.2l3.3-8.5
		l5.7-4.6l4.3,1.1l5.1,4v12.8h-0.1l0.1,1.4v1.3h0.1l0.8,14.4l1.9,5.9l8.3,8.3l7.6,2.5l4.9,9l3.2,7.2l-2.8,4.8h-5.8l-6.1-4.3H219
		l-7.8,2.9l-1.6,6.5l6.4,7.9l6.8,4l3.9,2.2v3l-4.3,2.5L220,628l2.7,4l-1.2,5.3l-1.4,4.3l2.8,6.3l5.4,7.5l5.2,6.5l3.1,4.3l1.2,6.1
		c0,0.8-0.1,2.7-0.4,4.1c-0.1,0.2-0.1,0.4-0.2,0.6c-0.6,1.8-1.9,4.4-1.9,4.4l-0.2,0.3l0.7,9c0,0,0.6,4,1.1,7.9L233.7,701.9z
		 M343.9,759l-11.7-5.5l-0.2-0.1c-0.1,0-10.4-2.6-13-3.5c-1.6-0.5-4.2-3.2-5.4-4.7l-5.9-8.4l-0.8-10.4l4.2-5l1.9-7.7l-5.3-10.5
		l0.8-7.3l0.8-2.5c0.9-2.5,2.6-6.8,2.6-6.9l0.2-0.5l-0.2-0.5c-1.3-3.3-3.4-9.1-3.4-10.8v-8.4l3.2-6.4l5.5-3.7v-5.9l-9.1,2.3
		l-6.5,8.4l-3.4,11.8l-5.1,1.9l-1.6-4h-8.9l-2.1,8.6l8.1,10.9l3.2,6.5l-1.6,9.6l-6.3,7.1h-5.3c-1-0.3-5.3-2-9-4.9
		c-4.9-3.9-9.8-2-10-1.9l-0.4,0.2l-4.4,6.1l-3.7,1.8l-3.7-8.1l-1-7.8l-7.1-0.9c-0.1-0.7-0.2-1.4-0.3-2c0-0.1,0-0.1,0-0.2
		c0-0.2,0-0.3-0.1-0.5c-0.4-2.6-0.7-4.7-0.7-4.7l-0.6-8.1c0.4-0.8,1.3-2.8,1.9-4.4c0.7-2.1,0.7-5.5,0.7-5.6l-1.4-7.1l-3.5-4.9
		l-5.2-6.5l-5.1-7.1l-2.4-5.3l1.1-3.4l1.5-6.6l-2.5-3.8l1.5-3.5l4.9-2.8v-6.1l-5.2-3l-6.3-3.8l-5.3-6.5l1-3.9l6.1-2.3h5.4l6.1,4.3
		h8.2l3.4-5.9l0,0c0.1,0,0.2,0,0.4,0c0.1,0,0.2,0,0.3,0s0.3,0,0.5,0c0.1,0,0.2,0,0.3,0c0.2,0,0.4,0,0.6,0c0.1,0,0.2,0,0.3,0
		c0.4,0,0.8,0,1.2,0s0.9,0,1.4-0.1c3.7-0.3,9.8-1.7,10.6-1.9l11.3-1.3l7.1,2.9l2.2,4.5V611l1.2,6.3c-0.1,0.4-0.2,0.8-0.1,1.2
		c0.3,1.2,1.5,2.1,3.7,2.8c4,1.3,7.9,2,8,2l0.6,0.1l5.5-4.2l4.4-1.9l5.9-2.6l4.9-2.4c2,0.2,6.4,0.7,7.8,1.2c1.8,0.6,6.7,1.2,8.3,1.3
		l3.4,3.4c0.4,1,1.1,3.2,1.1,4.5v2.2l1.8,4.4l6.9-0.8l6.4-2.8l8-4.3l7.9,1.8c0.5,0.2,3.4,1.4,6.2,3.1c2.4,1.5,4.9,3.3,5.9,4.1v10
		l-1.5,2l-3.5,2.1l-0.1,0.5c-0.1,0.4-1.4,4.4-0.7,7.3l0.8,3.2l0.5,0.3c1.1,0.6,3.5,2,5.4,3.3c0.9,0.6,1.7,1.2,2.1,1.7
		c0.2,0.2,0.4,0.4,0.7,0.6c0.1,0,0.1,0.1,0.2,0.1c0.2,0.2,0.5,0.4,0.8,0.5c0,0,0.1,0,0.1,0.1c0.3,0.2,0.6,0.3,0.9,0.5
		c0.1,0,0.1,0.1,0.2,0.1c0.3,0.2,0.7,0.4,1,0.5c0,0,0.1,0,0.1,0.1c0.3,0.2,0.7,0.3,1,0.5c0,0,0.1,0,0.2,0.1c0.4,0.2,0.7,0.3,1.1,0.5
		c0,0,0.1,0,0.1,0.1c0.3,0.1,0.6,0.3,0.9,0.4c0,0,0,0,0.1,0c0.3,0.1,0.6,0.2,0.9,0.3l0,0l-1.3,3.1l-5,5l-5.6,7.7v8.5l2,4.7l1.3,7.3
		l2,3.4l1.3,3.1l-2.8,0.8l-4.2-1.2h-4.9c-2.2,0-7.6,3.1-9.2,4.1L361,712l-3.4,11.6v11.1l-5.2,9.1v9.6l0.7,13.8L343.9,759z
		 M538.4,727.4l-6,12.9l-1.9,13.6v0.2c0.1,0.5,1.8,12.3,2.6,15.8c0.7,2.8-1.5,5.8-1.5,5.8l-2.2,2.9l11.8-2.6l6.9-8.6h7.4l2.8,4.1
		l-1.5,6l-6.9,6.9l-4.4,11.5l-5,10l-6.4,2.4l-15.3,3.4l-7.8-1.6l-2.1-4.2l1.6-7.1l5.6-8.5l-6-7.1l-4.5-2.2l-5.4,4.5l-7.1-1.6
		l-6.3-2.7l-10.6,0.9l-8.1-1.6l-6.1-6.8l3.8-7.5l5.4-3.1h12.3l4.3-3.2l1-7.1l-4.7-7.6l-1.3-1l0,0c0.3-0.2,0.6-0.4,1-0.5
		c0,0,0,0,0.1,0c2-1.1,3.6-1.9,4-2.2c0.1,0,0.1-0.1,0.1-0.1l6.2-3.7h9.1l7.1-4.3l4-6.7l3.5-4h5.3c2.3,0,4.2-1,6.2-2.1
		c1.3-0.7,2.5-1.4,4-1.9c0.4-0.1,0.8-0.3,1.2-0.4c0.1,0,0.2-0.1,0.3-0.1c0.4-0.2,0.7-0.3,1.1-0.5c0,0,0.1,0,0.1-0.1
		c0.4-0.2,0.8-0.4,1.2-0.6c0.1-0.1,0.2-0.1,0.3-0.2c0.3-0.2,0.7-0.3,1-0.5c0,0,0.1-0.1,0.2-0.1l0.5,3.9L538.4,727.4z M556.9,655.6
		l-3.2,7.4l10.3,7.5l5.7,7.4l0.8,8.7c-2.8,3.8-7.2,9.5-9,10.6c-2.8,1.9-8.5,5-12.3,5c-4,0-9.9-2.5-9.9-2.5l-0.2-0.1H525l-3.7,6.2
		l6.5,3.3l10,4.6c0,0-0.1,0-0.1,0.1c-0.1,0.1-0.2,0.1-0.3,0.2c-0.4,0.2-0.8,0.4-1.2,0.6c-0.2,0.1-0.3,0.2-0.5,0.3
		c-0.4,0.2-0.8,0.4-1.1,0.5c-0.2,0.1-0.3,0.2-0.5,0.2c-0.5,0.2-1,0.4-1.5,0.6c-1.7,0.6-3.2,1.4-4.5,2.1c-1.8,1-3.3,1.8-4.9,1.8h-6.5
		l-4.3,5l-3.9,6.4l-5.9,3.6h-9.1l-6.8,4.1c0,0-2.9,1.5-6.1,3.3l-2.4-4l-7.6-10.9l-2.6,7.7l-0.8,4l-5.4,3.6v7.4l-3.2,8.8l-9.5,3.2
		l-5.4-1.5l-6.3-6.3l0.9-9.8l-6.2-4.1h-23.6l-6.9,6.9v19.1l-4.5,3.7c-4.2,0.7-10.5,1.4-12.1,0.9c-2.7-0.9-11.1-2.6-11.5-2.7
		l-0.6-0.1l-0.5,0.4c-2.8,2.4-6.5,4.9-7.8,4.9c-0.8,0-3.5-1-8.5-3.8l-0.8-15.8v-8.8l5.2-9.1v-11.3l3.1-10.4c2.9-1.7,6.5-3.5,7.4-3.5
		h4.4l4.8,1.4l6.4-1.8l-2.5-6l-1.9-3.2l-1.3-6.9l-1.9-4.6v-7.1l4.9-6.8l5.3-5.3l2-4.6l5-5l7.9-7.1l-2.4-6.3l-5.8-7.1
		c-0.4-2.2-0.8-5.6-0.8-7.8c0-0.7,0-1.4,0.1-1.8c0.3-1.3,1.3-1.9,3.6-3.2c0.9-0.5,1.9-1.1,3-1.9c3.5-2.4,6-5.2,6.7-6l2.9-1.7
		l5.7-1.3l12.5-5.9l11.5-2.5c3,0,8,0.2,9.2,0.6c1.8,0.6,5.6,2.5,5.6,2.5l5.8,3.6l6.4-2.8l11.7-2.5l1,2.9l5.5,8.4l6.4,4.3h7.4
		c0.5,0.1,2.7,0.8,3.5,2.5c1.2,2.4,1.8,6.7,1.8,6.8l0.1,0.6l6.7,4.4l7.4,0.7l0.4-0.3c0,0,2.8-2.2,5.4-1.7c2.3,0.5,4.6,2,5.5,2.7
		l0.5,4c-0.4,0.5-0.9,1.3-0.8,2.3c0.2,1.2,1.2,2.1,3,2.7c4.1,1.4,10.6,1.4,10.9,1.4h0.1h0.1L558,650l2.5-0.5l1,2.1L556.9,655.6z
		 M868.6,503.8l-2,6.9l-2.6,12.9l-5.7,10.7l-13.1,4.1l-14.8-2.6l-6.8,2l-4.1,5.8l-4.7-0.8l-10.6,2.6h-5.5l-8.7,5.8l-1,6.2l4.4,10.6
		v12.5l-2.1,4.2H787l-2.6-5.1l-7.4-1.1l-7.8,7.8l-7.1-0.8l-6.3-1.8l-7,1l-1,1.8l-2-0.9c-0.2-0.1-4.7-2-8.6-3.3
		c-0.3-0.1-0.6-0.2-0.9-0.3c-0.2,0-0.3-0.1-0.5-0.1c-0.1,0-0.2,0-0.3-0.1c-0.2,0-0.3-0.1-0.5-0.1c-0.1,0-0.1,0-0.2,0
		c-0.1,0-0.3,0-0.4,0c0,0-0.1,0-0.2,0l0,0c0,0,0,0-0.1,0c-0.3,0-0.5,0-0.7,0.1c0,0,0,0-0.1,0c-0.2,0.1-0.4,0.2-0.7,0.3
		c-0.2,0.1-0.2,0.1-0.5,0.1c-1,0-5.3-2.5-8.8-4.8c-1.4-2.3-2.9-5.3-2.9-6.2c0-0.8,0.3-1.6,0.6-2.5c0.4-1.1,0.7-2.2,0.7-3.4v-7.9
		l-11.6-6.8l-6.8-8.1l-1.8-7.4v-8.6l-0.1-0.3c-1-2.3-2.5-6.1-2.5-7.3c0-1.8-1.8-3.1-3.7-4.5c-1-0.7-2-1.5-2.5-2.1
		c-1-1.5-2.4-2.2-3.5-2.4l-2.7-5.3l2.3-4.6l1.5-4.4l-1.3-6.4l4-7.4l9.7-0.6l4.7-1.5l0.2-0.4c0.1-0.2,3.4-4.8,4.1-8.4
		c0.5-2.3,3.5-2.9,3.5-2.9l0.7-0.1l4.2-9.1l1-3.5l9.4-1.7l7.2-4.4l0.1-0.6c0.5-2.4,1.6-6.8,2.4-8c1.2-1.8,5.8-7,6.4-7.6l5-4.4
		c0.8-0.4,2.6-1.1,3.8-1.1c2,0,5.9-0.6,6.1-0.7l0.4-0.1l4.5-4.5l7.2-0.6l5.2,1.2l6,7.3l0.3,0.4l0,0l1.7,2.1v-1.1
		c1.9,1,5.1,2.7,6.6,3.2c2,0.7,7,0.7,8.1,0.7l5,1.2l7.2,2.6c1.8,0.5,4.1,1.7,4.3,2.4c0.5,1.5,1.7,2.8,2.9,4c0.7,0.8,1.4,1.5,1.8,2.2
		c1.1,1.7,4.5,4,6.1,5.1c0.2,0.9,1.6,2,6.1,4.5l6.7,3.6l1.8,8.5l1.4,9.6l7.5,7.5l8.5,6.6l9.2,10.3L868.6,503.8z M980.1,412.7
		l-5.4,6.3l-0.9,7.2l-2.5,7.5l-5.7,8.1l-11.2,2.4l-5.5-3.1l-3.8-3.8h-4.9l-2.2,5.4v5.2l-4.3,8.7v4.7l-3.2,1.6l-3.8,9.4v2.9
		c0,1.6-1.5,2.2-1.7,2.2l-4.5,2.6l-3.7,0.9l-7.6,7.6l-4.5-0.8h-6.8l-4.1,3.1l-2.7,5.4l-3.2,5.5l-6.1,0.8l-5.3-0.9l-3.3,0.8
		L863,490.9l-8.6-6.6l-6.8-6.8l-1.3-8.8l-2.1-9.7l-7.7-4.2c-1-0.6-1.9-1-2.5-1.4h1.3l-3.9-2.5c-1.9-1.2-5.3-3.6-6.1-4.8
		c-0.6-0.9-1.4-1.7-2.1-2.5c-1-1-2-2.1-2.3-3c-0.8-2.5-5.2-3.9-6-4.1l-7.2-2.6l-5.4-1.4H802c-2.2,0-6.1-0.2-7.4-0.6
		c-1.1-0.4-3.9-1.8-5.9-2.9c-0.6-0.3-1.1-0.6-1.5-0.8l-0.1-0.2v-1.1c0.7-1.6,3.9-9.1,4.5-10.9c0.5-1.6,1.1-4.9,1.3-6.2
		c2-1.4,4.4-2.7,5.3-2.7c2,0,5.9-0.6,6.1-0.7h0.2l5.5-3.2l-0.8-7l-3.7-6.9l2.8-6.8l5.9-3.5l7.1-0.6l6.8-3.4l6.6-4.4l0.7-9.2v-10.3
		l-5.2-5.2v-5l3.6-1l0.3-0.1c0.8-0.4,7.4-4.1,9.5-6.1c1.8-1.8,4.9-3.7,5-3.7l5.7-5l1.1-4.1l6.3,1.6h11.9l8.9-3.5l5.4-1.4l0.6,5.8
		l-2.3,3.1l-2.4,4.8l9,5l7.8,3.5l11.2,5.2l8.3,5l5,9.2l6.2,12.4l7.2,6.3l11,5.6l15.1-0.9h6.9l1.4,4.2l1.8,9l7.1,7.1l2.1,3.5
		L980.1,412.7z"/>
	<path class="st0" d="M315.4,854.4l4.5-7.8l2.3-9.5l-6.6-7.3l-14.7-5.3l-12.7-1.4h-9.5l-4.4,1.5l-0.2,0.2c-0.1,0.1-1.4,1.4-4,4.7
		c-0.6,0.7-1,1.3-1.2,1.9c-0.3,0.3-0.7,0.7-1.3,1.3c-3.1,3.1-7,4.9-8.3,5.4l-6-1.7l-1.8-6l-4.4-5.8l-0.5-0.1c0,0-3-0.6-4.8-1.8
		c-1.9-1.2-7.6-6.4-7.7-6.5l-6.1-4.9c-0.4-2.8-1.2-9-1.2-10.4s0.8-5.8,1.2-7.8l7.5-6.9l4.4-7.1v-10.2c0-10-1.4-11.9-2.9-12.4
		c-1.9-0.6-8.4-3.2-8.5-3.3l-8.3-2.8l-9.6,4.1l-11.1,6.2l-2.2,9.5l1.9,5.1l-2.1,5.2h-6.6l-8.6,4.3l-2.8,8.4l-1.3,9l-5.6,6.9
		l-4.9,5.6v7c0,1.7,1.6,3.8,3.8,6.5c0.7,0.8,1.3,1.6,1.6,2.1c1.2,1.8,4.4,5.6,5.2,6.5l4.4,11.4l0.7,7.4l5.5,7.5c1.4,1.7,3,4.2,3,5
		c0,1.5-0.4,5.8-0.6,7.2l-3.3,3.3v0.5c-0.2,2.4-0.5,8.1,1.9,9.7l5.6,3.8l6,9.3l0.5,0.1c0,0,4.4,1.3,6.8,3c2.3,1.7,7.4,1.8,12.6,1.6
		c0.5,0,1,0,1.3,0c2.1,0,8.4-2.8,9.7-3.4l0.6-0.3l2.2-9.6l-0.2-0.4c0,0-1.9-3.8-2.5-6.8c-0.2-1-0.5-1.9-0.9-2.9
		c-0.9-2.7-1.4-4.5-0.2-5.7c2.2-2.2,6-3.4,6.5-3.6l12.2-1.9h3.3l0.5,3.7c-1.1,2.2-3.9,8-3.9,10c0,2.2,2.3,6.4,2.8,7.2l0.4,0.7h0.6
		c0.2,0.2,1.3,1,2.1,4.8l1.3,5.7c0,1.1,0.1,6.1,0.7,8.1c0.8,2.3,4.9,5.3,5.7,5.9l0.5,0.3l7.8-1.4c1.1-0.2,6.5-1.5,8-3.8
		c0.3-0.4,0.5-0.9,0.8-1.4c1-1.9,1.8-3.6,5.1-3.2c3.9,0.5,7,1,8.4,1.2l2.3,5.2l0.2,0.3c0.9,1,3.9,4.4,6.2,4.4c2.1,0,6.8-0.7,8.9-1.4
		c2.5-0.8,3.9-5.2,4.1-6.1l0.1-0.5l-3.1-6.2l-0.5-0.2c-2.1-0.8-4.2-2.1-4.4-2.7c0-0.7,2-2.7,4-4.1l6.3-7l2-6.8l0.1-0.4
		c0-0.7,0-6.8-0.7-8.9c-0.7-2-3.9-6.4-4.7-7.4c-0.4-1-1.1-3.2-1.1-4.6c0-1.6,0.5-5.4,0.6-6.2L315.4,854.4z M312.3,869.3l0.2,0.3
		c1.5,2,4,5.5,4.4,6.8c0.4,1.2,0.6,5.4,0.6,7.9l-1.8,6.1l-5.6,6.2c-1.6,1.2-5,3.9-5,6.2c0,2.4,3.6,4.2,5.6,5l2.1,4.3
		c-0.6,1.7-1.6,3.6-2.3,3.8c-1.8,0.6-6.2,1.2-8.1,1.2c-0.7,0-2.6-1.6-4.1-3.3l-2.8-6.4l-0.7-0.1c0,0-4-0.7-9.2-1.3
		c-5.1-0.7-6.8,2.7-7.8,4.6c-0.2,0.4-0.4,0.8-0.6,1.2c-0.6,0.9-3.8,2.1-6.3,2.7l-6.6,1.2c-1.9-1.4-4-3.3-4.3-4.2
		c-0.4-1.3-0.6-5.2-0.6-7.4l-1.3-6.2c-1-4.7-2.6-6.2-3.7-6.7c-1-1.8-2.2-4.4-2.2-5.4s2-5.6,3.8-9.2l0.2-0.4l-0.9-6.8h-5.7l-12.6,2
		h-0.2c-0.2,0.1-4.9,1.4-7.8,4.3c-2.5,2.5-1.4,5.8-0.5,8.5c0.3,0.9,0.6,1.8,0.8,2.5c0.6,2.8,2,5.9,2.5,7.1l-1.7,7.4
		c-3.3,1.5-7,2.9-8,2.9c-0.3,0-0.8,0-1.4,0c-2.5,0.1-9.1,0.3-10.9-1.1c-2.3-1.7-5.8-2.9-7.1-3.3l-5.8-9l-6.1-4.1
		c-0.6-0.4-1-3.7-0.8-6.8l3.2-3.2l0.1-0.5c0-0.2,0.7-6,0.7-8c0-2.3-3-6-3.5-6.7l-5-6.9l-0.6-6.8l-4.7-12.3l-0.1-0.2
		c0,0-3.9-4.5-5.1-6.4c-0.4-0.7-1.1-1.5-1.8-2.3c-1.1-1.4-3.2-3.9-3.2-4.8v-6l4.3-4.9l6.1-7.5l1.3-9.4l2.4-7.2l7.1-3.5h7.8l3.1-7.8
		l-2-5.3l1.7-7.5l9.9-5.5l8.6-3.7l7.3,2.4c0.3,0.1,6.4,2.5,8.5,3.3c0.2,0.2,1.1,1.9,1.1,9.9v9.4l-3.6,6l-8,7.3l-0.1,0.4
		c-0.1,0.7-1.3,6.7-1.3,8.8c0,2,1.2,10.3,1.3,11.3l0.1,0.5l6.9,5.5c0.2,0.2,6,5.3,8,6.6c1.7,1.1,4.1,1.8,5.2,2l3.5,4.6l2.1,7
		l8.3,2.3l0.4-0.2c0.2-0.1,5.5-2.1,9.6-6.2c1.8-1.8,2.4-2.4,2.3-2.9c0.1-0.1,0.2-0.3,0.4-0.5c1.9-2.4,3.1-3.8,3.6-4.2l3.4-1.1h8.9
		l12.2,1.3l13.9,5.1l5.2,5.8l-1.8,7.6l-4.5,7.7l-1.4,3.4l-0.1,0.3c0,0.2-0.7,4.7-0.7,6.7C310.9,865.8,312.2,869,312.3,869.3z"/>
	<path class="st0" d="M279.7,781.1c2.2-1.4,4.7-5.8,5-6.3l2.1-5.6v-8.5l-6.5-1.6l-9.9,2.1l-4.9,6.3l-3.4,5.3l-3.9,6.5l-0.2,0.3v0.3
		c0,0-0.1,1.1-1.7,3.2c-1.9,2.6-4.5,5.8-4.6,5.8l-0.3,0.4v8.3v0.2c0,0.2,0.7,4.9,2.8,8.3c1.9,3.1,5.7,5.5,8,7
		c0.3,0.2,0.6,0.4,0.9,0.6c2,1.4,6.5,3.3,6.7,3.4l0.3,0.2l9.5-1.4l5.7-1.9l6.7,2.4l6.7,3.4h9.2l4.8-3.5c0.2-0.1,1.8-1.2,2.1-3.1
		c0.2-1.4-0.4-2.8-1.8-4.2c-2.9-2.9-5.3-5.8-5.7-6.3l-2.4-4.2v-5.8l-4.2-8.5l-6-3.7l-5.6,0.8l-3.6,4.3l-1.2,2.3l-6.2,1.5l-1.9-4.3
		C277.2,784.1,278.5,781.9,279.7,781.1z M278.2,778.9c-2.2,1.5-4.1,5.3-4.4,5.7l-0.3,0.6l3.3,7.5l9.5-2.4l1.5-3l2.8-3.4l3.6-0.5
		l4.5,2.8l3.6,7.2v5.9l2.8,4.9l0.1,0.2c0.1,0.1,2.7,3.4,6,6.6c0.5,0.5,1.1,1.3,1.1,2c-0.1,0.7-0.8,1.2-0.9,1.2l-4.2,3h-7.8l-6.2-3.1
		l-7.8-2.8l-6.2,2.1l-8.6,1.2c-1.1-0.5-4.4-2-6-3c-0.3-0.2-0.6-0.4-1-0.6c-2.1-1.3-5.6-3.6-7.1-6.2c-1.6-2.8-2.3-6.6-2.4-7.2v-7.3
		c0.7-0.9,2.7-3.5,4.3-5.5c1.6-2.1,2-3.6,2.2-4.3l3.8-6.3l3.2-5.2l4.2-5.4l8.4-1.8l3.9,1v5.9l-1.8,4.9
		C281.4,775.3,279.4,778.1,278.2,778.9z"/>
	<path class="st0" d="M725.7,758.6l-4.5-3l-7.4-0.5l-3.8,3.3l-4.3,2.6l-1.9,1.3l-3-1.7l0.8-1.8l3.7-4.5l4.3-4.3v-0.6
		c-0.2-2.6-0.3-5.8-0.1-6.4c0.5-1.5,1-7.5,0.5-9.5c-0.3-1.3-0.7-5-0.8-6.5l1.1-4.4l3.2-1.4l0.5-7.8l-3.2-5.6l-5.4-6.3l-7.4-6.6
		l-3-3.8c0.2-1.6,0.8-5.9,0.8-7c0-0.9,0.7-2.6,1.9-3.2c1.7-0.8,8.6-3.9,8.6-3.9l0.5-0.2l3.5-10.4l-6.3-7.7l-5.2-2.8l-7.1-0.9
		l-4.9,1.6l-6.5,4.3l-2.3,6l2.1,7.6l1.9,4.5v4.9c-0.3,0.2-0.9,0.5-1.7,0.7l-1.9,0.6c-0.7,0.1-4.5,1-7.1,3.6
		c-2.7,2.7-4.7,6.7-4.8,6.9l-0.1,0.2l-0.7,5.8l-1.5,2.6l-6.3,1.7l-8.4-2l-7.5,1.4l-0.2,0.1c-0.9,0.3-5.7,2.2-7.2,4.4
		c-1.4,2.1-2.1,4.9-2.1,5l-0.1,0.2l1.3,9.4l3.5,9.2l0.4,0.2c3.2,2,6.3,4.4,6.6,5.2l3.3,9.8l1.8,3.2l-1.6,0.3l-2.7-1.6l-2.7-2.7
		l-7.1-3.2l-3.5-4.8h-7.8l-3.3,3.9h-2.7c-0.8-0.9-2.4-2.6-4.1-3.2c-0.9-0.3-2.3-1.1-3.7-1.9c-1.6-0.9-3-1.7-4.1-2.1
		c-2-0.7-7.7-1.9-8-2l-0.4-0.1l-6.2,2.1l-6.2,4.1l-7.4,9.3l-10,10.7l-2.7,10.1v13.8l6.2,9l5,3.6l6.4,1.2v5l2.8,6.2l2.9,5.8l7.5,1.7
		l3.1-6.2l2-7.8l2-2l10-0.6l8.1-2.2l2.2-6l1.1-3.8l2.5-0.4c1,0.8,3.4,2.9,4.3,6.1c1.3,4.4,1.3,8.2,1.3,10.1c0,1.5-0.9,5.5-1.2,6.8
		l-1.8,6.1l-6.6,4.2l-9.2,2l-7.2,5l-1.7,7.5l6.1,2.6l6-2.7l2.8,0.7l-3.1,4.2l1.7,5.8l5.8,2.5l9.1-5.9l2.8,1.2l-1.3,4
		c-1.4,0.4-4.2,1.5-4.8,4.1c-0.7,2.8-0.1,8.3,0,9l0.1,0.7l8.6,5l3.8,0.5l0.4,3.1l-3.2,4.4l-0.8,8.4l7.2,4.3l0.3,0.1
		c0.3,0.1,2.8,0.9,4.9,0.9c0.6,0,1.3-0.1,1.8-0.2c1-0.3,1.7-0.9,2.5-1.5c1.1-0.9,2.1-1.7,3.7-1.7c3.4,0,9.2-1.3,9.4-1.3l0.9-0.2
		l0.9-5.5l-4.3-4.3l-2.2-3.1l3.4-1.3l8.1-0.7l2.9-2.3l4.7,2.3l6.6,0.8l2.5-8.4l-6.3-5.5l-6.8,0.7l-4-1.7l-2.4-2.9l-3.1-4.9l-0.5-3.9
		l1.9-3.7c0.3-0.1,0.8-0.3,1.6-0.4c0.6-0.1,1.3-0.2,1.7-0.6c0.3,0,0.8,0,1.3,0c5.8,0,8.2-3,8.2-3.1l2.2-5.8l-0.7-6.2l-1.4-5.8
		l-0.3-0.3c0,0-0.3-0.3-0.4-0.7c-0.1-0.3-0.2-0.8,0.4-1.3c1.1-1.1,3.2-1.8,4.5-2.1c0.8,1,1.8,2.3,1.8,3.1v8.7l5.3,2.6l5.8-3.3
		l0.8-6.1v-0.2c-0.2-0.9-0.2-1.9-0.2-2.6c0.1,0.1,0.3,0.3,0.5,0.5c3.3,3.3,1.7,8.4,1.6,8.4l-0.2,0.6l4,5.7h10.8l4.7-2.3l2.3-7.1
		l-6.2-8.2l-2.5-6.2l-1.3-8l-3.2-4l-7.7-0.7l-4.4-0.5l0.3-1.3l2.2-1.4l4.4-1.6h5.5l5,3.2l7.1-2.2l0.6-5l-1.5-5l-3.4-3.1l0.6-1.2
		l3-1.1l0.3-0.1c0.7-0.5,3-2.1,3.6-3.7c0.5-1.5,0.9-5.1,0.9-6.5c0-1.5-1.6-4.6-2.3-5.9L725.7,758.6z M724.8,770.5
		c-0.2,0.5-1.4,1.6-2.4,2.3l-3.8,1.4l-2,4l4.4,3.9l1.1,3.7l-0.3,2.8l-4.2,1.3L713,787h-6.7l-5,1.8l-3.6,2.2l-1,5.2l7.3,0.8l6.6,0.6
		l2,2.6l1.2,7.5l2.7,6.8l5.6,7.6l-1.6,4.7l-3.2,1.6h-8.8l-2.5-3.5c0.4-1.8,1.2-6.8-2.5-10.5c-0.5-0.5-2.2-2.2-3.7-1.3
		c-1.7,0.9-1.5,3.8-1.2,5.6l-0.5,4.4l-3.4,1.9l-2.5-1.3v-7c0-2.4-2.5-5-3-5.5l-0.5-0.5l-0.7,0.1c-0.2,0-4.4,0.8-6.6,3
		c-1.2,1.2-1.5,2.6-1.1,4c0.2,0.6,0.5,1.1,0.8,1.4l1.2,4.8l0.6,5.5l-1.8,4.7c-0.4,0.5-2.2,2-6,2c-2.8,0-3.4,0-3.7,0.7
		c-2.2,0.5-3.2,1-3.5,2c0,0.1-0.1,0.3-0.1,0.4l-2,3.9l0.8,5.3l3.4,5.5l2.9,3.7l5.2,2.2l6.3-0.6l4.2,3.6l-1.4,4.6l-3.9-0.5l-5.8-2.9
		l-3.6,2.9l-7.4,0.6l-7.2,2.7l4.3,6l3.6,3.6L667,882c-1.7,0.3-5.6,1.1-8,1.1c-2.5,0-4.1,1.2-5.3,2.2c-0.6,0.5-1.1,0.9-1.6,1.1
		c-1,0.3-3.4-0.1-4.9-0.6l-5.7-3.4l0.5-6l3.4-4.7l-0.9-6.1l-5.3-0.8l-7-4.1c-0.2-1.9-0.4-5.6,0-7.4c0.4-1.4,2.7-2.1,3.5-2.3l0.8-0.1
		l2.6-7.8l-6.3-2.7l-9.1,5.9l-3.3-1.4l-1-3.3l4.7-6.3l-7.6-1.9l-5.8,2.6l-3-1.3l1-4.3l5.9-4.1l9.1-2l7.8-5l2.1-7.1
		c0.1-0.5,1.3-5.4,1.3-7.5c0-2,0-6.1-1.4-10.8c-1.4-5-5.6-7.8-5.8-7.9l-0.4-0.3l-5.3,0.9l-1.5,5.3l-1.7,4.6l-6.4,1.8l-10.8,0.7
		l-3.2,3.2l-2,8l-2.1,4.2l-4.2-0.9l-2.3-4.6l-2.5-5.6v-6.7l-8-1.5l-4.1-3l-5.5-8v-12.5l2.5-9.3l9.6-10.3l7-9l5.5-3.7l5.4-1.8
		c1.3,0.3,5.8,1.3,7.3,1.8c0.9,0.3,2.3,1.1,3.7,1.9c1.6,0.9,3,1.7,4.1,2.1c1.1,0.4,2.6,1.9,3.3,2.8l0.4,0.5h5.2l3.3-3.9h5.2l3.1,4.3
		l7.3,3.3l2.4,2.4l3.9,2.4l6.3-1l-3.5-6.1l-3.2-9.7c-0.7-2.1-5.4-5.2-7.4-6.4l-3-7.9l-1.2-8.7c0.2-0.7,0.8-2.5,1.7-3.9
		c0.7-1.1,3.8-2.6,5.8-3.4l6.8-1.2l8.5,2l8-2.2l2.4-4l0.7-5.9c0.4-0.8,2.1-3.9,4.2-6c2.3-2.3,5.8-2.9,5.8-2.9l2.2-0.7
		c2.2-0.7,3-1.5,3.1-1.6l0.4-0.4v-6.7l-2-4.7l-1.8-6.7l1.7-4.4l5.4-3.6l4.1-1.4l6,0.8l4.3,2.4l5,6.2l-2.6,7.9
		c-1.7,0.7-6.7,3-8.2,3.7c-2.2,1.1-3.3,3.7-3.3,5.5c0,0.9-0.5,4.9-0.9,7.2L692,692l3.8,4.8l7.5,6.6l5.1,5.9l2.8,4.8l-0.3,5.3
		l-2.9,1.2l-1.5,6.1v0.2c0,0.2,0.5,5.3,0.9,7.2c0.4,1.5,0,6.9-0.4,8c-0.4,1.3-0.2,5-0.1,6.9l-3.6,3.6l-3.9,4.8l-2,4.5l6.5,3.6
		l3.2-2.2l4.3-2.6l3.3-2.8l5.6,0.4l3.3,2.2c1,1.8,1.8,3.8,1.9,4.3C725.6,766,725.2,769.4,724.8,770.5z"/>
	<path class="st0" d="M536.1,819l-7-2.8h-8.8l-2.5,3.5l-4.1,3.7l-4.4,2.2l-3.6-2.2l-6.4-5.6l-0.3-0.2c-1.7-0.8-5.7-2.8-7.1-2.8
		c-1,0-10.1,0.4-11.7,0.9c-1.5,0.5-6.8,4.6-7.4,6.5c-0.5,1.5,0.6,5.5,1.3,7.8l0.3,0.9l7.5,0.5h6.3l8.6,3.3l1.6,1.6v2.5l-1.7,2.6v5.4
		l5.3,3.9l0.2,0.1c1,0.5,2.5,1.5,3,2.2c0.3,0.5,0.8,1,1.3,1.7c0.9,1.1,2.2,2.7,2.5,3.6c0.5,2,3.2,5.2,3.8,5.8l4.2,3.8l0.3,0.1
		c0,0,2.7,0.9,5.7,1.8c1.4,0.4,2.8,0.5,4.1,0.5c1.8,0,3.4-0.3,4.4-0.5c2.1-0.5,6-3.9,6.6-5.7c0.4-1.3,1.3-4.3,1.3-4.4l0.1-0.3
		l-0.1-0.3c-0.3-1.8-0.8-5-0.8-5.9c0-1.1-1.2-3-3.6-5.7l2.2-1.2h5.7l0.3-0.8c0.4-1,1.9-4.3,1.9-5.8v-7.2l-3.7-10.2L536.1,819z
		 M542.3,839.7c0,0.5-0.6,2.3-1.3,3.9h-4.7l-5.7,3.2l1.1,1.2c1.8,2,3.8,4.6,4,5.2c0,1.2,0.6,4.9,0.8,6c-0.2,0.8-0.9,3-1.2,4
		c-0.3,0.8-3.3,3.6-4.7,3.9c-1.2,0.3-4.2,0.9-7.2,0c-2.4-0.7-4.6-1.4-5.3-1.6l-3.7-3.2c-1.2-1.3-2.9-3.6-3.1-4.6
		c-0.4-1.5-1.8-3.2-3-4.6c-0.5-0.6-0.9-1.1-1.1-1.4c-1-1.4-3.3-2.7-3.9-3l-4.2-3v-3.3l1.7-2.6v-4.4l-2.8-2.8l-9.6-3.7h-6.7l-5.6-0.4
		c-0.6-2.2-1.2-4.7-1.1-5.3c0.4-1,4.7-4.5,5.7-4.8s9.2-0.8,10.9-0.8c0.7,0,3.5,1.3,5.8,2.4l6.4,5.5l5.2,3.1l5.9-2.9l4.7-4.1l2-2.7
		h6.9l6.2,2.5l4.3,2.7l3.2,8.9L542.3,839.7L542.3,839.7z"/>
	<path class="st0" d="M451.8,834.3l-5.3-3.1l-3.6-3.6l-3.4-1.3l-1.9-2.3l-3.2-5.5l-6.9-3.2l-5.8-1.8l-5.3-0.9
		c-0.6-0.2-3.3-0.8-6.7,0c-0.7,0.2-1.4,0.3-2.1,0.5c-2.8,0.7-5.1,1.2-6.4,2.5c-0.3,0.3-0.6,0.6-0.9,0.8c-1.1,1-2.5,2.1-3.3,4.5
		c-1.2,3.6-1.3,6.2-0.3,7.7s4.2,2.7,5.3,3.1c0.8,0.5,1.8,1.3,1.9,1.8c0.1,0.3,0.2,0.7,0.3,1c0.3,1.2,0.6,2.6,1.8,3.8
		c1.5,1.5,4.6,2.4,4.9,2.5l0.4,0.1l5.1-1.4l0.2-0.1c0.8-0.4,3.4-1.8,3.4-3.8c0-0.2,0-0.3,0-0.5c0-1.4,0-2.3,1.5-3l2.3-1.2h1.3
		c-0.1,0.9-0.4,1.7-0.6,1.9c-0.2,0.1-0.4,0.2-0.5,0.3c-1.1,0.7-1.7,1.2-2.2,3.1c-0.1,0.3-0.2,0.6-0.2,1c-0.5,1.9-1.1,4-0.6,5.5
		l0.4,1.3l0.1,0.3c0.3,0.5,2.9,4.7,5.2,6.1c1.4,0.8,1.8,1,2.5,1.3c0.4,0.2,1,0.4,2,0.9c2.3,1.2,4.7,4.4,4.8,4.4l0.3,0.4l6.1,1.5
		l4.2-1.6l0.2-0.3c0.7-1,2.4-3.6,2.4-5.1v-0.3l4-1.1l3.9-2.8l-1-7.2L451.8,834.3z M452.1,848l-5.5,1.5v2.3c0,0.5-0.8,1.9-1.7,3.3
		l-2.7,1l-4.4-1.1c-0.8-1-3-3.6-5.4-4.8c-1.1-0.5-1.7-0.8-2.1-1c-0.6-0.3-0.9-0.4-2.1-1.1c-1.5-0.9-3.5-3.9-4.3-5.1l-0.4-1.2
		c-0.2-0.7,0.3-2.7,0.6-3.9c0.1-0.3,0.2-0.7,0.3-1c0.2-1,0.3-1,1-1.5c0.2-0.1,0.4-0.2,0.6-0.4c1.8-1.2,1.9-4.5,1.9-5.5v-1.3h-4.7
		l-2.9,1.5c-3.1,1.5-3,4.1-2.9,5.5c0,0.2,0,0.3,0,0.4c-0.1,0.3-1,1-1.8,1.4l-4.3,1.2c-1.1-0.3-2.7-1-3.4-1.7
		c-0.7-0.7-0.9-1.6-1.1-2.5c-0.1-0.5-0.2-0.9-0.3-1.3c-0.6-1.7-2.8-3.1-3.2-3.3l-0.3-0.1c-1.6-0.5-3.7-1.5-4.1-2.1s-0.4-2.3,0.6-5.4
		c0.5-1.6,1.5-2.4,2.5-3.3c0.4-0.3,0.8-0.6,1.1-1c0.8-0.8,2.9-1.2,5.1-1.8c0.7-0.2,1.4-0.3,2.1-0.5c3-0.8,5.3,0,5.4,0l5.3,0.9
		l5.5,1.7l6.1,2.8l2.8,4.9l2.5,3.1l3.5,1.3l3.3,3.3l5.2,3.1l3.6,5.2l0.7,5L452.1,848z"/>
</g>
<text transform="matrix(1 0 0 1 177.7977 203.085)" class="st1 st2">거창군</text>
<text transform="matrix(1 0 0 1 308.1387 335.49)" class="st1 st2">합천군</text>
<text transform="matrix(1 0 0 1 57.2598 323.5001)" class="st1 st2">함양군</text>
<text transform="matrix(1 0 0 1 167.24 452.7999)" class="st1 st2">산청군</text>
<text transform="matrix(1 0 0 1 306.8442 561.8799)" class="st1 st2">진주시</text>
<text transform="matrix(1 0 0 1 103.0703 621.6055)" class="st1 st2">하동군</text>
<text transform="matrix(1 0 0 1 254.1799 663.5599)" class="st1 st2">사천시</text>
<text transform="matrix(1 0 0 1 420 685)" class="st1 st2">고성군</text>
<text transform="matrix(1 0 0 1 203.5 858.92)" class="st1 st2">남해군</text>
<text transform="matrix(1 0 0 1 421.2944 819.8701)" class="st1 st2">통영시</text>
<text transform="matrix(1 0 0 1 617.2442 793.3652)" class="st1 st2">거제시</text>
<text transform="matrix(1 0 0 1 570.5699 573.4297)" class="st1 st2">창원시</text>
<text transform="matrix(1 0 0 1 386.4795 430.7352)" class="st1 st2">의령군</text>
<text transform="matrix(1 0 0 1 725.5614 509.1699)" class="st1 st2">김해시</text>
<text transform="matrix(1 0 0 1 840.1104 428.445)" class="st1 st2">양산시</text>
<text transform="matrix(1 0 0 1 508.6445 356.1246)" class="st1 st2">창녕군</text>
<text transform="matrix(1 0 0 1 483.3243 509.1702)" class="st1 st2">함안군</text>
<text transform="matrix(1 0 0 1 686.5001 368.1243)" class="st1 st2">밀양시</text>
</svg>
