<?xml version="1.0" encoding="utf-8"?>
<!-- Generator: Adobe Illustrator 25.2.3, SVG Export Plug-In . SVG Version: 6.00 Build 0)  -->
<svg version="1.1" id="레이어_1" xmlns="http://www.w3.org/2000/svg" xmlns:xlink="http://www.w3.org/1999/xlink" x="0px"
	 y="0px" viewBox="0 0 250 250" style="enable-background:new 0 0 250 250;" xml:space="preserve">
<style type="text/css">
	.st0{fill:#FFFFFF;stroke:#000000;stroke-miterlimit:10;}
	.st1{fill:none;stroke:#000000;stroke-miterlimit:10;}
	.st2{fill:none;stroke:#000000;stroke-width:2;stroke-miterlimit:10;}
	.st3{font-family:'MalgunGothic-Semilight';}
	.st4{font-size:24px;}
</style>
<path class="st0" d="M102.98,105.95v27.12h38.7v-27.12c14.69-2.26,23.56-15.75,20.99-27.14c-1.94-8.61-10.32-15.57-20.71-16.65
	c-0.62-1.76-1.88-4.54-4.55-6.73c-3.89-3.2-8.37-3.21-14.1-3.21c-4.48-0.01-10.31-0.02-16.67,3.45c-4.16,2.27-6.9,5.13-8.47,7.06
	c-9.88,2.56-16.94,10.75-17.51,19.77C79.93,93.86,89.57,105.04,102.98,105.95z"/>
<path class="st0" d="M98.46,62.76c-0.64,0.65-2.52,2.72-2.82,5.93c-0.18,1.86,0.24,3.37,0.56,4.24"/>
<path class="st0" d="M89.9,89.21c0.45,1.07,1.99,4.33,5.81,7.2c2.21,1.67,4.32,2.55,5.57,2.99"/>
<path class="st0" d="M111.66,93.24c1.14,0.57,4.74,2.2,10.15,2.14c3.14-0.04,5.64-0.63,7.07-1.05"/>
<path class="st0" d="M146.52,94.12c1.06-0.33,4.29-1.47,7.22-4.81c1.71-1.94,2.63-3.86,3.11-5"/>
<line class="st1" x1="134.05" y1="112.73" x2="134.05" y2="122.61"/>
<line class="st1" x1="111.66" y1="112.73" x2="111.66" y2="122.61"/>
<line class="st1" x1="122.85" y1="112.73" x2="122.85" y2="122.61"/>
<line class="st1" x1="113.29" y1="128.26" x2="103.4" y2="128.26"/>
<line class="st1" x1="141.33" y1="128.26" x2="131.44" y2="128.26"/>
<path class="st1" d="M141.68,62.05c0.59,0.59,2.49,2.65,2.82,5.93c0.28,2.77-0.71,4.86-1.13,5.65"/>
<line class="st2" x1="31.47" y1="145.71" x2="212.26" y2="145.71"/>
<text transform="matrix(1 0 0 1 39.3804 173.0353)" class="st3 st4">대전브레드투어</text>
<line class="st2" x1="29.87" y1="180.95" x2="210.66" y2="180.95"/>
</svg>
