<?xml version="1.0" encoding="utf-8"?>
<!-- Generator: Adobe Illustrator 25.2.3, SVG Export Plug-In . SVG Version: 6.00 Build 0)  -->
<svg version="1.1" id="레이어_1" xmlns="http://www.w3.org/2000/svg" xmlns:xlink="http://www.w3.org/1999/xlink" x="0px"
	 y="0px" viewBox="0 0 300 300" style="enable-background:new 0 0 300 300;" xml:space="preserve">
<style type="text/css">
	.st0{fill:#FFFFFF;stroke:#000000;stroke-miterlimit:10;}
	.st1{font-family:'HeadlineR-HM';}
	.st2{font-size:36px;}
</style>
<path class="st0" d="M239.64,221.55H60.36V42.27c14.77,0,29.55,0,44.32,0c44.98,0,89.97,0,134.95,0
	C239.64,102.03,239.64,161.79,239.64,221.55z"/>
<path class="st0" d="M239.64,131.91c-15.26,0-30.52,0-45.77,0c-44.5,0-89,0-133.5,0c29.88,29.88,59.76,59.76,89.64,89.64
	c0-12,0-24,0-36c0-47.76,0-95.52,0-143.27"/>
<path class="st0" d="M150,176.82"/>
<path class="st0" d="M239.64,193.91c-0.63,1.24-13.73,25.81-41.09,27.64c-20.13,1.34-39.47-10.19-48.55-29.09"/>
<path class="st0" d="M147.27,85.91"/>
<path class="st0" d="M147.27,85.91"/>
<polyline class="st0" points="150,107.36 210.18,42.27 239.64,83 "/>
<polyline class="st0" points="239.64,107.36 209.09,107.36 209.09,96.82 "/>
<text transform="matrix(1 0 0 1 63.9998 258.6348)" class="st1 st2">내집꾸미기</text>
</svg>
