<?xml version="1.0" encoding="utf-8"?>
<!-- Generator: Adobe Illustrator 25.2.3, SVG Export Plug-In . SVG Version: 6.00 Build 0)  -->
<svg version="1.1" xmlns="http://www.w3.org/2000/svg" xmlns:xlink="http://www.w3.org/1999/xlink" x="0px" y="0px"
	 viewBox="0 0 250 250" style="enable-background:new 0 0 250 250;" xml:space="preserve">
<style type="text/css">
	.st0{fill:#C5950F;}
	.st1{fill:#FFFFFF;stroke:#000000;stroke-width:2;stroke-miterlimit:10;}
	.st2{fill:#F39800;stroke:#000000;stroke-width:2;stroke-miterlimit:10;}
	.st3{fill:#F39800;}
	.st4{fill:#F39800;stroke:#F39800;stroke-width:0.25;stroke-miterlimit:10;}
	.st5{fill:none;stroke:#F39800;stroke-width:0.25;stroke-miterlimit:10;}
	.st6{fill:none;stroke:#F39800;stroke-miterlimit:10;}
	.st7{stroke:#000000;stroke-width:0.25;stroke-miterlimit:10;}
	.st8{fill:none;stroke:#000000;stroke-width:2;stroke-miterlimit:10;}
	.st9{font-family:'MalgunGothic-Semilight';}
	.st10{font-size:21px;}
	.st11{font-size:18px;}
</style>
<g id="레이어_2">
	<g>
		<g>
			<path d="M-399.33,18.83c9.65,0,9.67-15,0-15C-408.99,3.83-409,18.83-399.33,18.83L-399.33,18.83z"/>
		</g>
	</g>
	<g>
		<g>
			<path class="st0" d="M101.5,123.11c9.65,0,9.67-15,0-15C91.85,108.11,91.83,123.11,101.5,123.11L101.5,123.11z"/>
		</g>
	</g>
</g>
<g id="레이어_1">
	<polygon class="st1" points="104.18,66.49 145.2,66.13 166.02,101.48 145.82,137.18 104.8,137.54 83.98,102.2 	"/>
	<line class="st1" x1="101.33" y1="143.34" x2="147.36" y2="142.93"/>
	<line class="st1" x1="105.44" y1="149.05" x2="141.05" y2="148.73"/>
	<line class="st1" x1="113.38" y1="153.55" x2="133.38" y2="153.55"/>
	<path class="st1" d="M130.1,157.11c-1.19,3.18-4.32,5.08-7.4,4.66c-2.48-0.34-4.6-2.16-5.48-4.66H130.1z"/>
	<g>
		<g>
			<path d="M122.97,162.08c3.22,0,3.22-5,0-5C119.76,157.08,119.75,162.08,122.97,162.08L122.97,162.08z"/>
		</g>
	</g>
	<g>
		<g>
			<path d="M126.81,161.53c3.22,0,3.22-5,0-5C123.59,156.53,123.59,161.53,126.81,161.53L126.81,161.53z"/>
		</g>
	</g>
	<g>
		<g>
			<path d="M121.33,161.53c3.22,0,3.22-5,0-5C118.11,156.53,118.11,161.53,121.33,161.53L121.33,161.53z"/>
		</g>
	</g>
	<g>
		<g>
			<path d="M125.44,162.08c3.22,0,3.22-5,0-5C122.22,157.08,122.22,162.08,125.44,162.08L125.44,162.08z"/>
		</g>
	</g>
	<g>
		<g>
			<path d="M120.31,161.17c3.22,0,3.22-5,0-5C117.09,156.17,117.08,161.17,120.31,161.17L120.31,161.17z"/>
		</g>
	</g>
	<path class="st2" d="M92.7,116.38c0.39-0.69,4.49-7.63,11.5-7.76c6.17-0.11,11.98,5.11,13.98,12.93"/>
	<path class="st2" d="M115.56,115.09c0.36-0.69,4.14-7.63,10.6-7.76c5.69-0.11,11.04,5.11,12.89,12.93"/>
	<path class="st2" d="M137.41,116.33c4.57-7.85,15.9-9.73,21.83-2.34"/>
	<path class="st1" d="M94,115.09"/>
	<polyline class="st2" points="96.07,122.72 104.8,137.54 145.82,137.18 154,122.72 	"/>
	<path class="st1" d="M92.7,116.99"/>
	<polygon class="st3" points="118.52,116.99 122.37,122.3 134.67,122 	"/>
	<polygon class="st3" points="94,116.74 97.26,122.72 117.19,122.72 	"/>
	<polygon class="st3" points="93.63,116.74 97.26,122.72 95.44,114.74 	"/>
	<polygon class="st3" points="96.07,115.93 95.44,117.93 117.19,123.04 116.89,121.11 	"/>
	<polyline class="st3" points="138,120.26 137.7,123.04 116.67,115.61 117.85,116.79 119.78,118.73 119.04,121.11 	"/>
	<g>
		<g>
			<path class="st3" d="M147.26,120.35c3.22,0,3.22-5,0-5C144.04,115.35,144.04,120.35,147.26,120.35L147.26,120.35z"/>
		</g>
	</g>
	<g>
		<g>
			<path class="st3" d="M117.79,115.92c0.04-0.02,0.08-0.03,0.13-0.03c-0.06,0.01-0.11,0.01-0.17,0.02c0.05-0.01,0.09-0.01,0.14,0
				c-0.06-0.01-0.11-0.01-0.17-0.02c0.05,0.01,0.1,0.02,0.14,0.04c-0.05-0.02-0.1-0.04-0.15-0.06c0.01,0,0.02,0.01,0.03,0.02
				c0.07,0.05,0.15,0.07,0.23,0.07c0.08,0.02,0.17,0.01,0.25-0.01c0.08-0.02,0.15-0.06,0.21-0.11c0.07-0.04,0.12-0.1,0.16-0.18
				c0.02-0.05,0.04-0.1,0.06-0.15c0.03-0.11,0.03-0.22,0-0.33c-0.02-0.05-0.04-0.1-0.06-0.15c-0.06-0.09-0.13-0.17-0.22-0.22
				c-0.06-0.03-0.13-0.06-0.2-0.08c-0.02-0.01-0.04-0.01-0.06-0.02s-0.04-0.01-0.06-0.01c-0.07-0.01-0.15-0.02-0.22-0.03
				c-0.09,0-0.19,0.01-0.28,0.03c-0.04,0.01-0.08,0.02-0.12,0.03c-0.08,0.02-0.15,0.06-0.21,0.11c-0.07,0.04-0.12,0.1-0.16,0.18
				c-0.05,0.07-0.07,0.15-0.07,0.23c-0.02,0.08-0.01,0.17,0.01,0.25c0.02,0.05,0.04,0.1,0.06,0.15c0.06,0.09,0.13,0.17,0.22,0.22
				c0.05,0.02,0.1,0.04,0.15,0.06C117.57,115.95,117.68,115.95,117.79,115.92L117.79,115.92z"/>
		</g>
	</g>
	<g>
		<g>
			<path class="st3" d="M117.48,115.96c0.8,0,0.81-1.25,0-1.25C116.68,114.71,116.68,115.96,117.48,115.96L117.48,115.96z"/>
		</g>
	</g>
	<g>
		<g>
			<path class="st3" d="M117.31,115.85c-0.02,0-0.15-0.04-0.07-0.02c0.06,0.01-0.04-0.04,0.01,0.01c0.03,0.03,0.03,0.03,0-0.01
				c0.01,0.02,0.02,0.03,0.04,0.05c0.02,0.04,0.05,0.07,0.07,0.11c0.12,0.2,0.23,0.4,0.37,0.59c0.3,0.4,0.7,0.72,1.15,0.95
				c1.02,0.52,2.17,0.56,3.3,0.57c0.27,0,0.53-0.2,0.6-0.46c0.07-0.25-0.04-0.59-0.29-0.71c-1.25-0.57-2.51-1.1-3.8-1.59
				c-0.32-0.12-0.69,0.13-0.77,0.44c-0.1,0.35,0.12,0.65,0.44,0.77c1.18,0.45,2.35,0.93,3.5,1.46c0.11-0.39,0.21-0.78,0.32-1.16
				c-1-0.01-2.08-0.01-2.93-0.54c-0.33-0.21-0.54-0.47-0.74-0.82c-0.26-0.46-0.62-0.85-1.18-0.87
				C116.51,114.58,116.51,115.83,117.31,115.85L117.31,115.85z"/>
		</g>
	</g>
	<g>
		<g>
			<path class="st3" d="M117.09,115.87c0.15,0.41,0.4,0.72,0.71,1.02c0.33,0.33,0.48,0.65,0.63,1.09c0.31,0.93,0.87,1.65,1.39,2.47
				c0.54,0.86,0.73,1.83,1.03,2.79c0.33,1.04,0.76,2.04,1.28,2.99c0.38,0.71,1.46,0.08,1.08-0.63c-0.5-0.92-0.91-1.87-1.21-2.88
				c-0.28-0.94-0.5-1.91-1.01-2.76c-0.47-0.78-1.06-1.44-1.35-2.32c-0.14-0.42-0.28-0.84-0.56-1.2c-0.23-0.3-0.65-0.56-0.79-0.91
				C118.01,114.79,116.8,115.11,117.09,115.87L117.09,115.87z"/>
		</g>
	</g>
	<g>
		<g>
			<path class="st3" d="M120.3,122.11c0.8,0,0.81-1.25,0-1.25C119.49,120.86,119.49,122.11,120.3,122.11L120.3,122.11z"/>
		</g>
	</g>
	<polygon class="st4" points="116.89,121.11 116.67,122.59 129.41,125 152.59,122.72 154,114.74 139.7,121.55 117.07,122.3 	"/>
	<path class="st4" d="M73.19,90.44"/>
	<polygon class="st4" points="120.3,114.74 119.04,122.3 139.04,123.7 136.67,116.33 	"/>
	<g>
		<g>
			<path class="st3" d="M117.11,126.71c0.33,0.09,0.67,0.17,1.01,0.22c0.55,0.09,1.1,0.17,1.66,0.21c0.34,0.01,0.67-0.06,0.96-0.22
				c0.31-0.1,0.58-0.27,0.8-0.52c0.24-0.23,0.42-0.49,0.52-0.8c0.16-0.3,0.23-0.62,0.22-0.96c-0.03-0.22-0.06-0.44-0.09-0.66
				c-0.12-0.42-0.33-0.79-0.64-1.1c-0.17-0.13-0.34-0.26-0.51-0.39c-0.39-0.23-0.81-0.34-1.26-0.34c-0.19-0.02-0.38-0.04-0.57-0.06
				c0.22,0.03,0.44,0.06,0.66,0.09c-0.48-0.07-0.96-0.16-1.43-0.29c-0.33-0.1-0.66-0.12-1-0.04c-0.33,0.02-0.64,0.11-0.93,0.3
				c-0.29,0.16-0.53,0.37-0.7,0.64c-0.22,0.24-0.37,0.52-0.45,0.85c-0.03,0.22-0.06,0.44-0.09,0.66c0,0.45,0.12,0.87,0.34,1.26
				c0.13,0.17,0.26,0.34,0.39,0.51C116.32,126.38,116.69,126.59,117.11,126.71L117.11,126.71z"/>
		</g>
	</g>
	<g>
		<g>
			<path class="st3" d="M119.93,121.65c-0.27-0.1-0.55-0.19-0.82-0.29c-0.22-0.03-0.44-0.06-0.66-0.09
				c-0.34-0.01-0.67,0.06-0.96,0.22c-0.21,0.06-0.4,0.17-0.55,0.32c-0.27,0.18-0.49,0.41-0.64,0.7c-0.08,0.2-0.17,0.4-0.25,0.6
				c-0.03,0.22-0.06,0.44-0.09,0.66c-0.01,0.34,0.06,0.67,0.22,0.96c0.1,0.31,0.27,0.58,0.52,0.8c0.02,0.02,0.04,0.04,0.06,0.06
				c0.08,0.07,0.23,0.18,0.26,0.2c0.03,0.02,0.18,0.14,0.26,0.2c0.01,0.01,0.03,0.02,0.04,0.03c0.21,0.11,0.44,0.2,0.66,0.28
				c0.03,0.01,0.05,0.01,0.08,0.02c0.69,0.12,0.78,0.12,1.48,0c0.02,0,0.05-0.01,0.07-0.02c0,0,0.01,0,0.01,0
				c0.2-0.08,0.4-0.17,0.6-0.25c0.01,0,0.01,0,0.02-0.01c0.01-0.01,0.03-0.01,0.04-0.02c0.01,0,0.01-0.01,0.02-0.01
				c0,0,0,0,0.01-0.01c0.17-0.13,0.34-0.26,0.51-0.39c0.01-0.01,0.02-0.02,0.03-0.02c0.08-0.08,0.19-0.24,0.22-0.28
				c0.03-0.04,0.16-0.19,0.22-0.28c0.06-0.1,0.13-0.29,0.14-0.33c0.01-0.03,0.11-0.22,0.14-0.33c0.06-0.24,0.11-0.49,0.1-0.74
				c0-0.12-0.04-0.31-0.05-0.36c-0.01-0.07-0.02-0.25-0.05-0.37c-0.06-0.23-0.17-0.45-0.28-0.67c-0.1-0.19-0.46-0.6-0.43-0.56
				c-0.02-0.02-0.04-0.04-0.06-0.06c-0.17-0.15-0.35-0.29-0.54-0.41c-0.01-0.01-0.02-0.01-0.04-0.02c-0.1-0.05-0.32-0.14-0.31-0.13
				c-0.05-0.02-0.21-0.1-0.32-0.13c-0.01,0-0.03-0.01-0.04-0.01c0,0-0.01,0-0.01,0c-0.22-0.03-0.44-0.06-0.66-0.09
				c-0.01,0-0.02,0-0.03,0c-0.01,0-0.01,0-0.02,0c-0.21,0.01-1.2,0.19-0.68,0.09c-0.24,0.05-0.46,0.16-0.67,0.28
				c-0.29,0.16-0.53,0.37-0.7,0.64c-0.22,0.24-0.37,0.52-0.45,0.85c-0.1,0.33-0.12,0.66-0.04,1c0.02,0.33,0.11,0.64,0.3,0.93
				c0.13,0.17,0.26,0.34,0.39,0.51c0.31,0.31,0.68,0.52,1.1,0.64c0.22,0.03,0.44,0.06,0.66,0.09c0.45,0,0.87-0.12,1.26-0.34
				c0.01,0,0.02-0.01,0.03-0.01c-0.2,0.08-0.4,0.17-0.6,0.25c0.02-0.01,0.03-0.01,0.05-0.01c-0.22,0.03-0.44,0.06-0.66,0.09
				c0.02,0,0.04,0,0.06,0c-0.22-0.03-0.44-0.06-0.66-0.09c0.02,0,0.05,0.01,0.07,0.02c-0.2-0.08-0.4-0.17-0.6-0.25
				c0.03,0.01,0.05,0.03,0.07,0.04c-0.17-0.13-0.34-0.26-0.51-0.39c0.02,0.02,0.05,0.04,0.07,0.07c-0.13-0.17-0.26-0.34-0.39-0.51
				c0.02,0.03,0.03,0.05,0.05,0.08c-0.08-0.2-0.17-0.4-0.25-0.6c0.01,0.03,0.02,0.05,0.02,0.08c-0.03-0.22-0.06-0.44-0.09-0.66
				c0,0.02,0,0.05,0,0.07c0.03-0.22,0.06-0.44,0.09-0.66c0,0.02-0.01,0.04-0.02,0.06c0.08-0.2,0.17-0.4,0.25-0.6
				c-0.01,0.02-0.02,0.04-0.04,0.07c0.13-0.17,0.26-0.34,0.39-0.51c-0.02,0.02-0.03,0.04-0.05,0.05c0.17-0.13,0.34-0.26,0.51-0.39
				c-0.02,0.02-0.05,0.03-0.08,0.05c0.2-0.08,0.4-0.17,0.6-0.25c-0.03,0.01-0.07,0.02-0.1,0.03c0.22-0.03,0.44-0.06,0.66-0.09
				c-0.04,0.01-0.08,0-0.12,0c0.22,0.03,0.44,0.06,0.66,0.09c-0.04-0.01-0.08-0.02-0.11-0.03c0.2,0.08,0.4,0.17,0.6,0.25
				c-0.03-0.01-0.06-0.03-0.09-0.05c0.17,0.13,0.34,0.26,0.51,0.39c-0.03-0.02-0.05-0.04-0.07-0.07c-0.81,1.39-1.62,2.79-2.43,4.18
				c0.27,0.1,0.55,0.19,0.82,0.29c0.33,0.1,0.66,0.12,1,0.04c0.33-0.02,0.64-0.11,0.93-0.3c0.29-0.16,0.53-0.37,0.7-0.64
				c0.22-0.24,0.37-0.52,0.45-0.85c0.03-0.22,0.06-0.44,0.09-0.66c0-0.45-0.12-0.87-0.34-1.26c-0.13-0.17-0.26-0.34-0.39-0.51
				C120.72,121.99,120.35,121.77,119.93,121.65L119.93,121.65z"/>
		</g>
	</g>
	<g>
		<g>
			<path class="st3" d="M118.07,125.09c3.22,0,3.22-5,0-5C114.86,120.09,114.85,125.09,118.07,125.09L118.07,125.09z"/>
		</g>
	</g>
	<g>
		<g>
			<path class="st3" d="M120.96,119.17c0.01,0,0.03-0.01,0.04-0.01c-0.22,0.03-0.44,0.06-0.66,0.09c0.05-0.01,0.1-0.01,0.15,0
				c-0.22-0.03-0.44-0.06-0.66-0.09c0.06,0.01,0.12,0.03,0.18,0.05c-0.2-0.08-0.4-0.17-0.6-0.25c0.06,0.03,0.11,0.06,0.17,0.1
				c-0.17-0.13-0.34-0.26-0.51-0.39c0.06,0.05,0.12,0.11,0.17,0.17c-0.13-0.17-0.26-0.34-0.39-0.51c0.05,0.06,0.09,0.13,0.12,0.2
				c-0.08-0.2-0.17-0.4-0.25-0.6c0.04,0.1,0.07,0.2,0.08,0.31c-0.03-0.22-0.06-0.44-0.09-0.66c0.04,0.34-0.01,0.67-0.03,1.01
				c-0.02,0.37,0.04,0.73,0.1,1.1c0.01,0.07,0.02,0.15,0.04,0.22c0.01,0.04,0.03,0.08,0.04,0.13c0.09,0.23,0.18,0.46,0.29,0.68
				c0.16,0.29,0.37,0.53,0.64,0.7c0.24,0.22,0.52,0.37,0.85,0.45c0.33,0.1,0.66,0.12,1,0.04c0.33-0.02,0.64-0.11,0.93-0.3
				c0.53-0.34,1-0.86,1.15-1.49c0.03-0.22,0.06-0.44,0.09-0.66c0-0.45-0.12-0.87-0.34-1.26c-0.01-0.03-0.03-0.05-0.04-0.08
				c0.08,0.2,0.17,0.4,0.25,0.6c-0.04-0.11-0.07-0.23-0.09-0.35c0.03,0.22,0.06,0.44,0.09,0.66c-0.03-0.28,0-0.55,0.02-0.83
				c0.01-0.14,0.02-0.29,0.01-0.43c-0.01-0.17-0.04-0.35-0.06-0.52c-0.02-0.17-0.04-0.35-0.08-0.52c-0.07-0.25-0.19-0.49-0.3-0.72
				c-0.03-0.05-0.05-0.11-0.08-0.16c-0.14-0.21-0.3-0.43-0.48-0.62c-0.11-0.12-0.25-0.21-0.37-0.3c-0.36-0.27-0.64-0.45-1.1-0.58
				c-0.03-0.01-0.06-0.01-0.09-0.02c-0.21-0.03-0.49-0.09-0.7-0.09c-0.03,0-0.05,0-0.08,0c-0.23,0.01-0.51,0.06-0.74,0.1
				c-0.33,0.08-0.61,0.23-0.85,0.45c-0.27,0.18-0.49,0.41-0.64,0.7c-0.18,0.29-0.28,0.6-0.3,0.93c-0.07,0.33-0.06,0.66,0.04,1
				c0.2,0.6,0.57,1.19,1.15,1.49c0.2,0.08,0.4,0.17,0.6,0.25C120.07,119.28,120.52,119.28,120.96,119.17L120.96,119.17z"/>
		</g>
	</g>
	<g>
		<g>
			<path class="st3" d="M121.11,121.83c3.22,0,3.22-5,0-5C117.89,116.83,117.89,121.83,121.11,121.83L121.11,121.83z"/>
		</g>
	</g>
	<g>
		<g>
			<path class="st3" d="M120.74,120.65c3.22,0,3.22-5,0-5C117.52,115.65,117.52,120.65,120.74,120.65L120.74,120.65z"/>
		</g>
	</g>
	<g>
		<g>
			<path class="st3" d="M120.15,119.31c3.22,0,3.22-5,0-5C116.93,114.31,116.93,119.31,120.15,119.31L120.15,119.31z"/>
		</g>
	</g>
	<g>
		<g>
			<path class="st3" d="M119.78,118.35c3.22,0,3.22-5,0-5C116.56,113.35,116.56,118.35,119.78,118.35L119.78,118.35z"/>
		</g>
	</g>
	<g>
		<g>
			<path class="st3" d="M140.59,125.02c3.22,0,3.22-5,0-5C137.38,120.02,137.37,125.02,140.59,125.02L140.59,125.02z"/>
		</g>
	</g>
	<g>
		<g>
			<path class="st3" d="M139.41,125.31c3.22,0,3.22-5,0-5C136.19,120.31,136.18,125.31,139.41,125.31L139.41,125.31z"/>
		</g>
	</g>
	<g>
		<g>
			<path class="st3" d="M138.81,125.46c3.22,0,3.22-5,0-5C135.6,120.46,135.59,125.46,138.81,125.46L138.81,125.46z"/>
		</g>
	</g>
	<g>
		<g>
			<path class="st3" d="M139.56,125.17c3.22,0,3.22-5,0-5C136.34,120.17,136.33,125.17,139.56,125.17L139.56,125.17z"/>
		</g>
	</g>
	<g>
		<g>
			<path class="st3" d="M142.07,119.61c3.22,0,3.22-5,0-5C138.86,114.61,138.85,119.61,142.07,119.61L142.07,119.61z"/>
		</g>
	</g>
	<g>
		<g>
			<path class="st3" d="M142.59,119.84c0.69,0.22,1.51,0.46,2.23,0.45c0.66-0.01,1.28-0.22,1.79-0.62c0.15-0.12,0.29-0.23,0.43-0.36
				c0.26-0.25-0.07,0.09-0.15,0.11c0,0,0.56-0.25,0.09-0.09c-0.37,0.13-0.03,0.01,0.05-0.01c0.12-0.04,0.25-0.06,0.37-0.1
				c0.32-0.1-0.09,0.01-0.21,0.01c0.5,0,0.99-0.06,1.49-0.04c1.11,0.03,2.24,0.12,3.36,0.08c1.61-0.06,2.95-0.62,3.9-1.97
				c0.75-1.08,0.23-2.82-0.9-3.42c-1.28-0.68-2.62-0.25-3.42,0.9c0.13-0.23,0.31-0.4,0.54-0.52c-0.22,0.13-0.14,0.11,0.25-0.07
				c-0.08,0.03-0.17,0.06-0.26,0.08c-0.26,0.05-0.18,0.05,0.25-0.02c-0.4-0.04-0.84,0.02-1.24,0.01c-0.98-0.03-1.96-0.07-2.94-0.07
				c-0.96,0-1.97,0.09-2.87,0.45c-0.7,0.28-1.3,0.61-1.85,1.14c-0.51,0.48,0.02,0.33,1.6-0.45c-0.13-0.02-0.27-0.05-0.4-0.08
				c-0.26-0.06-0.52-0.14-0.78-0.22c-1.25-0.39-2.78,0.46-3.08,1.75C140.53,118.13,141.26,119.42,142.59,119.84L142.59,119.84z"/>
		</g>
	</g>
	<polygon class="st3" points="155.33,113.8 157.41,114.3 156.37,116.74 	"/>
	<path class="st3" d="M96.81,95.19"/>
	<polygon class="st3" points="138.81,116.33 142.07,121.55 142.89,119.22 140.3,115.61 	"/>
	<polygon class="st3" points="157.41,114.3 152.74,123.04 151.78,116.04 	"/>
	<polygon class="st3" points="158,114.3 156.54,116.34 156.37,113.8 	"/>
	<polygon class="st5" points="116.67,115.61 117.69,117.11 117.62,115.32 	"/>
	<polygon class="st4" points="138.81,116.33 140.07,120.26 142.07,118.73 	"/>
	<path class="st4" d="M75.11,87.26"/>
	<g>
		<g>
			<path class="st3" d="M141.49,123.2c0.41,0.1,0.8,0.23,1.19,0.39c-0.2-0.08-0.4-0.17-0.6-0.25c0.3,0.13,0.59,0.27,0.88,0.44
				c0.29,0.18,0.6,0.28,0.93,0.3c0.33,0.07,0.66,0.06,1-0.04c0.2-0.08,0.4-0.17,0.6-0.25c0.38-0.22,0.67-0.52,0.9-0.9
				c0.02-0.02,0.03-0.05,0.04-0.07c0.09-0.17,0.21-0.45,0.26-0.64c0.03-0.22,0.06-0.44,0.09-0.66c0-0.01,0-0.03,0-0.04
				c0-0.01,0-0.03,0-0.04c-0.03-0.22-0.06-0.44-0.09-0.66c-0.01-0.03-0.01-0.06-0.02-0.09c-0.07-0.2-0.17-0.45-0.27-0.64
				c-0.03-0.06-0.06-0.11-0.1-0.17c-0.28-0.41-0.58-0.8-0.92-1.17c-0.35-0.37-0.75-0.68-1.07-1.08c0.13,0.17,0.26,0.34,0.39,0.51
				c-0.1-0.13-0.18-0.26-0.25-0.41c0.08,0.2,0.17,0.4,0.25,0.6c-0.05-0.12-0.09-0.25-0.11-0.38c-0.08-0.33-0.23-0.61-0.45-0.85
				c-0.18-0.27-0.41-0.49-0.7-0.64c-0.29-0.18-0.6-0.28-0.93-0.3c-0.33-0.07-0.66-0.06-1,0.04c-0.6,0.2-1.19,0.57-1.49,1.15
				c-0.08,0.2-0.17,0.4-0.25,0.6c-0.12,0.44-0.12,0.89,0,1.33c0.02,0.12,0.05,0.23,0.09,0.34c0.11,0.29,0.22,0.6,0.39,0.87
				c0.23,0.37,0.51,0.71,0.82,1.02c0.37,0.38,0.77,0.72,1.1,1.14c-0.13-0.17-0.26-0.34-0.39-0.51c0.1,0.14,0.21,0.28,0.29,0.43
				c-0.08-0.2-0.17-0.4-0.25-0.6c0.02,0.04,0.03,0.08,0.04,0.13c-0.03-0.22-0.06-0.44-0.09-0.66c0.01,0.03,0.01,0.06,0,0.08
				c0.03-0.22,0.06-0.44,0.09-0.66c0,0.01-0.01,0.03-0.01,0.04c0.08-0.2,0.17-0.4,0.25-0.6c-0.01,0.03-0.02,0.05-0.04,0.07
				c1.14-0.3,2.28-0.6,3.42-0.9c-0.5-0.29-1.04-0.51-1.58-0.73c-0.35-0.14-0.72-0.26-1.09-0.35c-0.64-0.16-1.35-0.08-1.93,0.25
				c-0.29,0.16-0.53,0.37-0.7,0.64c-0.22,0.24-0.37,0.52-0.45,0.85c-0.15,0.64-0.11,1.36,0.25,1.93
				C140.34,122.59,140.85,123.05,141.49,123.2L141.49,123.2z"/>
		</g>
	</g>
	<g>
		<g>
			<path class="st3" d="M141.41,119.24c3.22,0,3.22-5,0-5C138.19,114.24,138.18,119.24,141.41,119.24L141.41,119.24z"/>
		</g>
	</g>
	<g>
		<g>
			<path class="st3" d="M120.44,119.69c3.22,0,3.22-5,0-5C117.23,114.69,117.22,119.69,120.44,119.69L120.44,119.69z"/>
		</g>
	</g>
	<line class="st6" x1="115.56" y1="120.26" x2="120.15" y2="120.11"/>
	<line class="st7" x1="136.67" y1="116.33" x2="138" y2="120.26"/>
	<path class="st8" d="M126.43,77.17c-2.01-0.23-3.67,0.76-4.07,2.27c-0.36,1.35,0.36,2.89,0.67,3.58c0.84,1.81,1.6,1.6,2.52,3.43
		c0.45,0.89,1.15,2.27,0.87,3.75c-0.46,2.5-3.36,3.4-3.75,3.52c-0.76,0.22-1.4,0.21-1.85,0.15"/>
	<path class="st8" d="M118.26,83.33c-2.01-0.23-3.67,0.76-4.07,2.27c-0.36,1.35,0.36,2.89,0.67,3.58c0.84,1.81,1.6,1.6,2.52,3.43
		c0.45,0.89,1.15,2.27,0.87,3.75c-0.46,2.5-3.36,3.4-3.75,3.52c-0.76,0.22-1.4,0.21-1.85,0.15"/>
	<path class="st8" d="M136.15,71.79c-2.01-0.23-3.67,0.76-4.07,2.27c-0.36,1.35,0.36,2.89,0.67,3.58c0.84,1.81,1.6,1.6,2.52,3.43
		c0.45,0.89,1.15,2.27,0.87,3.75c-0.46,2.5-3.36,3.4-3.75,3.52c-0.76,0.22-1.4,0.21-1.85,0.15"/>
	<text transform="matrix(1 0 0 1 69.2862 185.6611)" class="st9 st10">브레드 투어</text>
	<text transform="matrix(1 0 0 1 73.1852 157.1098)" class="st9 st11">대</text>
	<text transform="matrix(1 0 0 1 159.2428 159.5758)" class="st9 st11">전</text>
</g>
</svg>
