<?xml version="1.0" encoding="utf-8"?>
<!-- Generator: Adobe Illustrator 25.2.3, SVG Export Plug-In . SVG Version: 6.00 Build 0)  -->
<svg version="1.1" id="레이어_1" xmlns="http://www.w3.org/2000/svg" xmlns:xlink="http://www.w3.org/1999/xlink" x="0px"
	 y="0px" viewBox="0 0 300 150" style="enable-background:new 0 0 300 150;" xml:space="preserve">
<style type="text/css">
	.st0{fill:#2C2224;}
	.st1{fill:#2E3092;}
	.st2{fill:none;stroke:#2E3092;stroke-width:5;stroke-miterlimit:10;}
	.st3{fill:none;stroke:#ED1B23;stroke-width:5;stroke-miterlimit:10;}
	.st4{fill:#FFFFFF;}
	.st5{font-family:'H2sa1M';}
	.st6{font-size:28px;}
</style>
<path class="st0" d="M215.61,69.66c-0.39-0.33-0.8-0.66-1.2-1c0.26-1.83-0.15-3.78-1.27-5.29c0.86-1.24,0.62-3.25-1.28-3.89
	c-0.34-0.11-0.69-0.21-1.04-0.29c-0.47-0.15-0.93-0.31-1.38-0.5c0.24-4.73-3.87-7.89-7.78-9.8c-0.39-0.43-0.78-0.86-1.17-1.28
	c0.02-0.04,0.04-0.07,0.06-0.11c0.87-1.81-0.59-4.43-2.82-3.67c-0.11,0.04-0.21,0.09-0.31,0.14c-0.33-0.47-0.79-0.83-1.34-0.94
	c-0.12-0.02-0.24-0.04-0.36-0.06c-1.44-1.15-3.19-2.02-4.86-1.83c-0.07-0.1-0.14-0.2-0.21-0.3c0.16-1.6-0.68-3.21-2.05-4.15
	c-1.63-1.12-3.88-1.38-5.76-1.85c-1.92-0.48-3.84-0.96-5.75-1.44c0.22-0.42,0.37-0.92,0.45-1.52c0.13-1.01-0.86-2.22-1.84-2.41
	c-3.02-0.6-6-0.47-9.03-0.09c0.11-0.67-0.09-1.38-0.72-2c-3.17-3.1-7.86-3.31-11.92-2.07c-1.71,0.52-3.31,1.32-4.89,2.14
	c-1.51-0.27-3.14-0.23-4.62-0.25c-5.76-0.08-11.58,0.25-16.93,2.43c-1.8,0-3.58,0.21-5.24,0.9c-1.98,0.82-3.84,2.65-4.39,4.69
	c-2.12-1.69-5.31-1.97-7.63-0.23c-1.19,0.89-1.98,2.09-2.65,3.37c-0.24,0.16-0.42,0.37-0.57,0.6c-0.21,0.21-0.41,0.46-0.59,0.73
	c-0.47,0.73-0.66,1.53-0.65,2.31c-0.3,0.56-0.63,1.09-1,1.6c-0.53,0.07-1.05,0.15-1.58,0.21c-1.34,0.16-2.5,1.04-2.5,2.5
	c0,0.09,0.02,0.17,0.03,0.25c-2.19,0.78-4.24,1.9-6.05,3.57c-0.42,0.39-0.64,0.85-0.72,1.31c-0.15,0.12-0.31,0.23-0.46,0.37
	c-1.04,0.95-0.88,2.78,0.13,3.68c-0.39,0.37-0.71,0.88-0.92,1.56c-0.35,1.14-0.54,2.36-0.62,3.6c-0.61,1.51-0.96,3.06-1.04,4.72
	c-0.02,0.38,0.08,0.74,0.25,1.08c-1.21,0.58-2.37,1.28-3.48,2.1c-0.13,0.01-0.26,0.03-0.39,0.06c-1.41,0.39-1.97,1.74-1.75,3.08
	c0.65,3.94,1.09,7.9,1.35,11.88c0.02,0.28,0.08,0.52,0.16,0.75c-0.01,0.04-0.02,0.08-0.03,0.13c-1.19,0.07-2.39,0.17-3.58,0.28
	c-3.18,0.3-3.25,4.78,0,5c1.28,0.09,2.57,0.16,3.86,0.23c0.19,2.21,1.49,3.96,3.36,5.14c1.58,0.99,3.4,1.42,4.77,2.73
	c2.42,2.31,3.97,5.5,6.99,7.17c1.97,1.09,3.98,1.05,6.16,1.15c1.48,0.06,2.93,0.67,4.32,1.32c-0.22,0.25-0.39,0.56-0.49,0.92
	c-0.33,1.19,0.41,2.86,1.75,3.08c2.47,0.4,4.92,0.88,7.35,1.43c0.2,0.2,0.41,0.4,0.61,0.61c1.72,1.79,3.45,3.67,5.77,4.69
	c2.11,0.93,4.8,1.02,6.56-0.72c0.29-0.29,0.51-0.6,0.69-0.93c1.12,0.24,2.24,0.41,3.37,0.49c-0.31,0.24-0.62,0.5-0.92,0.79
	c-1.38,1.39-0.65,3.59,1.1,4.18c2.38,0.8,5.38,1.66,7.9,1.33c0.84-0.11,1.49-0.46,2.01-0.96c0.32,0.39,0.76,0.69,1.26,0.84
	c1.49,0.44,2.94,0.96,4.38,1.56c1.24,0.52,2.75-0.56,3.08-1.75c0.02-0.09,0.03-0.17,0.04-0.25c0.76-0.03,1.52-0.07,2.27-0.13
	c3.06-0.24,6.1-0.62,9.14-1.04c0.77-0.11,1.54-0.22,2.31-0.33c2.02,0.2,4.05,0.35,6.09,0.44c1.29,0.05,2.57,0.09,3.86,0.09
	c1.2,0.01,2.44,0.04,3.52-0.54c2.37-1.28,2.34-4.33,1.2-6.43c-0.44-0.83-1.06-1.54-1.76-2.15c1.56-0.96,2.98-2.14,4.21-3.5
	c0.08,0.18,0.18,0.34,0.31,0.49c0.18,0.27,0.41,0.49,0.7,0.64c0.58,0.31,1.28,0.46,1.93,0.25c0.61-0.2,1.18-0.57,1.49-1.15
	c0.32-0.59,0.59-1.22,0.83-1.85c0.17-0.45,0.3-0.91,0.39-1.37c0-0.01,0-0.02,0.01-0.03c0.4,0.01,0.81-0.08,1.19-0.3
	c4.34-2.63,8.93-6,10.02-11.28c0.12-0.6,0.05-1.15-0.16-1.63c0.13-0.35,0.18-0.74,0.12-1.15c-0.17-1.13-1.2-2.29-2.46-2.17
	c-0.57,0.06-1.13,0.12-1.7,0.18c1.32-0.71,2.54-1.57,3.59-2.59c1.02-0.02,1.98-0.58,2.19-1.78c0.11-0.6,0.25-1.19,0.43-1.77
	c0.27-0.56,0.52-1.14,0.71-1.75c0.18-0.59,0.11-1.14-0.11-1.61c3.92,0.28,12.16,0.48,12.03-4.9
	C219.86,72.77,217.41,71.2,215.61,69.66z"/>
<g>
	<g>
		<path class="st0" d="M105.25,38.15c-0.13,0-0.27,0-0.4,0c-0.34-0.01-0.67,0.06-0.96,0.22c-0.31,0.1-0.58,0.27-0.8,0.52
			c-0.24,0.23-0.42,0.49-0.52,0.8c-0.16,0.3-0.23,0.62-0.22,0.96c0.03,0.22,0.06,0.44,0.09,0.66c0.12,0.42,0.33,0.79,0.64,1.1
			c0.17,0.13,0.34,0.26,0.51,0.39c0.39,0.23,0.81,0.34,1.26,0.34c0.13,0,0.27,0,0.4,0c0.34,0.01,0.67-0.06,0.96-0.22
			c0.31-0.1,0.58-0.27,0.8-0.52c0.24-0.23,0.42-0.49,0.52-0.8c0.16-0.3,0.23-0.62,0.22-0.96c-0.03-0.22-0.06-0.44-0.09-0.66
			c-0.12-0.42-0.33-0.79-0.64-1.1c-0.17-0.13-0.34-0.26-0.51-0.39C106.12,38.27,105.7,38.15,105.25,38.15L105.25,38.15z"/>
	</g>
</g>
<g>
	<g>
		<path class="st0" d="M100.09,41.2c-0.13,0.2-0.27,0.4-0.4,0.6c-0.18,0.29-0.28,0.6-0.3,0.93c-0.07,0.33-0.06,0.66,0.04,1
			c0.08,0.33,0.23,0.61,0.45,0.85c0.18,0.27,0.41,0.49,0.7,0.64c0.2,0.08,0.4,0.17,0.6,0.25c0.44,0.12,0.89,0.12,1.33,0
			c0.2-0.08,0.4-0.17,0.6-0.25c0.38-0.22,0.67-0.52,0.9-0.9c0.13-0.2,0.27-0.4,0.4-0.6c0.18-0.29,0.28-0.6,0.3-0.93
			c0.07-0.33,0.06-0.66-0.04-1c-0.08-0.33-0.23-0.61-0.45-0.85c-0.18-0.27-0.41-0.49-0.7-0.64c-0.2-0.08-0.4-0.17-0.6-0.25
			c-0.44-0.12-0.89-0.12-1.33,0c-0.2,0.08-0.4,0.17-0.6,0.25C100.61,40.53,100.31,40.83,100.09,41.2L100.09,41.2z"/>
	</g>
</g>
<g>
	<g>
		<path class="st0" d="M99.3,44.02c-0.2,0.27-0.4,0.53-0.61,0.8c-0.18,0.29-0.28,0.6-0.3,0.93c-0.07,0.33-0.06,0.66,0.04,1
			c0.08,0.33,0.23,0.61,0.45,0.85c0.18,0.27,0.41,0.49,0.7,0.64c0.2,0.08,0.4,0.17,0.6,0.25c0.44,0.12,0.89,0.12,1.33,0
			c0.2-0.08,0.4-0.17,0.6-0.25c0.38-0.22,0.67-0.52,0.9-0.9c0.2-0.27,0.4-0.53,0.61-0.8c0.18-0.29,0.28-0.6,0.3-0.93
			c0.07-0.33,0.06-0.66-0.04-1c-0.08-0.33-0.23-0.61-0.45-0.85c-0.18-0.27-0.41-0.49-0.7-0.64c-0.2-0.08-0.4-0.17-0.6-0.25
			c-0.44-0.12-0.89-0.12-1.33,0c-0.2,0.08-0.4,0.17-0.6,0.25C99.82,43.35,99.52,43.65,99.3,44.02L99.3,44.02z"/>
	</g>
</g>
<g>
	<g>
		<path class="st0" d="M96.29,45.42c-0.07,0.13-0.14,0.27-0.2,0.4c-0.18,0.29-0.28,0.6-0.3,0.93c-0.07,0.33-0.06,0.66,0.04,1
			c0.08,0.33,0.23,0.61,0.45,0.85c0.18,0.27,0.41,0.49,0.7,0.64c0.2,0.08,0.4,0.17,0.6,0.25c0.44,0.12,0.89,0.12,1.33,0
			c0.2-0.08,0.4-0.17,0.6-0.25c0.38-0.22,0.67-0.52,0.9-0.9c0.07-0.13,0.14-0.27,0.2-0.4c0.18-0.29,0.28-0.6,0.3-0.93
			c0.07-0.33,0.06-0.66-0.04-1c-0.08-0.33-0.23-0.61-0.45-0.85c-0.18-0.27-0.41-0.49-0.7-0.64c-0.2-0.08-0.4-0.17-0.6-0.25
			c-0.44-0.12-0.89-0.12-1.33,0c-0.2,0.08-0.4,0.17-0.6,0.25C96.81,44.75,96.51,45.05,96.29,45.42L96.29,45.42z"/>
	</g>
</g>
<g>
	<g>
		<path class="st0" d="M100.37,42.45c-2.29,0.35-4.44,1.5-6.12,3.07c-0.46,0.43-0.73,1.15-0.73,1.77c0,0.61,0.27,1.35,0.73,1.77
			c0.48,0.44,1.1,0.76,1.77,0.73c0.68-0.03,1.27-0.27,1.77-0.73c0.22-0.21,0.46-0.41,0.7-0.59c-0.17,0.13-0.34,0.26-0.51,0.39
			c0.64-0.49,1.34-0.89,2.08-1.21c-0.2,0.08-0.4,0.17-0.6,0.25c0.72-0.3,1.47-0.51,2.24-0.63c0.58-0.09,1.21-0.67,1.49-1.15
			c0.31-0.54,0.45-1.33,0.25-1.93c-0.2-0.6-0.57-1.19-1.15-1.49c-0.2-0.08-0.4-0.17-0.6-0.25
			C101.26,42.33,100.81,42.33,100.37,42.45L100.37,42.45z"/>
	</g>
</g>
<g>
	<g>
		<path class="st0" d="M93.24,47.01c-0.07,0.13-0.13,0.27-0.2,0.4c-0.18,0.29-0.28,0.6-0.3,0.93c-0.07,0.33-0.06,0.66,0.04,1
			c0.08,0.33,0.23,0.61,0.45,0.85c0.18,0.27,0.41,0.49,0.7,0.64c0.2,0.08,0.4,0.17,0.6,0.25c0.44,0.12,0.89,0.12,1.33,0
			c0.2-0.08,0.4-0.17,0.6-0.25c0.38-0.22,0.67-0.52,0.9-0.9c0.07-0.13,0.13-0.27,0.2-0.4c0.18-0.29,0.28-0.6,0.3-0.93
			c0.07-0.33,0.06-0.66-0.04-1c-0.08-0.33-0.23-0.61-0.45-0.85c-0.18-0.27-0.41-0.49-0.7-0.64c-0.2-0.08-0.4-0.17-0.6-0.25
			c-0.44-0.12-0.89-0.12-1.33,0c-0.2,0.08-0.4,0.17-0.6,0.25C93.76,46.34,93.46,46.63,93.24,47.01L93.24,47.01z"/>
	</g>
</g>
<g>
	<g>
		<path class="st0" d="M92.8,49.02c-0.13,0.33-0.27,0.67-0.4,1c-0.1,0.33-0.12,0.66-0.04,1c0.02,0.33,0.11,0.64,0.3,0.93
			c0.16,0.29,0.37,0.53,0.64,0.7c0.24,0.22,0.52,0.37,0.85,0.45c0.22,0.03,0.44,0.06,0.66,0.09c0.45,0,0.87-0.12,1.26-0.34
			c0.17-0.13,0.34-0.26,0.51-0.39c0.31-0.31,0.52-0.68,0.64-1.1c0.13-0.33,0.27-0.67,0.4-1c0.1-0.33,0.12-0.66,0.04-1
			c-0.02-0.33-0.11-0.64-0.3-0.93c-0.16-0.29-0.37-0.53-0.64-0.7c-0.24-0.22-0.52-0.37-0.85-0.45c-0.22-0.03-0.44-0.06-0.66-0.09
			c-0.45,0-0.87,0.12-1.26,0.34c-0.17,0.13-0.34,0.26-0.51,0.39C93.14,48.23,92.92,48.6,92.8,49.02L92.8,49.02z"/>
	</g>
</g>
<g>
	<g>
		<path class="st0" d="M91.64,52.43c-0.2,0.27-0.4,0.53-0.6,0.8c-0.18,0.29-0.28,0.6-0.3,0.93c-0.07,0.33-0.06,0.66,0.04,1
			c0.08,0.33,0.23,0.61,0.45,0.85c0.18,0.27,0.41,0.49,0.7,0.64c0.2,0.08,0.4,0.17,0.6,0.25c0.44,0.12,0.89,0.12,1.33,0
			c0.2-0.08,0.4-0.17,0.6-0.25c0.38-0.22,0.67-0.52,0.9-0.9c0.2-0.27,0.4-0.53,0.6-0.8c0.18-0.29,0.28-0.6,0.3-0.93
			c0.07-0.33,0.06-0.66-0.04-1c-0.08-0.33-0.23-0.61-0.45-0.85c-0.18-0.27-0.41-0.49-0.7-0.64c-0.2-0.08-0.4-0.17-0.6-0.25
			c-0.44-0.12-0.89-0.12-1.33,0c-0.2,0.08-0.4,0.17-0.6,0.25C92.16,51.76,91.86,52.06,91.64,52.43L91.64,52.43z"/>
	</g>
</g>
<g>
	<g>
		<path class="st0" d="M90.2,54.02c-0.33,0.47-0.66,0.94-0.99,1.41c-0.18,0.29-0.28,0.6-0.3,0.93c-0.07,0.33-0.06,0.66,0.04,1
			c0.08,0.33,0.23,0.61,0.45,0.85c0.18,0.27,0.41,0.49,0.7,0.64c0.2,0.08,0.4,0.17,0.6,0.25c0.44,0.12,0.89,0.12,1.33,0
			c0.2-0.08,0.4-0.17,0.6-0.25c0.38-0.22,0.67-0.52,0.9-0.9c0.33-0.47,0.66-0.94,0.99-1.41c0.18-0.29,0.28-0.6,0.3-0.93
			c0.07-0.33,0.06-0.66-0.04-1c-0.08-0.33-0.23-0.61-0.45-0.85c-0.18-0.27-0.41-0.49-0.7-0.64c-0.2-0.08-0.4-0.17-0.6-0.25
			c-0.44-0.12-0.89-0.12-1.33,0c-0.2,0.08-0.4,0.17-0.6,0.25C90.72,53.34,90.42,53.64,90.2,54.02L90.2,54.02z"/>
	</g>
</g>
<g>
	<g>
		<path class="st0" d="M88.02,57.45c-0.2,0.34-0.4,0.67-0.6,1.01c-0.18,0.29-0.28,0.6-0.3,0.93c-0.07,0.33-0.06,0.66,0.04,1
			c0.08,0.33,0.23,0.61,0.45,0.85c0.18,0.27,0.41,0.49,0.7,0.64c0.2,0.08,0.4,0.17,0.6,0.25c0.44,0.12,0.89,0.12,1.33,0
			c0.2-0.08,0.4-0.17,0.6-0.25c0.38-0.22,0.67-0.52,0.9-0.9c0.2-0.34,0.4-0.67,0.6-1.01c0.18-0.29,0.28-0.6,0.3-0.93
			c0.07-0.33,0.06-0.66-0.04-1c-0.08-0.33-0.23-0.61-0.45-0.85c-0.18-0.27-0.41-0.49-0.7-0.64c-0.2-0.08-0.4-0.17-0.6-0.25
			c-0.44-0.12-0.89-0.12-1.33,0c-0.2,0.08-0.4,0.17-0.6,0.25C88.54,56.78,88.24,57.07,88.02,57.45L88.02,57.45z"/>
	</g>
</g>
<g>
	<g>
		<path class="st0" d="M87.42,62.3c0.07,0.07,0.13,0.13,0.2,0.2c0.23,0.24,0.49,0.42,0.8,0.52c0.3,0.16,0.62,0.23,0.96,0.22
			c0.34,0.01,0.67-0.06,0.96-0.22c0.31-0.1,0.58-0.27,0.8-0.52c0.13-0.17,0.26-0.34,0.39-0.51c0.23-0.39,0.34-0.81,0.34-1.26
			c-0.03-0.22-0.06-0.44-0.09-0.66c-0.12-0.42-0.33-0.79-0.64-1.1c-0.07-0.07-0.13-0.13-0.2-0.2c-0.23-0.24-0.49-0.42-0.8-0.52
			c-0.3-0.16-0.62-0.23-0.96-0.22c-0.34-0.01-0.67,0.06-0.96,0.22c-0.31,0.1-0.58,0.27-0.8,0.52c-0.13,0.17-0.26,0.34-0.39,0.51
			c-0.23,0.39-0.34,0.81-0.34,1.26c0.03,0.22,0.06,0.44,0.09,0.66C86.9,61.62,87.11,61.99,87.42,62.3L87.42,62.3z"/>
	</g>
</g>
<g>
	<g>
		<path class="st0" d="M88.45,57.39c-3.1,3.05-4.3,7.55-3.19,11.75c0.5,1.86,2.83,2.38,4.18,1.1c1.32-1.25,2.09-2.85,2.3-4.64
			c0.16-1.4-0.01-2.81,0.18-4.21c0.35-2.57,1.56-5.09,3.23-7.07c1.71-2.02,3.85-3.69,6.3-4.72c1.56-0.66,3.08-1.03,4.13-2.47
			c0.8-1.1,0.92-2.48,1.63-3.59c1.73-2.72-2.59-5.23-4.32-2.52c-0.41,0.65-0.69,1.38-0.94,2.11c-0.11,0.32-0.22,0.64-0.32,0.95
			c-0.04,0.13-0.34,0.39-0.1,0.18c0.29-0.25-0.21,0.07-0.35,0.12c-0.35,0.12-0.69,0.25-1.04,0.38c-0.76,0.3-1.52,0.63-2.25,1.01
			c-2.48,1.29-4.76,3.13-6.53,5.29c-1.83,2.24-3.26,4.78-3.99,7.6c-0.36,1.37-0.55,2.8-0.57,4.21c-0.02,1.46,0.21,2.76-0.91,3.83
			c1.39,0.37,2.79,0.74,4.18,1.1c-0.67-2.5,0.06-5.07,1.9-6.88C94.28,58.66,90.75,55.13,88.45,57.39L88.45,57.39z"/>
	</g>
</g>
<g>
	<g>
		<path class="st0" d="M93.17,52.01c-0.6,1.18-0.97,2.42-1.3,3.7c-0.22,0.88-0.44,2.05-0.97,2.59c-0.38,0.39-1,0.47-1.56,0.65
			c-0.68,0.21-1.36,0.47-2,0.79c-1.3,0.66-2.49,1.64-3.41,2.76c-4.44,5.38-3.66,12.48-1.32,18.6c0.36,0.94,1.02,1.66,2.08,1.79
			c0.92,0.11,2.07-0.29,2.49-1.19c1.07-2.29,2.09-4.66,1.78-7.24c-0.27-2.26-1.88-3.83-2.41-5.95c-0.57-2.31-4.34-2.46-4.82,0
			c-0.95,4.85-1.91,9.97-2.01,14.92c-0.05,2.39,1.64,4.29,4.1,4.22c2.31-0.07,3.77-1.83,4.65-3.78c0.71-1.57-0.08-3.91-2.16-3.76
			c-4.29,0.3-3.96,5.06-4.08,8.23c-0.07,1.93-0.22,3.87-0.21,5.79c0,2.03,0.91,3.14,2.33,4.47c2.41,2.27,5.05,4.47,8.05,5.93
			c1.4,0.68,2.87,1.24,4.4,1.57c0.63,0.14,1.58,0.14,2.09,0.58c0.25,0.21,0.4,0.82,0.5,1.18c0.33,1.22,0.47,2.47,0.93,3.66
			c0.68,1.77,1.84,3.19,3.36,4.32c2.78,2.07,6.29,2.55,9.67,2.69c3.9,0.16,7.8,0.22,11.7,0.33c1.96,0.05,3.93,0.11,5.89,0.16
			c1.63,0.05,3.56-0.13,5.09,0.54c1.68,0.74,2.98,2.03,4.75,2.66c1.94,0.69,4.05,0.81,6.08,1.02c4.1,0.41,8.11,1.43,11.95,2.9
			c1.26,0.48,2.74-0.53,3.08-1.75c0.39-1.43-0.49-2.57-1.75-3.08c-5.77-2.32-11.99-2.87-18.11-3.65c-3.1-0.4-6.16-0.93-9.18-1.72
			c-3.08-0.81-6.14-1.76-9.29-2.25c-2.99-0.47-6.06-0.57-8.99-1.38c-1.7-0.47-4.51-1.56-4.54-3.71c-0.01-1.42,0.27-2.71-0.8-3.89
			c-0.58-0.63-1.32-0.99-2.17-1.04c-0.5-0.03-1.01,0.1-1.49-0.08c-0.98-0.37-1.55-1.53-1.98-2.4c-0.66-1.32-1.15-2.71-1.92-3.97
			c-3.18-5.19-9-8.43-15.06-8.5c-3.22-0.04-3.22,4.96,0,5c4.03,0.05,8.04,2.07,10.35,5.41c1.33,1.93,1.9,4.26,3.26,6.16
			c0.77,1.07,1.73,2.04,2.92,2.64c1.35,0.68,2.5,0.6,3.94,0.73c-0.42-0.11-0.84-0.23-1.26-0.34c-0.11-0.17-0.22-0.34-0.33-0.51
			c-0.24-0.59-0.35-0.71-0.34-0.35c-0.04,0.04-0.03,0.41-0.04,0.48c-0.03,0.4-0.07,0.78-0.04,1.18c0.09,1.03,0.37,1.98,0.86,2.89
			c0.86,1.59,2.35,2.89,3.91,3.76c3.57,1.99,7.79,2.11,11.75,2.64c4.11,0.55,8.02,1.94,12.05,2.86c4.02,0.92,8.12,1.34,12.2,1.86
			c4.42,0.56,8.83,1.33,12.99,3c0.44-1.61,0.89-3.21,1.33-4.82c-3.2-1.22-6.5-2.12-9.88-2.65c-2.91-0.45-6.46-0.19-9.07-1.74
			c-1.28-0.77-2.41-1.68-3.84-2.19c-1.65-0.59-3.46-0.64-5.19-0.69c-3.52-0.1-7.03-0.2-10.55-0.29c-3.5-0.1-7.11,0.05-10.58-0.4
			c-2.26-0.29-5.05-1.15-6-3.47c-0.99-2.4-0.71-5.07-2.84-6.95c-1.29-1.14-2.84-1.37-4.45-1.76c-1.37-0.33-2.65-0.85-3.88-1.54
			c-1.36-0.76-2.63-1.67-3.82-2.67c-0.63-0.53-1.24-1.08-1.85-1.64c-0.3-0.28-0.6-0.56-0.89-0.84c-0.14-0.13-0.27-0.26-0.4-0.39
			c-0.23-0.26-0.19-0.12,0.13,0.41c-0.23-0.08,0.19-5.26,0.2-5.7c0.04-0.97,0.07-1.93,0.11-2.9c0.01-0.38,0.12-0.88,0.05-1.25
			c0.01,0.17,0.04,0.09,0.08-0.22c-0.14,0.43-0.53,0.65-1.15,0.66c-0.72-1.25-1.44-2.51-2.16-3.76c-0.14,0.32-0.62,0.97-0.65,1.3
			c-0.01,0.13,0.12-0.01,0.13,0.03c0.04-0.01,0.07-0.01,0.11,0c0.47,0.01,0.79,0.34,0.97,0.97c0.27-0.38,0.12-1.63,0.16-2.11
			c0.07-0.81,0.15-1.62,0.24-2.44c0.34-3.1,0.84-6.19,1.44-9.25c-1.61,0-3.21,0-4.82,0c0.41,1.66,1.49,2.93,2.11,4.48
			c0.63,1.59-0.32,3.43-0.98,4.85c1.52,0.2,3.05,0.4,4.57,0.6c-1.79-4.67-3.34-11.39,1.29-15.03c0.89-0.7,1.89-0.92,2.94-1.28
			c1.47-0.51,2.65-1.31,3.54-2.6c1.32-1.92,1.25-4.33,2.28-6.34C98.95,51.67,94.64,49.14,93.17,52.01L93.17,52.01z"/>
	</g>
</g>
<g>
	<g>
		<path class="st0" d="M82.01,88.02c-1.05,2.41,0.15,3.97,1.58,5.87c1.2,1.6,2.38,3.22,3.62,4.79c2.27,2.87,5.7,5.87,9.66,4.99
			c3.9-0.86,5.51-5.76,2.43-8.5c-2.7-2.4-8.61-3.02-9.47,1.58c-0.26,1.37,0.37,2.64,1.75,3.08c2.1,0.66,4.2,1.33,6.3,1.99
			c1.01,0.32,2.02,0.64,3.03,0.96c0.81,0.26,1.93,0.42,2.6,0.92c-0.3-0.3-0.6-0.6-0.9-0.9c0.39,0.53,0.47,1.7,0.76,2.4
			c0.36,0.88,0.79,1.65,1.36,2.41c1.29,1.7,2.93,2.84,4.9,3.62c0-1.61,0-3.21,0-4.82c-1.5,0.46-2.99,0.6-4.54,0.28
			c0,1.61,0,3.21,0,4.82c1.22-0.32,2.7,0.93,3.75,1.43c1.72,0.82,3.55,1.29,5.47,1.25c3.79-0.09,7.32-1.73,10.65-3.41
			c2.11-1.06,1.22-4.99-1.26-4.66c-2.47,0.33-4.69,1.29-6.34,3.22c-0.81,0.95-1.11,2.62,0,3.54c0.68,0.56,1.36,1.12,2.04,1.68
			c0.59-1.42,1.18-2.85,1.77-4.27c-1.72-0.14-3.3-1.01-4.78-1.83c-1.83-1-3.67-2.06-5.68-2.67c-2.36-0.71-4.68-0.47-7.07-0.1
			c-1.58,0.24-3.79,0.67-5.08-0.56c-2.33-2.21-5.88,1.32-3.54,3.54c1.81,1.72,4.24,2.37,6.7,2.25c2.42-0.12,4.9-1.04,7.32-0.4
			c1.97,0.52,3.69,1.67,5.47,2.61c2.12,1.12,4.25,1.97,6.66,2.16c2.08,0.17,3.41-2.91,1.77-4.27c-0.68-0.56-1.36-1.12-2.04-1.68
			c0,1.18,0,2.36,0,3.54c0.72-0.84,1.66-1.6,2.8-1.76c-0.42-1.55-0.84-3.11-1.26-4.66c-2.79,1.41-6.13,3.15-9.36,2.68
			c-1.5-0.22-2.73-1.11-4.07-1.74c-1.7-0.8-3.38-1.21-5.24-0.72c-2.3,0.6-2.46,4.31,0,4.82c2.42,0.51,4.82,0.46,7.2-0.28
			c2.51-0.78,2.23-3.94,0-4.82c-1.26-0.5-2.32-1.6-2.87-2.81c-0.77-1.71-0.54-3.44-2.46-4.48c-1.85-1-4.19-1.42-6.19-2.05
			c-2.18-0.69-4.35-1.38-6.53-2.06c0.58,1.03,1.16,2.05,1.75,3.08c0.15-0.81-0.22,0.14-0.22,0.1c-0.18,0.05-0.17,0.06,0.03,0.03
			c0.27,0.06,0.54,0.14,0.8,0.24c0.23,0.1,0.48,0.37,0.72,0.43c0.27,0.07-0.2-0.13,0-0.2c-0.83,0.28-1.76-0.15-2.55-0.73
			c-1.33-0.96-2.35-2.36-3.33-3.66c-0.64-0.85-1.27-1.69-1.91-2.54c-0.29-0.39-0.59-0.78-0.88-1.17c-0.2-0.26-0.39-0.52-0.59-0.78
			c-0.2-0.4-0.27-0.46-0.21-0.18c-0.11,0.42-0.23,0.84-0.34,1.26c0.05-0.11,0.1-0.22,0.15-0.34c0.54-1.24,0.37-2.68-0.9-3.42
			C84.38,86.5,82.55,86.77,82.01,88.02L82.01,88.02z"/>
	</g>
</g>
<g>
	<g>
		<path class="st0" d="M96.42,103.21c-1.6,0.21-3.21,0.27-4.82,0.2c-0.62-0.03-1.33,0.3-1.77,0.73c-0.43,0.43-0.76,1.15-0.73,1.77
			c0.06,1.4,1.1,2.44,2.5,2.5c1.61,0.07,3.22,0,4.82-0.2c0.34,0.01,0.67-0.06,0.96-0.22c0.31-0.1,0.58-0.27,0.8-0.52
			c0.43-0.43,0.76-1.15,0.73-1.77c-0.03-0.65-0.24-1.32-0.73-1.77C97.73,103.52,97.06,103.13,96.42,103.21L96.42,103.21z"/>
	</g>
</g>
<g>
	<g>
		<path class="st0" d="M82.41,101.75c0.98,1.6,2.09,3.13,3.65,4.2c0.75,0.52,1.63,0.89,2.52,1.05c0.2,0.04,0.41,0.06,0.61,0.1
			c0.08,0.02,0.54,0.18,0.24,0.04c0.06,0.03,0.55,0.35,0.4,0.24c-0.13-0.09,0.42,0.35,0.4,0.33c1.57,1.29,3.13,2.59,4.71,3.87
			c1.87,1.51,3.85,2.67,6.34,2.11c1.28-0.29,2.15-1.83,1.75-3.08c-0.43-1.34-1.71-2.05-3.08-1.75c0.25-0.06,0.07,0.02-0.09,0
			c0.4,0.04-0.11-0.05-0.2-0.08c-0.38-0.13,0.24,0.14-0.12-0.06c-0.16-0.09-0.31-0.18-0.47-0.27c-0.62-0.4-1.06-0.8-1.78-1.39
			c-1.39-1.14-2.76-2.31-4.17-3.42c-0.78-0.62-1.59-1.16-2.59-1.37c-0.36-0.07-0.73-0.12-1.09-0.2c-0.18-0.04-0.31-0.09-0.06,0.02
			c-0.14-0.06-0.28-0.14-0.41-0.21c-0.05-0.03-0.54-0.37-0.32-0.2c0.19,0.15-0.16-0.15-0.2-0.18c-0.26-0.25-0.5-0.51-0.74-0.79
			c-0.09-0.11-0.21-0.28-0.06-0.07c-0.1-0.13-0.19-0.26-0.28-0.4c-0.23-0.33-0.44-0.67-0.65-1.02c-0.7-1.15-2.24-1.59-3.42-0.9
			C82.16,99.01,81.7,100.6,82.41,101.75L82.41,101.75z"/>
	</g>
</g>
<g>
	<g>
		<path class="st0" d="M128.55,92.55c3.22,0,3.22-5,0-5C125.33,87.55,125.32,92.55,128.55,92.55L128.55,92.55z"/>
	</g>
</g>
<g>
	<g>
		<path class="st0" d="M77.09,77.57c-0.54,1.99-1.08,3.98-1.61,5.98c-0.37,1.41-0.28,2.74,0.81,3.81c0.85,0.83,2.04,1.08,3.18,1.16
			c0.33,0.02,0.66,0.01,0.99,0.02c0.16,0,0.33,0.03,0.48,0.02c0.2,0.02,0.1,0-0.28-0.04c0.1,0.02,0.19,0.04,0.28,0.08
			c-0.11-0.05-0.22-0.09-0.33-0.14c0.22,0.14,0.16,0.1-0.16-0.13c-0.11-0.11-0.37-0.76-0.26-0.31c-0.1-0.41-0.04-0.21-0.06,0.1
			c-0.01,0.2-0.03,0.4-0.04,0.6c-0.06,1,0.15,2.03,0.7,2.88c0.87,1.35,2.27,1.87,3.81,1.58c1.29-0.23,2.14-1.87,1.75-3.08
			c-0.45-1.38-1.69-2-3.08-1.75c0.49-0.15,0.91-0.08,1.27,0.22c0.39,0.27,0.48,0.31,0.26,0.11c0.09,0.09,0.3,0.4,0.13,0.11
			c0.13,0.32,0.16,0.39,0.11,0.21c-0.05-0.19-0.04-0.1,0.02,0.26c-0.02,0,0.01-0.42,0.01-0.45c0.04-0.83,0.11-1.68-0.18-2.48
			c-0.71-1.98-2.46-2.76-4.45-2.8c-0.28-0.01-0.55,0-0.83-0.01c-0.06,0-0.37-0.07-0.41-0.03c0.18-0.16,0.51,0.14,0.12-0.01
			c-0.28-0.11,0.47,0.28,0.1,0.04c0.37,0.19,0.54,0.53,0.51,1c0.11,0.86,0.21,1.06,0.29,0.6c0.18-0.33,0.22-0.83,0.32-1.2
			c0.45-1.67,0.9-3.35,1.35-5.02c0.34-1.26-0.42-2.77-1.75-3.08C78.85,75.53,77.45,76.22,77.09,77.57L77.09,77.57z"/>
	</g>
</g>
<g>
	<g>
		<path class="st0" d="M217.07,73.68c-1.77,3.08-3.45,6.41-5.59,9.26c0.3-0.3,0.6-0.6,0.9-0.9c-0.09,0.05-0.19,0.1-0.28,0.15
			c0.64-0.08,1.28-0.17,1.93-0.25c-0.11-0.03-0.21-0.05-0.32-0.08c0.37,0.21,0.74,0.43,1.1,0.64c-1.02-0.85-1.87-1.94-2.63-3.02
			c-0.72,1.25-1.44,2.51-2.16,3.76c0.08,0,0.17-0.01,0.25-0.01c-0.59-0.24-1.18-0.49-1.77-0.73c0.07,0.06,0.14,0.11,0.21,0.17
			c-0.21-0.37-0.43-0.74-0.64-1.1c0.03,0.09,0.06,0.17,0.1,0.26c0-0.44,0-0.89,0-1.33c0.12-0.12,0.12-0.1,0.01,0.04
			c-0.11,0.16-0.22,0.32-0.34,0.48c-0.17,0.24-0.35,0.48-0.52,0.72c-0.47,0.66-0.95,1.33-1.42,1.99c-0.91,1.27-1.81,2.54-2.72,3.8
			c-0.67,0.94-0.29,2.24,0.39,3.03c0.71,0.82,1.72,1.2,2.79,1.19c3.26-0.05,3.17-4.74,0-5c-0.52-0.04-1.04-0.09-1.57-0.13
			c0.59,1.42,1.18,2.85,1.77,4.27c0.37-0.3,0.87-0.33,1.33-0.33c-0.83-0.83-1.67-1.67-2.5-2.5c-0.04,2.67-0.82,5.26-2.33,7.47
			c-0.11,0.16-0.38,0.4-0.44,0.56c-0.2,0.19-0.18,0.18,0.08-0.01c0.17,0,0.34-0.01,0.52-0.01c0.52,0.17,0.98,1.3,0.81,0.23
			c-0.06-0.36-0.11-0.73-0.16-1.09c-0.2-1.53-0.35-3.07-0.48-4.61c-0.1-1.24-0.87-2.3-2.17-2.46c-1.12-0.13-2.54,0.55-2.74,1.79
			c-0.16,1.01-0.46,1.81-1.04,2.66c-0.76,1.12-0.21,2.77,0.9,3.42c1.23,0.72,2.66,0.23,3.42-0.9c0.78-1.16,1.32-2.48,1.54-3.86
			c-1.64-0.22-3.27-0.44-4.91-0.66c0.2,2.44,0.35,5,0.87,7.4c0.56,2.53,3.32,3.78,5.62,2.57c2.04-1.07,3.25-3.55,4.09-5.58
			c0.92-2.2,1.37-4.54,1.41-6.93c0.02-1.36-1.16-2.48-2.5-2.5c-1.88-0.02-3.42,0.64-4.86,1.79c-0.76,0.61-0.88,1.91-0.52,2.73
			c0.42,0.96,1.25,1.45,2.28,1.54c0.52,0.04,1.04,0.09,1.57,0.13c0-1.67,0-3.33,0-5c0.25,0.09,0.5,0.18,0.74,0.28
			c0.13,1.01,0.26,2.02,0.39,3.03c1.42-1.99,2.85-3.98,4.27-5.98c0.71-1,1.42-1.95,1.26-3.25c-0.19-1.5-1.5-2.65-3.02-2.58
			c-1.74,0.08-3.32,2.12-2.16,3.76c0.93,1.32,1.94,2.71,3.14,3.81c1.78,1.64,3.85,1.09,5.12-0.82c1.89-2.84,3.57-5.84,5.26-8.79
			C222.98,73.4,218.67,70.88,217.07,73.68L217.07,73.68z"/>
	</g>
</g>
<g>
	<g>
		<path class="st0" d="M209.01,78.21c1.01,2.05,1.96,4.13,2.83,6.25c0.82,2,1.99,4.27,2.29,6.41c0-0.44,0-0.89,0-1.33
			c0.91-0.7,1-0.87,0.25-0.52c-0.16,0.06-0.31,0.12-0.47,0.18c-0.54,0.2-1.09,0.41-1.63,0.61c-1.01,0.38-2.02,0.76-3.03,1.14
			c1.03,0.58,2.05,1.16,3.08,1.75c-0.37-1.66-0.2-3.39,0.54-4.93c-1.44,0-2.88,0-4.32,0c0.45,0.87,0.9,1.75,1.35,2.62
			c0.24,0.47,0.86,1.45,0.84,1.72c-0.04,0.57-0.59,1.25-0.88,1.73c-0.33,0.55-0.65,1.1-1.08,1.57c-1.69,1.84-4.79,1.97-6.94,3.09
			c-1.35,0.71-2.36,1.73-3.2,3c-0.73,1.1-1.42,1.42-2.67,1.83c-2.9,0.95-6.35,2.9-6.01,6.49c0.16,1.63,1.47,2.83,3.16,2.41
			c1.86-0.46,3.73-0.92,5.59-1.38c-0.64-1.52-1.28-3.05-1.93-4.57c-3.95,1.81-8.08,3.19-12.31,4.2c0.44,1.61,0.89,3.21,1.33,4.82
			c0.62-0.26-0.11-0.2-0.35-0.22c0.06,0,0.11,0.36,0.15,0.13c-0.02,0.14-0.41,0.58-0.7,0.79c-1.42,1.03-3.5,1.31-5.2,1.55
			c-4.27,0.6-8.68,0.44-12.73,2.1c-1.72,0.7-3.31,1.9-5.13,1.95c0.22-0.01-0.41-0.19-0.33-0.01c-0.18-0.4,0.6-0.93,0.94-1.07
			c1.75-0.75,4.13-0.45,5.98-0.52c2.5-0.09,5-0.18,7.49-0.27c3.21-0.12,3.22-5.12,0-5c-2.83,0.1-5.66,0.2-8.49,0.31
			c-2.4,0.09-4.91,0-7.14,1c-2.17,0.97-3.78,3.12-3.77,5.55c0.01,2.34,1.82,4.26,4.02,4.81c2.47,0.62,4.72-0.36,6.88-1.47
			c1.93-0.99,3.99-1.52,6.14-1.78c4.51-0.55,9.71-0.28,13.72-2.74c2.22-1.36,3.85-3.79,3.14-6.47c-0.64-2.43-3.41-4.52-5.94-3.47
			c-1.24,0.52-2.14,1.65-1.75,3.08c0.37,1.34,1.76,2.06,3.08,1.75c4.65-1.11,9.15-2.71,13.5-4.7c2.65-1.21,0.73-5.23-1.93-4.57
			c-1.86,0.46-3.73,0.92-5.59,1.38c1.05,0.8,2.11,1.61,3.16,2.41c-0.08-0.81,1.03-1.23,1.81-1.49c1.57-0.53,3.14-1.01,4.43-2.09
			c1.01-0.85,1.45-2.23,2.47-3.01c1.01-0.77,2.37-1.04,3.55-1.42c1.42-0.47,2.82-1.01,4.02-1.92c1.35-1.02,2.29-2.4,3.14-3.85
			c0.94-1.61,1.7-3.38,1.18-5.27c-0.53-1.91-1.79-3.76-2.69-5.51c-0.82-1.6-3.51-1.66-4.32,0c-1.35,2.8-1.72,5.74-1.04,8.78
			c0.28,1.23,1.85,2.21,3.08,1.75c2.12-0.8,4.47-1.43,6.48-2.47c0.98-0.51,1.66-1.34,1.88-2.42c0.23-1.1-0.18-2.12-0.54-3.13
			c-1.46-4.11-3.16-8.14-5.09-12.05c-0.59-1.21-2.32-1.54-3.42-0.9C208.67,75.52,208.41,77,209.01,78.21L209.01,78.21z"/>
	</g>
</g>
<g>
	<g>
		<path class="st0" d="M219.25,90.91c0.34,0.44,0.04,0.08,0.16-0.15c0.07-0.13,0.13-0.3,0.21-0.44c0.37-0.68,0.88-1.28,1.33-1.9
			c0.92-1.27,1.57-2.74,1.84-4.29c0.6-3.4-0.3-6.61-2.42-9.3c-1.31-1.66-3.55-0.4-4.18,1.1c-2.54,6.07-3.83,12.61-3.87,19.19
			c-0.01,1.34,1.15,2.51,2.5,2.5c1.63-0.01,3.2-0.64,4.26-1.91c1.76-2.12-0.42-5.36-3.03-3.93c-3.23,1.77-6.13,4.14-8.48,6.98
			c1.39,0.37,2.79,0.74,4.18,1.1c-0.31-0.86-0.63-1.73-0.94-2.59c-0.68-1.86-2.67-2.34-4.18-1.1c-1.95,1.6-3.63,3.56-4.9,5.75
			c-0.64,1.1-1.11,2.26-1.61,3.43c-0.15,0.36-0.63,0.91-0.65,1.25c0,0.03-0.12,0.06-0.12,0.08c-0.04,0.01-0.05,0.01-0.03,0.01
			c0.21-0.06,0.41,0.03,0.59,0.27c-1.05-0.84-2.51-1.03-3.54,0c-0.87,0.87-1.06,2.69,0,3.54c1.54,1.23,3.37,1.55,5.19,0.65
			c1.7-0.83,2.55-2.44,3.23-4.12c1.19-2.91,2.93-5.33,5.37-7.32c-1.39-0.37-2.79-0.74-4.18-1.1c0.31,0.86,0.63,1.73,0.94,2.59
			c0.58,1.59,2.88,2.68,4.18,1.1c2.1-2.55,4.57-4.61,7.47-6.2c-1.01-1.31-2.02-2.62-3.03-3.93c-0.26,0.31-0.32,0.45-0.73,0.45
			c0.83,0.83,1.67,1.67,2.5,2.5c0.04-6.16,1.31-12.17,3.69-17.86c-1.39,0.37-2.79,0.74-4.18,1.1c1.53,1.93,1.51,4.86,0.24,6.89
			c-0.87,1.38-2.01,2.52-2.45,4.15c-0.51,1.87-0.08,3.55,1.09,5.05c0.83,1.06,2.66,0.87,3.54,0
			C220.3,93.4,220.08,91.98,219.25,90.91L219.25,90.91z"/>
	</g>
</g>
<g>
	<g>
		<path class="st0" d="M221.93,81.91c1.13-1.6,2.01-3.37,2.62-5.24c0.76-2.32,0.45-4.13-1.53-5.64c-2.26-1.72-6.58-3.72-6.45-7.11
			c0.07-1.93,0.78-3.63,0.33-5.59c-0.43-1.87-1.86-3.44-3.79-3.73c-1.73-0.26-3.56,0.48-4.41,2.06c-1.29,2.41,0.76,4.71,3.25,4.69
			c1.79-0.02,3.26-2.15,2.16-3.76c-0.66-0.96-1.31-1.93-1.97-2.89c-0.57-0.84-1.62-1.88-1.87-2.87c-0.26-1-0.11-1.87-0.7-2.82
			c-0.58-0.92-1.49-1.61-2.44-2.11c-3.71-1.96-7.06-3.98-10.21-6.77c-1.65-1.46-3.34-2.93-5.3-3.97c-2.05-1.09-4.28-1.81-6.5-2.49
			c-4.66-1.43-9.32-2.84-13.98-4.27c-5.38-1.64-10.76-3.28-16.13-4.93c-3.08-0.94-4.4,3.88-1.33,4.82
			c9.02,2.75,18.03,5.5,27.05,8.26c4.11,1.25,8.2,2.27,11.53,5.12c3.18,2.72,6.29,5.37,10,7.36c0.9,0.48,1.93,0.85,2.78,1.43
			c0.2,0.14,0.09,0.06,0.17,0.09c0.55,0.27,0.06,0.06,0.05,0.03c0.12,0.57,0.06,1.18,0.23,1.75c0.36,1.21,1.2,2.23,1.89,3.26
			c0.8,1.17,1.6,2.34,2.39,3.51c0.72-1.25,1.44-2.51,2.16-3.76c0.19,0.06,0.39,0.12,0.58,0.19c0.21,0.81,0.43,1.62,0.64,2.43
			c-0.03,0.17-0.46,0.54-0.67,0.57c-0.63,0.06-0.29-0.33-0.42,0.14c-0.08,0.28,0.02,0.75-0.03,1.07c-0.09,0.63-0.24,1.24-0.34,1.87
			c-0.39,2.68,0.37,5.1,2.03,7.22c1.5,1.91,3.54,3.24,5.51,4.63c0.15,0.1,0.78,0.66,0.9,0.64c0.31-0.04-0.25-0.57-0.16-0.58
			c-0.08,0.01-0.47,1.49-0.54,1.66c-0.46,1.15-1.11,2.22-1.82,3.22c-0.78,1.1-0.2,2.78,0.9,3.42
			C219.76,83.54,221.15,83.02,221.93,81.91L221.93,81.91z"/>
	</g>
</g>
<g>
	<g>
		<path class="st0" d="M103.12,35.71c-0.86,1.62-1.59,3.32-2.17,5.06c-0.32,0.94,0.15,2.05,0.9,2.63c0.72,0.55,1.99,0.79,2.78,0.2
			c1.86-1.42,3.87-2.63,6-3.59c0.1-0.04,0.82-0.35,0.32-0.14c0.27-0.11,0.55-0.22,0.83-0.33c0.55-0.21,1.12-0.4,1.68-0.58
			c1.13-0.35,2.28-0.63,3.45-0.85c1.29-0.24,2.14-1.86,1.75-3.08c-0.45-1.38-1.7-2.01-3.08-1.75c-4.86,0.92-9.54,3-13.47,6
			c1.22,0.94,2.45,1.88,3.67,2.82c0.12-0.37,0.25-0.73,0.39-1.09c0.07-0.18,0.14-0.36,0.21-0.54c0.03-0.08,0.25-0.56,0.06-0.15
			c0.32-0.7,0.65-1.4,1.01-2.08c0.61-1.15,0.33-2.77-0.9-3.42C105.38,34.21,103.77,34.48,103.12,35.71L103.12,35.71z"/>
	</g>
</g>
<g>
	<g>
		<path class="st0" d="M154.47,24.54c-12.19-2.14-24.55,0.26-35.74,5.3c0.42-0.11,0.84-0.23,1.26-0.34c-1.15,0-2.31,0.02-3.46,0.08
			c-3.2,0.15-3.22,5.16,0,5c1.51-0.07,3.32,0.19,4.72-0.42c1.43-0.62,2.86-1.23,4.33-1.76c3.06-1.12,6.21-2.01,9.41-2.65
			c5.94-1.19,12.16-1.44,18.15-0.38c1.33,0.23,2.69-0.36,3.08-1.75C156.55,26.41,155.81,24.78,154.47,24.54L154.47,24.54z"/>
	</g>
</g>
<g>
	<g>
		<path class="st0" d="M79.07,70.2c-0.13,1.73-0.04,3.43,0.21,5.15c0.25,1.7,0.87,3.28,1.2,4.96c0.29,1.47-0.41,2.52-1.06,3.81
			c-0.82,1.63-1.65,3.25-2.47,4.88c1.44,0,2.88,0,4.32,0c-0.29-0.53-0.33-0.95-0.17-1.54c-1.64-0.22-3.27-0.44-4.91-0.66
			c0.27,5.47,1.14,12.22,6.77,14.84c2.88,1.34,6.09,1.08,9.18,1.28c2.91,0.19,5.75,0.74,8.4,1.97c2.83,1.32,5.56,2.79,8.6,3.57
			c3,0.77,6.13,1.05,9.21,1.18c3.09,0.13,6.18,0.17,9.27,0.24c3.3,0.08,6.64,0.01,9.86-0.76c6.39-1.53,11.64-5.72,16.65-9.74
			c1.05-0.85,0.88-2.65,0-3.54c-1.04-1.04-2.48-0.85-3.54,0c-3.9,3.13-8,6.44-12.83,7.99c-5.32,1.72-11.18,1-16.68,0.88
			c-5.52-0.12-10.74-0.59-15.77-3.05c-2.53-1.24-5.04-2.46-7.81-3.05c-2.8-0.6-5.67-0.75-8.52-0.84c-2.49-0.08-4.66-0.46-6.05-2.71
			c-1.53-2.46-1.62-5.46-1.76-8.27c-0.13-2.74-4.17-3.49-4.91-0.66c-0.49,1.87-0.25,3.7,0.68,5.39c0.87,1.58,3.47,1.67,4.32,0
			c0.86-1.7,1.72-3.4,2.58-5.09c0.88-1.75,1.82-3.48,1.73-5.5c-0.08-1.86-0.8-3.56-1.19-5.36c-0.39-1.77-0.44-3.56-0.31-5.36
			c0.1-1.35-1.22-2.5-2.5-2.5C80.13,67.7,79.17,68.85,79.07,70.2L79.07,70.2z"/>
	</g>
</g>
<g>
	<g>
		<path class="st0" d="M214.14,61.95c-0.15,0.03-1.2,0.04-1.27-0.19c0.03,0.09,0.27,0.27,0.35,0.35c0.09,0.1,0.18,0.2,0.26,0.3
			c0.17,0.2,0.22,0.31,0.03,0.04c0.32,0.47,0.63,0.93,0.9,1.42c0.59,1.05,1.1,2.14,1.72,3.17c0.68,1.14,1.5,2.15,2.45,3.07
			c0.05,0.05,0.24,0.3,0.31,0.31c-0.14-0.02-0.25-0.6-0.2-0.3c0.01,0.07,0.09,0.49,0.06,0.16c-0.03-0.34-0.01,0.11-0.02,0.18
			c-0.01,0.26-0.04,0.41,0.02,0.07c-0.02,0.14-0.05,0.28-0.08,0.42c-0.04,0.17-0.08,0.35-0.13,0.52c-0.22,0.83-0.09-0.42,0.73-0.77
			c0.42-0.11,0.84-0.23,1.26-0.34c-0.05,0-0.09-0.01-0.14-0.01c0.42,0.11,0.84,0.23,1.26,0.34c0.04,0.02,0.45,0.44,0.42,0.46
			c0,0-0.16-0.33-0.17-0.35c-0.13-0.27-0.27-0.54-0.41-0.8c-0.31-0.56-0.65-1.1-1.03-1.61c-0.79-1.09-1.66-2.08-2.65-2.99
			c-0.77-0.7-1.57-1.37-2.28-2.14c-0.14-0.15-0.52-0.66-0.21-0.22c-0.16-0.23-0.32-0.45-0.45-0.7c-0.06-0.11-0.11-0.22-0.17-0.33
			c-0.15-0.28,0.11,0.4,0.05,0.09c-0.06-0.27-0.15-0.54-0.19-0.82c-0.21-1.3-1.89-2.13-3.08-1.75c-1.41,0.45-1.97,1.69-1.75,3.08
			c0.39,2.42,2.22,4.23,3.97,5.79c0.89,0.8,1.76,1.61,2.5,2.56c-0.3-0.39,0.22,0.32,0.27,0.4c0.17,0.25,0.33,0.5,0.48,0.76
			c0.3,0.5,0.51,1.05,0.81,1.55c0.57,0.95,1.5,1.62,2.63,1.68c1.36,0.07,2.42-0.89,2.83-2.11c0.45-1.34,0.66-2.86,0.33-4.24
			c-0.35-1.5-1.5-2.33-2.44-3.43c-0.08-0.1-0.24-0.37,0.03,0.04c-0.07-0.11-0.15-0.21-0.23-0.32c-0.15-0.22-0.29-0.44-0.43-0.67
			c-0.29-0.49-0.56-0.99-0.82-1.49c-0.57-1.09-1.13-2.19-1.85-3.19c-0.43-0.59-0.89-1.2-1.42-1.7c-1.05-0.97-2.18-1.34-3.59-1.09
			c-1.29,0.23-2.13,1.87-1.75,3.08C211.52,61.59,212.76,62.19,214.14,61.95L214.14,61.95z"/>
	</g>
</g>
<g>
	<g>
		<path class="st0" d="M75.63,95.64c0.55,1.12,1.14,2.21,1.75,3.3c0.31,0.54,0.9,0.98,1.49,1.15c0.33,0.1,0.66,0.12,1,0.04
			c0.33-0.02,0.64-0.11,0.93-0.3c0.53-0.34,1-0.86,1.15-1.49c0.15-0.66,0.09-1.33-0.25-1.93c-0.61-1.08-1.2-2.18-1.75-3.3
			c-0.16-0.29-0.37-0.53-0.64-0.7c-0.24-0.22-0.52-0.37-0.85-0.45c-0.33-0.1-0.66-0.12-1-0.04c-0.33,0.02-0.64,0.11-0.93,0.3
			c-0.53,0.34-1,0.86-1.15,1.49c-0.03,0.22-0.06,0.44-0.09,0.66C75.29,94.83,75.41,95.25,75.63,95.64L75.63,95.64z"/>
	</g>
</g>
<g>
	<g>
		<path class="st0" d="M89.89,49.05c-3.11,1.82-4.92,4.9-5.27,8.45c1.05-0.8,2.11-1.61,3.16-2.41c-2.62-0.53-7.21-2.2-9.17,0.48
			c-1.39,1.9-0.52,4.44,1.31,5.66c1.35,0.9,3.12,1.25,4.73,1.27c0-1.67,0-3.33,0-5c-2.3,0.25-5.23-0.8-6.77,1.59
			c-1.8,2.79,0.79,6.33,3.72,6.83c-0.2-1.52-0.4-3.05-0.6-4.57c-3.51,2.31-5,6.11-5.79,10.07c-0.96,4.81-1.88,9.7-2.02,14.61
			c-0.09,3.22,4.91,3.22,5,0c0.12-4.22,0.9-8.35,1.69-12.48c0.53-2.78,1.09-6.21,3.65-7.89c1.62-1.07,1.67-4.18-0.6-4.57
			c-0.05-0.01-0.71-0.2-0.66-0.23c-0.3,0.07-0.36,0.37-0.18,0.89c-0.29,0.23-0.57,0.47-0.86,0.7c0.08-0.13,0.14-0.03,0.33-0.03
			c1.03-0.01,2.07,0.18,3.1,0.07c1.34-0.15,2.5-1.04,2.5-2.5c0-1.37-1.14-2.48-2.5-2.5c-0.19,0-0.38-0.01-0.57-0.03
			c-0.47-0.03,0.17,0.04-0.14-0.02c-0.21-0.04-0.41-0.08-0.62-0.14c0,0-0.75-0.25-0.36-0.1c-0.64-0.26-0.2-0.26-0.08,0.26
			c0.18,0.74-0.63,1.42-1.18,1.71c0.37-0.2-0.29-0.01,0.01-0.02c1.57-0.06,3.01,0.4,4.74,0.75c1.71,0.35,3-0.73,3.16-2.41
			c0.17-1.76,1.3-3.26,2.79-4.13C95.18,51.74,92.67,47.41,89.89,49.05L89.89,49.05z"/>
	</g>
</g>
<g>
	<g>
		<path class="st0" d="M92.96,44.74c-3.97,2.49-7.29,6-9.49,10.14c-0.61,1.15-0.33,2.77,0.9,3.42c1.16,0.61,2.77,0.34,3.42-0.9
			c0.49-0.93,1.04-1.83,1.65-2.69c0.14-0.2,0.29-0.41,0.44-0.61c0.27-0.36-0.26,0.33-0.07,0.09c0.08-0.1,0.16-0.2,0.23-0.29
			c0.33-0.41,0.68-0.8,1.04-1.19c0.7-0.75,1.44-1.46,2.23-2.12c0.19-0.16,0.42-0.3,0.58-0.47c-0.41,0.43-0.25,0.19-0.09,0.07
			c0.1-0.08,0.2-0.15,0.3-0.22c0.45-0.32,0.9-0.63,1.37-0.92c1.11-0.7,1.64-2.26,0.9-3.42C95.67,44.53,94.15,44,92.96,44.74
			L92.96,44.74z"/>
	</g>
</g>
<g>
	<g>
		<path class="st0" d="M80.99,54.54c-4.76,3.81-7.64,9.43-8.41,15.42c-0.17,1.3,1.27,2.56,2.5,2.5c1.5-0.07,2.32-1.1,2.5-2.5
			c-0.05,0.36-0.02,0.17,0.02-0.08c0.02-0.14,0.05-0.28,0.07-0.42c0.06-0.32,0.12-0.63,0.2-0.94c0.15-0.63,0.32-1.24,0.53-1.85
			c0.1-0.3,0.21-0.61,0.33-0.91c0.02-0.05,0.18-0.47,0.07-0.2c-0.12,0.31,0.1-0.23,0.13-0.29c0.27-0.59,0.56-1.16,0.88-1.72
			c0.3-0.53,0.62-1.04,0.97-1.54c0.18-0.26,0.37-0.52,0.56-0.78c-0.3,0.4,0.01,0,0.07-0.08c0.09-0.11,0.18-0.22,0.27-0.33
			c0.86-1.01,1.81-1.92,2.84-2.75c1.03-0.82,0.92-2.69,0-3.54C83.44,53.54,82.08,53.66,80.99,54.54L80.99,54.54z"/>
	</g>
</g>
<g>
	<g>
		<path class="st0" d="M218.38,90.59c-2.14,3.38-4.11,7.53-7.3,10.07c-2.33,1.86-5.3,2.75-8.06,3.76c-3.1,1.13-6.22,2.39-8.67,4.68
			c-0.64,0.6-1.18,1.28-1.71,1.98c-0.48,0.64-0.51,0.75-1.26,0.78c-2.47,0.07-4.94,0.15-7.41,0.22c-3.21,0.1-3.22,5.1,0,5
			c2.6-0.08,5.22-0.06,7.81-0.24c1.11-0.08,2.15-0.27,3.09-0.9c0.92-0.61,1.43-1.52,2.12-2.36c2-2.45,5.14-3.53,8.01-4.57
			c3.39-1.23,6.81-2.47,9.62-4.81c3.48-2.91,5.7-7.31,8.09-11.08C224.43,90.39,220.1,87.88,218.38,90.59L218.38,90.59z"/>
	</g>
</g>
<g>
	<g>
		<path class="st0" d="M222.89,85.72c-2.16,0.52-3.96,1.83-5.52,3.36c-1.42,1.39-2.65,3.01-4.24,4.22c0.33-0.25-0.24,0.15-0.29,0.18
			c-0.23,0.15-0.46,0.28-0.7,0.41c-0.48,0.26-0.92,0.43-1.45,0.63c-1.28,0.47-2.61,0.9-3.81,1.56c-2.35,1.31-4.21,3.64-4.2,6.42
			c0.01,1.64,1.59,2.83,3.16,2.41c2.13-0.56,4.06-1.68,5.59-3.26c2.25-2.3-1.28-5.84-3.54-3.54c-1,1.02-2.02,1.61-3.39,1.97
			c1.05,0.8,2.11,1.61,3.16,2.41c0-0.66-0.14,0.24,0.03-0.39c0.1-0.36,0-0.07,0.1-0.26c0.2-0.36,0.31-0.5,0.73-0.87
			c0.22-0.2,0.12-0.11,0.27-0.21c0.19-0.13,0.39-0.25,0.59-0.37c0.42-0.23,0.82-0.4,1.26-0.57c2.24-0.84,4.31-1.62,6.19-3.16
			c1.36-1.11,2.48-2.47,3.7-3.71c0.32-0.32,0.64-0.64,0.97-0.94c0.15-0.13,0.3-0.26,0.46-0.4c0.55-0.46-0.35,0.19,0.25-0.19
			c0.34-0.21,0.67-0.41,1.01-0.6c0.56-0.31-0.34,0.06,0.27-0.11c0.23-0.07,0.46-0.14,0.7-0.19c1.31-0.32,2.1-1.8,1.75-3.08
			C225.6,86.13,224.21,85.41,222.89,85.72L222.89,85.72z"/>
	</g>
</g>
<g>
	<g>
		<path class="st0" d="M222.22,83.22c0.05,0.68,0.07,1.37,0.05,2.06c-0.01,0.32-0.03,0.64-0.06,0.97c-0.02,0.2-0.04,0.4-0.06,0.6
			c0.03-0.27,0.02-0.13-0.01,0.06c-0.11,0.68-0.25,1.35-0.43,2.01c-0.08,0.3-0.17,0.61-0.27,0.9c-0.02,0.05-0.18,0.47-0.07,0.23
			c0.12-0.27-0.18,0.31-0.17,0.3c-0.12,0.22-0.16,0.18,0.01,0.01c-0.1,0.1-0.19,0.2-0.29,0.3c-0.1,0.1-0.21,0.18-0.31,0.28
			c0.17-0.15,0.21-0.15,0-0.01c-0.54,0.36-1.09,0.72-1.65,1.07c-0.59,0.38-1.19,0.76-1.78,1.14c-0.31,0.2-0.63,0.41-0.94,0.61
			c-0.06,0.04-0.12,0.07-0.17,0.11c-0.12,0.06-0.09,0.06,0.08-0.01c0.17-0.06,0.2-0.07,0.07-0.03c-0.66,0.19-0.1,0.36,1.68,0.51
			c-0.95-0.9-2.6-1.02-3.54,0c-0.89,0.97-1.02,2.58,0,3.54c0.93,0.87,2.23,1.16,3.42,0.69c0.89-0.35,1.66-0.91,2.46-1.42
			c1.46-0.94,3.16-1.81,4.37-3.07c1.32-1.37,1.87-3.28,2.23-5.1c0.37-1.89,0.52-3.81,0.38-5.73c-0.09-1.3-1.08-2.56-2.5-2.5
			C223.44,80.78,222.12,81.83,222.22,83.22L222.22,83.22z"/>
	</g>
</g>
<g>
	<g>
		<path class="st0" d="M228.01,83.42c0.22-2.39-0.16-4.9-1.09-7.11c-0.08-0.2-0.17-0.4-0.25-0.6c-0.16-0.29-0.37-0.53-0.64-0.7
			c-0.42-0.33-0.97-0.56-1.51-0.54c-1.07,0.05-2.15,0.74-2.41,1.84c-0.33,1.4-0.6,2.81-0.81,4.24c-0.1,0.69-0.12,1.3,0.25,1.93
			c0.3,0.52,0.9,1.01,1.49,1.15c0.64,0.15,1.36,0.11,1.93-0.25c0.51-0.33,1.06-0.87,1.15-1.49c0.21-1.42,0.48-2.84,0.81-4.24
			c-1.61,0-3.21,0-4.82,0c0.46,1.09,0.77,2.22,0.93,3.39c-0.03-0.22-0.06-0.44-0.09-0.66c0.13,1.01,0.16,2.03,0.07,3.05
			c-0.05,0.6,0.32,1.35,0.73,1.77c0.43,0.43,1.15,0.76,1.77,0.73c0.65-0.03,1.32-0.24,1.77-0.73
			C227.75,84.67,227.95,84.11,228.01,83.42L228.01,83.42z"/>
	</g>
</g>
<g>
	<g>
		<path class="st1" d="M179.11,39.96c1.82,0.83,3.65,1.66,5.47,2.5c0.63,0.29,1.24,0.44,1.93,0.25c0.58-0.16,1.21-0.61,1.49-1.15
			c0.31-0.58,0.46-1.28,0.25-1.93c-0.19-0.58-0.57-1.23-1.15-1.49c-1.82-0.83-3.65-1.66-5.47-2.5c-0.63-0.29-1.24-0.44-1.93-0.25
			c-0.58,0.16-1.21,0.61-1.49,1.15c-0.31,0.58-0.46,1.28-0.25,1.93C178.15,39.05,178.53,39.69,179.11,39.96L179.11,39.96z"/>
	</g>
</g>
<g>
	<g>
		<path class="st0" d="M171.52,42.16c3.12-0.01,6.23-0.02,9.35-0.03c0.63,0,1.27-0.03,1.91,0.02c-0.05,0-0.36-0.08-0.07-0.01
			c0.13,0.03,0.38,0.23,0.24,0.06c-0.1-0.12-0.5-0.47-0.26-0.1c1,1.56,2.91,2.57,4.67,1.49c1.65-1.01,1.98-3.17,1.07-4.78
			c-0.71-1.25-2.19-2.08-3.42-2.75c-2.41-1.3-5.02-2.04-7.73-2.31c-2.86-0.29-5.85,0.11-8.53,1.13c-1.26,0.48-2.13,1.68-1.75,3.08
			c0.33,1.21,1.81,2.23,3.08,1.75c0.67-0.25,1.34-0.47,2.03-0.64c0.35-0.08,0.69-0.16,1.04-0.22c0.17-0.03,0.35-0.06,0.53-0.09
			c-0.27,0.04,0.02,0,0.13-0.01c0.71-0.06,1.42-0.09,2.13-0.08c0.36,0.01,0.71,0.03,1.07,0.06c0.18,0.02,0.35,0.03,0.53,0.05
			c-0.34-0.04,0.15,0.02,0.26,0.04c0.7,0.12,1.4,0.28,2.08,0.49c0.34,0.1,0.68,0.21,1.01,0.34c0.17,0.06,0.33,0.12,0.5,0.19
			c0.41,0.17-0.26-0.12,0.14,0.06c0.64,0.3,1.27,0.63,1.88,1.01c0.15,0.09,0.3,0.19,0.45,0.29c0.04,0.03,0.42,0.26,0.28,0.19
			c-0.08-0.07-0.07-0.05,0.04,0.05c0.15,0.16,0.13,0.11-0.03-0.14c-0.19-0.24-0.21-0.51-0.05-0.82c-0.04-0.83,0.45-1.32,1.47-1.46
			c0.42,0.11,0.84,0.23,1.26,0.34c-0.36-0.18-0.26-0.05,0.31,0.39c-0.06-0.09-0.12-0.18-0.18-0.27c-0.17-0.34-0.45-0.67-0.71-0.94
			c-0.51-0.53-1.16-0.9-1.86-1.13c-1.26-0.42-2.7-0.28-4.01-0.28c-2.95,0.01-5.89,0.02-8.84,0.03c-1.35,0-2.5,1.15-2.5,2.5
			C169.02,41.01,170.16,42.16,171.52,42.16L171.52,42.16z"/>
	</g>
</g>
<g>
	<g>
		<path class="st0" d="M96.24,37.09c-8.17,7.77-15.56,16.31-22.13,25.47c1.44,0,2.88,0,4.32,0c-0.02-0.04,0.01-0.76,0-0.48
			c0.06-3.22-4.94-3.22-5,0c-0.02,1.11,0.24,2,0.68,3c0.83,1.89,3.35,1.34,4.32,0c6.32-8.81,13.49-16.99,21.35-24.46
			C102.11,38.4,98.57,34.87,96.24,37.09L96.24,37.09z"/>
	</g>
</g>
<g>
	<g>
		<path class="st0" d="M102.01,41.68c-0.08-0.08-0.16-0.16-0.25-0.24c-0.24-0.2-0.49-0.4-0.75-0.57c-0.1-0.06-0.2-0.12-0.3-0.17
			c-0.28-0.14-0.58-0.26-0.88-0.37c-0.41-0.14-0.85-0.18-1.27-0.23c-0.44-0.05-0.89,0.04-1.33,0.1c0.64,1.52,1.28,3.05,1.93,4.57
			c0.84-0.59,1.69-1.19,2.53-1.78c0.29-0.16,0.53-0.37,0.7-0.64c0.22-0.24,0.37-0.52,0.45-0.85c0.1-0.33,0.12-0.66,0.04-1
			c-0.02-0.33-0.11-0.64-0.3-0.93c-0.34-0.53-0.86-1-1.49-1.15c-0.22-0.03-0.44-0.06-0.66-0.09c-0.45,0-0.87,0.12-1.26,0.34
			c-0.84,0.59-1.69,1.19-2.53,1.78c-0.29,0.16-0.53,0.37-0.7,0.64c-0.22,0.24-0.37,0.52-0.45,0.85c-0.03,0.22-0.06,0.44-0.09,0.66
			c-0.01,0.34,0.06,0.67,0.22,0.96c0.06,0.21,0.17,0.4,0.32,0.55c0.18,0.27,0.41,0.49,0.7,0.64c0.2,0.08,0.4,0.17,0.6,0.25
			c0.44,0.12,0.89,0.12,1.33,0c0.01,0,0.03,0,0.04-0.01c-0.22,0.03-0.44,0.06-0.66,0.09c0.23-0.03,0.45-0.03,0.68,0
			c-0.22-0.03-0.44-0.06-0.66-0.09c0.24,0.03,0.47,0.1,0.7,0.19c-0.2-0.08-0.4-0.17-0.6-0.25c0.21,0.09,0.41,0.2,0.59,0.34
			c-0.17-0.13-0.34-0.26-0.51-0.39c0.12,0.09,0.23,0.19,0.33,0.3c0.23,0.24,0.49,0.42,0.8,0.52c0.3,0.16,0.62,0.23,0.96,0.22
			c0.34,0.01,0.67-0.06,0.96-0.22c0.31-0.1,0.58-0.27,0.8-0.52c0.44-0.48,0.76-1.1,0.73-1.77c-0.03-0.22-0.06-0.44-0.09-0.66
			C102.54,42.36,102.32,42,102.01,41.68L102.01,41.68z"/>
	</g>
</g>
<g>
	<g>
		<path class="st0" d="M77.84,50.44c0.3,1.36,0.99,2.77,2.27,3.45c1.36,0.72,2.91,0.48,4.2-0.29c1.97-1.18,3.43-3.16,4.77-4.98
			c0.46-0.62,0.89-1.26,1.34-1.89c0.36-0.49,0.41-1.36,0.25-1.93c-0.16-0.58-0.61-1.21-1.15-1.49c-0.58-0.31-1.28-0.46-1.93-0.25
			c-0.65,0.21-1.09,0.59-1.49,1.15c-0.64,0.88-1.24,1.78-1.9,2.64c0.13-0.17,0.26-0.34,0.39-0.51c-0.82,1.07-1.7,2.13-2.77,2.96
			c0.17-0.13,0.34-0.26,0.51-0.39c-0.3,0.23-0.61,0.44-0.96,0.59c0.2-0.08,0.4-0.17,0.6-0.25c-0.18,0.08-0.37,0.14-0.57,0.16
			c0.22-0.03,0.44-0.06,0.66-0.09c-0.12,0.01-0.24,0.01-0.35,0c0.22,0.03,0.44,0.06,0.66,0.09c-0.1-0.02-0.2-0.04-0.29-0.08
			c0.2,0.08,0.4,0.17,0.6,0.25c-0.1-0.04-0.19-0.09-0.27-0.16c0.17,0.13,0.34,0.26,0.51,0.39c-0.11-0.08-0.2-0.18-0.28-0.29
			c0.13,0.17,0.26,0.34,0.39,0.51c-0.14-0.18-0.24-0.38-0.33-0.59c0.08,0.2,0.17,0.4,0.25,0.6c-0.12-0.3-0.21-0.62-0.28-0.94
			c-0.28-1.28-1.84-2.15-3.08-1.75C78.25,47.8,77.54,49.07,77.84,50.44L77.84,50.44z"/>
	</g>
</g>
<g>
	<g>
		<path class="st0" d="M76.88,81.26c0.04-3.67-0.24-7.32-0.74-10.96c-0.08-0.57-0.67-1.22-1.15-1.49c-0.54-0.31-1.33-0.45-1.93-0.25
			c-0.6,0.2-1.19,0.57-1.49,1.15c-0.34,0.64-0.35,1.22-0.25,1.93c0.08,0.59-0.05-0.41,0.02,0.14c0.03,0.23,0.06,0.47,0.09,0.7
			c0.05,0.4,0.09,0.8,0.13,1.21c0.08,0.84,0.15,1.68,0.2,2.52c0.1,1.68,0.14,3.37,0.13,5.06c-0.01,1.31,1.16,2.56,2.5,2.5
			C75.75,83.7,76.87,82.67,76.88,81.26L76.88,81.26z"/>
	</g>
</g>
<g>
	<g>
		<path class="st0" d="M73.79,61.09c-0.08,0.24-0.17,0.47-0.26,0.7c0.08-0.2,0.17-0.4,0.25-0.6c-0.32,0.75-0.73,1.45-1.22,2.1
			c0.13-0.17,0.26-0.34,0.39-0.51c-0.37,0.48-0.79,0.93-1.25,1.34c-0.46,0.41-0.73,1.16-0.73,1.77c0,0.61,0.27,1.35,0.73,1.77
			c0.48,0.44,1.1,0.76,1.77,0.73c0.68-0.03,1.25-0.27,1.77-0.73c1.58-1.4,2.71-3.25,3.38-5.24c0.2-0.59,0.06-1.4-0.25-1.93
			c-0.3-0.52-0.9-1.01-1.49-1.15c-0.64-0.15-1.36-0.11-1.93,0.25C74.38,59.96,74.01,60.45,73.79,61.09L73.79,61.09z"/>
	</g>
</g>
<g>
	<g>
		<path class="st0" d="M116.5,35.12c3.22,0,3.22-5,0-5C113.28,30.12,113.28,35.12,116.5,35.12L116.5,35.12z"/>
	</g>
</g>
<g>
	<g>
		<path class="st0" d="M112.6,31.59c-0.06,0.13-0.13,0.26-0.22,0.37c0.13-0.17,0.26-0.34,0.39-0.51c-0.1,0.12-0.2,0.23-0.33,0.32
			c0.17-0.13,0.34-0.26,0.51-0.39c-0.13,0.1-0.28,0.18-0.43,0.25c0.2-0.08,0.4-0.17,0.6-0.25c-0.17,0.07-0.36,0.12-0.54,0.15
			c0.22-0.03,0.44-0.06,0.66-0.09c-0.17,0.02-0.33,0.02-0.49,0c0.22,0.03,0.44,0.06,0.66,0.09c-0.15-0.02-0.3-0.06-0.44-0.12
			c0.2,0.08,0.4,0.17,0.6,0.25c-0.06-0.03-0.12-0.06-0.18-0.09c-0.29-0.18-0.6-0.28-0.93-0.3c-0.33-0.07-0.66-0.06-1,0.04
			c-0.33,0.08-0.61,0.23-0.85,0.45c-0.27,0.18-0.49,0.41-0.64,0.7c-0.31,0.58-0.46,1.28-0.25,1.93c0.2,0.61,0.57,1.17,1.15,1.49
			c0.15,0.09,0.32,0.15,0.48,0.21c0.16,0.07,0.32,0.14,0.49,0.19c0.33,0.09,0.68,0.13,1.02,0.15c0.25,0.02,0.48-0.02,0.73-0.06
			c0.25-0.03,0.49-0.06,0.72-0.14c0.32-0.11,0.64-0.24,0.93-0.4c0.06-0.03,0.12-0.07,0.18-0.11c0.22-0.16,0.44-0.33,0.65-0.5
			c0.25-0.21,0.45-0.51,0.64-0.77c0.09-0.12,0.16-0.24,0.22-0.37c0.18-0.29,0.28-0.6,0.3-0.93c0.07-0.33,0.06-0.66-0.04-1
			c-0.08-0.33-0.23-0.61-0.45-0.85c-0.18-0.27-0.41-0.49-0.7-0.64c-0.58-0.31-1.28-0.46-1.93-0.25c-0.2,0.08-0.4,0.17-0.6,0.25
			C113.12,30.91,112.82,31.21,112.6,31.59L112.6,31.59z"/>
	</g>
</g>
<g>
	<g>
		<path class="st0" d="M105.09,32.86c-0.67,0.54-1.34,1.07-2.01,1.61c-0.24,0.23-0.42,0.49-0.52,0.8c-0.16,0.3-0.23,0.62-0.22,0.96
			c-0.01,0.34,0.06,0.67,0.22,0.96c0.1,0.31,0.27,0.58,0.52,0.8c0.17,0.13,0.34,0.26,0.51,0.39c0.39,0.23,0.81,0.34,1.26,0.34
			c0.22-0.03,0.44-0.06,0.66-0.09c0.42-0.12,0.79-0.33,1.1-0.64c0.67-0.54,1.34-1.07,2.01-1.61c0.24-0.23,0.42-0.49,0.52-0.8
			c0.16-0.3,0.23-0.62,0.22-0.96c0.01-0.34-0.06-0.67-0.22-0.96c-0.1-0.31-0.27-0.58-0.52-0.8c-0.17-0.13-0.34-0.26-0.51-0.39
			c-0.39-0.23-0.81-0.34-1.26-0.34c-0.22,0.03-0.44,0.06-0.66,0.09C105.77,32.33,105.4,32.55,105.09,32.86L105.09,32.86z"/>
	</g>
</g>
<g>
	<g>
		<path class="st0" d="M111.28,36.52c3.22,0,3.22-5,0-5C108.06,31.52,108.05,36.52,111.28,36.52L111.28,36.52z"/>
	</g>
</g>
<g>
	<g>
		<path class="st0" d="M108.1,32.86c-0.07,0.07-0.13,0.13-0.2,0.2c-0.24,0.23-0.42,0.49-0.52,0.8c-0.16,0.3-0.23,0.62-0.22,0.96
			c-0.01,0.34,0.06,0.67,0.22,0.96c0.1,0.31,0.27,0.58,0.52,0.8c0.17,0.13,0.34,0.26,0.51,0.39c0.39,0.23,0.81,0.34,1.26,0.34
			c0.22-0.03,0.44-0.06,0.66-0.09c0.42-0.12,0.79-0.33,1.1-0.64c0.07-0.07,0.13-0.13,0.2-0.2c0.24-0.23,0.42-0.49,0.52-0.8
			c0.16-0.3,0.23-0.62,0.22-0.96c0.01-0.34-0.06-0.67-0.22-0.96c-0.1-0.31-0.27-0.58-0.52-0.8c-0.17-0.13-0.34-0.26-0.51-0.39
			c-0.39-0.23-0.81-0.34-1.26-0.34c-0.22,0.03-0.44,0.06-0.66,0.09C108.78,32.33,108.42,32.55,108.1,32.86L108.1,32.86z"/>
	</g>
</g>
<g>
	<g>
		<path class="st0" d="M104.49,34.06c-0.13,0.13-0.27,0.27-0.4,0.4c-0.24,0.23-0.42,0.49-0.52,0.8c-0.16,0.3-0.23,0.62-0.22,0.96
			c-0.01,0.34,0.06,0.67,0.22,0.96c0.1,0.31,0.27,0.58,0.52,0.8c0.17,0.13,0.34,0.26,0.51,0.39c0.39,0.23,0.81,0.34,1.26,0.34
			c0.22-0.03,0.44-0.06,0.66-0.09c0.42-0.12,0.79-0.33,1.1-0.64c0.13-0.13,0.27-0.27,0.4-0.4c0.24-0.23,0.42-0.49,0.52-0.8
			c0.16-0.3,0.23-0.62,0.22-0.96c0.01-0.34-0.06-0.67-0.22-0.96c-0.1-0.31-0.27-0.58-0.52-0.8c-0.17-0.13-0.34-0.26-0.51-0.39
			c-0.39-0.23-0.81-0.34-1.26-0.34c-0.22,0.03-0.44,0.06-0.66,0.09C105.17,33.54,104.8,33.75,104.49,34.06L104.49,34.06z"/>
	</g>
</g>
<g>
	<g>
		<path class="st0" d="M102.68,34.86c-0.06,0.05-0.12,0.1-0.18,0.15c0.17-0.13,0.34-0.26,0.51-0.39c-0.22,0.17-0.45,0.3-0.7,0.41
			c0.2-0.08,0.4-0.17,0.6-0.25c-0.28,0.12-0.56,0.2-0.86,0.24c0.22-0.03,0.44-0.06,0.66-0.09c-0.22,0.03-0.44,0.03-0.66,0.02
			c-0.34-0.01-0.67,0.06-0.96,0.22c-0.31,0.1-0.58,0.27-0.8,0.52c-0.24,0.23-0.42,0.49-0.52,0.8c-0.16,0.3-0.23,0.62-0.22,0.96
			c0.03,0.22,0.06,0.44,0.09,0.66c0.12,0.42,0.33,0.79,0.64,1.1c0.17,0.13,0.34,0.26,0.51,0.39c0.39,0.23,0.81,0.34,1.26,0.34
			c0.34,0.02,0.66-0.02,0.99-0.06c0.33-0.04,0.66-0.09,0.98-0.2c0.3-0.1,0.58-0.23,0.87-0.36c0.1-0.05,0.2-0.1,0.29-0.15
			c0.1-0.06,0.2-0.12,0.29-0.19c0.25-0.19,0.51-0.38,0.75-0.59c0.24-0.23,0.42-0.49,0.52-0.8c0.16-0.3,0.23-0.62,0.22-0.96
			c0.01-0.34-0.06-0.67-0.22-0.96c-0.1-0.31-0.27-0.58-0.52-0.8c-0.17-0.13-0.34-0.26-0.51-0.39c-0.39-0.23-0.81-0.34-1.26-0.34
			c-0.22,0.03-0.44,0.06-0.66,0.09C103.36,34.34,102.99,34.55,102.68,34.86L102.68,34.86z"/>
	</g>
</g>
<g>
	<g>
		<path class="st0" d="M99.78,35.29c-6.27,2.87-12.03,6.83-17.01,11.6c-0.98,0.93-0.94,2.6,0,3.54c0.97,0.97,2.56,0.94,3.54,0
			c4.68-4.48,10-8.07,16-10.82c1.23-0.56,1.53-2.34,0.9-3.42C102.46,34.92,101.01,34.72,99.78,35.29L99.78,35.29z"/>
	</g>
</g>
<g>
	<g>
		<path class="st0" d="M82.09,46.3c-0.13,0.07-0.27,0.14-0.4,0.2c-0.29,0.16-0.53,0.37-0.7,0.64c-0.22,0.24-0.37,0.52-0.45,0.85
			c-0.1,0.33-0.12,0.66-0.04,1c0.02,0.33,0.11,0.64,0.3,0.93c0.13,0.17,0.26,0.34,0.39,0.51c0.31,0.31,0.68,0.52,1.1,0.64
			c0.22,0.03,0.44,0.06,0.66,0.09c0.45,0,0.87-0.12,1.26-0.34c0.13-0.07,0.27-0.14,0.4-0.2c0.29-0.16,0.53-0.37,0.7-0.64
			c0.22-0.24,0.37-0.52,0.45-0.85c0.1-0.33,0.12-0.66,0.04-1c-0.02-0.33-0.11-0.64-0.3-0.93c-0.13-0.17-0.26-0.34-0.39-0.51
			c-0.31-0.31-0.68-0.52-1.1-0.64c-0.22-0.03-0.44-0.06-0.66-0.09C82.9,45.97,82.48,46.08,82.09,46.3L82.09,46.3z"/>
	</g>
</g>
<g>
	<g>
		<path class="st0" d="M77.54,54.19c3.22,0,3.22-5,0-5C74.32,49.19,74.32,54.19,77.54,54.19L77.54,54.19z"/>
	</g>
</g>
<g>
	<g>
		<path class="st0" d="M74.44,54.31c0,0.07,0,0.13,0,0.2c-0.01,0.34,0.06,0.67,0.22,0.96c0.1,0.31,0.27,0.58,0.52,0.8
			c0.23,0.24,0.49,0.42,0.8,0.52c0.3,0.16,0.62,0.23,0.96,0.22c0.22-0.03,0.44-0.06,0.66-0.09c0.42-0.12,0.79-0.33,1.1-0.64
			c0.13-0.17,0.26-0.34,0.39-0.51c0.23-0.39,0.34-0.81,0.34-1.26c0-0.07,0-0.13,0-0.2c0.01-0.34-0.06-0.67-0.22-0.96
			c-0.1-0.31-0.27-0.58-0.52-0.8c-0.23-0.24-0.49-0.42-0.8-0.52c-0.3-0.16-0.62-0.23-0.96-0.22c-0.22,0.03-0.44,0.06-0.66,0.09
			c-0.42,0.12-0.79,0.33-1.1,0.64c-0.13,0.17-0.26,0.34-0.39,0.51C74.55,53.43,74.44,53.85,74.44,54.31L74.44,54.31z"/>
	</g>
</g>
<g>
	<g>
		<path class="st0" d="M76.74,58.41c3.22,0,3.22-5,0-5C73.52,53.41,73.52,58.41,76.74,58.41L76.74,58.41z"/>
	</g>
</g>
<g>
	<g>
		<path class="st0" d="M76.74,58.21c3.22,0,3.22-5,0-5C73.52,53.21,73.52,58.21,76.74,58.21L76.74,58.21z"/>
	</g>
</g>
<g>
	<g>
		<path class="st0" d="M77.74,57.21c3.22,0,3.22-5,0-5C74.53,52.21,74.52,57.21,77.74,57.21L77.74,57.21z"/>
	</g>
</g>
<g>
	<g>
		<path class="st0" d="M73.15,56.26c-0.07,0.2-0.13,0.4-0.2,0.6c-0.1,0.33-0.12,0.66-0.04,1c0.02,0.33,0.11,0.64,0.3,0.93
			c0.16,0.29,0.37,0.53,0.64,0.7c0.24,0.22,0.52,0.37,0.85,0.45c0.22,0.03,0.44,0.06,0.66,0.09c0.45,0,0.87-0.12,1.26-0.34
			c0.17-0.13,0.34-0.26,0.51-0.39c0.31-0.31,0.52-0.68,0.64-1.1c0.07-0.2,0.13-0.4,0.2-0.6c0.1-0.33,0.12-0.66,0.04-1
			c-0.02-0.33-0.11-0.64-0.3-0.93c-0.16-0.29-0.37-0.53-0.64-0.7c-0.24-0.22-0.52-0.37-0.85-0.45c-0.22-0.03-0.44-0.06-0.66-0.09
			c-0.45,0-0.87,0.12-1.26,0.34c-0.17,0.13-0.34,0.26-0.51,0.39C73.48,55.47,73.27,55.84,73.15,56.26L73.15,56.26z"/>
	</g>
</g>
<g>
	<g>
		<path class="st0" d="M72.75,59.27c-0.07,0.27-0.14,0.54-0.2,0.8c-0.1,0.33-0.12,0.66-0.04,1c0.02,0.33,0.11,0.64,0.3,0.93
			c0.16,0.29,0.37,0.53,0.64,0.7c0.24,0.22,0.52,0.37,0.85,0.45c0.22,0.03,0.44,0.06,0.66,0.09c0.45,0,0.87-0.12,1.26-0.34
			c0.17-0.13,0.34-0.26,0.51-0.39c0.31-0.31,0.52-0.68,0.64-1.1c0.07-0.27,0.14-0.54,0.2-0.8c0.1-0.33,0.12-0.66,0.04-1
			c-0.02-0.33-0.11-0.64-0.3-0.93c-0.16-0.29-0.37-0.53-0.64-0.7c-0.24-0.22-0.52-0.37-0.85-0.45c-0.22-0.03-0.44-0.06-0.66-0.09
			c-0.45,0-0.87,0.12-1.26,0.34c-0.17,0.13-0.34,0.26-0.51,0.39C73.08,58.48,72.86,58.85,72.75,59.27L72.75,59.27z"/>
	</g>
</g>
<g>
	<g>
		<path class="st0" d="M71.13,61.68c-0.07,0.2-0.13,0.4-0.2,0.6c-0.1,0.33-0.12,0.66-0.04,1c0.02,0.33,0.11,0.64,0.3,0.93
			c0.16,0.29,0.37,0.53,0.64,0.7c0.24,0.22,0.52,0.37,0.85,0.45c0.22,0.03,0.44,0.06,0.66,0.09c0.45,0,0.87-0.12,1.26-0.34
			c0.17-0.13,0.34-0.26,0.51-0.39c0.31-0.31,0.52-0.68,0.64-1.1c0.07-0.2,0.13-0.4,0.2-0.6c0.1-0.33,0.12-0.66,0.04-1
			c-0.02-0.33-0.11-0.64-0.3-0.93c-0.16-0.29-0.37-0.53-0.64-0.7c-0.24-0.22-0.52-0.37-0.85-0.45c-0.22-0.03-0.44-0.06-0.66-0.09
			c-0.45,0-0.87,0.12-1.26,0.34c-0.17,0.13-0.34,0.26-0.51,0.39C71.46,60.89,71.24,61.25,71.13,61.68L71.13,61.68z"/>
	</g>
</g>
<g>
	<g>
		<path class="st0" d="M76.98,56.47c0.07,0.07,0.13,0.13,0.2,0.2c0.23,0.24,0.49,0.42,0.8,0.52c0.3,0.16,0.62,0.23,0.96,0.22
			c0.34,0.01,0.67-0.06,0.96-0.22c0.31-0.1,0.58-0.27,0.8-0.52c0.13-0.17,0.26-0.34,0.39-0.51c0.23-0.39,0.34-0.81,0.34-1.26
			c-0.03-0.22-0.06-0.44-0.09-0.66c-0.12-0.42-0.33-0.79-0.64-1.1c-0.07-0.07-0.13-0.13-0.2-0.2c-0.23-0.24-0.49-0.42-0.8-0.52
			c-0.3-0.16-0.62-0.23-0.96-0.22c-0.34-0.01-0.67,0.06-0.96,0.22c-0.31,0.1-0.58,0.27-0.8,0.52c-0.13,0.17-0.26,0.34-0.39,0.51
			c-0.23,0.39-0.34,0.81-0.34,1.26c0.03,0.22,0.06,0.44,0.09,0.66C76.46,55.79,76.67,56.16,76.98,56.47L76.98,56.47z"/>
	</g>
</g>
<g>
	<g>
		<path class="st0" d="M74.12,53.49c-0.14,1.78-0.29,3.56-0.43,5.33c-0.07,0.87-0.14,1.74-0.21,2.62c-0.01,0.14,0.03,0.57-0.06,0.68
			c0.02-0.11,0.03-0.21,0.05-0.32c-0.02,0.11-0.04,0.23-0.08,0.34c0.06-0.21,0.17-0.39,0.32-0.54c0.09-0.07,0.18-0.13,0.26-0.2
			c0.76-0.38,1.48-0.27,2.17,0.33c0.74,0.82,0.72,1.74-0.06,2.76c0.43-0.54,0.73-1.05,0.73-1.77c0-0.61-0.27-1.35-0.73-1.77
			c-0.91-0.83-2.66-1.09-3.54,0c-0.35,0.44-0.62,0.83-0.77,1.38c-0.18,0.66-0.07,1.32,0.19,1.94c0.48,1.13,1.6,1.9,2.84,1.9
			c1.2,0.01,2.28-0.68,2.93-1.66c0.53-0.8,0.63-1.74,0.7-2.67c0.23-2.78,0.45-5.57,0.68-8.35c0.11-1.31-1.23-2.56-2.5-2.5
			C75.17,51.06,74.23,52.09,74.12,53.49L74.12,53.49z"/>
	</g>
</g>
<g>
	<g>
		<path class="st0" d="M71.84,54.51c0.19,2.14,0.26,4.29,0.21,6.44c-0.03,1.05-0.09,2.11-0.18,3.15c-0.04,0.5-0.09,1.01-0.15,1.51
			c-0.03,0.25-0.05,0.5-0.09,0.75c0.03-0.22,0.03-0.22-0.01-0.01c0.18-0.33,0.2-0.38,0.06-0.17c0.3-0.3,0.6-0.6,0.9-0.9
			c0.12-0.04,0.23-0.09,0.35-0.13c0.44,0,0.89,0,1.33,0c0.42,0.42,0.84,0.85,1.25,1.27c-0.03-0.09-0.05-0.17-0.07-0.26
			c-0.04-0.15-0.07-0.3-0.1-0.45c-0.04-0.19-0.07-0.38-0.11-0.57c-0.04-0.22-0.03-0.29-0.01-0.03c-0.07-0.74-0.11-1.47-0.07-2.21
			c0.02-0.35,0.04-0.7,0.09-1.05c-0.03,0.26-0.03,0.18,0.01-0.03c0.04-0.19,0.07-0.38,0.11-0.57c0.16-0.72,0.38-1.43,0.65-2.12
			c0.47-1.22-0.52-2.8-1.75-3.08c-1.43-0.33-2.57,0.44-3.08,1.75c-0.83,2.15-1.2,4.54-1.01,6.84c0.1,1.24,0.21,2.74,0.83,3.85
			c0.99,1.79,3.52,2.13,4.81,0.46c0.84-1.09,0.84-2.54,0.97-3.86c0.12-1.17,0.21-2.35,0.25-3.53c0.09-2.36,0.02-4.72-0.18-7.07
			c-0.12-1.3-1.07-2.56-2.5-2.5C73.08,52.06,71.72,53.11,71.84,54.51L71.84,54.51z"/>
	</g>
</g>
<g>
	<g>
		<path class="st0" d="M78.95,53.79c3.22,0,3.22-5,0-5C75.73,48.79,75.73,53.79,78.95,53.79L78.95,53.79z"/>
	</g>
</g>
<g>
	<g>
		<path class="st0" d="M76.54,53.99c3.22,0,3.22-5,0-5C73.32,48.99,73.32,53.99,76.54,53.99L76.54,53.99z"/>
	</g>
</g>
<g>
	<g>
		<path class="st0" d="M82.16,52.39c3.22,0,3.22-5,0-5C78.94,47.39,78.94,52.39,82.16,52.39L82.16,52.39z"/>
	</g>
</g>
<g>
	<g>
		<path class="st0" d="M81.46,45.21c-0.13,0.28-0.27,0.56-0.45,0.82c-0.04,0.06-0.09,0.13-0.13,0.19c-0.11,0.15-0.06,0.09,0.16-0.2
			c-0.07,0.01-0.26,0.3-0.3,0.35c-0.19,0.21-0.4,0.41-0.62,0.59c-0.08,0.07-0.52,0.35-0.17,0.15c0.34-0.19-0.05,0.03-0.13,0.09
			c-1.02,0.73-2.15,1.29-3.25,1.89c-2.6,1.41-4.99,3.25-5.96,6.15c-0.42,1.24,0.48,2.79,1.75,3.08c1.38,0.31,2.63-0.42,3.08-1.75
			c0.09-0.26,0.28-0.43-0.03,0.02c0.08-0.12,0.14-0.28,0.21-0.41c0.08-0.13,0.16-0.26,0.24-0.39c0.23-0.38-0.27,0.3-0.07,0.08
			c0.4-0.46,0.86-0.83,1.29-1.25c-0.17,0.17-0.36,0.27-0.06,0.06c0.13-0.09,0.26-0.18,0.4-0.27c0.25-0.16,0.5-0.32,0.75-0.47
			c0.53-0.31,1.07-0.6,1.61-0.89c2.35-1.25,4.84-2.79,5.99-5.31c0.54-1.19,0.38-2.75-0.9-3.42C83.78,43.73,82.04,43.94,81.46,45.21
			L81.46,45.21z"/>
	</g>
</g>
<g>
	<g>
		<path class="st0" d="M109.27,35.52c3.22,0,3.22-5,0-5C106.05,30.52,106.05,35.52,109.27,35.52L109.27,35.52z"/>
	</g>
</g>
<g>
	<g>
		<path class="st0" d="M105.86,36.93c3.58,0.29,7.25-0.59,10.3-2.49c1.76-1.09,1.56-4.05-0.6-4.57c-4.33-1.03-8.9,0.18-12.22,3.14
			c-1.71,1.52-2.75,3.51-3.7,5.55c-0.46,0.98-0.93,1.94-1.53,2.85c-0.14,0.21-0.41,0.48-0.79,0.87c-0.27,0.27-0.01,0.04-0.19,0.17
			c-0.25,0.17-0.51,0.31-0.78,0.44c-1.22,0.59-1.54,2.32-0.9,3.42c0.73,1.24,2.2,1.49,3.42,0.9c1.95-0.94,3.37-2.73,4.36-4.61
			c0.5-0.94,0.91-1.93,1.38-2.89c0.25-0.5,0.51-0.99,0.8-1.47c0.12-0.19,0.24-0.38,0.38-0.56c0.1-0.14,0.1-0.13-0.02,0.02
			c0.08-0.1,0.16-0.19,0.24-0.28c0.3-0.34,0.62-0.66,0.96-0.95c0.04-0.04,0.52-0.41,0.32-0.27c-0.2,0.15,0.31-0.2,0.35-0.23
			c0.38-0.25,0.77-0.47,1.18-0.67c0.12-0.06,0.51-0.23,0.19-0.1c0.23-0.09,0.46-0.18,0.7-0.25c1.02-0.33,1.47-0.41,2.24-0.44
			c0.41-0.02,0.82-0.01,1.23,0.02c0.04,0,0.79,0.12,0.31,0.03c0.24,0.05,0.48,0.1,0.73,0.15c-0.2-1.52-0.4-3.05-0.6-4.57
			c-2.41,1.5-4.92,2.04-7.78,1.81c-1.35-0.11-2.5,1.23-2.5,2.5C103.36,35.87,104.5,36.82,105.86,36.93L105.86,36.93z"/>
	</g>
</g>
<g>
	<g>
		<path class="st0" d="M85.98,42.17c-1.43-0.1-2.76,0.54-3.82,1.43c-0.96,0.8-1.55,1.93-2.02,3.06c-0.86,2.04-1.47,4.19-1.88,6.37
			c-0.13,0.67-0.1,1.32,0.25,1.93c0.3,0.52,0.9,1.01,1.49,1.15c1.23,0.28,2.82-0.37,3.08-1.75c0.34-1.84,0.84-3.65,1.49-5.41
			c0.04-0.1,0.07-0.2,0.11-0.3c0.03-0.08,0.17-0.42,0.02-0.06c-0.16,0.36,0,0.01,0.03-0.06c0.04-0.09,0.09-0.19,0.13-0.28
			c0.09-0.18,0.19-0.37,0.3-0.54c0.03-0.04,0.23-0.28,0.22-0.32c0.02,0.06-0.36,0.41-0.1,0.14c0.13-0.13,0.29-0.25,0.41-0.39
			c-0.06,0.08-0.45,0.3-0.16,0.14c0.08-0.05,0.16-0.09,0.24-0.14c0.37-0.21-0.43,0.13-0.15,0.06c0.09-0.02,0.18-0.04,0.27-0.07
			c0.25-0.09-0.52,0.01-0.26,0.03c0.11,0.01,0.23,0,0.35,0.01c1.31,0.1,2.56-1.22,2.5-2.5C88.41,43.23,87.38,42.27,85.98,42.17
			L85.98,42.17z"/>
	</g>
</g>
<g>
	<g>
		<path class="st0" d="M97.82,42.95c3.22,0,3.22-5,0-5C94.61,37.95,94.6,42.95,97.82,42.95L97.82,42.95z"/>
	</g>
</g>
<g>
	<g>
		<path class="st0" d="M95.61,40.34c3.22,0,3.22-5,0-5C92.4,35.34,92.39,40.34,95.61,40.34L95.61,40.34z"/>
	</g>
</g>
<g>
	<g>
		<path class="st0" d="M92.44,36.27c-0.13,0.13-0.27,0.27-0.4,0.4c-0.24,0.23-0.42,0.49-0.52,0.8c-0.16,0.3-0.23,0.62-0.22,0.96
			c-0.01,0.34,0.06,0.67,0.22,0.96c0.1,0.31,0.27,0.58,0.52,0.8c0.17,0.13,0.34,0.26,0.51,0.39c0.39,0.23,0.81,0.34,1.26,0.34
			c0.22-0.03,0.44-0.06,0.66-0.09c0.42-0.12,0.79-0.33,1.1-0.64c0.13-0.13,0.27-0.27,0.4-0.4c0.24-0.23,0.42-0.49,0.52-0.8
			c0.16-0.3,0.23-0.62,0.22-0.96c0.01-0.34-0.06-0.67-0.22-0.96c-0.1-0.31-0.27-0.58-0.52-0.8c-0.17-0.13-0.34-0.26-0.51-0.39
			c-0.39-0.23-0.81-0.34-1.26-0.34c-0.22,0.03-0.44,0.06-0.66,0.09C93.12,35.75,92.75,35.96,92.44,36.27L92.44,36.27z"/>
	</g>
</g>
<g>
	<g>
		<path class="st0" d="M89.73,37.08c-0.2,0.13-0.4,0.27-0.6,0.4c-0.29,0.16-0.53,0.37-0.7,0.64c-0.22,0.24-0.37,0.52-0.45,0.85
			c-0.1,0.33-0.12,0.66-0.04,1c0.02,0.33,0.11,0.64,0.3,0.93c0.13,0.17,0.26,0.34,0.39,0.51c0.31,0.31,0.68,0.52,1.1,0.64
			c0.22,0.03,0.44,0.06,0.66,0.09c0.45,0,0.87-0.12,1.26-0.34c0.2-0.13,0.4-0.27,0.6-0.4c0.29-0.16,0.53-0.37,0.7-0.64
			c0.22-0.24,0.37-0.52,0.45-0.85c0.1-0.33,0.12-0.66,0.04-1c-0.02-0.33-0.11-0.64-0.3-0.93c-0.13-0.17-0.26-0.34-0.39-0.51
			c-0.31-0.31-0.68-0.52-1.1-0.64c-0.22-0.03-0.44-0.06-0.66-0.09C90.54,36.74,90.12,36.85,89.73,37.08L89.73,37.08z"/>
	</g>
</g>
<g>
	<g>
		<path class="st0" d="M88.02,38.28c-0.07,0.07-0.13,0.13-0.2,0.2c-0.24,0.23-0.42,0.49-0.52,0.8c-0.16,0.3-0.23,0.62-0.22,0.96
			c-0.01,0.34,0.06,0.67,0.22,0.96c0.1,0.31,0.27,0.58,0.52,0.8c0.17,0.13,0.34,0.26,0.51,0.39c0.39,0.23,0.81,0.34,1.26,0.34
			c0.22-0.03,0.44-0.06,0.66-0.09c0.42-0.12,0.79-0.33,1.1-0.64c0.07-0.07,0.13-0.13,0.2-0.2c0.24-0.23,0.42-0.49,0.52-0.8
			c0.16-0.3,0.23-0.62,0.22-0.96c0.01-0.34-0.06-0.67-0.22-0.96c-0.1-0.31-0.27-0.58-0.52-0.8c-0.17-0.13-0.34-0.26-0.51-0.39
			c-0.39-0.23-0.81-0.34-1.26-0.34c-0.22,0.03-0.44,0.06-0.66,0.09C88.7,37.76,88.34,37.97,88.02,38.28L88.02,38.28z"/>
	</g>
</g>
<g>
	<g>
		<path class="st0" d="M88.39,44.36c3.22,0,3.22-5,0-5C85.17,39.36,85.16,44.36,88.39,44.36L88.39,44.36z"/>
	</g>
</g>
<g>
	<g>
		<path class="st0" d="M86.22,40.49c-0.13,0.13-0.27,0.27-0.4,0.4c-0.24,0.23-0.42,0.49-0.52,0.8c-0.16,0.3-0.23,0.62-0.22,0.96
			c-0.01,0.34,0.06,0.67,0.22,0.96c0.1,0.31,0.27,0.58,0.52,0.8c0.17,0.13,0.34,0.26,0.51,0.39c0.39,0.23,0.81,0.34,1.26,0.34
			c0.22-0.03,0.44-0.06,0.66-0.09c0.42-0.12,0.79-0.33,1.1-0.64c0.13-0.13,0.27-0.27,0.4-0.4c0.24-0.23,0.42-0.49,0.52-0.8
			c0.16-0.3,0.23-0.62,0.22-0.96c0.01-0.34-0.06-0.67-0.22-0.96c-0.1-0.31-0.27-0.58-0.52-0.8c-0.17-0.13-0.34-0.26-0.51-0.39
			c-0.39-0.23-0.81-0.34-1.26-0.34c-0.22,0.03-0.44,0.06-0.66,0.09C86.9,39.97,86.53,40.18,86.22,40.49L86.22,40.49z"/>
	</g>
</g>
<g>
	<g>
		<path class="st0" d="M85.61,40.92c-1.97,0.88-3.99,1.85-5.48,3.45c-1.55,1.66-2.25,3.8-3.96,5.33c-1.65,1.48-3.35,2.83-4.75,4.56
			c-1.49,1.84-2.67,3.81-3.5,6.03c-1.79,4.77-1.18,10.02-0.31,14.91c0.44,2.48,0.94,4.95,1.42,7.42c0.44,2.26,0.72,4.64,1.53,6.81
			c0.88,2.37,2.31,4.04,4.35,5.49c1.25,0.89,3.16,1.78,3.59,3.12c0.41,1.29,1.74,2.11,3.08,1.75c1.43-0.39,1.95-1.74,1.75-3.08
			c-0.33-2.17-1.52-4.16-3.23-5.52c-0.82-0.65-1.74-1.12-2.6-1.71c-0.57-0.39-0.95-0.7-0.86-1.4c0.17-1.34-1.27-2.5-2.5-2.5
			c-1.49,0-2.33,1.15-2.5,2.5c-0.32,2.52,1.54,4.56,3.5,5.82c1.78,1.14,3.03,1.92,3.37,4.14c1.61-0.44,3.21-0.89,4.82-1.33
			c-0.59-1.87-1.79-3.2-3.33-4.36c-1.2-0.9-2.64-1.58-3.65-2.7c-1.23-1.36-1.5-3.35-1.84-5.08c-0.46-2.33-0.9-4.67-1.35-7
			c-0.84-4.32-1.98-8.98-1.11-13.39c0.81-4.08,3.29-7.23,6.41-9.86c0.9-0.76,1.82-1.5,2.58-2.41c0.83-1,1.4-2.1,2.07-3.2
			c1.1-1.8,3.21-2.64,5.06-3.46c1.23-0.55,1.53-2.35,0.9-3.42C88.28,40.55,86.84,40.37,85.61,40.92L85.61,40.92z"/>
	</g>
</g>
<g>
	<g>
		<path class="st0" d="M103.07,36.05c-0.33-0.39-0.76-0.73-1.21-0.97c-0.43-0.23-0.91-0.44-1.4-0.53c-1.03-0.19-2.11-0.2-3.1,0.19
			c-1,0.4-1.92,0.98-2.6,1.83c-0.7,0.87-1.19,1.77-1.55,2.84c-0.2,0.6-0.06,1.39,0.25,1.93c0.3,0.52,0.9,1.01,1.49,1.15
			c1.38,0.31,2.64-0.42,3.08-1.75c0.05-0.16,0.11-0.32,0.18-0.48c-0.08,0.2-0.17,0.4-0.25,0.6c0.19-0.45,0.43-0.87,0.73-1.26
			c-0.13,0.17-0.26,0.34-0.39,0.51c0.21-0.27,0.45-0.51,0.71-0.72c-0.17,0.13-0.34,0.26-0.51,0.39c0.24-0.19,0.5-0.34,0.79-0.47
			c-0.2,0.08-0.4,0.17-0.6,0.25c0.24-0.1,0.49-0.17,0.76-0.21c-0.22,0.03-0.44,0.06-0.66,0.09c0.29-0.04,0.57-0.04,0.86-0.01
			c-0.22-0.03-0.44-0.06-0.66-0.09c0.26,0.04,0.5,0.1,0.75,0.2c-0.2-0.08-0.4-0.17-0.6-0.25c0.19,0.08,0.36,0.18,0.53,0.3
			c-0.17-0.13-0.34-0.26-0.51-0.39c0.14,0.11,0.27,0.23,0.39,0.37c0.39,0.47,1.18,0.73,1.77,0.73c0.61,0,1.35-0.27,1.77-0.73
			c0.44-0.48,0.76-1.1,0.73-1.77c-0.03-0.22-0.06-0.44-0.09-0.66C103.6,36.73,103.38,36.36,103.07,36.05L103.07,36.05z"/>
	</g>
</g>
<path class="st2" d="M182.34,49.43c5.43,3.38,9.56,3.69,12.25,3.41c5.41-0.56,7.65-3.8,12.45-3.61c4.38,0.17,7.79,3.05,9.84,5.22"/>
<path class="st3" d="M185.19,41.12c1.53,2.08,4.21,5.04,7.92,5.44c5.8,0.63,8.89-5.57,14.4-5.36c2.67,0.1,6.64,1.73,11.33,9.81"/>
<g>
	<g>
		<path class="st0" d="M99.03,37.93c3.22,0,3.22-5,0-5C95.81,32.93,95.81,37.93,99.03,37.93L99.03,37.93z"/>
	</g>
</g>
<g>
	<g>
		<path class="st0" d="M102.24,37.33c3.22,0,3.22-5,0-5C99.02,32.33,99.02,37.33,102.24,37.33L102.24,37.33z"/>
	</g>
</g>
<g>
	<g>
		<path class="st0" d="M101.82,32.29c-4.41,1.14-8.8,2.33-12.95,4.23c-4.24,1.93-7.85,4.84-11.42,7.79
			c-1.72,1.42-3.36,2.86-4.7,4.66c-1.37,1.84-2.17,4.01-3,6.13c-1.69,4.3-3,8.95-1.61,13.52c0.94,3.07,5.77,1.76,4.82-1.33
			c-1.17-3.83,0.36-7.74,1.77-11.29c0.68-1.71,1.39-3.44,2.62-4.83c1.29-1.46,2.84-2.68,4.34-3.92c3.13-2.58,6.36-4.98,10.11-6.61
			c3.63-1.58,7.52-2.55,11.35-3.54C106.27,36.31,104.95,31.49,101.82,32.29L101.82,32.29z"/>
	</g>
</g>
<g>
	<g>
		<path class="st0" d="M78.63,102.15c2.45,2.64,5.85,3.73,9.12,4.98c3.45,1.31,6.31,3.71,9.67,5.24c7.17,3.27,15.05,4.42,22.88,4.33
			c3.22-0.03,3.22-5.03,0-5c-7.03,0.08-14.31-0.8-20.74-3.83c-3.26-1.54-6.08-3.78-9.43-5.15c-2.76-1.13-5.87-1.84-7.97-4.1
			C79.98,96.25,76.45,99.79,78.63,102.15L78.63,102.15z"/>
	</g>
</g>
<g>
	<g>
		<path class="st0" d="M222.05,69.37c-0.22,2.83,0.59,5.57,0.97,8.35c0.33,2.43,0.25,5.31,0.19,7.91c-0.03,1.31,1.17,2.56,2.5,2.5
			c1.38-0.06,2.46-1.1,2.5-2.5c0.07-2.82,0.12-5.64-0.26-8.45c-0.37-2.73-1.11-5.1-0.9-7.81c0.1-1.31-1.22-2.56-2.5-2.5
			C223.1,66.93,222.16,67.97,222.05,69.37L222.05,69.37z"/>
	</g>
</g>
<g>
	<g>
		<path class="st0" d="M228.59,67.27c-1.81-3.91-5.86-6.04-9.58-7.75c-0.2,1.52-0.4,3.05-0.6,4.57c0.25-0.06,0.5-0.12,0.75-0.19
			c1.27-0.32,2.16-1.81,1.75-3.08c-0.43-1.31-1.72-2.09-3.08-1.75c-0.25,0.06-0.5,0.12-0.75,0.19c-0.96,0.24-1.66,1.13-1.79,2.08
			c-0.12,0.91,0.3,2.08,1.19,2.49c1.7,0.78,3.4,1.59,4.94,2.66c0.18,0.12,0.34,0.26,0.52,0.38c-0.69-0.44-0.03-0.02,0.14,0.13
			c0.34,0.29,0.66,0.59,0.96,0.91c0.16,0.17,0.3,0.34,0.45,0.52c0.19,0.23-0.36-0.49-0.12-0.16c0.07,0.1,0.15,0.2,0.22,0.31
			c0.26,0.39,0.48,0.79,0.68,1.22c0.25,0.54,0.95,1,1.49,1.15c0.6,0.16,1.4,0.09,1.93-0.25C228.92,69.9,229.18,68.54,228.59,67.27
			L228.59,67.27z"/>
	</g>
</g>
<g>
	<g>
		<path class="st0" d="M223.96,69.13c0.92,0.96,0.96,2.88,1,4.14c0.06,1.67-0.12,3.31-0.5,4.94c-0.38,1.65-0.92,3.28-1.58,4.85
			c-0.36,0.86-0.77,1.69-1.19,2.52c-0.18,0.35-0.36,0.7-0.55,1.05c-0.3,0.56-0.58,0.63,0.1,0.39c-1.27,0.45-2.12,1.71-1.75,3.08
			c0.34,1.24,1.8,2.2,3.08,1.75c2.33-0.82,3.26-3.26,4.22-5.35c1.03-2.24,1.93-4.55,2.49-6.95c0.53-2.29,0.82-4.69,0.63-7.04
			c-0.19-2.47-0.65-5.05-2.42-6.9C225.26,63.27,221.73,66.81,223.96,69.13L223.96,69.13z"/>
	</g>
</g>
<g>
	<g>
		<path class="st0" d="M74.73,51.79c3.22,0,3.22-5,0-5C71.51,46.79,71.51,51.79,74.73,51.79L74.73,51.79z"/>
	</g>
</g>
<g>
	<g>
		<path class="st0" d="M71.23,50.29c0,0.13,0,0.27,0,0.4c-0.01,0.34,0.06,0.67,0.22,0.96c0.1,0.31,0.27,0.58,0.52,0.8
			c0.23,0.24,0.49,0.42,0.8,0.52c0.3,0.16,0.62,0.23,0.96,0.22c0.22-0.03,0.44-0.06,0.66-0.09c0.42-0.12,0.79-0.33,1.1-0.64
			c0.13-0.17,0.26-0.34,0.39-0.51c0.23-0.39,0.34-0.81,0.34-1.26c0-0.13,0-0.27,0-0.4c0.01-0.34-0.06-0.67-0.22-0.96
			c-0.1-0.31-0.27-0.58-0.52-0.8c-0.23-0.24-0.49-0.42-0.8-0.52c-0.3-0.16-0.62-0.23-0.96-0.22c-0.22,0.03-0.44,0.06-0.66,0.09
			c-0.42,0.12-0.79,0.33-1.1,0.64c-0.13,0.17-0.26,0.34-0.39,0.51C71.34,49.42,71.23,49.84,71.23,50.29L71.23,50.29z"/>
	</g>
</g>
<g>
	<g>
		<path class="st0" d="M70.21,50.86c-0.28,0.53-0.55,1.06-0.83,1.59c-0.18,0.29-0.28,0.6-0.3,0.93c-0.07,0.33-0.06,0.66,0.04,1
			c0.08,0.33,0.23,0.61,0.45,0.85c0.18,0.27,0.41,0.49,0.7,0.64c0.2,0.08,0.4,0.17,0.6,0.25c0.44,0.12,0.89,0.12,1.33,0
			c0.2-0.08,0.4-0.17,0.6-0.25c0.38-0.22,0.67-0.52,0.9-0.9c0.28-0.53,0.55-1.06,0.83-1.59c0.18-0.29,0.28-0.6,0.3-0.93
			c0.07-0.33,0.06-0.66-0.04-1c-0.08-0.33-0.23-0.61-0.45-0.85c-0.18-0.27-0.41-0.49-0.7-0.64c-0.2-0.08-0.4-0.17-0.6-0.25
			c-0.44-0.12-0.89-0.12-1.33,0c-0.2,0.08-0.4,0.17-0.6,0.25C70.73,50.18,70.43,50.48,70.21,50.86L70.21,50.86z"/>
	</g>
</g>
<g>
	<g>
		<path class="st0" d="M68.71,54.24c-0.21,0.6-0.41,1.2-0.62,1.8c-0.1,0.33-0.12,0.66-0.04,1c0.02,0.33,0.11,0.64,0.3,0.93
			c0.16,0.29,0.37,0.53,0.64,0.7c0.24,0.22,0.52,0.37,0.85,0.45c0.22,0.03,0.44,0.06,0.66,0.09c0.45,0,0.87-0.12,1.26-0.34
			c0.17-0.13,0.34-0.26,0.51-0.39c0.31-0.31,0.52-0.68,0.64-1.1c0.21-0.6,0.41-1.2,0.62-1.8c0.1-0.33,0.12-0.66,0.04-1
			c-0.02-0.33-0.11-0.64-0.3-0.93c-0.16-0.29-0.37-0.53-0.64-0.7c-0.24-0.22-0.52-0.37-0.85-0.45c-0.22-0.03-0.44-0.06-0.66-0.09
			c-0.45,0-0.87,0.12-1.26,0.34c-0.17,0.13-0.34,0.26-0.51,0.39C69.04,53.45,68.83,53.82,68.71,54.24L68.71,54.24z"/>
	</g>
</g>
<g>
	<g>
		<path class="st0" d="M70.11,60.02c3.22,0,3.22-5,0-5C66.9,55.02,66.89,60.02,70.11,60.02L70.11,60.02z"/>
	</g>
</g>
<g>
	<g>
		<path class="st0" d="M70.11,62.43c3.22,0,3.22-5,0-5C66.9,57.43,66.89,62.43,70.11,62.43L70.11,62.43z"/>
	</g>
</g>
<g>
	<g>
		<path class="st0" d="M69.91,64.03c3.22,0,3.22-5,0-5C66.69,59.03,66.69,64.03,69.91,64.03L69.91,64.03z"/>
	</g>
</g>
<g>
	<g>
		<path class="st0" d="M68.71,65.64c3.22,0,3.22-5,0-5C65.49,60.64,65.48,65.64,68.71,65.64L68.71,65.64z"/>
	</g>
</g>
<g>
	<g>
		<path class="st0" d="M68.51,66.04c3.22,0,3.22-5,0-5C65.29,61.04,65.28,66.04,68.51,66.04L68.51,66.04z"/>
	</g>
</g>
<g>
	<g>
		<path class="st0" d="M66.41,66.35c0,0.27,0,0.54,0,0.8c-0.01,0.34,0.06,0.67,0.22,0.96c0.1,0.31,0.27,0.58,0.52,0.8
			c0.23,0.24,0.49,0.42,0.8,0.52c0.3,0.16,0.62,0.23,0.96,0.22c0.22-0.03,0.44-0.06,0.66-0.09c0.42-0.12,0.79-0.33,1.1-0.64
			c0.13-0.17,0.26-0.34,0.39-0.51c0.23-0.39,0.34-0.81,0.34-1.26c0-0.27,0-0.54,0-0.8c0.01-0.34-0.06-0.67-0.22-0.96
			c-0.1-0.31-0.27-0.58-0.52-0.8c-0.23-0.24-0.49-0.42-0.8-0.52c-0.3-0.16-0.62-0.23-0.96-0.22c-0.22,0.03-0.44,0.06-0.66,0.09
			c-0.42,0.12-0.79,0.33-1.1,0.64c-0.13,0.17-0.26,0.34-0.39,0.51C66.52,65.48,66.41,65.9,66.41,66.35L66.41,66.35z"/>
	</g>
</g>
<g>
	<g>
		<path class="st0" d="M66.41,68.56c0,0.13,0,0.27,0,0.4c-0.01,0.34,0.06,0.67,0.22,0.96c0.1,0.31,0.27,0.58,0.52,0.8
			c0.23,0.24,0.49,0.42,0.8,0.52c0.3,0.16,0.62,0.23,0.96,0.22c0.22-0.03,0.44-0.06,0.66-0.09c0.42-0.12,0.79-0.33,1.1-0.64
			c0.13-0.17,0.26-0.34,0.39-0.51c0.23-0.39,0.34-0.81,0.34-1.26c0-0.13,0-0.27,0-0.4c0.01-0.34-0.06-0.67-0.22-0.96
			c-0.1-0.31-0.27-0.58-0.52-0.8c-0.23-0.24-0.49-0.42-0.8-0.52c-0.3-0.16-0.62-0.23-0.96-0.22c-0.22,0.03-0.44,0.06-0.66,0.09
			c-0.42,0.12-0.79,0.33-1.1,0.64c-0.13,0.17-0.26,0.34-0.39,0.51C66.52,67.69,66.41,68.11,66.41,68.56L66.41,68.56z"/>
	</g>
</g>
<g>
	<g>
		<path class="st0" d="M66.41,70.77c0,0.2,0,0.4,0,0.6c-0.01,0.34,0.06,0.67,0.22,0.96c0.1,0.31,0.27,0.58,0.52,0.8
			c0.23,0.24,0.49,0.42,0.8,0.52c0.3,0.16,0.62,0.23,0.96,0.22c0.22-0.03,0.44-0.06,0.66-0.09c0.42-0.12,0.79-0.33,1.1-0.64
			c0.13-0.17,0.26-0.34,0.39-0.51c0.23-0.39,0.34-0.81,0.34-1.26c0-0.2,0-0.4,0-0.6c0.01-0.34-0.06-0.67-0.22-0.96
			c-0.1-0.31-0.27-0.58-0.52-0.8c-0.23-0.24-0.49-0.42-0.8-0.52c-0.3-0.16-0.62-0.23-0.96-0.22c-0.22,0.03-0.44,0.06-0.66,0.09
			c-0.42,0.12-0.79,0.33-1.1,0.64c-0.13,0.17-0.26,0.34-0.39,0.51C66.52,69.9,66.41,70.32,66.41,70.77L66.41,70.77z"/>
	</g>
</g>
<g>
	<g>
		<path class="st0" d="M67.9,77.69c3.22,0,3.22-5,0-5C64.69,72.69,64.68,77.69,67.9,77.69L67.9,77.69z"/>
	</g>
</g>
<g>
	<g>
		<path class="st0" d="M67.9,80.1c3.22,0,3.22-5,0-5C64.69,75.1,64.68,80.1,67.9,80.1L67.9,80.1z"/>
	</g>
</g>
<g>
	<g>
		<path class="st0" d="M66.12,79.67c0.2,0.4,0.4,0.8,0.6,1.2c0.16,0.29,0.37,0.53,0.64,0.7c0.24,0.22,0.52,0.37,0.85,0.45
			c0.33,0.1,0.66,0.12,1,0.04c0.33-0.02,0.64-0.11,0.93-0.3c0.17-0.13,0.34-0.26,0.51-0.39c0.31-0.31,0.52-0.68,0.64-1.1
			c0.03-0.22,0.06-0.44,0.09-0.66c0-0.45-0.12-0.87-0.34-1.26c-0.2-0.4-0.4-0.8-0.6-1.2c-0.16-0.29-0.37-0.53-0.64-0.7
			c-0.24-0.22-0.52-0.37-0.85-0.45c-0.33-0.1-0.66-0.12-1-0.04c-0.33,0.02-0.64,0.11-0.93,0.3c-0.17,0.13-0.34,0.26-0.51,0.39
			c-0.31,0.31-0.52,0.68-0.64,1.1c-0.03,0.22-0.06,0.44-0.09,0.66C65.79,78.86,65.9,79.28,66.12,79.67L66.12,79.67z"/>
	</g>
</g>
<g>
	<g>
		<path class="st0" d="M69.31,83.31c3.22,0,3.22-5,0-5C66.09,78.31,66.09,83.31,69.31,83.31L69.31,83.31z"/>
	</g>
</g>
<g>
	<g>
		<path class="st0" d="M67.01,82.22c0,0.07,0,0.13,0,0.2c-0.01,0.34,0.06,0.67,0.22,0.96c0.1,0.31,0.27,0.58,0.52,0.8
			c0.23,0.24,0.49,0.42,0.8,0.52c0.3,0.16,0.62,0.23,0.96,0.22c0.22-0.03,0.44-0.06,0.66-0.09c0.42-0.12,0.79-0.33,1.1-0.64
			c0.13-0.17,0.26-0.34,0.39-0.51c0.23-0.39,0.34-0.81,0.34-1.26c0-0.07,0-0.13,0-0.2c0.01-0.34-0.06-0.67-0.22-0.96
			c-0.1-0.31-0.27-0.58-0.52-0.8c-0.23-0.24-0.49-0.42-0.8-0.52c-0.3-0.16-0.62-0.23-0.96-0.22c-0.22,0.03-0.44,0.06-0.66,0.09
			c-0.42,0.12-0.79,0.33-1.1,0.64c-0.13,0.17-0.26,0.34-0.39,0.51C67.13,81.35,67.01,81.77,67.01,82.22L67.01,82.22z"/>
	</g>
</g>
<g>
	<g>
		<path class="st0" d="M67.3,76.28c3.22,0,3.22-5,0-5C64.08,71.28,64.08,76.28,67.3,76.28L67.3,76.28z"/>
	</g>
</g>
<g>
	<g>
		<path class="st0" d="M69.51,84.11c3.22,0,3.22-5,0-5C66.29,79.11,66.29,84.11,69.51,84.11L69.51,84.11z"/>
	</g>
</g>
<g>
	<g>
		<path class="st0" d="M67.61,84.02c0,0.07,0,0.13,0,0.2c-0.01,0.34,0.06,0.67,0.22,0.96c0.1,0.31,0.27,0.58,0.52,0.8
			c0.23,0.24,0.49,0.42,0.8,0.52c0.3,0.16,0.62,0.23,0.96,0.22c0.22-0.03,0.44-0.06,0.66-0.09c0.42-0.12,0.79-0.33,1.1-0.64
			c0.13-0.17,0.26-0.34,0.39-0.51c0.23-0.39,0.34-0.81,0.34-1.26c0-0.07,0-0.13,0-0.2c0.01-0.34-0.06-0.67-0.22-0.96
			c-0.1-0.31-0.27-0.58-0.52-0.8c-0.23-0.24-0.49-0.42-0.8-0.52c-0.3-0.16-0.62-0.23-0.96-0.22c-0.22,0.03-0.44,0.06-0.66,0.09
			c-0.42,0.12-0.79,0.33-1.1,0.64c-0.13,0.17-0.26,0.34-0.39,0.51C67.73,83.15,67.61,83.57,67.61,84.02L67.61,84.02z"/>
	</g>
</g>
<g>
	<g>
		<path class="st0" d="M70.31,88.13c3.22,0,3.22-5,0-5C67.1,83.13,67.09,88.13,70.31,88.13L70.31,88.13z"/>
	</g>
</g>
<g>
	<g>
		<path class="st0" d="M68.55,88.5c0.2,0.29,0.38,0.61,0.52,0.94c-0.08-0.2-0.17-0.4-0.25-0.6c0.14,0.34,0.25,0.7,0.31,1.06
			c0.08,0.33,0.23,0.61,0.45,0.85c0.18,0.27,0.41,0.49,0.7,0.64c0.29,0.18,0.6,0.28,0.93,0.3c0.33,0.07,0.66,0.06,1-0.04
			c0.2-0.08,0.4-0.17,0.6-0.25c0.38-0.22,0.67-0.52,0.9-0.9c0.08-0.2,0.17-0.4,0.25-0.6c0.12-0.44,0.12-0.89,0-1.33
			c-0.07-0.36-0.17-0.72-0.31-1.06c-0.22-0.54-0.44-1.06-0.77-1.54c-0.16-0.29-0.37-0.53-0.64-0.7c-0.24-0.22-0.52-0.37-0.85-0.45
			c-0.33-0.1-0.66-0.12-1-0.04c-0.33,0.02-0.64,0.11-0.93,0.3c-0.17,0.13-0.34,0.26-0.51,0.39c-0.31,0.31-0.52,0.68-0.64,1.1
			c-0.03,0.22-0.06,0.44-0.09,0.66C68.21,87.69,68.32,88.11,68.55,88.5L68.55,88.5z"/>
	</g>
</g>
<g>
	<g>
		<path class="st0" d="M69.28,90.92c0.07,0.2,0.13,0.4,0.2,0.6c0.08,0.33,0.23,0.61,0.45,0.85c0.18,0.27,0.41,0.49,0.7,0.64
			c0.29,0.18,0.6,0.28,0.93,0.3c0.33,0.07,0.66,0.06,1-0.04c0.2-0.08,0.4-0.17,0.6-0.25c0.38-0.22,0.67-0.52,0.9-0.9
			c0.08-0.2,0.17-0.4,0.25-0.6c0.12-0.44,0.12-0.89,0-1.33c-0.07-0.2-0.13-0.4-0.2-0.6c-0.08-0.33-0.23-0.61-0.45-0.85
			c-0.18-0.27-0.41-0.49-0.7-0.64c-0.29-0.18-0.6-0.28-0.93-0.3c-0.33-0.07-0.66-0.06-1,0.04c-0.2,0.08-0.4,0.17-0.6,0.25
			c-0.38,0.22-0.67,0.52-0.9,0.9c-0.08,0.2-0.17,0.4-0.25,0.6C69.16,90.04,69.16,90.48,69.28,90.92L69.28,90.92z"/>
	</g>
</g>
<g>
	<g>
		<path class="st0" d="M72.32,94.36c3.22,0,3.22-5,0-5C69.1,89.36,69.1,94.36,72.32,94.36L72.32,94.36z"/>
	</g>
</g>
<g>
	<g>
		<path class="st0" d="M70.74,94.33c0.07,0.13,0.14,0.27,0.2,0.4c0.16,0.29,0.37,0.53,0.64,0.7c0.24,0.22,0.52,0.37,0.85,0.45
			c0.33,0.1,0.66,0.12,1,0.04c0.33-0.02,0.64-0.11,0.93-0.3c0.17-0.13,0.34-0.26,0.51-0.39c0.31-0.31,0.52-0.68,0.64-1.1
			c0.03-0.22,0.06-0.44,0.09-0.66c0-0.45-0.12-0.87-0.34-1.26c-0.07-0.13-0.14-0.27-0.2-0.4c-0.16-0.29-0.37-0.53-0.64-0.7
			c-0.24-0.22-0.52-0.37-0.85-0.45c-0.33-0.1-0.66-0.12-1-0.04c-0.33,0.02-0.64,0.11-0.93,0.3c-0.17,0.13-0.34,0.26-0.51,0.39
			c-0.31,0.31-0.52,0.68-0.64,1.1c-0.03,0.22-0.06,0.44-0.09,0.66C70.4,93.52,70.52,93.94,70.74,94.33L70.74,94.33z"/>
	</g>
</g>
<g>
	<g>
		<path class="st0" d="M74.33,97.57c3.22,0,3.22-5,0-5C71.11,92.57,71.11,97.57,74.33,97.57L74.33,97.57z"/>
	</g>
</g>
<g>
	<g>
		<path class="st0" d="M72.96,97.64c0.13,0.13,0.27,0.27,0.4,0.4c0.23,0.24,0.49,0.42,0.8,0.52c0.3,0.16,0.62,0.23,0.96,0.22
			c0.34,0.01,0.67-0.06,0.96-0.22c0.31-0.1,0.58-0.27,0.8-0.52c0.13-0.17,0.26-0.34,0.39-0.51c0.23-0.39,0.34-0.81,0.34-1.26
			c-0.03-0.22-0.06-0.44-0.09-0.66c-0.12-0.42-0.33-0.79-0.64-1.1c-0.13-0.13-0.27-0.27-0.4-0.4c-0.23-0.24-0.49-0.42-0.8-0.52
			c-0.3-0.16-0.62-0.23-0.96-0.22c-0.34-0.01-0.67,0.06-0.96,0.22c-0.31,0.1-0.58,0.27-0.8,0.52c-0.13,0.17-0.26,0.34-0.39,0.51
			c-0.23,0.39-0.34,0.81-0.34,1.26c0.03,0.22,0.06,0.44,0.09,0.66C72.44,96.96,72.65,97.33,72.96,97.64L72.96,97.64z"/>
	</g>
</g>
<g>
	<g>
		<path class="st0" d="M73.77,98.74c0.13,0.2,0.27,0.4,0.4,0.6c0.16,0.29,0.37,0.53,0.64,0.7c0.24,0.22,0.52,0.37,0.85,0.45
			c0.33,0.1,0.66,0.12,1,0.04c0.33-0.02,0.64-0.11,0.93-0.3c0.17-0.13,0.34-0.26,0.51-0.39c0.31-0.31,0.52-0.68,0.64-1.1
			c0.03-0.22,0.06-0.44,0.09-0.66c0-0.45-0.12-0.87-0.34-1.26c-0.13-0.2-0.27-0.4-0.4-0.6c-0.16-0.29-0.37-0.53-0.64-0.7
			c-0.24-0.22-0.52-0.37-0.85-0.45c-0.33-0.1-0.66-0.12-1-0.04c-0.33,0.02-0.64,0.11-0.93,0.3c-0.17,0.13-0.34,0.26-0.51,0.39
			c-0.31,0.31-0.52,0.68-0.64,1.1c-0.03,0.22-0.06,0.44-0.09,0.66C73.43,97.93,73.54,98.35,73.77,98.74L73.77,98.74z"/>
	</g>
</g>
<g>
	<g>
		<path class="st0" d="M76.74,101.18c3.22,0,3.22-5,0-5C73.52,96.18,73.52,101.18,76.74,101.18L76.74,101.18z"/>
	</g>
</g>
<g>
	<g>
		<path class="st0" d="M77.34,101.58c3.22,0,3.22-5,0-5C74.12,96.58,74.12,101.58,77.34,101.58L77.34,101.58z"/>
	</g>
</g>
<g>
	<g>
		<path class="st0" d="M68.1,74.07c3.22,0,3.22-5,0-5C64.89,69.07,64.88,74.07,68.1,74.07L68.1,74.07z"/>
	</g>
</g>
<g>
	<g>
		<path class="st0" d="M70.24,72.82c0.07-0.13,0.14-0.27,0.2-0.4c0.18-0.29,0.28-0.6,0.3-0.93c0.07-0.33,0.06-0.66-0.04-1
			c-0.08-0.33-0.23-0.61-0.45-0.85c-0.18-0.27-0.41-0.49-0.7-0.64c-0.2-0.08-0.4-0.17-0.6-0.25c-0.44-0.12-0.89-0.12-1.33,0
			c-0.2,0.08-0.4,0.17-0.6,0.25c-0.38,0.22-0.67,0.52-0.9,0.9c-0.07,0.13-0.14,0.27-0.2,0.4c-0.18,0.29-0.28,0.6-0.3,0.93
			c-0.07,0.33-0.06,0.66,0.04,1c0.08,0.33,0.23,0.61,0.45,0.85c0.18,0.27,0.41,0.49,0.7,0.64c0.2,0.08,0.4,0.17,0.6,0.25
			c0.44,0.12,0.89,0.12,1.33,0c0.2-0.08,0.4-0.17,0.6-0.25C69.72,73.5,70.02,73.2,70.24,72.82L70.24,72.82z"/>
	</g>
</g>
<g>
	<g>
		<path class="st0" d="M68.71,73.07c3.22,0,3.22-5,0-5C65.49,68.07,65.48,73.07,68.71,73.07L68.71,73.07z"/>
	</g>
</g>
<g>
	<g>
		<path class="st0" d="M68.91,72.07c3.22,0,3.22-5,0-5C65.69,67.07,65.69,72.07,68.91,72.07L68.91,72.07z"/>
	</g>
</g>
<g>
	<g>
		<path class="st0" d="M68.91,72.07c3.22,0,3.22-5,0-5C65.69,67.07,65.69,72.07,68.91,72.07L68.91,72.07z"/>
	</g>
</g>
<g>
	<g>
		<path class="st0" d="M68.91,72.07c3.22,0,3.22-5,0-5C65.69,67.07,65.69,72.07,68.91,72.07L68.91,72.07z"/>
	</g>
</g>
<g>
	<g>
		<path class="st0" d="M68.91,67.85c3.22,0,3.22-5,0-5C65.69,62.85,65.69,67.85,68.91,67.85L68.91,67.85z"/>
	</g>
</g>
<g>
	<g>
		<path class="st0" d="M69.11,63.63c3.22,0,3.22-5,0-5C65.89,58.63,65.89,63.63,69.11,63.63L69.11,63.63z"/>
	</g>
</g>
<g>
	<g>
		<path class="st0" d="M69.31,62.43c3.22,0,3.22-5,0-5C66.09,57.43,66.09,62.43,69.31,62.43L69.31,62.43z"/>
	</g>
</g>
<g>
	<g>
		<path class="st0" d="M76.54,49.17c3.22,0,3.22-5,0-5C73.32,44.17,73.32,49.17,76.54,49.17L76.54,49.17z"/>
	</g>
</g>
<g>
	<g>
		<path class="st0" d="M77.14,48.97c3.22,0,3.22-5,0-5C73.92,43.97,73.92,48.97,77.14,48.97L77.14,48.97z"/>
	</g>
</g>
<g>
	<g>
		<path class="st0" d="M78.95,48.57c3.22,0,3.22-5,0-5C75.73,43.57,75.73,48.57,78.95,48.57L78.95,48.57z"/>
	</g>
</g>
<g>
	<g>
		<path class="st0" d="M79.35,48.17c3.22,0,3.22-5,0-5C76.13,43.17,76.13,48.17,79.35,48.17L79.35,48.17z"/>
	</g>
</g>
<g>
	<g>
		<path class="st0" d="M81.52,46.84c0.07-0.07,0.13-0.13,0.2-0.2c0.24-0.23,0.42-0.49,0.52-0.8c0.16-0.3,0.23-0.62,0.22-0.96
			c0.01-0.34-0.06-0.67-0.22-0.96c-0.1-0.31-0.27-0.58-0.52-0.8c-0.17-0.13-0.34-0.26-0.51-0.39c-0.39-0.23-0.81-0.34-1.26-0.34
			c-0.22,0.03-0.44,0.06-0.66,0.09c-0.42,0.12-0.79,0.33-1.1,0.64c-0.07,0.07-0.13,0.13-0.2,0.2c-0.24,0.23-0.42,0.49-0.52,0.8
			c-0.16,0.3-0.23,0.62-0.22,0.96c-0.01,0.34,0.06,0.67,0.22,0.96c0.1,0.31,0.27,0.58,0.52,0.8c0.17,0.13,0.34,0.26,0.51,0.39
			c0.39,0.23,0.81,0.34,1.26,0.34c0.22-0.03,0.44-0.06,0.66-0.09C80.84,47.36,81.21,47.15,81.52,46.84L81.52,46.84z"/>
	</g>
</g>
<g>
	<g>
		<path class="st0" d="M80.35,46.77c3.22,0,3.22-5,0-5C77.14,41.77,77.13,46.77,80.35,46.77L80.35,46.77z"/>
	</g>
</g>
<g>
	<g>
		<path class="st0" d="M80.35,46.77c3.22,0,3.22-5,0-5C77.14,41.77,77.13,46.77,80.35,46.77L80.35,46.77z"/>
	</g>
</g>
<g>
	<g>
		<path class="st0" d="M80.76,46.36c3.22,0,3.22-5,0-5C77.54,41.36,77.53,46.36,80.76,46.36L80.76,46.36z"/>
	</g>
</g>
<g>
	<g>
		<path class="st0" d="M80.76,46.36c3.22,0,3.22-5,0-5C77.54,41.36,77.53,46.36,80.76,46.36L80.76,46.36z"/>
	</g>
</g>
<g>
	<g>
		<path class="st0" d="M80.96,46.16c3.22,0,3.22-5,0-5C77.74,41.16,77.73,46.16,80.96,46.16L80.96,46.16z"/>
	</g>
</g>
<g>
	<g>
		<path class="st0" d="M81.36,45.56c3.22,0,3.22-5,0-5C78.14,40.56,78.13,45.56,81.36,45.56L81.36,45.56z"/>
	</g>
</g>
<g>
	<g>
		<path class="st0" d="M82.16,44.96c3.22,0,3.22-5,0-5C78.94,39.96,78.94,44.96,82.16,44.96L82.16,44.96z"/>
	</g>
</g>
<g>
	<g>
		<path class="st0" d="M82.56,44.76c3.22,0,3.22-5,0-5C79.34,39.76,79.34,44.76,82.56,44.76L82.56,44.76z"/>
	</g>
</g>
<g>
	<g>
		<path class="st0" d="M84.33,44.02c0.13-0.13,0.27-0.27,0.4-0.4c0.24-0.23,0.42-0.49,0.52-0.8c0.16-0.3,0.23-0.62,0.22-0.96
			c0.01-0.34-0.06-0.67-0.22-0.96c-0.1-0.31-0.27-0.58-0.52-0.8c-0.17-0.13-0.34-0.26-0.51-0.39c-0.39-0.23-0.81-0.34-1.26-0.34
			c-0.22,0.03-0.44,0.06-0.66,0.09c-0.42,0.12-0.79,0.33-1.1,0.64c-0.13,0.13-0.27,0.27-0.4,0.4c-0.24,0.23-0.42,0.49-0.52,0.8
			c-0.16,0.3-0.23,0.62-0.22,0.96c-0.01,0.34,0.06,0.67,0.22,0.96c0.1,0.31,0.27,0.58,0.52,0.8c0.17,0.13,0.34,0.26,0.51,0.39
			c0.39,0.23,0.81,0.34,1.26,0.34c0.22-0.03,0.44-0.06,0.66-0.09C83.65,44.55,84.02,44.33,84.33,44.02L84.33,44.02z"/>
	</g>
</g>
<g>
	<g>
		<path class="st0" d="M83.97,43.75c3.22,0,3.22-5,0-5C80.75,38.75,80.75,43.75,83.97,43.75L83.97,43.75z"/>
	</g>
</g>
<g>
	<g>
		<path class="st0" d="M84.37,43.55c3.22,0,3.22-5,0-5C81.15,38.55,81.15,43.55,84.37,43.55L84.37,43.55z"/>
	</g>
</g>
<g>
	<g>
		<path class="st0" d="M84.97,43.35c3.22,0,3.22-5,0-5C81.75,38.35,81.75,43.35,84.97,43.35L84.97,43.35z"/>
	</g>
</g>
<g>
	<g>
		<path class="st0" d="M86.18,42.95c3.22,0,3.22-5,0-5C82.96,37.95,82.95,42.95,86.18,42.95L86.18,42.95z"/>
	</g>
</g>
<g>
	<g>
		<path class="st0" d="M86.18,42.95c3.22,0,3.22-5,0-5C82.96,37.95,82.95,42.95,86.18,42.95L86.18,42.95z"/>
	</g>
</g>
<g>
	<g>
		<path class="st0" d="M85.37,42.35c3.22,0,3.22-5,0-5C82.16,37.35,82.15,42.35,85.37,42.35L85.37,42.35z"/>
	</g>
</g>
<g>
	<g>
		<path class="st0" d="M82.9,38.47c-0.13,0.07-0.27,0.14-0.4,0.2c-0.29,0.16-0.53,0.37-0.7,0.64c-0.22,0.24-0.37,0.52-0.45,0.85
			c-0.1,0.33-0.12,0.66-0.04,1c0.02,0.33,0.11,0.64,0.3,0.93c0.13,0.17,0.26,0.34,0.39,0.51c0.31,0.31,0.68,0.52,1.1,0.64
			c0.22,0.03,0.44,0.06,0.66,0.09c0.45,0,0.87-0.12,1.26-0.34c0.13-0.07,0.27-0.14,0.4-0.2c0.29-0.16,0.53-0.37,0.7-0.64
			c0.22-0.24,0.37-0.52,0.45-0.85c0.1-0.33,0.12-0.66,0.04-1c-0.02-0.33-0.11-0.64-0.3-0.93c-0.13-0.17-0.26-0.34-0.39-0.51
			c-0.31-0.31-0.68-0.52-1.1-0.64c-0.22-0.03-0.44-0.06-0.66-0.09C83.71,38.13,83.29,38.24,82.9,38.47L82.9,38.47z"/>
	</g>
</g>
<g>
	<g>
		<path class="st0" d="M83.37,43.35c3.22,0,3.22-5,0-5C80.15,38.35,80.14,43.35,83.37,43.35L83.37,43.35z"/>
	</g>
</g>
<g>
	<g>
		<path class="st0" d="M81.36,45.56c3.22,0,3.22-5,0-5C78.14,40.56,78.13,45.56,81.36,45.56L81.36,45.56z"/>
	</g>
</g>
<g>
	<g>
		<path class="st0" d="M89.59,41.54c3.22,0,3.22-5,0-5C86.37,36.54,86.37,41.54,89.59,41.54L89.59,41.54z"/>
	</g>
</g>
<g>
	<g>
		<path class="st0" d="M89.99,40.54c3.22,0,3.22-5,0-5C86.77,35.54,86.77,40.54,89.99,40.54L89.99,40.54z"/>
	</g>
</g>
<g>
	<g>
		<path class="st0" d="M89.99,40.54c3.22,0,3.22-5,0-5C86.77,35.54,86.77,40.54,89.99,40.54L89.99,40.54z"/>
	</g>
</g>
<g>
	<g>
		<path class="st0" d="M90.8,40.54c0.07,0,0.13,0,0.2,0c0.34,0.01,0.67-0.06,0.96-0.22c0.31-0.1,0.58-0.27,0.8-0.52
			c0.24-0.23,0.42-0.49,0.52-0.8c0.16-0.3,0.23-0.62,0.22-0.96c-0.03-0.22-0.06-0.44-0.09-0.66c-0.12-0.42-0.33-0.79-0.64-1.1
			c-0.17-0.13-0.34-0.26-0.51-0.39c-0.39-0.23-0.81-0.34-1.26-0.34c-0.07,0-0.13,0-0.2,0c-0.34-0.01-0.67,0.06-0.96,0.22
			c-0.31,0.1-0.58,0.27-0.8,0.52c-0.24,0.23-0.42,0.49-0.52,0.8c-0.16,0.3-0.23,0.62-0.22,0.96c0.03,0.22,0.06,0.44,0.09,0.66
			c0.12,0.42,0.33,0.79,0.64,1.1c0.17,0.13,0.34,0.26,0.51,0.39C89.92,40.42,90.34,40.54,90.8,40.54L90.8,40.54z"/>
	</g>
</g>
<g>
	<g>
		<path class="st0" d="M95.48,39.82c0.13-0.07,0.27-0.14,0.4-0.2c0.29-0.16,0.53-0.37,0.7-0.64c0.22-0.24,0.37-0.52,0.45-0.85
			c0.1-0.33,0.12-0.66,0.04-1c-0.02-0.33-0.11-0.64-0.3-0.93c-0.13-0.17-0.26-0.34-0.39-0.51c-0.31-0.31-0.68-0.52-1.1-0.64
			c-0.22-0.03-0.44-0.06-0.66-0.09c-0.45,0-0.87,0.12-1.26,0.34c-0.13,0.07-0.27,0.14-0.4,0.2c-0.29,0.16-0.53,0.37-0.7,0.64
			c-0.22,0.24-0.37,0.52-0.45,0.85c-0.1,0.33-0.12,0.66-0.04,1c0.02,0.33,0.11,0.64,0.3,0.93c0.13,0.17,0.26,0.34,0.39,0.51
			c0.31,0.31,0.68,0.52,1.1,0.64c0.22,0.03,0.44,0.06,0.66,0.09C94.67,40.16,95.09,40.05,95.48,39.82L95.48,39.82z"/>
	</g>
</g>
<g>
	<g>
		<path class="st0" d="M95.82,39.13c3.22,0,3.22-5,0-5C92.6,34.13,92.59,39.13,95.82,39.13L95.82,39.13z"/>
	</g>
</g>
<g>
	<g>
		<path class="st0" d="M102.44,36.32c3.22,0,3.22-5,0-5C99.22,31.32,99.22,36.32,102.44,36.32L102.44,36.32z"/>
	</g>
</g>
<g>
	<g>
		<path class="st0" d="M102.84,36.12c3.22,0,3.22-5,0-5C99.63,31.12,99.62,36.12,102.84,36.12L102.84,36.12z"/>
	</g>
</g>
<g>
	<g>
		<path class="st0" d="M103.45,36.12c0.2,0,0.4,0,0.6,0c0.34,0.01,0.67-0.06,0.96-0.22c0.31-0.1,0.58-0.27,0.8-0.52
			c0.24-0.23,0.42-0.49,0.52-0.8c0.16-0.3,0.23-0.62,0.22-0.96c-0.03-0.22-0.06-0.44-0.09-0.66c-0.12-0.42-0.33-0.79-0.64-1.1
			c-0.17-0.13-0.34-0.26-0.51-0.39c-0.39-0.23-0.81-0.34-1.26-0.34c-0.2,0-0.4,0-0.6,0c-0.34-0.01-0.67,0.06-0.96,0.22
			c-0.31,0.1-0.58,0.27-0.8,0.52c-0.24,0.23-0.42,0.49-0.52,0.8c-0.16,0.3-0.23,0.62-0.22,0.96c0.03,0.22,0.06,0.44,0.09,0.66
			c0.12,0.42,0.33,0.79,0.64,1.1c0.17,0.13,0.34,0.26,0.51,0.39C102.57,36.01,102.99,36.12,103.45,36.12L103.45,36.12z"/>
	</g>
</g>
<g>
	<g>
		<path class="st0" d="M104.65,36.12c3.22,0,3.22-5,0-5C101.43,31.12,101.43,36.12,104.65,36.12L104.65,36.12z"/>
	</g>
</g>
<g>
	<g>
		<path class="st0" d="M104.85,36.12c3.22,0,3.22-5,0-5C101.63,31.12,101.63,36.12,104.85,36.12L104.85,36.12z"/>
	</g>
</g>
<g>
	<g>
		<path class="st0" d="M105.25,36.12c0.07,0,0.13,0,0.2,0c0.34,0.01,0.67-0.06,0.96-0.22c0.31-0.1,0.58-0.27,0.8-0.52
			c0.24-0.23,0.42-0.49,0.52-0.8c0.16-0.3,0.23-0.62,0.22-0.96c-0.03-0.22-0.06-0.44-0.09-0.66c-0.12-0.42-0.33-0.79-0.64-1.1
			c-0.17-0.13-0.34-0.26-0.51-0.39c-0.39-0.23-0.81-0.34-1.26-0.34c-0.07,0-0.13,0-0.2,0c-0.34-0.01-0.67,0.06-0.96,0.22
			c-0.31,0.1-0.58,0.27-0.8,0.52c-0.24,0.23-0.42,0.49-0.52,0.8c-0.16,0.3-0.23,0.62-0.22,0.96c0.03,0.22,0.06,0.44,0.09,0.66
			c0.12,0.42,0.33,0.79,0.64,1.1c0.17,0.13,0.34,0.26,0.51,0.39C104.38,36.01,104.8,36.12,105.25,36.12L105.25,36.12z"/>
	</g>
</g>
<g>
	<g>
		<path class="st0" d="M107.06,35.52c3.22,0,3.22-5,0-5C103.84,30.52,103.84,35.52,107.06,35.52L107.06,35.52z"/>
	</g>
</g>
<g>
	<g>
		<path class="st0" d="M71.72,88.53c3.22,0,3.22-5,0-5C68.5,83.53,68.5,88.53,71.72,88.53L71.72,88.53z"/>
	</g>
</g>
<g>
	<g>
		<path class="st0" d="M71.72,88.53c3.22,0,3.22-5,0-5C68.5,83.53,68.5,88.53,71.72,88.53L71.72,88.53z"/>
	</g>
</g>
<g>
	<g>
		<path class="st0" d="M78.75,102.39c3.22,0,3.22-5,0-5C75.53,97.39,75.52,102.39,78.75,102.39L78.75,102.39z"/>
	</g>
</g>
<g>
	<g>
		<path class="st0" d="M187.38,112.23c3.22,0,3.22-5,0-5C184.16,107.23,184.16,112.23,187.38,112.23L187.38,112.23z"/>
	</g>
</g>
<g>
	<g>
		<path class="st0" d="M187.38,112.23c3.22,0,3.22-5,0-5C184.16,107.23,184.16,112.23,187.38,112.23L187.38,112.23z"/>
	</g>
</g>
<g>
	<g>
		<path class="st0" d="M190.39,118.05c3.22,0,3.22-5,0-5C187.18,113.05,187.17,118.05,190.39,118.05L190.39,118.05z"/>
	</g>
</g>
<g>
	<g>
		<path class="st0" d="M190.39,118.05c3.22,0,3.22-5,0-5C187.18,113.05,187.17,118.05,190.39,118.05L190.39,118.05z"/>
	</g>
</g>
<g>
	<g>
		<path class="st0" d="M190.39,118.05c3.22,0,3.22-5,0-5C187.18,113.05,187.17,118.05,190.39,118.05L190.39,118.05z"/>
	</g>
</g>
<text transform="matrix(1 0 0 1 80.8402 83.4184)" class="st4 st5 st6">무형문화재관리원</text>
</svg>
