<?xml version="1.0" encoding="utf-8"?>
<!-- Generator: Adobe Illustrator 25.2.3, SVG Export Plug-In . SVG Version: 6.00 Build 0)  -->
<svg version="1.1" id="레이어_1" xmlns="http://www.w3.org/2000/svg" xmlns:xlink="http://www.w3.org/1999/xlink" x="0px"
	 y="0px" viewBox="0 0 250 250" style="enable-background:new 0 0 250 250;" xml:space="preserve">
<style type="text/css">
	.st0{fill:#294764;stroke:#C9BC9C;stroke-miterlimit:10;}
	.st1{fill:#1D2B57;}
	.st2{font-family:'AdobeMyungjoStd-Medium-KSCpc-EUC-H';}
	.st3{font-size:22px;}
</style>
<path class="st0" d="M191.71,101.36c0,36.84-29.87,66.71-66.71,66.71s-66.71-29.87-66.71-66.71c0-18.27,7.84-32.43,12.49-38.87
	c0.13-0.18,1.08-1.5,2.16-2.83c0,0,1.46-1.8,3.23-3.6c1.3-1.32,23.4-21.21,48.83-21.41C154.55,34.4,191.71,60.72,191.71,101.36z"/>
<text transform="matrix(1 0 0 1 34.3667 196.632)" class="st1 st2 st3">무형문화재관리원</text>
<path class="st0" d="M98.59,80.67"/>
<path class="st0" d="M122.98,36.01c0.04,0.18,0.1,0.45,0.18,0.78c6.54,29.39-3.36,54.63-4.89,58.39
	c-12.09,29.69-35.34,44.27-42.69,48.49"/>
<path class="st0" d="M125.49,34.64c-1.02,11.44-4.09,57.35,20,93.73c7.45,11.26,15.67,18.82,22.62,23.89"/>
<path class="st0" d="M114,104.27"/>
</svg>
