<?xml version="1.0" encoding="utf-8"?>
<!-- Generator: Adobe Illustrator 25.2.3, SVG Export Plug-In . SVG Version: 6.00 Build 0)  -->
<svg version="1.1" id="레이어_1" xmlns="http://www.w3.org/2000/svg" xmlns:xlink="http://www.w3.org/1999/xlink" x="0px"
	 y="0px" viewBox="0 0 250 250" style="enable-background:new 0 0 250 250;" xml:space="preserve">
<style type="text/css">
	.st0{fill:#C7281D;}
	.st1{fill:#FFFFFF;}
	.st2{font-family:'AdobeMyungjoStd-Medium-KSCpc-EUC-H';}
	.st3{font-size:43px;}
	.st4{fill:#F7F8F8;}
	.st5{fill:#E71F19;}
</style>
<circle class="st0" cx="116.73" cy="131.43" r="93.36"/>
<text transform="matrix(1 0 0 1 42.4405 88.4802)" class="st1 st2 st3">무형</text>
<text transform="matrix(1 0 0 1 78.6953 140.6477)" class="st1 st2 st3">문화재</text>
<text transform="matrix(1 0 0 1 33.0301 193.9079)" class="st1 st2 st3">관리원</text>
<g>
	<g>
		<path class="st4" d="M158.41,80.95c-0.09,0-0.19,0-0.28,0c-0.05,0-0.09,0.01-0.14,0.02c-0.05,0.01-0.1,0.02-0.14,0.04
			c-0.04,0.02-0.08,0.04-0.12,0.06c-0.03,0.02-0.06,0.04-0.08,0.07c-0.01,0.02-0.02,0.03-0.03,0.05c-0.01,0.03,0,0.06,0.02,0.09
			c0.02,0.01,0.03,0.02,0.05,0.03c0.05,0.02,0.1,0.02,0.15,0.02c0.09,0,0.19,0,0.28,0c0.05,0,0.09-0.01,0.14-0.02
			c0.05-0.01,0.1-0.02,0.14-0.04c0.04-0.02,0.08-0.04,0.12-0.06c0.03-0.02,0.06-0.04,0.08-0.07c0.01-0.02,0.02-0.03,0.03-0.05
			c0.01-0.03,0-0.06-0.02-0.09c-0.02-0.01-0.03-0.02-0.05-0.03C158.5,80.95,158.46,80.94,158.41,80.95L158.41,80.95z"/>
	</g>
</g>
<g>
	<g>
		<path class="st4" d="M119.21,88.07c0.61,0.54,1.38,0.85,2.19,0.9c0.16,0.01,0.39-0.06,0.48-0.21c0.09-0.15-0.07-0.24-0.2-0.24
			c-0.19-0.01-0.28-0.02-0.47-0.07c-0.16-0.04-0.33-0.09-0.46-0.14c-0.31-0.13-0.61-0.31-0.86-0.53c-0.13-0.11-0.34-0.09-0.48-0.02
			C119.32,87.8,119.08,87.96,119.21,88.07L119.21,88.07z"/>
	</g>
</g>
<g>
	<g>
		<path class="st4" d="M162.08,89.57c0.33,0,0.75-0.49,0.26-0.49C162.02,89.08,161.6,89.57,162.08,89.57L162.08,89.57z"/>
	</g>
</g>
<g>
	<g>
		<path class="st4" d="M45.8,102.31c0.41,0,0.56-0.53,0.06-0.53C45.45,101.77,45.31,102.31,45.8,102.31L45.8,102.31z"/>
	</g>
</g>
<g>
	<g>
		<path class="st4" d="M63.61,118.88c-0.28,0.28-0.56,0.56-0.85,0.85c-0.05,0.05-0.08,0.14-0.06,0.2c0.02,0.07,0.09,0.12,0.15,0.15
			c0.18,0.06,0.38,0,0.51-0.14c0.28-0.28,0.56-0.56,0.85-0.85c0.05-0.05,0.08-0.14,0.06-0.2c-0.02-0.07-0.09-0.12-0.15-0.15
			C63.94,118.69,63.74,118.75,63.61,118.88L63.61,118.88z"/>
	</g>
</g>
<g>
	<g>
		<path class="st4" d="M51.17,126.04c0.42,0,0.55-0.55,0.06-0.55C50.81,125.49,50.68,126.04,51.17,126.04L51.17,126.04z"/>
	</g>
</g>
<g>
	<g>
		<path class="st4" d="M78.75,136.17c0.31,0,0.75-0.47,0.27-0.47C78.71,135.7,78.26,136.17,78.75,136.17L78.75,136.17z"/>
	</g>
</g>
<g>
	<g>
		<path class="st4" d="M41.25,139.92c-0.01,0.03-0.01,0.06-0.01,0.09c0,0.05,0,0.11,0.02,0.16c0.01,0.03,0.02,0.06,0.03,0.09
			c0.02,0.05,0.04,0.1,0.07,0.14c0.05,0.07,0.11,0.13,0.18,0.18c0.04,0.03,0.09,0.06,0.14,0.08c0.03,0.01,0.06,0.02,0.08,0.03
			c0.04,0.01,0.08,0.02,0.13,0.03c0.03,0,0.06,0.01,0.09,0.01c0.08,0,0.16-0.01,0.24-0.02c0.05-0.01,0.09-0.03,0.13-0.06
			c0.04-0.02,0.07-0.05,0.1-0.09c0.04-0.06,0.08-0.14,0.06-0.22c-0.02-0.07-0.08-0.13-0.16-0.16c-0.09-0.03-0.18-0.03-0.28-0.01
			c-0.01,0-0.01,0-0.02,0c0.03-0.01,0.07-0.01,0.1-0.02c-0.02,0-0.05,0.01-0.07,0c0.03,0,0.06,0,0.09,0c-0.03,0-0.06-0.01-0.09-0.01
			c0.03,0.01,0.06,0.01,0.08,0.02c-0.04-0.01-0.07-0.02-0.11-0.04c0.02,0.01,0.05,0.03,0.07,0.04c-0.04-0.02-0.08-0.05-0.12-0.09
			c0.02,0.02,0.04,0.04,0.05,0.05c-0.04-0.04-0.08-0.09-0.1-0.14c0.01,0.02,0.02,0.04,0.03,0.07c-0.02-0.05-0.03-0.09-0.04-0.15
			c0,0.02,0,0.05,0.01,0.07c0-0.04,0-0.08,0.01-0.12c0.02-0.07-0.04-0.16-0.09-0.2c-0.07-0.05-0.17-0.07-0.25-0.06
			c-0.1,0.01-0.2,0.04-0.27,0.1c-0.02,0.02-0.04,0.04-0.06,0.06C41.28,139.82,41.26,139.87,41.25,139.92L41.25,139.92z"/>
	</g>
</g>
<g>
	<g>
		<path class="st4" d="M60.85,150.49c0.15,0,0.82-0.28,0.47-0.28C61.17,150.2,60.5,150.49,60.85,150.49L60.85,150.49z"/>
	</g>
</g>
<g>
	<g>
		<path class="st4" d="M103.71,148.36c0.42,0,0.55-0.55,0.06-0.55C103.35,147.81,103.22,148.36,103.71,148.36L103.71,148.36z"/>
	</g>
</g>
<g>
	<g>
		<path class="st4" d="M166.6,142.68c0.32,0,0.75-0.48,0.26-0.48C166.55,142.19,166.11,142.68,166.6,142.68L166.6,142.68z"/>
	</g>
</g>
<g>
	<g>
		<path class="st4" d="M167.63,164.05c0.15,0,0.82-0.29,0.47-0.29C167.95,163.76,167.28,164.05,167.63,164.05L167.63,164.05z"/>
	</g>
</g>
<g>
	<g>
		<path class="st4" d="M124.41,202.2c0.16,0,0.82-0.31,0.47-0.31C124.71,201.88,124.05,202.2,124.41,202.2L124.41,202.2z"/>
	</g>
</g>
<g>
	<g>
		<path class="st4" d="M107.1,213.06c0.43,0,0.54-0.57,0.05-0.57C106.73,212.49,106.61,213.06,107.1,213.06L107.1,213.06z"/>
	</g>
</g>
<g>
	<g>
		<path class="st4" d="M83.83,52.55c0.09,0,0.19,0,0.28,0c0.05,0,0.09,0,0.14-0.01c0.05-0.01,0.1-0.02,0.14-0.04
			c0.04-0.02,0.08-0.04,0.11-0.07c0.03-0.02,0.06-0.05,0.08-0.08c0.01-0.02,0.02-0.04,0.02-0.06c0.01-0.04,0-0.08-0.03-0.11
			c-0.02-0.01-0.03-0.03-0.05-0.04c-0.05-0.02-0.1-0.04-0.15-0.04c-0.09,0-0.19,0-0.28,0c-0.05,0-0.09,0-0.14,0.01
			c-0.05,0.01-0.1,0.02-0.14,0.04c-0.04,0.02-0.08,0.04-0.11,0.07c-0.03,0.02-0.06,0.05-0.08,0.08c-0.01,0.02-0.02,0.04-0.02,0.06
			c-0.01,0.04,0,0.08,0.03,0.11c0.02,0.01,0.03,0.03,0.05,0.04C83.73,52.53,83.78,52.54,83.83,52.55L83.83,52.55z"/>
	</g>
</g>
<g>
	<g>
		<path class="st4" d="M122.24,38.12c0.27,0,0.77-0.41,0.28-0.41C122.25,37.71,121.76,38.12,122.24,38.12L122.24,38.12z"/>
	</g>
</g>
<g>
	<g>
		<path class="st4" d="M144.84,52.24c0.27,0,0.77-0.4,0.28-0.4C144.86,51.84,144.35,52.24,144.84,52.24L144.84,52.24z"/>
	</g>
</g>
<g>
	<g>
		<path class="st4" d="M127.41,44.49c-0.47,0.09-0.94,0.19-1.41,0.28c-0.08,0.02-0.18,0.07-0.24,0.13
			c-0.04,0.04-0.09,0.11-0.07,0.17c0.06,0.16,0.29,0.13,0.42,0.1c0.47-0.09,0.94-0.19,1.41-0.28c0.08-0.02,0.18-0.07,0.24-0.13
			c0.04-0.04,0.09-0.11,0.07-0.17C127.77,44.44,127.54,44.47,127.41,44.49L127.41,44.49z"/>
	</g>
</g>
<g>
	<g>
		<path class="st4" d="M175.64,74.03c0.32,0,0.75-0.49,0.26-0.49C175.58,73.55,175.16,74.03,175.64,74.03L175.64,74.03z"/>
	</g>
</g>
<g>
	<g>
		<path class="st4" d="M184.95,97.72c0.26,0,0.77-0.39,0.29-0.39C184.98,97.32,184.47,97.72,184.95,97.72L184.95,97.72z"/>
	</g>
</g>
<g>
	<g>
		<path class="st4" d="M141.46,80.69c-0.19,0-0.38,0-0.56,0c-0.05,0-0.09,0.01-0.14,0.02c-0.05,0.01-0.1,0.02-0.14,0.04
			c-0.04,0.01-0.08,0.03-0.12,0.06c-0.03,0.02-0.06,0.04-0.08,0.06c-0.03,0.03-0.05,0.08-0.01,0.11c0.05,0.04,0.13,0.04,0.19,0.04
			c0.19,0,0.38,0,0.56,0c0.05,0,0.09-0.01,0.14-0.02c0.05-0.01,0.1-0.02,0.14-0.04c0.04-0.01,0.08-0.03,0.12-0.06
			c0.03-0.02,0.06-0.04,0.08-0.06c0.03-0.03,0.05-0.08,0.01-0.11C141.6,80.68,141.52,80.69,141.46,80.69L141.46,80.69z"/>
	</g>
</g>
<g>
	<g>
		<path class="st4" d="M110.04,73.48c0-0.09,0-0.19,0-0.28c0.01-0.04,0-0.07-0.02-0.1c-0.01-0.03-0.03-0.06-0.07-0.08
			c-0.03-0.02-0.07-0.04-0.11-0.04c-0.04-0.01-0.09-0.02-0.13-0.01c-0.03,0.01-0.07,0.01-0.1,0.02c-0.06,0.02-0.12,0.04-0.17,0.08
			c-0.02,0.02-0.04,0.04-0.06,0.06c-0.03,0.04-0.06,0.08-0.07,0.13c0,0.09,0,0.19,0,0.28c-0.01,0.04,0,0.07,0.02,0.1
			c0.01,0.03,0.03,0.06,0.07,0.08c0.03,0.02,0.07,0.04,0.11,0.04c0.04,0.01,0.09,0.02,0.13,0.01c0.03-0.01,0.07-0.01,0.1-0.02
			c0.06-0.02,0.12-0.04,0.17-0.08c0.02-0.02,0.04-0.04,0.06-0.06C110.01,73.57,110.03,73.53,110.04,73.48L110.04,73.48z"/>
	</g>
</g>
<g>
	<g>
		<path class="st4" d="M90.17,79.33c0.57,0.27,1.14,0.54,1.71,0.81c0.06,0.03,0.17,0.02,0.24,0.01c0.09-0.01,0.2-0.04,0.27-0.09
			c0.09-0.05,0.23-0.17,0.07-0.25c-0.57-0.27-1.14-0.54-1.71-0.81c-0.06-0.03-0.17-0.02-0.24-0.01c-0.09,0.01-0.2,0.04-0.27,0.09
			C90.15,79.14,90.02,79.25,90.17,79.33L90.17,79.33z"/>
	</g>
</g>
<g>
	<g>
		<path class="st4" d="M64.32,59.84c0.23,0,0.78-0.34,0.3-0.34C64.4,59.5,63.84,59.84,64.32,59.84L64.32,59.84z"/>
	</g>
</g>
<g>
	<g>
		<path class="st4" d="M186.29,147.12c-0.19-0.09-0.38-0.19-0.56-0.28c-0.05-0.03-0.13-0.02-0.18-0.01
			c-0.09,0.01-0.19,0.03-0.28,0.07c-0.03,0.01-0.06,0.02-0.08,0.03c-0.04,0.02-0.08,0.04-0.12,0.07c-0.02,0.02-0.06,0.06-0.02,0.08
			c0.19,0.09,0.38,0.19,0.56,0.28c0.05,0.03,0.13,0.02,0.18,0.01c0.09-0.01,0.19-0.03,0.28-0.07c0.03-0.01,0.06-0.02,0.08-0.03
			c0.04-0.02,0.08-0.04,0.12-0.07C186.29,147.18,186.33,147.14,186.29,147.12L186.29,147.12z"/>
	</g>
</g>
<g>
	<g>
		<path class="st4" d="M137.12,123.09c0.15,0,0.82-0.29,0.47-0.29C137.44,122.8,136.77,123.09,137.12,123.09L137.12,123.09z"/>
	</g>
</g>
<g>
	<g>
		<path class="st4" d="M192.41,153.72c0.42,0,0.55-0.54,0.06-0.54C192.06,153.18,191.92,153.72,192.41,153.72L192.41,153.72z"/>
	</g>
</g>
<g>
	<g>
		<path class="st4" d="M187.6,156.82c0.41,0,0.56-0.51,0.07-0.51C187.26,156.3,187.11,156.82,187.6,156.82L187.6,156.82z"/>
	</g>
</g>
<g>
	<g>
		<path class="st4" d="M189.86,157.37c0.4,0,0.57-0.5,0.07-0.5C189.53,156.88,189.37,157.37,189.86,157.37L189.86,157.37z"/>
	</g>
</g>
<g>
	<g>
		<path class="st4" d="M183.83,164.4c0.28,0,0.77-0.42,0.28-0.42C183.83,163.98,183.34,164.4,183.83,164.4L183.83,164.4z"/>
	</g>
</g>
<g>
	<g>
		<path class="st4" d="M191.73,160.41c0.23,0,0.78-0.35,0.3-0.35C191.79,160.06,191.24,160.41,191.73,160.41L191.73,160.41z"/>
	</g>
</g>
<g>
	<g>
		<path class="st4" d="M195.13,155.39c0.32,0,0.75-0.48,0.26-0.48C195.08,154.91,194.65,155.39,195.13,155.39L195.13,155.39z"/>
	</g>
</g>
<g>
	<g>
		<path class="st4" d="M31.28,113.53c0.26,0,0.77-0.38,0.29-0.38C31.31,113.15,30.79,113.53,31.28,113.53L31.28,113.53z"/>
	</g>
</g>
<g>
	<g>
		<path class="st4" d="M34.58,118.57c0.15,0,0.82-0.29,0.47-0.29C34.9,118.28,34.23,118.57,34.58,118.57L34.58,118.57z"/>
	</g>
</g>
<g>
	<g>
		<path class="st4" d="M29.78,126.2c0.15,0,0.82-0.29,0.47-0.29C30.09,125.9,29.43,126.2,29.78,126.2L29.78,126.2z"/>
	</g>
</g>
<g>
	<g>
		<path class="st4" d="M34.66,127.92c0.23,0,0.78-0.35,0.3-0.35C34.73,127.57,34.18,127.92,34.66,127.92L34.66,127.92z"/>
	</g>
</g>
<g>
	<g>
		<path class="st4" d="M39.19,156.48c0.27,0,0.77-0.4,0.28-0.4C39.21,156.07,38.7,156.48,39.19,156.48L39.19,156.48z"/>
	</g>
</g>
<g>
	<g>
		<path class="st4" d="M40.76,151.25c-0.71-0.51-1.56-0.81-2.43-0.87c-0.17-0.01-0.39,0.05-0.47,0.22c-0.08,0.16,0.07,0.28,0.22,0.3
			c0.76,0.05,1.49,0.32,2.12,0.77c0.15,0.1,0.38,0.05,0.52-0.05C40.84,151.52,40.9,151.36,40.76,151.25L40.76,151.25z"/>
	</g>
</g>
<g>
	<g>
		<path class="st4" d="M41.36,92.86c0.15,0,0.82-0.29,0.47-0.29C41.68,92.57,41.01,92.86,41.36,92.86L41.36,92.86z"/>
	</g>
</g>
<g>
	<g>
		<path class="st4" d="M44.55,85.25c0.21,0,0.79-0.32,0.31-0.32C44.64,84.93,44.07,85.25,44.55,85.25L44.55,85.25z"/>
	</g>
</g>
<g>
	<g>
		<path class="st4" d="M52.58,82.52c0.41,0,0.56-0.52,0.07-0.52C52.24,82.01,52.08,82.52,52.58,82.52L52.58,82.52z"/>
	</g>
</g>
<g>
	<g>
		<path class="st4" d="M77.8,85.53c0.16,0,0.82-0.31,0.47-0.31C78.1,85.22,77.44,85.53,77.8,85.53L77.8,85.53z"/>
	</g>
</g>
<g>
	<g>
		<path class="st4" d="M75.62,91.76c0.23,0,0.78-0.35,0.3-0.35C75.69,91.41,75.14,91.76,75.62,91.76L75.62,91.76z"/>
	</g>
</g>
<g>
	<g>
		<path class="st4" d="M79.02,94.9c0.27,0,0.77-0.4,0.28-0.4C79.04,94.49,78.54,94.9,79.02,94.9L79.02,94.9z"/>
	</g>
</g>
<g>
	<g>
		<path class="st4" d="M74.51,95.5c0.31,0,0.75-0.47,0.27-0.47C74.46,95.02,74.02,95.5,74.51,95.5L74.51,95.5z"/>
	</g>
</g>
<g>
	<g>
		<path class="st4" d="M77.23,95.68c0.14,0,0.81-0.28,0.48-0.28C77.56,95.4,76.89,95.68,77.23,95.68L77.23,95.68z"/>
	</g>
</g>
<g>
	<g>
		<path class="st4" d="M79.78,91.73c0.15,0,0.82-0.29,0.47-0.29C80.09,91.44,79.43,91.73,79.78,91.73L79.78,91.73z"/>
	</g>
</g>
<g>
	<g>
		<path class="st4" d="M76.76,91.51c0.28,0,0.77-0.42,0.28-0.42C76.77,91.1,76.28,91.51,76.76,91.51L76.76,91.51z"/>
	</g>
</g>
<g>
	<g>
		<path class="st4" d="M76.39,90.89c-0.19-0.19-0.38-0.38-0.56-0.56c-0.04-0.04-0.14-0.05-0.19-0.05c-0.09,0-0.2,0.02-0.28,0.06
			c-0.07,0.03-0.15,0.06-0.2,0.13c-0.03,0.04-0.05,0.09-0.01,0.13c0.19,0.19,0.38,0.38,0.56,0.56c0.04,0.04,0.14,0.05,0.19,0.05
			c0.09,0,0.2-0.02,0.28-0.06c0.07-0.03,0.15-0.06,0.2-0.13C76.42,90.97,76.44,90.93,76.39,90.89L76.39,90.89z"/>
	</g>
</g>
<g>
	<g>
		<path class="st4" d="M73.38,90.13c0.31,0,0.75-0.47,0.26-0.47C73.33,89.66,72.89,90.13,73.38,90.13L73.38,90.13z"/>
	</g>
</g>
<g>
	<g>
		<path class="st4" d="M72.82,89c0.32,0,0.75-0.48,0.26-0.48C72.76,88.52,72.33,89,72.82,89L72.82,89z"/>
	</g>
</g>
<g>
	<g>
		<path class="st4" d="M73.1,85.88c0.3,0,0.76-0.45,0.27-0.45C73.07,85.43,72.61,85.88,73.1,85.88L73.1,85.88z"/>
	</g>
</g>
<g>
	<g>
		<path class="st4" d="M110.57,124.78c0.14,0,0.82-0.28,0.47-0.28C110.89,124.5,110.22,124.78,110.57,124.78L110.57,124.78z"/>
	</g>
</g>
<g>
	<g>
		<path class="st4" d="M98.63,112.77c0.42,0,0.55-0.56,0.06-0.56C98.26,112.21,98.14,112.77,98.63,112.77L98.63,112.77z"/>
	</g>
</g>
<g>
	<g>
		<path class="st4" d="M101.05,111.82c0.24,0,0.78-0.36,0.3-0.36C101.11,111.46,100.57,111.82,101.05,111.82L101.05,111.82z"/>
	</g>
</g>
<g>
	<g>
		<path class="st4" d="M100.96,111.51c0.16,0,0.82-0.3,0.47-0.3C101.27,111.21,100.61,111.51,100.96,111.51L100.96,111.51z"/>
	</g>
</g>
<g>
	<g>
		<path class="st4" d="M98.7,109.82c0.16,0,0.82-0.3,0.47-0.3C99.01,109.52,98.35,109.82,98.7,109.82L98.7,109.82z"/>
	</g>
</g>
<g>
	<g>
		<path class="st4" d="M118,129.91c0.25,0,0.78-0.37,0.29-0.37C118.04,129.54,117.52,129.91,118,129.91L118,129.91z"/>
	</g>
</g>
<g>
	<g>
		<path class="st4" d="M108.79,135.34c0.4,0,0.57-0.5,0.07-0.5C108.46,134.84,108.29,135.34,108.79,135.34L108.79,135.34z"/>
	</g>
</g>
<g>
	<g>
		<path class="st4" d="M96.08,158.53c0.42,0,0.55-0.56,0.06-0.56C95.72,157.98,95.59,158.53,96.08,158.53L96.08,158.53z"/>
	</g>
</g>
<g>
	<g>
		<path class="st4" d="M74.77,150.79c0.22,0,0.79-0.33,0.3-0.33C74.86,150.46,74.29,150.79,74.77,150.79L74.77,150.79z"/>
	</g>
</g>
<g>
	<g>
		<path class="st4" d="M77.33,148.01c0.28,0,0.77-0.42,0.28-0.42C77.33,147.59,76.84,148.01,77.33,148.01L77.33,148.01z"/>
	</g>
</g>
<g>
	<g>
		<path class="st4" d="M77.34,147.47c0.31,0,0.75-0.47,0.27-0.47C77.29,147,76.85,147.47,77.34,147.47L77.34,147.47z"/>
	</g>
</g>
<g>
	<g>
		<path class="st4" d="M73.94,144.35c0.29,0,0.76-0.45,0.27-0.45C73.92,143.91,73.45,144.35,73.94,144.35L73.94,144.35z"/>
	</g>
</g>
<g>
	<g>
		<path class="st4" d="M73.94,144.34c0.28,0,0.77-0.42,0.28-0.42C73.94,143.92,73.45,144.34,73.94,144.34L73.94,144.34z"/>
	</g>
</g>
<g>
	<g>
		<path class="st4" d="M73.66,58.49c0.31,0,0.75-0.48,0.26-0.48C73.61,58.02,73.18,58.49,73.66,58.49L73.66,58.49z"/>
	</g>
</g>
<g>
	<g>
		<path class="st4" d="M75.17,58.51c0.4,0,0.56-0.5,0.07-0.5C74.84,58,74.68,58.51,75.17,58.51L75.17,58.51z"/>
	</g>
</g>
<g>
	<g>
		<path class="st4" d="M172.52,195.72c0.24,0,0.78-0.36,0.3-0.36C172.57,195.36,172.03,195.72,172.52,195.72L172.52,195.72z"/>
	</g>
</g>
<g>
	<g>
		<path class="st5" d="M190.04,111.86c0.28,0,0.77-0.42,0.28-0.42C190.04,111.43,189.55,111.86,190.04,111.86L190.04,111.86z"/>
	</g>
</g>
<g>
	<g>
		<path class="st5" d="M192.58,112.98c0.27,0,0.77-0.4,0.28-0.4C192.6,112.57,192.09,112.98,192.58,112.98L192.58,112.98z"/>
	</g>
</g>
<g>
	<g>
		<path class="st5" d="M192.12,113.88c0.41,0,0.56-0.51,0.07-0.51C191.78,113.36,191.63,113.88,192.12,113.88L192.12,113.88z"/>
	</g>
</g>
<g>
	<g>
		<path class="st5" d="M191.92,114.05c0.15,0,0.82-0.29,0.47-0.29C192.24,113.76,191.58,114.05,191.92,114.05L191.92,114.05z"/>
	</g>
</g>
<g>
	<g>
		<path class="st5" d="M136.37,118.93c0.29,0,0.76-0.44,0.27-0.44C136.35,118.49,135.88,118.93,136.37,118.93L136.37,118.93z"/>
	</g>
</g>
<g>
	<g>
		<path class="st5" d="M136.09,118.91c0.27,0,0.77-0.41,0.28-0.41C136.09,118.5,135.6,118.91,136.09,118.91L136.09,118.91z"/>
	</g>
</g>
<g>
	<g>
		<path class="st5" d="M137.69,112.92c0.15,0,0.82-0.29,0.47-0.29C138,112.63,137.34,112.92,137.69,112.92L137.69,112.92z"/>
	</g>
</g>
<g>
	<g>
		<path class="st5" d="M139.48,109.34c0.31,0,0.75-0.48,0.26-0.48C139.43,108.86,139,109.34,139.48,109.34L139.48,109.34z"/>
	</g>
</g>
<g>
	<g>
		<path class="st5" d="M140.61,110.18c0.31,0,0.76-0.46,0.27-0.46C140.57,109.72,140.12,110.18,140.61,110.18L140.61,110.18z"/>
	</g>
</g>
<g>
	<g>
		<path class="st5" d="M138.62,109.83c0.22,0,0.78-0.33,0.3-0.33C138.7,109.5,138.14,109.83,138.62,109.83L138.62,109.83z"/>
	</g>
</g>
<g>
	<g>
		<path class="st5" d="M108.68,109.28c0.23,0,0.78-0.35,0.3-0.35C108.74,108.93,108.19,109.28,108.68,109.28L108.68,109.28z"/>
	</g>
</g>
<g>
	<g>
		<path class="st5" d="M107.74,109.24c0.15,0,0.82-0.28,0.47-0.28C108.07,108.96,107.4,109.24,107.74,109.24L107.74,109.24z"/>
	</g>
</g>
<g>
	<g>
		<path class="st5" d="M107.84,109.61c0.29,0,0.76-0.44,0.27-0.44C107.82,109.16,107.35,109.61,107.84,109.61L107.84,109.61z"/>
	</g>
</g>
<g>
	<g>
		<path class="st5" d="M108.87,107.55c0.15,0,0.82-0.28,0.47-0.28C109.2,107.26,108.53,107.55,108.87,107.55L108.87,107.55z"/>
	</g>
</g>
<g>
	<g>
		<path class="st5" d="M109.36,106.83c0.42,0,0.55-0.55,0.06-0.55C109,106.29,108.87,106.83,109.36,106.83L109.36,106.83z"/>
	</g>
</g>
<g>
	<g>
		<path class="st5" d="M98.14,124.21c0.14,0,0.82-0.28,0.47-0.28C98.47,123.93,97.79,124.21,98.14,124.21L98.14,124.21z"/>
	</g>
</g>
<g>
	<g>
		<path class="st5" d="M101.33,124.81c0.22,0,0.78-0.34,0.3-0.34C101.41,124.47,100.85,124.81,101.33,124.81L101.33,124.81z"/>
	</g>
</g>
<g>
	<g>
		<path class="st5" d="M101.34,125.41c0.27,0,0.77-0.41,0.28-0.41C101.35,125,100.85,125.41,101.34,125.41L101.34,125.41z"/>
	</g>
</g>
<g>
	<g>
		<path class="st5" d="M98.99,127.33c0.15,0,0.82-0.3,0.47-0.3C99.3,127.03,98.64,127.33,98.99,127.33L98.99,127.33z"/>
	</g>
</g>
<g>
	<g>
		<path class="st5" d="M101.07,128.83c0.31,0,0.75-0.47,0.27-0.47C101.02,128.36,100.58,128.83,101.07,128.83L101.07,128.83z"/>
	</g>
</g>
<g>
	<g>
		<path class="st5" d="M92.01,133.85c0.23,0,0.78-0.34,0.3-0.34C92.08,133.51,91.53,133.85,92.01,133.85L92.01,133.85z"/>
	</g>
</g>
<g>
	<g>
		<path class="st5" d="M90.62,133.64c0.32,0,0.75-0.49,0.26-0.49C90.55,133.15,90.13,133.64,90.62,133.64L90.62,133.64z"/>
	</g>
</g>
<g>
	<g>
		<path class="st5" d="M91.28,136.19c0.4,0,0.56-0.51,0.07-0.51C90.94,135.68,90.78,136.19,91.28,136.19L91.28,136.19z"/>
	</g>
</g>
<g>
	<g>
		<path class="st5" d="M91.36,136.66c0.16,0,0.82-0.3,0.47-0.3C91.67,136.35,91.01,136.66,91.36,136.66L91.36,136.66z"/>
	</g>
</g>
<g>
	<g>
		<path class="st5" d="M63.87,163.02c0.4,0,0.57-0.5,0.07-0.5C63.54,162.52,63.38,163.02,63.87,163.02L63.87,163.02z"/>
	</g>
</g>
<g>
	<g>
		<path class="st5" d="M63.78,163.01c0.32,0,0.75-0.48,0.26-0.48C63.72,162.53,63.29,163.01,63.78,163.01L63.78,163.01z"/>
	</g>
</g>
<g>
	<g>
		<path class="st5" d="M63.71,161.04c0-0.09,0-0.19,0-0.28c0.01-0.03,0-0.06-0.02-0.09c-0.01-0.03-0.03-0.05-0.06-0.07
			c-0.03-0.02-0.07-0.03-0.11-0.04c-0.04-0.01-0.09-0.01-0.13-0.01c-0.03,0.01-0.07,0.01-0.1,0.02c-0.06,0.02-0.12,0.04-0.17,0.08
			c-0.02,0.02-0.04,0.04-0.06,0.05c-0.03,0.03-0.06,0.07-0.07,0.12c0,0.09,0,0.19,0,0.28c-0.01,0.03,0,0.06,0.02,0.09
			c0.01,0.03,0.03,0.05,0.06,0.07c0.03,0.02,0.07,0.03,0.11,0.04c0.04,0.01,0.09,0.01,0.13,0.01c0.03-0.01,0.07-0.01,0.1-0.02
			c0.06-0.02,0.12-0.04,0.17-0.08c0.02-0.02,0.04-0.04,0.06-0.05C63.68,161.13,63.7,161.09,63.71,161.04L63.71,161.04z"/>
	</g>
</g>
<g>
	<g>
		<path class="st5" d="M64.24,160.1c0.15,0,0.82-0.29,0.47-0.29C64.56,159.8,63.89,160.1,64.24,160.1L64.24,160.1z"/>
	</g>
</g>
<g>
	<g>
		<path class="st5" d="M64.15,160.26c-0.09,0.09-0.19,0.19-0.28,0.28c-0.02,0.01-0.03,0.03-0.03,0.05c-0.01,0.02,0,0.03,0.02,0.04
			c0.02,0.01,0.05,0.02,0.07,0.02c0.04,0.01,0.07,0.01,0.11,0c0.1-0.01,0.19-0.03,0.28-0.06c0.03-0.01,0.06-0.02,0.08-0.03
			c0.04-0.02,0.08-0.04,0.12-0.07c0.09-0.09,0.19-0.19,0.28-0.28c0.02-0.01,0.03-0.03,0.03-0.05c0.01-0.02,0-0.03-0.02-0.04
			c-0.02-0.01-0.05-0.02-0.07-0.02c-0.04-0.01-0.07-0.01-0.11,0c-0.1,0.01-0.19,0.03-0.28,0.06c-0.03,0.01-0.06,0.02-0.08,0.03
			C64.22,160.21,64.18,160.23,64.15,160.26L64.15,160.26z"/>
	</g>
</g>
<g>
	<g>
		<path class="st5" d="M63.11,175.06c0.15,0,0.82-0.28,0.47-0.28C63.44,174.78,62.77,175.06,63.11,175.06L63.11,175.06z"/>
	</g>
</g>
<g>
	<g>
		<path class="st5" d="M64.16,172.37c0.42,0,0.55-0.55,0.06-0.55C63.8,171.82,63.67,172.37,64.16,172.37L64.16,172.37z"/>
	</g>
</g>
<g>
	<g>
		<path class="st5" d="M63.67,169.42c0.16,0,0.82-0.3,0.47-0.3C63.99,169.12,63.32,169.42,63.67,169.42L63.67,169.42z"/>
	</g>
</g>
<g>
	<g>
		<path class="st5" d="M64.24,169.43c0.17,0,0.82-0.31,0.46-0.31C64.54,169.11,63.88,169.43,64.24,169.43L64.24,169.43z"/>
	</g>
</g>
<g>
	<g>
		<path class="st5" d="M64.89,178.77c0.23,0,0.78-0.35,0.3-0.35C64.96,178.42,64.41,178.77,64.89,178.77L64.89,178.77z"/>
	</g>
</g>
<g>
	<g>
		<path class="st5" d="M45.11,171.98c0.22,0,0.78-0.33,0.3-0.33C45.19,171.65,44.63,171.98,45.11,171.98L45.11,171.98z"/>
	</g>
</g>
<g>
	<g>
		<path class="st5" d="M49.07,175.38c0.24,0,0.78-0.35,0.3-0.35C49.13,175.03,48.59,175.38,49.07,175.38L49.07,175.38z"/>
	</g>
</g>
<g>
	<g>
		<path class="st5" d="M57.74,167.15c0.15,0,0.82-0.28,0.47-0.28C58.07,166.87,57.4,167.15,57.74,167.15L57.74,167.15z"/>
	</g>
</g>
<g>
	<g>
		<path class="st5" d="M58.88,165.19c-0.19-0.19-0.38-0.38-0.56-0.56c-0.02-0.01-0.05-0.02-0.07-0.02c-0.04-0.01-0.07-0.01-0.11,0
			c-0.09,0.01-0.19,0.03-0.28,0.06c-0.03,0.01-0.06,0.02-0.08,0.03c-0.04,0.02-0.08,0.04-0.12,0.07c-0.01,0.01-0.02,0.02-0.03,0.04
			c-0.01,0.02-0.01,0.04,0.02,0.06c0.19,0.19,0.38,0.38,0.56,0.56c0.02,0.01,0.05,0.02,0.07,0.02c0.04,0.01,0.07,0.01,0.11,0
			c0.09-0.01,0.19-0.03,0.28-0.06c0.03-0.01,0.06-0.02,0.08-0.03c0.04-0.02,0.08-0.04,0.12-0.07c0.01-0.01,0.02-0.02,0.03-0.04
			C58.91,165.23,58.91,165.21,58.88,165.19L58.88,165.19z"/>
	</g>
</g>
<g>
	<g>
		<path class="st5" d="M56.34,164.63c-0.09-0.09-0.19-0.19-0.28-0.28c-0.02-0.01-0.05-0.02-0.07-0.01c-0.04,0-0.07,0-0.11,0
			c-0.05,0-0.09,0.01-0.14,0.02c-0.05,0.01-0.1,0.02-0.14,0.04c-0.03,0.01-0.06,0.02-0.08,0.03c-0.04,0.02-0.08,0.04-0.12,0.07
			c-0.01,0.01-0.02,0.02-0.03,0.03c-0.01,0.02-0.01,0.04,0.01,0.05c0.09,0.09,0.19,0.19,0.28,0.28c0.02,0.01,0.05,0.02,0.07,0.01
			c0.04,0,0.07,0,0.11,0c0.05,0,0.09-0.01,0.14-0.02c0.05-0.01,0.1-0.02,0.14-0.04c0.03-0.01,0.06-0.02,0.08-0.03
			c0.04-0.02,0.08-0.04,0.12-0.07c0.01-0.01,0.02-0.02,0.03-0.03C56.37,164.66,56.36,164.64,56.34,164.63L56.34,164.63z"/>
	</g>
</g>
<g>
	<g>
		<path class="st5" d="M54.74,164.71c0.32,0,0.75-0.48,0.26-0.48C54.68,164.23,54.25,164.71,54.74,164.71L54.74,164.71z"/>
	</g>
</g>
<g>
	<g>
		<path class="st5" d="M50.6,164.46c0.42,0,0.55-0.56,0.06-0.56C50.24,163.91,50.11,164.46,50.6,164.46L50.6,164.46z"/>
	</g>
</g>
<g>
	<g>
		<path class="st5" d="M45.69,186.44c0.3,0,0.76-0.45,0.27-0.45C45.67,186,45.21,186.44,45.69,186.44L45.69,186.44z"/>
	</g>
</g>
<g>
	<g>
		<path class="st5" d="M46.25,186.69c0.25,0,0.78-0.37,0.29-0.37C46.29,186.32,45.76,186.69,46.25,186.69L46.25,186.69z"/>
	</g>
</g>
<g>
	<g>
		<path class="st5" d="M47.38,186.7c0.26,0,0.77-0.4,0.29-0.4C47.41,186.3,46.9,186.7,47.38,186.7L47.38,186.7z"/>
	</g>
</g>
<g>
	<g>
		<path class="st5" d="M48.23,186.71c0.28,0,0.77-0.42,0.28-0.42C48.24,186.29,47.75,186.71,48.23,186.71L48.23,186.71z"/>
	</g>
</g>
<g>
	<g>
		<path class="st5" d="M48.52,186.44c0.29,0,0.76-0.43,0.28-0.43C48.51,186,48.03,186.44,48.52,186.44L48.52,186.44z"/>
	</g>
</g>
<g>
	<g>
		<path class="st5" d="M49.27,191.45c0.15,0,0.82-0.29,0.47-0.29C49.59,191.16,48.92,191.45,49.27,191.45L49.27,191.45z"/>
	</g>
</g>
<g>
	<g>
		<path class="st5" d="M49.27,191.46c0.16,0,0.82-0.31,0.47-0.31C49.57,191.15,48.91,191.46,49.27,191.46L49.27,191.46z"/>
	</g>
</g>
<g>
	<g>
		<path class="st5" d="M66.31,193.78c0.28,0,0.77-0.42,0.28-0.42C66.31,193.35,65.83,193.78,66.31,193.78L66.31,193.78z"/>
	</g>
</g>
<g>
	<g>
		<path class="st5" d="M66.3,193.73c0.22,0,0.79-0.32,0.31-0.32C66.39,193.4,65.82,193.73,66.3,193.73L66.3,193.73z"/>
	</g>
</g>
<g>
	<g>
		<path class="st5" d="M85.14,188.07c0.16,0,0.82-0.3,0.47-0.3C85.45,187.76,84.79,188.07,85.14,188.07L85.14,188.07z"/>
	</g>
</g>
<g>
	<g>
		<path class="st5" d="M88.17,184.5c0.41,0,0.56-0.52,0.07-0.52C87.83,183.98,87.68,184.5,88.17,184.5L88.17,184.5z"/>
	</g>
</g>
<g>
	<g>
		<path class="st5" d="M84.11,180.8c0.31,0,0.76-0.46,0.27-0.46C84.08,180.34,83.63,180.8,84.11,180.8L84.11,180.8z"/>
	</g>
</g>
<g>
	<g>
		<path class="st5" d="M84.96,180.78c0.27,0,0.77-0.41,0.28-0.41C84.96,180.37,84.47,180.78,84.96,180.78L84.96,180.78z"/>
	</g>
</g>
<g>
	<g>
		<path class="st5" d="M84.94,179.89c0.22,0,0.78-0.33,0.3-0.33C85.03,179.56,84.46,179.89,84.94,179.89L84.94,179.89z"/>
	</g>
</g>
<g>
	<g>
		<path class="st5" d="M85.06,178.84c0.4,0,0.56-0.5,0.07-0.5C84.73,178.34,84.57,178.84,85.06,178.84L85.06,178.84z"/>
	</g>
</g>
<g>
	<g>
		<path class="st5" d="M82.97,177.06c0.22,0,0.79-0.33,0.3-0.33C83.05,176.74,82.49,177.06,82.97,177.06L82.97,177.06z"/>
	</g>
</g>
<g>
	<g>
		<path class="st5" d="M95.13,186.18c0.31,0,0.75-0.48,0.26-0.48C95.08,185.7,94.65,186.18,95.13,186.18L95.13,186.18z"/>
	</g>
</g>
<g>
	<g>
		<path class="st5" d="M95.13,186.15c0.28,0,0.77-0.42,0.28-0.42C95.12,185.73,94.64,186.15,95.13,186.15L95.13,186.15z"/>
	</g>
</g>
<g>
	<g>
		<path class="st5" d="M101.92,183.92c0.33,0,0.75-0.49,0.26-0.49C101.85,183.43,101.43,183.92,101.92,183.92L101.92,183.92z"/>
	</g>
</g>
<g>
	<g>
		<path class="st5" d="M108.02,160.09c0.15,0,0.82-0.29,0.47-0.29C108.35,159.81,107.68,160.09,108.02,160.09L108.02,160.09z"/>
	</g>
</g>
<g>
	<g>
		<path class="st5" d="M108.13,160.19c0.32,0,0.75-0.49,0.26-0.49C108.07,159.71,107.64,160.19,108.13,160.19L108.13,160.19z"/>
	</g>
</g>
<g>
	<g>
		<path class="st5" d="M107.05,156.62c-0.09,0.19-0.19,0.38-0.28,0.56c-0.02,0.05,0.03,0.08,0.06,0.09c0.07,0.02,0.17,0.01,0.23,0
			c0.09-0.02,0.19-0.04,0.28-0.09c0.06-0.03,0.12-0.06,0.15-0.12c0.09-0.19,0.19-0.38,0.28-0.56c0.02-0.05-0.03-0.08-0.06-0.09
			c-0.07-0.02-0.17-0.01-0.23,0c-0.09,0.02-0.19,0.04-0.28,0.09C107.14,156.53,107.08,156.56,107.05,156.62L107.05,156.62z"/>
	</g>
</g>
<g>
	<g>
		<path class="st5" d="M106.15,159.9c0.31,0,0.75-0.47,0.27-0.47C106.1,159.43,105.66,159.9,106.15,159.9L106.15,159.9z"/>
	</g>
</g>
<g>
	<g>
		<path class="st5" d="M109.15,167.72c0.15,0,0.82-0.29,0.47-0.29C109.47,167.43,108.81,167.72,109.15,167.72L109.15,167.72z"/>
	</g>
</g>
<g>
	<g>
		<path class="st5" d="M109.25,168.35c0.28,0,0.77-0.43,0.28-0.43C109.25,167.93,108.76,168.35,109.25,168.35L109.25,168.35z"/>
	</g>
</g>
<g>
	<g>
		<path class="st5" d="M109.44,166.03c0.15,0,0.82-0.29,0.47-0.29C109.75,165.73,109.09,166.03,109.44,166.03L109.44,166.03z"/>
	</g>
</g>
<g>
	<g>
		<path class="st5" d="M108.4,190.66c0.26,0,0.77-0.4,0.29-0.4C108.42,190.26,107.91,190.66,108.4,190.66L108.4,190.66z"/>
	</g>
</g>
<g>
	<g>
		<path class="st5" d="M108.51,196.67c0.09,0,0.19,0,0.28,0c0.05,0,0.1-0.01,0.15-0.03c0.05-0.01,0.09-0.04,0.13-0.07
			c0.04-0.03,0.06-0.06,0.08-0.1c0.02-0.03,0.04-0.07,0.04-0.11c0-0.02,0-0.05-0.01-0.07c-0.01-0.05-0.04-0.09-0.09-0.12
			c-0.02-0.01-0.05-0.03-0.07-0.04c-0.06-0.02-0.12-0.03-0.18-0.03c-0.09,0-0.19,0-0.28,0c-0.05,0-0.1,0.01-0.15,0.03
			c-0.05,0.01-0.09,0.04-0.13,0.07c-0.04,0.03-0.06,0.06-0.08,0.1c-0.02,0.03-0.04,0.07-0.04,0.11c0,0.02,0,0.05,0.01,0.07
			c0.01,0.05,0.04,0.09,0.09,0.12c0.02,0.01,0.05,0.03,0.07,0.04C108.39,196.67,108.45,196.68,108.51,196.67L108.51,196.67z"/>
	</g>
</g>
<g>
	<g>
		<path class="st5" d="M135.53,162.17c0.32,0,0.75-0.48,0.26-0.48C135.48,161.69,135.04,162.17,135.53,162.17L135.53,162.17z"/>
	</g>
</g>
<g>
	<g>
		<path class="st5" d="M137.89,161.34c0.41,0,0.56-0.52,0.07-0.52C137.55,160.82,137.39,161.34,137.89,161.34L137.89,161.34z"/>
	</g>
</g>
<g>
	<g>
		<path class="st5" d="M132.47,164.28c0,0.09,0,0.19,0,0.28c0.01,0.02,0.02,0.04,0.05,0.05c0.03,0.02,0.06,0.03,0.09,0.03
			c0.04,0.01,0.08,0,0.12,0c0.05,0,0.1-0.01,0.14-0.02c0.03-0.01,0.06-0.02,0.09-0.03c0.05-0.02,0.1-0.05,0.15-0.08
			c0.02-0.01,0.03-0.03,0.05-0.04c0.02-0.02,0.03-0.05,0.03-0.09c0-0.09,0-0.19,0-0.28c-0.01-0.02-0.02-0.04-0.05-0.05
			c-0.03-0.02-0.06-0.03-0.09-0.03c-0.04-0.01-0.08,0-0.12,0c-0.05,0-0.1,0.01-0.14,0.02c-0.03,0.01-0.06,0.02-0.09,0.03
			c-0.05,0.02-0.1,0.05-0.15,0.08c-0.02,0.01-0.03,0.03-0.05,0.04C132.48,164.22,132.47,164.25,132.47,164.28L132.47,164.28z"/>
	</g>
</g>
<g>
	<g>
		<path class="st5" d="M132.8,165.3c0.41,0,0.56-0.53,0.06-0.53C132.45,164.77,132.31,165.3,132.8,165.3L132.8,165.3z"/>
	</g>
</g>
<g>
	<g>
		<path class="st5" d="M130.26,171.22c0.41,0,0.56-0.51,0.07-0.51C129.92,170.71,129.77,171.22,130.26,171.22L130.26,171.22z"/>
	</g>
</g>
<g>
	<g>
		<path class="st5" d="M143.7,162.65c0.22,0,0.79-0.32,0.31-0.32C143.79,162.33,143.22,162.65,143.7,162.65L143.7,162.65z"/>
	</g>
</g>
<g>
	<g>
		<path class="st5" d="M148.51,161.56c0.27,0,0.77-0.4,0.28-0.4C148.53,161.16,148.03,161.56,148.51,161.56L148.51,161.56z"/>
	</g>
</g>
<g>
	<g>
		<path class="st5" d="M148.52,161.6c0.32,0,0.75-0.48,0.26-0.48C148.47,161.12,148.04,161.6,148.52,161.6L148.52,161.6z"/>
	</g>
</g>
<g>
	<g>
		<path class="st5" d="M151.06,161.85c0.27,0,0.77-0.41,0.28-0.41C151.07,161.44,150.57,161.85,151.06,161.85L151.06,161.85z"/>
	</g>
</g>
<g>
	<g>
		<path class="st5" d="M151.33,161.83c0.25,0,0.78-0.37,0.29-0.37C151.38,161.46,150.85,161.83,151.33,161.83L151.33,161.83z"/>
	</g>
</g>
<g>
	<g>
		<path class="st5" d="M153.03,162.41c0.27,0,0.77-0.4,0.28-0.4C153.05,162.01,152.55,162.41,153.03,162.41L153.03,162.41z"/>
	</g>
</g>
<g>
	<g>
		<path class="st5" d="M152.53,163.38c0,0.09,0,0.19,0,0.28c-0.01,0.03,0,0.06,0.02,0.09c0.01,0.03,0.03,0.05,0.06,0.07
			c0.03,0.02,0.07,0.03,0.11,0.03c0.04,0.01,0.09,0.01,0.13,0c0.03-0.01,0.07-0.01,0.1-0.02c0.06-0.02,0.12-0.04,0.18-0.08
			c0.02-0.02,0.04-0.04,0.06-0.05c0.03-0.03,0.06-0.07,0.07-0.12c0-0.09,0-0.19,0-0.28c0.01-0.03,0-0.06-0.02-0.09
			c-0.01-0.03-0.03-0.05-0.06-0.07c-0.03-0.02-0.07-0.03-0.11-0.03c-0.04-0.01-0.09-0.01-0.13,0c-0.03,0.01-0.07,0.01-0.1,0.02
			c-0.06,0.02-0.12,0.04-0.18,0.08c-0.02,0.02-0.04,0.04-0.06,0.05C152.56,163.29,152.54,163.33,152.53,163.38L152.53,163.38z"/>
	</g>
</g>
<g>
	<g>
		<path class="st5" d="M145.13,182.78c0.3,0,0.76-0.46,0.27-0.46C145.1,182.32,144.64,182.78,145.13,182.78L145.13,182.78z"/>
	</g>
</g>
<g>
	<g>
		<path class="st5" d="M143.71,182.17c0.25,0,0.78-0.37,0.29-0.37C143.75,181.8,143.22,182.17,143.71,182.17L143.71,182.17z"/>
	</g>
</g>
<g>
	<g>
		<path class="st5" d="M134.4,180.8c0.3,0,0.76-0.46,0.27-0.46C134.36,180.34,133.91,180.8,134.4,180.8L134.4,180.8z"/>
	</g>
</g>
<g>
	<g>
		<path class="st5" d="M127.23,179.3c0.15,0,0.82-0.28,0.47-0.28C127.56,179.02,126.89,179.3,127.23,179.3L127.23,179.3z"/>
	</g>
</g>
<g>
	<g>
		<path class="st5" d="M123.08,178.49c0.23,0,0.78-0.35,0.3-0.35C123.15,178.14,122.6,178.49,123.08,178.49L123.08,178.49z"/>
	</g>
</g>
<g>
	<g>
		<path class="st5" d="M134.79,186.22c0.42,0,0.55-0.56,0.06-0.56C134.42,185.66,134.29,186.22,134.79,186.22L134.79,186.22z"/>
	</g>
</g>
<g>
	<g>
		<path class="st5" d="M136.37,187.58c0.31,0,0.76-0.46,0.27-0.46C136.34,187.12,135.89,187.58,136.37,187.58L136.37,187.58z"/>
	</g>
</g>
<g>
	<g>
		<path class="st5" d="M134.68,192.68c0.33,0,0.75-0.49,0.26-0.49C134.62,192.19,134.2,192.68,134.68,192.68L134.68,192.68z"/>
	</g>
</g>
<g>
	<g>
		<path class="st5" d="M136.59,191.49c0-0.09,0-0.19,0-0.28c-0.01-0.02-0.02-0.04-0.04-0.04c-0.03-0.01-0.05-0.02-0.09-0.02
			c-0.04,0-0.08,0-0.12,0c-0.05,0-0.1,0.01-0.14,0.03c-0.03,0.01-0.06,0.02-0.1,0.03c-0.05,0.02-0.1,0.04-0.15,0.08
			c-0.02,0.01-0.03,0.03-0.05,0.04c-0.02,0.02-0.04,0.05-0.03,0.08c0,0.09,0,0.19,0,0.28c0.01,0.02,0.02,0.04,0.04,0.04
			c0.03,0.01,0.05,0.02,0.09,0.02c0.04,0,0.08,0,0.12,0c0.05,0,0.1-0.01,0.14-0.03c0.03-0.01,0.06-0.02,0.1-0.03
			c0.05-0.02,0.1-0.04,0.15-0.08c0.02-0.01,0.03-0.03,0.05-0.04C136.58,191.55,136.59,191.52,136.59,191.49L136.59,191.49z"/>
	</g>
</g>
<g>
	<g>
		<path class="st5" d="M155.3,194.08c0.31,0,0.75-0.47,0.27-0.47C155.26,193.61,154.81,194.08,155.3,194.08L155.3,194.08z"/>
	</g>
</g>
<g>
	<g>
		<path class="st5" d="M74.21,54.76c0.24,0,0.78-0.35,0.3-0.35C74.28,54.41,73.73,54.76,74.21,54.76L74.21,54.76z"/>
	</g>
</g>
<g>
	<g>
		<path class="st5" d="M74.23,54.8c0.29,0,0.76-0.44,0.27-0.44C74.2,54.36,73.74,54.8,74.23,54.8L74.23,54.8z"/>
	</g>
</g>
<g>
	<g>
		<path class="st5" d="M73.2,54.86c0.42,0,0.55-0.55,0.06-0.55C72.84,54.31,72.71,54.86,73.2,54.86L73.2,54.86z"/>
	</g>
</g>
<g>
	<g>
		<path class="st5" d="M72.52,55.32c0.23,0,0.78-0.34,0.3-0.34C72.59,54.98,72.03,55.32,72.52,55.32L72.52,55.32z"/>
	</g>
</g>
<g>
	<g>
		<path class="st5" d="M73.28,59.25c0.16,0,0.82-0.31,0.47-0.31C73.59,58.95,72.93,59.25,73.28,59.25L73.28,59.25z"/>
	</g>
</g>
<g>
	<g>
		<path class="st5" d="M73.01,59.83c-0.09-0.09-0.19-0.19-0.28-0.28c-0.02-0.01-0.05-0.02-0.07-0.02c-0.04,0-0.07,0-0.11,0
			c-0.05,0-0.09,0.01-0.14,0.02c-0.05,0.01-0.1,0.02-0.14,0.04c-0.03,0.01-0.06,0.02-0.08,0.03c-0.04,0.02-0.08,0.04-0.12,0.07
			c-0.01,0.01-0.02,0.02-0.03,0.03c-0.01,0.02-0.01,0.04,0.01,0.05c0.09,0.09,0.19,0.19,0.28,0.28c0.02,0.01,0.05,0.02,0.07,0.02
			c0.04,0,0.07,0,0.11,0c0.05,0,0.09-0.01,0.14-0.02c0.05-0.01,0.1-0.02,0.14-0.04c0.03-0.01,0.06-0.02,0.08-0.03
			c0.04-0.02,0.08-0.04,0.12-0.07c0.01-0.01,0.02-0.02,0.03-0.03C73.04,59.86,73.03,59.84,73.01,59.83L73.01,59.83z"/>
	</g>
</g>
<g>
	<g>
		<path class="st5" d="M55.59,67.82c0.32,0,0.75-0.49,0.26-0.49C55.52,67.33,55.1,67.82,55.59,67.82L55.59,67.82z"/>
	</g>
</g>
<g>
	<g>
		<path class="st5" d="M54.92,64.33c0.16,0,0.82-0.3,0.47-0.3C55.23,64.04,54.57,64.33,54.92,64.33L54.92,64.33z"/>
	</g>
</g>
<g>
	<g>
		<path class="st5" d="M69.7,66.38c0.28,0,0.77-0.43,0.28-0.43C69.7,65.95,69.22,66.38,69.7,66.38L69.7,66.38z"/>
	</g>
</g>
<g>
	<g>
		<path class="st5" d="M62.74,78c0.4,0,0.57-0.5,0.07-0.5C62.41,77.5,62.25,78,62.74,78L62.74,78z"/>
	</g>
</g>
<g>
	<g>
		<path class="st5" d="M62.91,86.96c0.09,0,0.19,0,0.28,0c0.05,0,0.09-0.01,0.14-0.02c0.05-0.01,0.1-0.02,0.14-0.04
			c0.04-0.01,0.08-0.03,0.12-0.06c0.03-0.02,0.06-0.04,0.08-0.07c0.01-0.02,0.02-0.03,0.03-0.05c0.01-0.03,0-0.06-0.02-0.08
			c-0.02-0.01-0.03-0.02-0.05-0.03c-0.05-0.02-0.1-0.02-0.14-0.02c-0.09,0-0.19,0-0.28,0c-0.05,0-0.09,0.01-0.14,0.02
			c-0.05,0.01-0.1,0.02-0.14,0.04c-0.04,0.01-0.08,0.03-0.12,0.06c-0.03,0.02-0.06,0.04-0.08,0.07c-0.01,0.02-0.02,0.03-0.03,0.05
			c-0.01,0.03,0,0.06,0.02,0.08c0.02,0.01,0.03,0.02,0.05,0.03C62.82,86.96,62.86,86.97,62.91,86.96L62.91,86.96z"/>
	</g>
</g>
<g>
	<g>
		<path class="st5" d="M64.33,90.65c0.25,0,0.78-0.38,0.29-0.38C64.37,90.27,63.84,90.65,64.33,90.65L64.33,90.65z"/>
	</g>
</g>
<g>
	<g>
		<path class="st5" d="M64.04,83.28c0.23,0,0.78-0.34,0.3-0.34C64.12,82.94,63.56,83.28,64.04,83.28L64.04,83.28z"/>
	</g>
</g>
<g>
	<g>
		<path class="st5" d="M81.11,71.81c0.42,0,0.55-0.56,0.06-0.56C80.75,71.25,80.62,71.81,81.11,71.81L81.11,71.81z"/>
	</g>
</g>
<g>
	<g>
		<path class="st5" d="M78.45,72.28c0.25,0,0.78-0.38,0.29-0.38C78.49,71.91,77.97,72.28,78.45,72.28L78.45,72.28z"/>
	</g>
</g>
<g>
	<g>
		<path class="st5" d="M49.07,72.55c0.22,0,0.78-0.33,0.3-0.33C49.15,72.21,48.59,72.55,49.07,72.55L49.07,72.55z"/>
	</g>
</g>
<g>
	<g>
		<path class="st5" d="M48.42,74.51c0.16,0,0.82-0.31,0.47-0.31C48.73,74.2,48.07,74.51,48.42,74.51L48.42,74.51z"/>
	</g>
</g>
<g>
	<g>
		<path class="st5" d="M98.9,55.68c0.4,0,0.56-0.51,0.07-0.51C98.57,55.18,98.41,55.68,98.9,55.68L98.9,55.68z"/>
	</g>
</g>
<g>
	<g>
		<path class="st5" d="M99.75,55.7c0.09,0,0.19,0,0.28,0c0.05,0,0.1-0.01,0.15-0.03c0.05-0.01,0.09-0.04,0.13-0.07
			c0.04-0.02,0.06-0.06,0.08-0.09c0.02-0.03,0.04-0.06,0.04-0.1c0-0.02,0-0.05-0.01-0.07c-0.01-0.05-0.04-0.09-0.08-0.11
			c-0.02-0.01-0.05-0.02-0.07-0.04c-0.06-0.02-0.12-0.03-0.18-0.02c-0.09,0-0.19,0-0.28,0c-0.05,0-0.1,0.01-0.15,0.03
			c-0.05,0.01-0.09,0.04-0.13,0.07c-0.04,0.02-0.06,0.06-0.08,0.09c-0.02,0.03-0.04,0.06-0.04,0.1c0,0.02,0,0.05,0.01,0.07
			c0.01,0.05,0.04,0.09,0.08,0.11c0.02,0.01,0.05,0.02,0.07,0.04C99.63,55.7,99.69,55.7,99.75,55.7L99.75,55.7z"/>
	</g>
</g>
<g>
	<g>
		<path class="st5" d="M101.33,55.59c0.22,0,0.78-0.33,0.3-0.33C101.41,55.26,100.85,55.59,101.33,55.59L101.33,55.59z"/>
	</g>
</g>
<g>
	<g>
		<path class="st5" d="M97.38,61.28c0.27,0,0.77-0.4,0.28-0.4C97.4,60.88,96.9,61.28,97.38,61.28L97.38,61.28z"/>
	</g>
</g>
<g>
	<g>
		<path class="st5" d="M93.99,62.1c0.23,0,0.78-0.35,0.3-0.35C94.05,61.75,93.5,62.1,93.99,62.1L93.99,62.1z"/>
	</g>
</g>
<g>
	<g>
		<path class="st5" d="M100.21,64.95c0.26,0,0.77-0.39,0.29-0.39C100.24,64.56,99.72,64.95,100.21,64.95L100.21,64.95z"/>
	</g>
</g>
<g>
	<g>
		<path class="st5" d="M95.13,66.68c0.31,0,0.76-0.46,0.27-0.46C95.09,66.22,94.64,66.68,95.13,66.68L95.13,66.68z"/>
	</g>
</g>
<g>
	<g>
		<path class="st5" d="M92.77,73.37c0.15,0,0.82-0.29,0.47-0.29C93.09,73.08,92.42,73.37,92.77,73.37L92.77,73.37z"/>
	</g>
</g>
<g>
	<g>
		<path class="st5" d="M96.53,73.99c0.26,0,0.77-0.39,0.29-0.39C96.56,73.59,96.05,73.99,96.53,73.99L96.53,73.99z"/>
	</g>
</g>
<g>
	<g>
		<path class="st5" d="M102.09,73.08c0.14,0,0.81-0.28,0.48-0.28C102.42,72.81,101.75,73.08,102.09,73.08L102.09,73.08z"/>
	</g>
</g>
<g>
	<g>
		<path class="st5" d="M105.68,72.35c0.41,0,0.56-0.51,0.07-0.51C105.35,71.84,105.19,72.35,105.68,72.35L105.68,72.35z"/>
	</g>
</g>
<g>
	<g>
		<path class="st5" d="M107.1,69.81c0.41,0,0.56-0.51,0.07-0.51C106.76,69.3,106.6,69.81,107.1,69.81L107.1,69.81z"/>
	</g>
</g>
<g>
	<g>
		<path class="st5" d="M106.7,66.92c0.25,0,0.78-0.38,0.29-0.38C106.74,66.54,106.22,66.92,106.7,66.92L106.7,66.92z"/>
	</g>
</g>
<g>
	<g>
		<path class="st5" d="M101.24,76.19c0.14,0,0.81-0.28,0.47-0.28C101.57,75.91,100.9,76.19,101.24,76.19L101.24,76.19z"/>
	</g>
</g>
<g>
	<g>
		<path class="st5" d="M116.87,53.91c0.23,0,0.78-0.35,0.3-0.35C116.94,53.56,116.38,53.91,116.87,53.91L116.87,53.91z"/>
	</g>
</g>
<g>
	<g>
		<path class="st5" d="M117.63,54.16c0.14,0,0.82-0.28,0.47-0.28C117.96,53.88,117.29,54.16,117.63,54.16L117.63,54.16z"/>
	</g>
</g>
<g>
	<g>
		<path class="st5" d="M120.26,60.7c0.25,0,0.78-0.38,0.29-0.38C120.3,60.33,119.78,60.7,120.26,60.7L120.26,60.7z"/>
	</g>
</g>
<g>
	<g>
		<path class="st5" d="M118.01,59.89c0.3,0,0.76-0.45,0.27-0.45C117.98,59.44,117.52,59.89,118.01,59.89L118.01,59.89z"/>
	</g>
</g>
<g>
	<g>
		<path class="st5" d="M119.89,66.87c0.14,0,0.81-0.28,0.47-0.28C120.22,66.59,119.55,66.87,119.89,66.87L119.89,66.87z"/>
	</g>
</g>
<g>
	<g>
		<path class="st5" d="M111.79,65.82c0.29,0,0.76-0.43,0.28-0.43C111.78,65.38,111.31,65.82,111.79,65.82L111.79,65.82z"/>
	</g>
</g>
<g>
	<g>
		<path class="st5" d="M111.79,64.94c0.26,0,0.77-0.39,0.29-0.39C111.82,64.56,111.3,64.94,111.79,64.94L111.79,64.94z"/>
	</g>
</g>
<g>
	<g>
		<path class="st5" d="M119.42,71.73c0.26,0,0.77-0.4,0.28-0.4C119.44,71.33,118.93,71.73,119.42,71.73L119.42,71.73z"/>
	</g>
</g>
<g>
	<g>
		<path class="st5" d="M116.78,70.55c0.15,0,0.82-0.29,0.47-0.29C117.1,70.26,116.43,70.55,116.78,70.55L116.78,70.55z"/>
	</g>
</g>
<g>
	<g>
		<path class="st5" d="M118.19,73.65c0.15,0,0.82-0.28,0.47-0.28C118.52,73.37,117.85,73.65,118.19,73.65L118.19,73.65z"/>
	</g>
</g>
<g>
	<g>
		<path class="st5" d="M110.28,79.58c0.14,0,0.81-0.28,0.48-0.28C110.61,79.3,109.94,79.58,110.28,79.58L110.28,79.58z"/>
	</g>
</g>
<g>
	<g>
		<path class="st5" d="M104.72,82.16c0.24,0,0.78-0.36,0.3-0.36C104.78,81.8,104.24,82.16,104.72,82.16L104.72,82.16z"/>
	</g>
</g>
<g>
	<g>
		<path class="st5" d="M102.47,88.39c0.26,0,0.77-0.39,0.29-0.39C102.49,88,101.98,88.39,102.47,88.39L102.47,88.39z"/>
	</g>
</g>
<g>
	<g>
		<path class="st5" d="M103.32,88.12c0.27,0,0.77-0.41,0.28-0.41C103.33,87.71,102.83,88.12,103.32,88.12L103.32,88.12z"/>
	</g>
</g>
<g>
	<g>
		<path class="st5" d="M105.58,88.71c0.3,0,0.76-0.46,0.27-0.46C105.55,88.25,105.09,88.71,105.58,88.71L105.58,88.71z"/>
	</g>
</g>
<g>
	<g>
		<path class="st5" d="M109.53,90.36c0.25,0,0.78-0.37,0.29-0.37C109.57,89.99,109.04,90.36,109.53,90.36L109.53,90.36z"/>
	</g>
</g>
<g>
	<g>
		<path class="st5" d="M118,88.65c0.22,0,0.78-0.34,0.3-0.34C118.07,88.31,117.51,88.65,118,88.65L118,88.65z"/>
	</g>
</g>
<g>
	<g>
		<path class="st5" d="M152.48,108.21c0.31,0,0.75-0.47,0.27-0.47C152.43,107.74,151.99,108.21,152.48,108.21L152.48,108.21z"/>
	</g>
</g>
<g>
	<g>
		<path class="st5" d="M152.47,105.91c0.26,0,0.77-0.39,0.29-0.39C152.49,105.52,151.98,105.91,152.47,105.91L152.47,105.91z"/>
	</g>
</g>
<g>
	<g>
		<path class="st5" d="M153.14,110.2c0.4,0,0.57-0.5,0.07-0.5C152.81,109.7,152.65,110.2,153.14,110.2L153.14,110.2z"/>
	</g>
</g>
<g>
	<g>
		<path class="st5" d="M152.76,114.7c0.31,0,0.75-0.47,0.27-0.47C152.72,114.23,152.27,114.7,152.76,114.7L152.76,114.7z"/>
	</g>
</g>
<g>
	<g>
		<path class="st5" d="M152.09,127.9c0.16,0,0.82-0.31,0.47-0.31C152.4,127.59,151.74,127.9,152.09,127.9L152.09,127.9z"/>
	</g>
</g>
<g>
	<g>
		<path class="st5" d="M153.31,127.08c0.24,0,0.78-0.36,0.29-0.36C153.36,126.72,152.83,127.08,153.31,127.08L153.31,127.08z"/>
	</g>
</g>
<g>
	<g>
		<path class="st5" d="M177.16,126.61c0.42,0,0.55-0.55,0.06-0.55C176.8,126.06,176.67,126.61,177.16,126.61L177.16,126.61z"/>
	</g>
</g>
<g>
	<g>
		<path class="st5" d="M178.75,126.01c0.32,0,0.75-0.48,0.26-0.48C178.7,125.53,178.26,126.01,178.75,126.01L178.75,126.01z"/>
	</g>
</g>
<g>
	<g>
		<path class="st5" d="M180.15,121.71c0.24,0,0.78-0.36,0.3-0.36C180.2,121.35,179.66,121.71,180.15,121.71L180.15,121.71z"/>
	</g>
</g>
<g>
	<g>
		<path class="st5" d="M174.33,115.59c0.42,0,0.55-0.55,0.06-0.55C173.97,115.04,173.84,115.59,174.33,115.59L174.33,115.59z"/>
	</g>
</g>
<g>
	<g>
		<path class="st5" d="M183.26,127.96c0.29,0,0.76-0.43,0.28-0.43C183.25,127.53,182.78,127.96,183.26,127.96L183.26,127.96z"/>
	</g>
</g>
<g>
	<g>
		<path class="st5" d="M183.73,128.75c0.16,0,0.82-0.31,0.47-0.31C184.04,128.44,183.38,128.75,183.73,128.75L183.73,128.75z"/>
	</g>
</g>
<g>
	<g>
		<path class="st5" d="M199.07,132.42c0.21,0,0.79-0.32,0.31-0.32C199.16,132.11,198.59,132.42,199.07,132.42L199.07,132.42z"/>
	</g>
</g>
<g>
	<g>
		<path class="st5" d="M199.65,126.01c0.32,0,0.75-0.49,0.26-0.49C199.59,125.52,199.17,126.01,199.65,126.01L199.65,126.01z"/>
	</g>
</g>
<g>
	<g>
		<path class="st5" d="M199.18,125.73c0.4,0,0.57-0.5,0.07-0.5C198.86,125.24,198.69,125.73,199.18,125.73L199.18,125.73z"/>
	</g>
</g>
<g>
	<g>
		<path class="st5" d="M189.1,126.76c0.15,0,0.82-0.28,0.47-0.28C189.43,126.48,188.76,126.76,189.1,126.76L189.1,126.76z"/>
	</g>
</g>
<g>
	<g>
		<path class="st5" d="M192.77,127.33c0.16,0,0.82-0.31,0.47-0.31C193.08,127.03,192.42,127.33,192.77,127.33L192.77,127.33z"/>
	</g>
</g>
<g>
	<g>
		<path class="st5" d="M192.41,127.45c0.42,0,0.55-0.55,0.06-0.55C192.05,126.91,191.92,127.45,192.41,127.45L192.41,127.45z"/>
	</g>
</g>
<g>
	<g>
		<path class="st5" d="M190.31,127.92c0.24,0,0.78-0.36,0.3-0.36C190.37,127.57,189.83,127.92,190.31,127.92L190.31,127.92z"/>
	</g>
</g>
<g>
	<g>
		<path class="st5" d="M191.36,135.23c0.14,0,0.81-0.27,0.48-0.27C191.69,134.95,191.02,135.23,191.36,135.23L191.36,135.23z"/>
	</g>
</g>
<g>
	<g>
		<path class="st5" d="M174.41,130.72c0.15,0,0.82-0.29,0.47-0.29C174.73,130.43,174.06,130.72,174.41,130.72L174.41,130.72z"/>
	</g>
</g>
<g>
	<g>
		<path class="st5" d="M200.88,113.88c0.41,0,0.56-0.52,0.07-0.52C200.54,113.36,200.39,113.88,200.88,113.88L200.88,113.88z"/>
	</g>
</g>
<g>
	<g>
		<path class="st5" d="M200.88,111.63c0.41,0,0.56-0.53,0.06-0.53C200.53,111.1,200.39,111.63,200.88,111.63L200.88,111.63z"/>
	</g>
</g>
<g>
	<g>
		<path class="st5" d="M199.93,110.73c0.28,0,0.77-0.42,0.28-0.42C199.93,110.3,199.44,110.73,199.93,110.73L199.93,110.73z"/>
	</g>
</g>
<g>
	<g>
		<path class="st5" d="M199.92,110.68c0.22,0,0.78-0.33,0.3-0.33C200,110.35,199.43,110.68,199.92,110.68L199.92,110.68z"/>
	</g>
</g>
<g>
	<g>
		<path class="st5" d="M128.65,135.8c0.15,0,0.82-0.29,0.47-0.29C128.97,135.51,128.3,135.8,128.65,135.8L128.65,135.8z"/>
	</g>
</g>
<g>
	<g>
		<path class="st5" d="M129.86,135.82c0.38,0,0.75,0,1.13,0c0.09,0,0.2-0.03,0.28-0.06c0.06-0.02,0.16-0.06,0.2-0.12
			c0.1-0.13-0.09-0.14-0.18-0.14c-0.38,0-0.75,0-1.13,0c-0.09,0-0.2,0.03-0.28,0.06c-0.06,0.02-0.16,0.06-0.2,0.12
			C129.58,135.8,129.77,135.82,129.86,135.82L129.86,135.82z"/>
	</g>
</g>
<g>
	<g>
		<path class="st5" d="M132.7,135.88c0.3,0,0.76-0.46,0.27-0.46C132.67,135.43,132.21,135.88,132.7,135.88L132.7,135.88z"/>
	</g>
</g>
<g>
	<g>
		<path class="st5" d="M90.31,107.58c0.24,0,0.78-0.35,0.3-0.35C90.38,107.23,89.83,107.58,90.31,107.58L90.31,107.58z"/>
	</g>
</g>
<g>
	<g>
		<path class="st5" d="M88.82,106.43c0.16,0,0.82-0.3,0.47-0.3C89.13,106.13,88.46,106.43,88.82,106.43L88.82,106.43z"/>
	</g>
</g>
<g>
	<g>
		<path class="st5" d="M87.77,106.74c0.24,0,0.78-0.36,0.3-0.36C87.83,106.38,87.29,106.74,87.77,106.74L87.77,106.74z"/>
	</g>
</g>
<g>
	<g>
		<path class="st5" d="M87.69,106.71c0.15,0,0.82-0.29,0.47-0.29C88,106.41,87.34,106.71,87.69,106.71L87.69,106.71z"/>
	</g>
</g>
<g>
	<g>
		<path class="st5" d="M64.32,74.53c0.23,0,0.78-0.34,0.3-0.34C64.4,74.19,63.84,74.53,64.32,74.53L64.32,74.53z"/>
	</g>
</g>
<g>
	<g>
		<path class="st5" d="M57.66,74.34c0.42,0,0.55-0.54,0.06-0.54C57.31,73.8,57.17,74.34,57.66,74.34L57.66,74.34z"/>
	</g>
</g>
<g>
	<g>
		<path class="st5" d="M86.27,124.78c0.14,0,0.82-0.28,0.47-0.28C86.6,124.5,85.93,124.78,86.27,124.78L86.27,124.78z"/>
	</g>
</g>
<g>
	<g>
		<path class="st5" d="M86.37,124.85c0.29,0,0.76-0.43,0.28-0.43C86.36,124.42,85.88,124.85,86.37,124.85L86.37,124.85z"/>
	</g>
</g>
<g>
	<g>
		<path class="st5" d="M46.93,177.17c0.42,0,0.55-0.55,0.06-0.55C46.57,176.62,46.44,177.17,46.93,177.17L46.93,177.17z"/>
	</g>
</g>
<g>
	<g>
		<path class="st5" d="M46.64,179.42c0.41,0,0.56-0.52,0.07-0.52C46.3,178.9,46.15,179.42,46.64,179.42L46.64,179.42z"/>
	</g>
</g>
<g>
	<g>
		<path class="st5" d="M95.51,175.18c0.41,0,0.56-0.52,0.07-0.52C95.17,174.66,95.02,175.18,95.51,175.18L95.51,175.18z"/>
	</g>
</g>
<g>
	<g>
		<path class="st5" d="M95.31,175.06c0.14,0,0.81-0.28,0.47-0.28C95.64,174.78,94.97,175.06,95.31,175.06L95.31,175.06z"/>
	</g>
</g>
</svg>
