<?xml version="1.0" encoding="utf-8"?>
<!-- Generator: Adobe Illustrator 25.2.3, SVG Export Plug-In . SVG Version: 6.00 Build 0)  -->
<svg version="1.1" id="레이어_1" xmlns="http://www.w3.org/2000/svg" xmlns:xlink="http://www.w3.org/1999/xlink" x="0px"
	 y="0px" viewBox="0 0 250 250" style="enable-background:new 0 0 250 250;" xml:space="preserve">
<style type="text/css">
	.st0{fill:#E60012;}
	.st1{fill:#1D2088;}
	.st2{fill:#CEC600;}
	.st3{font-family:'HancomHoonminjeongeumV';}
	.st4{font-size:23px;}
	.st5{fill:#FFFFFF;}
</style>
<g>
	<g>
		<path class="st0" d="M107.49,63.4c0.11,0.5,0.21,1,0.3,1.5c0.03,0.19,0.38,1.87,0.09,0.42c0.2,0.98,0.2,2.05,0.25,3.04
			c0.15,3.13,2.65,6.15,6,6c3.12-0.14,6.16-2.64,6-6c-0.13-2.74-0.49-5.47-1.06-8.15c-0.65-3.07-4.42-5.15-7.38-4.19
			C108.44,57.07,106.79,60.1,107.49,63.4L107.49,63.4z"/>
	</g>
</g>
<g>
	<g>
		<path class="st0" d="M69.84,86.18c0.19,0.13,1,0.74,0.18,0.11c-0.77-0.59-0.14-0.09,0.02,0.04c0.41,0.36,0.8,0.73,1.17,1.13
			c0.15,0.16,0.29,0.32,0.43,0.48c0.71,0.83-0.01-0.24-0.23-0.33c0.32,0.12,0.72,1.07,0.89,1.36c1.61,2.69,5.47,3.92,8.21,2.15
			c2.71-1.75,3.88-5.33,2.15-8.21c-1.73-2.9-4.01-5.18-6.76-7.1c-1.22-0.85-3.24-0.99-4.62-0.6c-1.39,0.38-2.9,1.46-3.59,2.76
			C66.07,81.04,67.09,84.25,69.84,86.18L69.84,86.18z"/>
	</g>
</g>
<g>
	<g>
		<path class="st0" d="M52.17,121.75c1.96,0.95,4.09,1.62,6.3,1.42c1.62-0.15,3.06-0.57,4.24-1.76c1.04-1.04,1.82-2.75,1.76-4.24
			c-0.07-1.55-0.58-3.16-1.76-4.24c-1.11-1.02-2.68-1.9-4.24-1.76c-0.45,0.04-0.89,0.04-1.35-0.01c0.53,0.07,1.06,0.14,1.6,0.21
			c-0.53-0.08-1.02-0.2-1.52-0.4c0.48,0.2,0.96,0.4,1.43,0.6c-0.14-0.06-0.27-0.12-0.41-0.19c-1.47-0.71-3-1.05-4.62-0.6
			c-1.39,0.38-2.9,1.46-3.59,2.76c-0.74,1.39-1.1,3.08-0.6,4.62C49.88,119.59,50.78,121.08,52.17,121.75L52.17,121.75z"/>
	</g>
</g>
<g>
	<g>
		<path class="st0" d="M66.05,159.37c3.22-0.99,6.34-2.4,9.12-4.3c2.59-1.77,3.99-5.35,2.15-8.21c-1.66-2.57-5.44-4.05-8.21-2.15
			c-1.11,0.76-2.25,1.45-3.46,2.04c-0.24,0.12-0.48,0.24-0.73,0.35c0.62-0.25,0.6-0.24-0.05,0.02c-0.67,0.24-1.34,0.48-2.03,0.69
			c-3,0.92-5.21,4.24-4.19,7.38C59.65,158.2,62.84,160.35,66.05,159.37L66.05,159.37z"/>
	</g>
</g>
<g>
	<g>
		<path class="st0" d="M102.32,184.33c2.89-1.69,5.43-4.25,6.86-7.3c0.7-1.49,1.06-2.98,0.6-4.62c-0.38-1.39-1.46-2.9-2.76-3.59
			c-2.66-1.41-6.78-0.88-8.21,2.15c-0.23,0.49-0.48,0.96-0.77,1.41c-0.13,0.2-0.72,1-0.09,0.18c0.65-0.84-0.03,0.01-0.15,0.14
			c-0.33,0.36-0.69,0.67-1.04,1c-0.52,0.48,1.18-0.78,0.32-0.25c-0.28,0.17-0.54,0.35-0.82,0.51c-2.71,1.58-3.91,5.49-2.15,8.21
			C95.88,184.91,99.42,186.02,102.32,184.33L102.32,184.33z"/>
	</g>
</g>
<g>
	<g>
		<path class="st0" d="M163.3,168c-1.91-2.31-4.15-4.22-6.58-5.97c-1.19-0.86-3.26-0.98-4.62-0.6c-1.39,0.38-2.9,1.46-3.59,2.76
			c-1.64,3.11-0.57,6.24,2.15,8.21c0.17,0.13,1.06,0.79,0.28,0.19c-0.73-0.56-0.03-0.01,0.11,0.11c0.47,0.39,0.93,0.8,1.38,1.23
			c0.85,0.81,1.64,1.67,2.38,2.57c0.92,1.12,2.85,1.76,4.24,1.76c1.47,0,3.23-0.65,4.24-1.76c1.05-1.14,1.83-2.64,1.76-4.24
			C164.98,170.57,164.36,169.29,163.3,168L163.3,168z"/>
	</g>
</g>
<g>
	<g>
		<path class="st0" d="M189.17,128.38c-3.7-1.75-7.3-2.74-11.35-3.25c-3.13-0.4-6.13,3.04-6,6c0.16,3.59,2.65,5.58,6,6
			c-1.2-0.15,0.45,0.11,0.7,0.16c0.66,0.14,1.32,0.3,1.97,0.49c0.56,0.16,1.11,0.34,1.65,0.55c0.27,0.1,0.54,0.2,0.81,0.31
			c-0.54-0.22-0.49-0.19,0.16,0.11c2.83,1.34,6.61,0.88,8.21-2.15C192.74,133.92,192.2,129.81,189.17,128.38L189.17,128.38z"/>
	</g>
</g>
<g>
	<g>
		<path class="st0" d="M184.3,85.15c-2.7,1.16-5.17,2.99-7.15,5.15c-2.12,2.31-2.46,6.23,0,8.49c2.31,2.12,6.22,2.47,8.49,0
			c0.39-0.43,0.8-0.84,1.23-1.23c0.19-0.17,0.39-0.33,0.59-0.5c0.55-0.5-1.21,0.82-0.14,0.12c0.98-0.63,1.97-1.2,3.04-1.66
			c1.28-0.55,2.41-2.31,2.76-3.59c0.4-1.44,0.22-3.35-0.6-4.62c-0.83-1.28-2.06-2.41-3.59-2.76
			C187.24,84.17,185.87,84.48,184.3,85.15L184.3,85.15z"/>
	</g>
</g>
<g>
	<g>
		<path class="st0" d="M155.89,58.73c-1.51,2.8-2.79,5.71-3.94,8.68c-1.13,2.93,1.25,6.71,4.19,7.38c3.44,0.78,6.17-1.05,7.38-4.19
			c0.08-0.21,0.93-2.25,0.4-1.03c0.21-0.49,0.43-0.97,0.65-1.46c0.52-1.13,1.09-2.23,1.68-3.33c1.49-2.76,0.78-6.66-2.15-8.21
			C161.3,55.11,157.47,55.78,155.89,58.73L155.89,58.73z"/>
	</g>
</g>
<g>
	<g>
		<path class="st1" d="M133.13,59.73c0,1.29,0,2.58,0,3.87c0,3.14,2.76,6.15,6,6c3.25-0.15,6-2.64,6-6c0-1.29,0-2.58,0-3.87
			c0-3.14-2.76-6.15-6-6C135.88,53.87,133.13,56.36,133.13,59.73L133.13,59.73z"/>
	</g>
</g>
<g>
	<g>
		<path class="st1" d="M84.25,70.24c1.03,2.6,2.36,4.97,4.48,6.84c1.2,1.06,2.61,1.76,4.24,1.76c1.47,0,3.23-0.65,4.24-1.76
			c2.09-2.28,2.51-6.26,0-8.49c-0.55-0.49-1.04-1.01-1.49-1.59c0.31,0.4,0.63,0.81,0.94,1.21c-0.54-0.74-0.99-1.51-1.35-2.36
			c0.2,0.48,0.4,0.96,0.6,1.43c-0.03-0.08-0.07-0.17-0.1-0.25c-0.59-1.5-1.31-2.74-2.76-3.59c-1.29-0.75-3.18-1.07-4.62-0.6
			c-1.45,0.47-2.85,1.37-3.59,2.76C84.15,66.96,83.67,68.77,84.25,70.24L84.25,70.24z"/>
	</g>
</g>
<g>
	<g>
		<path class="st1" d="M56.7,107.17c3.17-0.36,6.34-0.71,9.5-1.07c3.11-0.35,6.16-2.51,6-6c-0.13-2.95-2.66-6.37-6-6
			c-3.17,0.36-6.34,0.71-9.5,1.07c-3.11,0.35-6.16,2.51-6,6C50.83,104.13,53.36,107.55,56.7,107.17L56.7,107.17z"/>
	</g>
</g>
<g>
	<g>
		<path class="st1" d="M57.94,145.1c2.11-0.58,4.23-1.16,6.34-1.74c3.03-0.83,5.19-4.3,4.19-7.38c-1-3.09-4.14-5.08-7.38-4.19
			c-2.11,0.58-4.23,1.16-6.34,1.74c-3.03,0.83-5.19,4.3-4.19,7.38C51.56,144,54.7,145.99,57.94,145.1L57.94,145.1z"/>
	</g>
</g>
<g>
	<g>
		<path class="st1" d="M88.27,173.72c-0.02-0.28-0.03-0.55-0.02-0.83c0.04-0.67,0.01-0.55-0.1,0.36c-0.12-0.16,0.24-1.05,0.28-1.21
			c0.25-1.22-0.61,0.97,0.01-0.1c0.19-0.33,1.24-1.8,0.2-0.51c1.03-1.28,1.76-2.53,1.76-4.24c0-1.47-0.65-3.23-1.76-4.24
			c-2.18-2-6.38-2.61-8.49,0c-2.5,3.11-4.08,6.7-3.88,10.77c0.16,3.13,2.65,6.15,6,6C85.39,179.58,88.44,177.07,88.27,173.72
			L88.27,173.72z"/>
	</g>
</g>
<g>
	<g>
		<path class="st1" d="M140.99,178.38c-0.07-0.34-0.12-0.68-0.17-1.02c0.07,0.53,0.14,1.06,0.21,1.6c-0.14-1.15-0.15-2.29-0.04-3.45
			c0.14-1.45-0.77-3.25-1.76-4.24c-1.04-1.04-2.75-1.82-4.24-1.76c-1.55,0.07-3.16,0.58-4.24,1.76c-1.13,1.23-1.6,2.58-1.76,4.24
			c-0.19,2.04,0.04,4.06,0.43,6.07c0.27,1.41,1.56,2.88,2.76,3.59c1.29,0.75,3.18,1.07,4.62,0.6c1.45-0.47,2.85-1.37,3.59-2.76
			C141.17,181.51,141.3,180.04,140.99,178.38L140.99,178.38z"/>
	</g>
</g>
<g>
	<g>
		<path class="st1" d="M182.38,148.64c-1.87-0.54-3.74-1.08-5.62-1.62c-3.01-0.87-6.67,1.06-7.38,4.19
			c-0.73,3.2,0.96,6.45,4.19,7.38c1.87,0.54,3.74,1.08,5.62,1.62c3.01,0.87,6.67-1.06,7.38-4.19
			C187.3,152.82,185.6,149.57,182.38,148.64L182.38,148.64z"/>
	</g>
</g>
<g>
	<g>
		<path class="st1" d="M192.52,107.2c-2.1-0.4-4.22-0.64-6.36-0.49c-1.61,0.12-3.07,0.59-4.24,1.76c-1.04,1.04-1.82,2.75-1.76,4.24
			c0.14,3.05,2.65,6.25,6,6c1.23-0.09,2.45-0.06,3.67,0.09c-0.53-0.07-1.06-0.14-1.6-0.21c0.37,0.05,0.73,0.11,1.09,0.18
			c1.61,0.31,3.17,0.25,4.62-0.6c1.24-0.73,2.43-2.16,2.76-3.59C197.38,111.62,195.81,107.82,192.52,107.2L192.52,107.2z"/>
	</g>
</g>
<g>
	<g>
		<path class="st1" d="M182.59,64.7c-1.93-0.03-3.99,0.53-5.6,1.61c-2.1,1.41-3.36,3.2-4.26,5.55c-0.53,1.37-0.11,3.41,0.6,4.62
			c0.73,1.24,2.16,2.43,3.59,2.76c1.54,0.35,3.26,0.27,4.62-0.6c1.39-0.89,2.17-2.05,2.76-3.59c0.03-0.07,0.05-0.14,0.08-0.21
			c-0.2,0.48-0.4,0.96-0.6,1.43c0.13-0.28,0.27-0.54,0.45-0.79c-0.31,0.4-0.63,0.81-0.94,1.21c0.24-0.31,0.49-0.57,0.79-0.82
			c-0.4,0.31-0.81,0.63-1.21,0.94c0.31-0.23,0.63-0.42,0.98-0.59c-0.48,0.2-0.96,0.4-1.43,0.6c0.36-0.15,0.71-0.25,1.09-0.31
			c-0.53,0.07-1.06,0.14-1.6,0.21c0.23-0.02,0.45-0.03,0.68-0.03c3.14,0.05,6.14-2.79,6-6C188.44,67.41,185.95,64.75,182.59,64.7
			L182.59,64.7z"/>
	</g>
</g>
<circle class="st2" cx="125" cy="120.03" r="35.28"/>
<text transform="matrix(1 0 0 1 72.8699 100.1087)" class="st3 st4">무형</text>
<text transform="matrix(1 0 0 1 92.9788 125)" class="st5 st3 st4">문화재</text>
<text transform="matrix(1 0 0 1 127.5932 152.8097)" class="st3 st4">관리원</text>
</svg>
