<?xml version="1.0" encoding="utf-8"?>
<!-- Generator: Adobe Illustrator 25.2.3, SVG Export Plug-In . SVG Version: 6.00 Build 0)  -->
<svg version="1.1" id="레이어_1" xmlns="http://www.w3.org/2000/svg" xmlns:xlink="http://www.w3.org/1999/xlink" x="0px"
	 y="0px" viewBox="0 0 250 250" style="enable-background:new 0 0 250 250;" xml:space="preserve">
<style type="text/css">
	.st0{fill:none;stroke:#000000;stroke-width:0.25;stroke-miterlimit:10;}
	.st1{fill:none;stroke:#000000;stroke-width:2.5;stroke-miterlimit:10;}
	.st2{font-family:'Gulim';}
	.st3{font-size:21px;}
</style>
<rect x="60.89" y="60.89" class="st0" width="32.05" height="32.05"/>
<rect x="92.95" y="125" class="st0" width="32.05" height="32.05"/>
<rect x="125" y="125" class="st0" width="32.05" height="32.05"/>
<rect x="125" y="157.05" class="st0" width="32.05" height="32.05"/>
<rect x="92.95" y="157.05" class="st0" width="32.05" height="32.05"/>
<rect x="60.89" y="157.05" class="st0" width="32.05" height="32.05"/>
<rect x="125" y="92.95" class="st0" width="32.05" height="32.05"/>
<rect x="157.05" y="92.95" class="st0" width="32.05" height="32.05"/>
<rect x="157.05" y="60.89" class="st0" width="32.05" height="32.05"/>
<rect x="125" y="60.89" class="st0" width="32.05" height="32.05"/>
<rect x="92.95" y="60.89" class="st0" width="32.05" height="32.05"/>
<rect x="92.95" y="92.95" class="st0" width="32.05" height="32.05"/>
<rect x="60.89" y="92.95" class="st0" width="32.05" height="32.05"/>
<rect x="60.89" y="125" class="st0" width="32.05" height="32.05"/>
<rect x="157.05" y="157.05" class="st0" width="32.05" height="32.05"/>
<rect x="157.05" y="125" class="st0" width="32.05" height="32.05"/>
<polyline class="st1" points="60.89,125 92.95,125 92.95,157.05 60.89,157.05 60.89,189.11 125,189.11 "/>
<rect x="157.05" y="157.05" class="st1" width="32.05" height="32.05"/>
<polyline class="st1" points="60.89,92.95 92.95,62.04 125,92.95 157.05,125 157.05,60.89 189.11,60.89 189.11,92.95 "/>
<text transform="matrix(1 0 0 1 66.5344 115.7399)" class="st2 st3">내</text>
<text transform="matrix(1 0 0 1 130.9267 147.6485)" class="st2 st3">미</text>
<text transform="matrix(1 0 0 1 98.5231 147.6486)" class="st2 st3">꾸</text>
<text transform="matrix(1 0 0 1 99.2004 115.7396)" class="st2 st3">집</text>
<text transform="matrix(1 0 0 1 163.601 147.6945)" class="st2 st3">기</text>
</svg>
